<svg width="100" height="100" viewBox="0 0 100 100" fill="none" xmlns="http://www.w3.org/2000/svg">
<g clip-path="url(#clip0_63_833)">
<g filter="url(#filter0_d_63_833)">
<path d="M73.5519 76.7928C63.2659 86.4128 47.5778 89.4468 33.5918 82.5648C19.4577 75.5348 11.6137 59.6247 14.6477 44.2327C17.6817 28.9146 29.6697 18.3326 43.5818 16.0385C45.7278 15.6685 47.3558 18.0366 46.2458 19.9606C45.2098 21.8106 44.3218 23.8086 43.5818 25.8806C37.2918 44.3807 47.2078 64.4347 65.7079 70.7248C67.7799 71.4648 69.9259 71.9088 72.0719 72.2788C74.2179 72.5748 75.1059 75.2388 73.5519 76.7928Z" fill="url(#paint0_linear_63_833)"/>
</g>
<path d="M77.1454 49.7314C77.1539 49.2472 77.7771 49.0566 78.0549 49.4534L80.0894 52.3589C80.2136 52.5363 80.438 52.6136 80.6451 52.5502L84.0371 51.5132C84.5003 51.3716 84.8741 51.9054 84.5826 52.2923L82.448 55.125C82.3176 55.298 82.3135 55.5352 82.4377 55.7127L84.4722 58.6182C84.75 59.0149 84.3578 59.5354 83.8998 59.3777L80.5461 58.223C80.3413 58.1524 80.1144 58.2218 79.984 58.3948L77.8494 61.2275C77.5579 61.6144 76.9417 61.4022 76.9502 60.9179L77.0121 57.3715C77.0159 57.1549 76.8797 56.9605 76.6749 56.89L73.3212 55.7352C72.8632 55.5775 72.8746 54.9259 73.3378 54.7843L76.7298 53.7473C76.9369 53.6839 77.0797 53.4944 77.0835 53.2779L77.1454 49.7314Z" fill="#8FE5F2"/>
<path d="M67.6175 24.0556C68.0491 24.2755 67.9471 24.9192 67.4687 24.9949L63.9654 25.5498C63.7515 25.5837 63.5837 25.7515 63.5498 25.9654L62.9949 29.4687C62.9192 29.9471 62.2755 30.0491 62.0556 29.6175L60.4453 26.4571C60.347 26.2641 60.1355 26.1564 59.9216 26.1903L56.4183 26.7452C55.9399 26.8209 55.644 26.2403 55.9865 25.8978L58.4946 23.3897C58.6478 23.2365 58.6849 23.0021 58.5865 22.8091L56.9763 19.6488C56.7564 19.2172 57.2172 18.7564 57.6488 18.9763L60.8091 20.5866C61.0021 20.6849 61.2365 20.6478 61.3897 20.4946L63.8977 17.9865C64.2402 17.644 64.8209 17.9399 64.7451 18.4183L64.1903 21.9216C64.1564 22.1355 64.2641 22.347 64.4571 22.4453L67.6175 24.0556Z" fill="#8FE5F2"/>
<g filter="url(#filter1_f_63_833)">
<path d="M35.777 86.5461H95.732C95.732 86.5461 103.242 77.7261 95.912 67.6091C88.137 56.8781 75.357 65.7821 75.357 65.7821C75.357 65.7821 69.128 54.3621 58.227 57.4771C47.327 60.5911 46.807 70.1951 46.807 70.1951C46.807 70.1951 35.414 69.8281 33.597 76.7051C31.781 83.5841 35.777 86.5461 35.777 86.5461Z" fill="black" fill-opacity="0.266"/>
</g>
<path d="M35.777 86.5461H95.732C95.732 86.5461 103.242 77.7261 95.912 67.6091C88.137 56.8781 75.357 65.7821 75.357 65.7821C75.357 65.7821 69.128 54.3621 58.227 57.4771C47.327 60.5911 46.807 70.1951 46.807 70.1951C46.807 70.1951 35.414 69.8281 33.597 76.7051C31.781 83.5841 35.777 86.5461 35.777 86.5461Z" fill="url(#paint1_linear_63_833)"/>
</g>
<defs>
<filter id="filter0_d_63_833" x="12" y="14" width="64.3369" height="74.3" filterUnits="userSpaceOnUse" color-interpolation-filters="sRGB">
<feFlood flood-opacity="0" result="BackgroundImageFix"/>
<feColorMatrix in="SourceAlpha" type="matrix" values="0 0 0 0 0 0 0 0 0 0 0 0 0 0 0 0 0 0 127 0" result="hardAlpha"/>
<feOffset/>
<feGaussianBlur stdDeviation="1"/>
<feComposite in2="hardAlpha" operator="out"/>
<feColorMatrix type="matrix" values="0 0 0 0 0.278431 0 0 0 0 0.760784 0 0 0 0 0.917647 0 0 0 1 0"/>
<feBlend mode="normal" in2="BackgroundImageFix" result="effect1_dropShadow_63_833"/>
<feBlend mode="normal" in="SourceGraphic" in2="effect1_dropShadow_63_833" result="shape"/>
</filter>
<filter id="filter1_f_63_833" x="29.1238" y="52.9387" width="74" height="37.6074" filterUnits="userSpaceOnUse" color-interpolation-filters="sRGB">
<feFlood flood-opacity="0" result="BackgroundImageFix"/>
<feBlend mode="normal" in="SourceGraphic" in2="BackgroundImageFix" result="shape"/>
<feGaussianBlur stdDeviation="2" result="effect1_foregroundBlur_63_833"/>
</filter>
<linearGradient id="paint0_linear_63_833" x1="44.1685" y1="16" x2="44.1685" y2="86.3" gradientUnits="userSpaceOnUse">
<stop stop-color="#ACF2F5"/>
<stop offset="1" stop-color="#29B4E7"/>
</linearGradient>
<linearGradient id="paint1_linear_63_833" x1="64.6829" y1="57.0853" x2="64.7271" y2="86.1623" gradientUnits="userSpaceOnUse">
<stop stop-color="#76CDFF"/>
<stop offset="1" stop-color="#126F97"/>
</linearGradient>
<clipPath id="clip0_63_833">
<rect width="100" height="100" fill="white"/>
</clipPath>
</defs>
</svg>
