<svg width="100" height="100" viewBox="0 0 100 100" fill="none" xmlns="http://www.w3.org/2000/svg">
<g clip-path="url(#clip0_63_850)">
<g filter="url(#filter0_d_63_850)">
<path d="M73.5519 76.7928C63.2659 86.4128 47.5778 89.4468 33.5918 82.5648C19.4577 75.5348 11.6137 59.6247 14.6477 44.2327C17.6817 28.9146 29.6697 18.3326 43.5818 16.0385C45.7278 15.6685 47.3558 18.0366 46.2458 19.9606C45.2098 21.8106 44.3218 23.8086 43.5818 25.8806C37.2918 44.3807 47.2078 64.4347 65.7079 70.7248C67.7799 71.4648 69.9259 71.9088 72.0719 72.2788C74.2179 72.5748 75.1059 75.2388 73.5519 76.7928Z" fill="url(#paint0_linear_63_850)"/>
</g>
<path d="M77.1454 49.7316C77.1539 49.2473 77.7771 49.0567 78.0549 49.4535L80.0894 52.359C80.2136 52.5364 80.438 52.6137 80.6451 52.5504L84.0371 51.5133C84.5003 51.3717 84.8741 51.9056 84.5826 52.2924L82.448 55.1251C82.3176 55.2981 82.3135 55.5354 82.4377 55.7128L84.4722 58.6183C84.75 59.0151 84.3578 59.5355 83.8998 59.3779L80.5461 58.2231C80.3413 58.1526 80.1144 58.2219 79.984 58.3949L77.8494 61.2277C77.5579 61.6145 76.9417 61.4023 76.9502 60.918L77.0121 57.3716C77.0159 57.155 76.8797 56.9606 76.6749 56.8901L73.3212 55.7353C72.8632 55.5777 72.8746 54.926 73.3378 54.7844L76.7298 53.7474C76.9369 53.6841 77.0797 53.4946 77.0835 53.278L77.1454 49.7316Z" fill="#8FE5F2"/>
<path d="M67.6175 24.0557C68.0491 24.2756 67.9471 24.9193 67.4687 24.9951L63.9654 25.5499C63.7515 25.5838 63.5837 25.7516 63.5498 25.9656L62.9949 29.4688C62.9192 29.9472 62.2755 30.0492 62.0556 29.6176L60.4453 26.4573C60.347 26.2643 60.1355 26.1565 59.9216 26.1904L56.4183 26.7453C55.9399 26.8211 55.644 26.2404 55.9865 25.8979L58.4946 23.3898C58.6478 23.2366 58.6849 23.0023 58.5865 22.8093L56.9763 19.6489C56.7564 19.2173 57.2172 18.7565 57.6488 18.9764L60.8091 20.5867C61.0021 20.685 61.2365 20.6479 61.3897 20.4947L63.8977 17.9867C64.2402 17.6442 64.8209 17.94 64.7451 18.4184L64.1903 21.9217C64.1564 22.1357 64.2641 22.3471 64.4571 22.4454L67.6175 24.0557Z" fill="#8FE5F2"/>
<g filter="url(#filter1_f_63_850)">
<path d="M15.5769 87.046H91.7319C91.7319 87.046 101.272 75.842 91.9619 62.992C82.0849 49.362 65.8519 60.672 65.8519 60.672C65.8519 60.672 57.9399 46.166 44.0929 50.122C30.2469 54.078 29.5869 66.276 29.5869 66.276C29.5869 66.276 15.1149 65.81 12.8069 74.546C10.4989 83.283 15.5769 87.046 15.5769 87.046Z" fill="black" fill-opacity="0.331"/>
</g>
<path d="M15.085 87.538H91.24C91.24 87.538 100.78 76.334 91.47 63.484C81.593 49.854 65.36 61.164 65.36 61.164C65.36 61.164 57.448 46.658 43.601 50.614C29.755 54.57 29.095 66.768 29.095 66.768C29.095 66.768 14.623 66.302 12.315 75.038C10.007 83.775 15.084 87.538 15.084 87.538H15.085Z" fill="url(#paint1_linear_63_850)"/>
</g>
<defs>
<filter id="filter0_d_63_850" x="12" y="14" width="64.3369" height="74.3" filterUnits="userSpaceOnUse" color-interpolation-filters="sRGB">
<feFlood flood-opacity="0" result="BackgroundImageFix"/>
<feColorMatrix in="SourceAlpha" type="matrix" values="0 0 0 0 0 0 0 0 0 0 0 0 0 0 0 0 0 0 127 0" result="hardAlpha"/>
<feOffset/>
<feGaussianBlur stdDeviation="1"/>
<feComposite in2="hardAlpha" operator="out"/>
<feColorMatrix type="matrix" values="0 0 0 0 0.278431 0 0 0 0 0.760784 0 0 0 0 0.917647 0 0 0 1 0"/>
<feBlend mode="normal" in2="BackgroundImageFix" result="effect1_dropShadow_63_850"/>
<feBlend mode="normal" in="SourceGraphic" in2="effect1_dropShadow_63_850" result="shape"/>
</filter>
<filter id="filter1_f_63_850" x="8.20532" y="45.4385" width="91.8357" height="45.6077" filterUnits="userSpaceOnUse" color-interpolation-filters="sRGB">
<feFlood flood-opacity="0" result="BackgroundImageFix"/>
<feBlend mode="normal" in="SourceGraphic" in2="BackgroundImageFix" result="shape"/>
<feGaussianBlur stdDeviation="2" result="effect1_foregroundBlur_63_850"/>
</filter>
<linearGradient id="paint0_linear_63_850" x1="44.1685" y1="16" x2="44.1685" y2="86.3" gradientUnits="userSpaceOnUse">
<stop stop-color="#ACF2F5"/>
<stop offset="1" stop-color="#29B4E7"/>
</linearGradient>
<linearGradient id="paint1_linear_63_850" x1="51.801" y1="50.1166" x2="51.857" y2="87.0505" gradientUnits="userSpaceOnUse">
<stop stop-color="#76CDFF"/>
<stop offset="1" stop-color="#126F97"/>
</linearGradient>
<clipPath id="clip0_63_850">
<rect width="100" height="100" fill="white"/>
</clipPath>
</defs>
</svg>
