<svg width="100" height="100" viewBox="0 0 100 100" fill="none" xmlns="http://www.w3.org/2000/svg">
<g clip-path="url(#clip0_63_43)">
<path d="M6.40189 67.876H96.0689C96.0689 67.876 106.275 54.419 92.4489 41.853C78.8759 29.517 64.8899 39.121 64.8899 39.121C64.8899 39.121 56.2809 19.744 39.9779 24.4C23.6749 29.059 22.3679 42.537 22.3679 42.537C22.3679 42.537 5.85989 42.873 3.14189 53.16C0.423889 63.447 6.40189 67.876 6.40189 67.876Z" fill="url(#paint0_linear_63_43)"/>
<path d="M3.92691 82.046H93.5939C93.5939 82.046 104.826 68.854 93.8639 53.725C82.2339 37.676 63.1219 50.993 63.1219 50.993C63.1219 50.993 53.8059 33.913 37.5029 38.572C21.1999 43.231 20.4239 57.592 20.4239 57.592C20.4239 57.592 3.38391 57.043 0.666911 67.33C-2.05009 77.617 3.92691 82.046 3.92691 82.046Z" fill="url(#paint1_linear_63_43)"/>
</g>
<defs>
<linearGradient id="paint0_linear_63_43" x1="50.8896" y1="24.0866" x2="49.3581" y2="68.3698" gradientUnits="userSpaceOnUse">
<stop stop-color="#D2D2D2"/>
<stop offset="1" stop-color="#565656"/>
</linearGradient>
<linearGradient id="paint1_linear_63_43" x1="3.37612" y1="59.9099" x2="93.7567" y2="59.9099" gradientUnits="userSpaceOnUse">
<stop stop-color="#F1F1F1"/>
<stop offset="1" stop-color="#9D9D9D"/>
</linearGradient>
<clipPath id="clip0_63_43">
<rect width="100" height="100" fill="white"/>
</clipPath>
</defs>
</svg>
