<svg xmlns="http://www.w3.org/2000/svg" xmlns:xlink="http://www.w3.org/1999/xlink" xml:space="preserve" width="512" height="512"><defs><linearGradient id="a"><stop offset="0" stop-color="#5fbcd3"/><stop offset="1" stop-color="#95d2e3"/></linearGradient><linearGradient xlink:href="#a" id="b" x1=".45" x2="511.55" y1="122.78" y2="122.78" gradientUnits="userSpaceOnUse"/><linearGradient xlink:href="#a" id="c" x1=".45" x2="250.06" y1="211.93" y2="211.93" gradientUnits="userSpaceOnUse"/><linearGradient xlink:href="#a" id="d" x1=".45" x2="250.06" y1="301.07" y2="301.07" gradientUnits="userSpaceOnUse"/><linearGradient xlink:href="#a" id="e" x1=".45" x2="511.55" y1="390.22" y2="390.22" gradientUnits="userSpaceOnUse"/><linearGradient id="g" x1="261.94" x2="511.55" y1="211.93" y2="211.93" gradientUnits="userSpaceOnUse"><stop offset="0" stop-color="#95d2e3"/><stop offset="1" stop-color="#5fbcd3"/></linearGradient><linearGradient id="h" x1="261.94" x2="511.55" y1="301.07" y2="301.07" gradientUnits="userSpaceOnUse"><stop offset="0" stop-color="#95d2e3"/><stop offset="1" stop-color="#5fbcd3"/></linearGradient></defs><g style="paint-order:stroke fill markers"><g fill="#0cf" stroke-linecap="round" stroke-miterlimit="10" stroke-width="35.658"><path stroke="url(#b)" d="M18.279 122.78H493.72" style="paint-order:stroke fill markers"/><g stroke-linejoin="round"><path stroke="url(#c)" d="M18.279 211.93H232.23" style="paint-order:stroke fill markers"/><path stroke="url(#d)" d="M18.279 301.07H232.23" style="paint-order:stroke fill markers"/><path stroke="url(#e)" d="M18.279 390.22H493.72" style="paint-order:stroke fill markers"/><path stroke="url(#g)" d="M279.77 211.93h213.95" style="paint-order:stroke fill markers"/><path stroke="url(#h)" d="M279.77 301.07h213.95" style="paint-order:stroke fill markers"/></g></g><path fill="#fff" stroke="#ff5f5f" stroke-linecap="round" stroke-linejoin="round" stroke-width="50" d="M305.13 451.38h147.66a13.862 13.862 0 0 0 12.203-20.434l-73.826-137.11c-5.237-9.721-19.178-9.721-24.415 0l-73.826 137.11a13.862 13.862 0 0 0 12.203 20.434z"/><path fill="#2893ea" d="M415.12 385.7h-21.633l15.607-15.306a6.026 6.026 0 0 0-8.497-8.497l-15.607 15.306V355.57a6.026 6.026 0 0 0-12.052 0v21.633l-15.306-15.306a6.026 6.026 0 0 0-8.496 8.497l15.306 15.306h-21.633a6.026 6.026 0 0 0 0 12.052h21.633l-15.306 15.306a6.026 6.026 0 0 0 0 8.497 6.03 6.03 0 0 0 4.278 1.747 6.03 6.03 0 0 0 4.218-1.747l15.306-15.306v21.633a6.026 6.026 0 0 0 12.052 0v-21.633l15.306 15.607a6.03 6.03 0 0 0 4.219 1.747 6.03 6.03 0 0 0 4.58-1.747 6.026 6.026 0 0 0 0-8.497l-15.608-15.607h21.633a6.026 6.026 0 0 0 0-12.052" class="cls-1"/></g></svg>