<svg width="100" height="100" viewBox="0 0 100 100" fill="none" xmlns="http://www.w3.org/2000/svg">
<g clip-path="url(#clip0_63_667)">
<path d="M6.40189 44.626H96.0689C96.0689 44.626 106.275 31.169 92.4489 18.603C78.8759 6.26703 64.8899 15.871 64.8899 15.871C64.8899 15.871 56.2809 -3.50597 39.9779 1.15003C23.6749 5.80903 22.3679 19.287 22.3679 19.287C22.3679 19.287 5.85989 19.623 3.14189 29.91C0.423889 40.197 6.40189 44.626 6.40189 44.626Z" fill="url(#paint0_linear_63_667)"/>
<path d="M3.92691 58.796H93.5939C93.5939 58.796 104.826 45.604 93.8639 30.475C82.2339 14.426 63.1219 27.743 63.1219 27.743C63.1219 27.743 53.8059 10.663 37.5029 15.322C21.1999 19.981 20.4239 34.342 20.4239 34.342C20.4239 34.342 3.38391 33.793 0.666911 44.08C-2.05009 54.367 3.92691 58.796 3.92691 58.796Z" fill="url(#paint1_linear_63_667)"/>
<path d="M10.8191 67.105L13.5091 63.114" stroke="url(#paint2_linear_63_667)" stroke-width="2.5" stroke-linecap="round" stroke-linejoin="round"/>
<path d="M46.4031 67.105L49.0931 63.114" stroke="url(#paint3_linear_63_667)" stroke-width="2.5" stroke-linecap="round" stroke-linejoin="round"/>
<path d="M43.0952 83.242L45.7852 79.251" stroke="url(#paint4_linear_63_667)" stroke-width="2.5" stroke-linecap="round" stroke-linejoin="round"/>
<path d="M12.8982 83.242L15.5882 79.251" stroke="url(#paint5_linear_63_667)" stroke-width="2.5" stroke-linecap="round" stroke-linejoin="round"/>
<path d="M77.74 83.242L80.43 79.251" stroke="url(#paint6_linear_63_667)" stroke-width="2.5" stroke-linecap="round" stroke-linejoin="round"/>
<path d="M81.988 67.105L84.678 63.114" stroke="url(#paint7_linear_63_667)" stroke-width="2.5" stroke-linecap="round" stroke-linejoin="round"/>
<path d="M62.0042 76.211L64.6941 72.22" stroke="url(#paint8_linear_63_667)" stroke-width="2.5" stroke-linecap="round" stroke-linejoin="round"/>
<path d="M26.6851 76.211L29.3751 72.22" stroke="url(#paint9_linear_63_667)" stroke-width="2.5" stroke-linecap="round" stroke-linejoin="round"/>
</g>
<defs>
<linearGradient id="paint0_linear_63_667" x1="48.9415" y1="0.646528" x2="49.0083" y2="44.0541" gradientUnits="userSpaceOnUse">
<stop stop-color="#76CDFF"/>
<stop offset="1" stop-color="#126F97"/>
</linearGradient>
<linearGradient id="paint1_linear_63_667" x1="47.1579" y1="14.736" x2="47.2239" y2="58.223" gradientUnits="userSpaceOnUse">
<stop stop-color="#76CDFF"/>
<stop offset="1" stop-color="#126F97"/>
</linearGradient>
<linearGradient id="paint2_linear_63_667" x1="8.82309" y1="67.171" x2="13.5081" y2="67.171" gradientUnits="userSpaceOnUse">
<stop stop-color="#4D84CE"/>
<stop offset="1" stop-color="#94B7E9" stop-opacity="0.996"/>
</linearGradient>
<linearGradient id="paint3_linear_63_667" x1="44.4081" y1="67.171" x2="49.0931" y2="67.171" gradientUnits="userSpaceOnUse">
<stop stop-color="#4D84CE"/>
<stop offset="1" stop-color="#94B7E9" stop-opacity="0.996"/>
</linearGradient>
<linearGradient id="paint4_linear_63_667" x1="41.0992" y1="83.308" x2="45.7842" y2="83.308" gradientUnits="userSpaceOnUse">
<stop stop-color="#4D84CE"/>
<stop offset="1" stop-color="#94B7E9" stop-opacity="0.996"/>
</linearGradient>
<linearGradient id="paint5_linear_63_667" x1="10.9022" y1="83.308" x2="15.5872" y2="83.308" gradientUnits="userSpaceOnUse">
<stop stop-color="#4D84CE"/>
<stop offset="1" stop-color="#94B7E9" stop-opacity="0.996"/>
</linearGradient>
<linearGradient id="paint6_linear_63_667" x1="75.744" y1="83.308" x2="80.429" y2="83.308" gradientUnits="userSpaceOnUse">
<stop stop-color="#4D84CE"/>
<stop offset="1" stop-color="#94B7E9" stop-opacity="0.996"/>
</linearGradient>
<linearGradient id="paint7_linear_63_667" x1="79.993" y1="67.171" x2="84.678" y2="67.171" gradientUnits="userSpaceOnUse">
<stop stop-color="#4D84CE"/>
<stop offset="1" stop-color="#94B7E9" stop-opacity="0.996"/>
</linearGradient>
<linearGradient id="paint8_linear_63_667" x1="60.0092" y1="76.277" x2="64.6941" y2="76.277" gradientUnits="userSpaceOnUse">
<stop stop-color="#4D84CE"/>
<stop offset="1" stop-color="#94B7E9" stop-opacity="0.996"/>
</linearGradient>
<linearGradient id="paint9_linear_63_667" x1="24.6891" y1="76.277" x2="29.3741" y2="76.277" gradientUnits="userSpaceOnUse">
<stop stop-color="#4D84CE"/>
<stop offset="1" stop-color="#94B7E9" stop-opacity="0.996"/>
</linearGradient>
<clipPath id="clip0_63_667">
<rect width="100" height="100" fill="white"/>
</clipPath>
</defs>
</svg>
