<svg width="100" height="100" viewBox="0 0 100 100" fill="none" xmlns="http://www.w3.org/2000/svg">
<g clip-path="url(#clip0_63_94)">
<path d="M6.40189 44.626H96.0689C96.0689 44.626 106.275 31.169 92.4489 18.603C78.8759 6.26703 64.8899 15.871 64.8899 15.871C64.8899 15.871 56.2809 -3.50597 39.9779 1.15003C23.6749 5.80903 22.3679 19.287 22.3679 19.287C22.3679 19.287 5.85989 19.623 3.14189 29.91C0.423889 40.197 6.40189 44.626 6.40189 44.626Z" fill="url(#paint0_linear_63_94)"/>
<path d="M3.92691 58.796H93.5939C93.5939 58.796 104.826 45.604 93.8639 30.475C82.2339 14.426 63.1219 27.743 63.1219 27.743C63.1219 27.743 53.8059 10.663 37.5029 15.322C21.1999 19.981 20.4239 34.342 20.4239 34.342C20.4239 34.342 3.38391 33.793 0.666911 44.08C-2.05009 54.367 3.92691 58.796 3.92691 58.796Z" fill="url(#paint1_linear_63_94)"/>
<path d="M10.8191 67.105L13.5091 63.114" stroke="url(#paint2_linear_63_94)" stroke-width="2.5" stroke-linecap="round" stroke-linejoin="round"/>
<path d="M28.6111 67.105L31.3011 63.114" stroke="url(#paint3_linear_63_94)" stroke-width="2.5" stroke-linecap="round" stroke-linejoin="round"/>
<path d="M46.4031 67.105L49.0931 63.114" stroke="url(#paint4_linear_63_94)" stroke-width="2.5" stroke-linecap="round" stroke-linejoin="round"/>
<path d="M64.196 67.105L66.886 63.114" stroke="url(#paint5_linear_63_94)" stroke-width="2.5" stroke-linecap="round" stroke-linejoin="round"/>
<path d="M81.988 67.105L84.678 63.114" stroke="url(#paint6_linear_63_94)" stroke-width="2.5" stroke-linecap="round" stroke-linejoin="round"/>
<path d="M68.3872 75.679L71.0772 71.688" stroke="url(#paint7_linear_63_94)" stroke-width="2.5" stroke-linecap="round" stroke-linejoin="round"/>
<path d="M52.27 75.679L54.96 71.688" stroke="url(#paint8_linear_63_94)" stroke-width="2.5" stroke-linecap="round" stroke-linejoin="round"/>
<path d="M36.1531 75.679L38.8431 71.688" stroke="url(#paint9_linear_63_94)" stroke-width="2.5" stroke-linecap="round" stroke-linejoin="round"/>
<path d="M20.0361 75.679L22.7261 71.688" stroke="url(#paint10_linear_63_94)" stroke-width="2.5" stroke-linecap="round" stroke-linejoin="round"/>
<path d="M25.2361 85.5369L27.9261 81.5459" stroke="url(#paint11_linear_63_94)" stroke-width="2.5" stroke-linecap="round" stroke-linejoin="round"/>
<path d="M41.415 85.5369L44.105 81.5459" stroke="url(#paint12_linear_63_94)" stroke-width="2.5" stroke-linecap="round" stroke-linejoin="round"/>
<path d="M57.593 85.5369L60.283 81.5459" stroke="url(#paint13_linear_63_94)" stroke-width="2.5" stroke-linecap="round" stroke-linejoin="round"/>
<path d="M73.771 85.5369L76.461 81.5459" stroke="url(#paint14_linear_63_94)" stroke-width="2.5" stroke-linecap="round" stroke-linejoin="round"/>
<path d="M9.05811 85.5369L11.7481 81.5459" stroke="url(#paint15_linear_63_94)" stroke-width="2.5" stroke-linecap="round" stroke-linejoin="round"/>
</g>
<defs>
<linearGradient id="paint0_linear_63_94" x1="51.4009" y1="0.0760319" x2="50.5519" y2="44.271" gradientUnits="userSpaceOnUse">
<stop stop-color="#EBECED"/>
<stop offset="1" stop-color="#2F3133"/>
</linearGradient>
<linearGradient id="paint1_linear_63_94" x1="47.1579" y1="14.736" x2="47.2239" y2="58.223" gradientUnits="userSpaceOnUse">
<stop stop-color="#D6D8D9"/>
<stop offset="1" stop-color="#737B8E"/>
</linearGradient>
<linearGradient id="paint2_linear_63_94" x1="8.82309" y1="67.171" x2="13.5081" y2="67.171" gradientUnits="userSpaceOnUse">
<stop stop-color="#4D84CE"/>
<stop offset="1" stop-color="#94B7E9" stop-opacity="0.996"/>
</linearGradient>
<linearGradient id="paint3_linear_63_94" x1="26.6151" y1="67.171" x2="31.3001" y2="67.171" gradientUnits="userSpaceOnUse">
<stop stop-color="#4D84CE"/>
<stop offset="1" stop-color="#94B7E9" stop-opacity="0.996"/>
</linearGradient>
<linearGradient id="paint4_linear_63_94" x1="44.4081" y1="67.171" x2="49.0931" y2="67.171" gradientUnits="userSpaceOnUse">
<stop stop-color="#4D84CE"/>
<stop offset="1" stop-color="#94B7E9" stop-opacity="0.996"/>
</linearGradient>
<linearGradient id="paint5_linear_63_94" x1="62.2" y1="67.171" x2="66.885" y2="67.171" gradientUnits="userSpaceOnUse">
<stop stop-color="#4D84CE"/>
<stop offset="1" stop-color="#94B7E9" stop-opacity="0.996"/>
</linearGradient>
<linearGradient id="paint6_linear_63_94" x1="79.993" y1="67.171" x2="84.678" y2="67.171" gradientUnits="userSpaceOnUse">
<stop stop-color="#4D84CE"/>
<stop offset="1" stop-color="#94B7E9" stop-opacity="0.996"/>
</linearGradient>
<linearGradient id="paint7_linear_63_94" x1="66.3922" y1="75.745" x2="71.0772" y2="75.745" gradientUnits="userSpaceOnUse">
<stop stop-color="#4D84CE"/>
<stop offset="1" stop-color="#94B7E9" stop-opacity="0.996"/>
</linearGradient>
<linearGradient id="paint8_linear_63_94" x1="50.275" y1="75.745" x2="54.96" y2="75.745" gradientUnits="userSpaceOnUse">
<stop stop-color="#4D84CE"/>
<stop offset="1" stop-color="#94B7E9" stop-opacity="0.996"/>
</linearGradient>
<linearGradient id="paint9_linear_63_94" x1="34.1581" y1="75.745" x2="38.8431" y2="75.745" gradientUnits="userSpaceOnUse">
<stop stop-color="#4D84CE"/>
<stop offset="1" stop-color="#94B7E9" stop-opacity="0.996"/>
</linearGradient>
<linearGradient id="paint10_linear_63_94" x1="18.0411" y1="75.745" x2="22.7261" y2="75.745" gradientUnits="userSpaceOnUse">
<stop stop-color="#4D84CE"/>
<stop offset="1" stop-color="#94B7E9" stop-opacity="0.996"/>
</linearGradient>
<linearGradient id="paint11_linear_63_94" x1="23.2411" y1="85.6029" x2="27.9261" y2="85.6029" gradientUnits="userSpaceOnUse">
<stop stop-color="#4D84CE"/>
<stop offset="1" stop-color="#94B7E9" stop-opacity="0.996"/>
</linearGradient>
<linearGradient id="paint12_linear_63_94" x1="39.419" y1="85.6029" x2="44.104" y2="85.6029" gradientUnits="userSpaceOnUse">
<stop stop-color="#4D84CE"/>
<stop offset="1" stop-color="#94B7E9" stop-opacity="0.996"/>
</linearGradient>
<linearGradient id="paint13_linear_63_94" x1="55.597" y1="85.6029" x2="60.282" y2="85.6029" gradientUnits="userSpaceOnUse">
<stop stop-color="#4D84CE"/>
<stop offset="1" stop-color="#94B7E9" stop-opacity="0.996"/>
</linearGradient>
<linearGradient id="paint14_linear_63_94" x1="71.775" y1="85.6029" x2="76.46" y2="85.6029" gradientUnits="userSpaceOnUse">
<stop stop-color="#4D84CE"/>
<stop offset="1" stop-color="#94B7E9" stop-opacity="0.996"/>
</linearGradient>
<linearGradient id="paint15_linear_63_94" x1="7.06211" y1="85.6029" x2="11.7471" y2="85.6029" gradientUnits="userSpaceOnUse">
<stop stop-color="#4D84CE"/>
<stop offset="1" stop-color="#94B7E9" stop-opacity="0.996"/>
</linearGradient>
<clipPath id="clip0_63_94">
<rect width="100" height="100" fill="white"/>
</clipPath>
</defs>
</svg>
