<svg width="100" height="100" viewBox="0 0 100 100" fill="none" xmlns="http://www.w3.org/2000/svg">
<g clip-path="url(#clip0_63_595)">
<path d="M6.40189 44.626H96.0689C96.0689 44.626 106.275 31.169 92.4489 18.603C78.8759 6.26703 64.8899 15.871 64.8899 15.871C64.8899 15.871 56.2809 -3.50597 39.9779 1.15003C23.6749 5.80903 22.3679 19.287 22.3679 19.287C22.3679 19.287 5.85989 19.623 3.14189 29.91C0.423889 40.197 6.40189 44.626 6.40189 44.626Z" fill="url(#paint0_linear_63_595)"/>
<path d="M3.92691 58.796H93.5939C93.5939 58.796 104.826 45.604 93.8639 30.475C82.2339 14.426 63.1219 27.743 63.1219 27.743C63.1219 27.743 53.8059 10.663 37.5029 15.322C21.1999 19.981 20.4239 34.342 20.4239 34.342C20.4239 34.342 3.38391 33.793 0.666911 44.08C-2.05009 54.367 3.92691 58.796 3.92691 58.796Z" fill="url(#paint1_linear_63_595)"/>
<path d="M10.8191 67.105L13.5091 63.114" stroke="url(#paint2_linear_63_595)" stroke-width="2.5" stroke-linecap="round" stroke-linejoin="round"/>
<path d="M28.6111 67.105L31.3011 63.114" stroke="url(#paint3_linear_63_595)" stroke-width="2.5" stroke-linecap="round" stroke-linejoin="round"/>
<path d="M46.4031 67.105L49.0931 63.114" stroke="url(#paint4_linear_63_595)" stroke-width="2.5" stroke-linecap="round" stroke-linejoin="round"/>
<path d="M64.196 67.105L66.886 63.114" stroke="url(#paint5_linear_63_595)" stroke-width="2.5" stroke-linecap="round" stroke-linejoin="round"/>
<path d="M81.988 67.105L84.678 63.114" stroke="url(#paint6_linear_63_595)" stroke-width="2.5" stroke-linecap="round" stroke-linejoin="round"/>
<path d="M68.3872 75.679L71.0772 71.688" stroke="url(#paint7_linear_63_595)" stroke-width="2.5" stroke-linecap="round" stroke-linejoin="round"/>
<path d="M52.27 75.679L54.96 71.688" stroke="url(#paint8_linear_63_595)" stroke-width="2.5" stroke-linecap="round" stroke-linejoin="round"/>
<path d="M36.1531 75.679L38.8431 71.688" stroke="url(#paint9_linear_63_595)" stroke-width="2.5" stroke-linecap="round" stroke-linejoin="round"/>
<path d="M20.0361 75.679L22.7261 71.688" stroke="url(#paint10_linear_63_595)" stroke-width="2.5" stroke-linecap="round" stroke-linejoin="round"/>
<path d="M25.2361 85.5369L27.9261 81.5459" stroke="url(#paint11_linear_63_595)" stroke-width="2.5" stroke-linecap="round" stroke-linejoin="round"/>
<path d="M41.415 85.5369L44.105 81.5459" stroke="url(#paint12_linear_63_595)" stroke-width="2.5" stroke-linecap="round" stroke-linejoin="round"/>
<path d="M57.593 85.5369L60.283 81.5459" stroke="url(#paint13_linear_63_595)" stroke-width="2.5" stroke-linecap="round" stroke-linejoin="round"/>
<path d="M73.771 85.5369L76.461 81.5459" stroke="url(#paint14_linear_63_595)" stroke-width="2.5" stroke-linecap="round" stroke-linejoin="round"/>
<path d="M9.05811 85.5369L11.7481 81.5459" stroke="url(#paint15_linear_63_595)" stroke-width="2.5" stroke-linecap="round" stroke-linejoin="round"/>
<path d="M61.5201 67.3361H88.1411C88.5734 67.3358 88.9982 67.2234 89.3741 67.0099C89.7499 66.7964 90.064 66.489 90.2857 66.1179C90.5073 65.7468 90.6289 65.3245 90.6386 64.8923C90.6483 64.4602 90.5458 64.0328 90.3411 63.6521L77.0321 38.9341C76.0881 37.1821 73.5751 37.1821 72.6301 38.9341L59.3211 63.6521C59.1164 64.0328 59.0139 64.4602 59.0236 64.8923C59.0333 65.3245 59.1549 65.7468 59.3765 66.1179C59.5982 66.489 59.9123 66.7964 60.2881 67.0099C60.664 67.2234 61.0878 67.3358 61.5201 67.3361Z" fill="white" stroke="#FF5F5F" stroke-width="4.155" stroke-linecap="round" stroke-linejoin="round"/>
<path d="M80.7979 55.5869H77.2279L79.8029 53.0609C79.9648 52.8705 80.0491 52.6261 80.039 52.3764C80.0289 52.1267 79.9253 51.8899 79.7486 51.7132C79.572 51.5364 79.3353 51.4326 79.0856 51.4223C78.8359 51.4121 78.5915 51.4962 78.4009 51.6579L75.8249 54.1849V50.6139C75.8249 50.35 75.7201 50.0969 75.5335 49.9103C75.3469 49.7237 75.0938 49.6189 74.8299 49.6189C74.566 49.6189 74.3129 49.7237 74.1264 49.9103C73.9398 50.0969 73.8349 50.35 73.8349 50.6139V54.1839L71.3089 51.6579C71.1184 51.4962 70.874 51.4121 70.6243 51.4223C70.3746 51.4326 70.1379 51.5364 69.9612 51.7132C69.7846 51.8899 69.6809 52.1267 69.6709 52.3764C69.6608 52.6261 69.7451 52.8705 69.9069 53.0609L72.4329 55.5869H68.8629C68.599 55.5869 68.346 55.6917 68.1594 55.8783C67.9728 56.0649 67.8679 56.318 67.8679 56.5819C67.8679 56.8458 67.9728 57.0989 68.1594 57.2855C68.346 57.4721 68.599 57.5769 68.8629 57.5769H72.4329L69.9069 60.1029C69.7219 60.2893 69.6181 60.5413 69.6181 60.8039C69.6181 61.0665 69.7219 61.3185 69.9069 61.5049C70.095 61.6904 70.3488 61.7939 70.6129 61.7929C70.8736 61.7913 71.1233 61.6879 71.3089 61.5049L73.8359 58.9789V62.5489C73.8441 62.8072 73.9525 63.0522 74.1381 63.232C74.3237 63.4118 74.572 63.5124 74.8304 63.5124C75.0889 63.5124 75.3371 63.4118 75.5228 63.232C75.7084 63.0522 75.8167 62.8072 75.8249 62.5489V58.9789L78.3509 61.5549C78.5365 61.7379 78.7863 61.8413 79.0469 61.8429C79.186 61.8502 79.3252 61.8284 79.4553 61.7788C79.5855 61.7292 79.7039 61.6529 79.8029 61.5549C79.9883 61.3685 80.0923 61.1163 80.0923 60.8534C80.0923 60.5905 79.9883 60.3383 79.8029 60.1519L77.2269 57.5759H80.7979C81.0562 57.5677 81.3012 57.4593 81.481 57.2737C81.6608 57.0881 81.7614 56.8398 81.7614 56.5814C81.7614 56.323 81.6608 56.0747 81.481 55.8891C81.3012 55.7035 81.0562 55.5951 80.7979 55.5869Z" fill="#2893EA"/>
</g>
<defs>
<linearGradient id="paint0_linear_63_595" x1="48.9415" y1="0.646528" x2="49.0083" y2="44.0541" gradientUnits="userSpaceOnUse">
<stop stop-color="#65BAEB"/>
<stop offset="1" stop-color="#233C77"/>
</linearGradient>
<linearGradient id="paint1_linear_63_595" x1="47.1579" y1="14.736" x2="47.2239" y2="58.223" gradientUnits="userSpaceOnUse">
<stop stop-color="#65BAEB"/>
<stop offset="1" stop-color="#233C77"/>
</linearGradient>
<linearGradient id="paint2_linear_63_595" x1="8.82309" y1="67.171" x2="13.5081" y2="67.171" gradientUnits="userSpaceOnUse">
<stop stop-color="#4D84CE"/>
<stop offset="1" stop-color="#94B7E9" stop-opacity="0.996"/>
</linearGradient>
<linearGradient id="paint3_linear_63_595" x1="26.6151" y1="67.171" x2="31.3001" y2="67.171" gradientUnits="userSpaceOnUse">
<stop stop-color="#4D84CE"/>
<stop offset="1" stop-color="#94B7E9" stop-opacity="0.996"/>
</linearGradient>
<linearGradient id="paint4_linear_63_595" x1="44.4081" y1="67.171" x2="49.0931" y2="67.171" gradientUnits="userSpaceOnUse">
<stop stop-color="#4D84CE"/>
<stop offset="1" stop-color="#94B7E9" stop-opacity="0.996"/>
</linearGradient>
<linearGradient id="paint5_linear_63_595" x1="62.2" y1="67.171" x2="66.885" y2="67.171" gradientUnits="userSpaceOnUse">
<stop stop-color="#4D84CE"/>
<stop offset="1" stop-color="#94B7E9" stop-opacity="0.996"/>
</linearGradient>
<linearGradient id="paint6_linear_63_595" x1="79.993" y1="67.171" x2="84.678" y2="67.171" gradientUnits="userSpaceOnUse">
<stop stop-color="#4D84CE"/>
<stop offset="1" stop-color="#94B7E9" stop-opacity="0.996"/>
</linearGradient>
<linearGradient id="paint7_linear_63_595" x1="66.3922" y1="75.745" x2="71.0772" y2="75.745" gradientUnits="userSpaceOnUse">
<stop stop-color="#4D84CE"/>
<stop offset="1" stop-color="#94B7E9" stop-opacity="0.996"/>
</linearGradient>
<linearGradient id="paint8_linear_63_595" x1="50.275" y1="75.745" x2="54.96" y2="75.745" gradientUnits="userSpaceOnUse">
<stop stop-color="#4D84CE"/>
<stop offset="1" stop-color="#94B7E9" stop-opacity="0.996"/>
</linearGradient>
<linearGradient id="paint9_linear_63_595" x1="34.1581" y1="75.745" x2="38.8431" y2="75.745" gradientUnits="userSpaceOnUse">
<stop stop-color="#4D84CE"/>
<stop offset="1" stop-color="#94B7E9" stop-opacity="0.996"/>
</linearGradient>
<linearGradient id="paint10_linear_63_595" x1="18.0411" y1="75.745" x2="22.7261" y2="75.745" gradientUnits="userSpaceOnUse">
<stop stop-color="#4D84CE"/>
<stop offset="1" stop-color="#94B7E9" stop-opacity="0.996"/>
</linearGradient>
<linearGradient id="paint11_linear_63_595" x1="23.2411" y1="85.6029" x2="27.9261" y2="85.6029" gradientUnits="userSpaceOnUse">
<stop stop-color="#4D84CE"/>
<stop offset="1" stop-color="#94B7E9" stop-opacity="0.996"/>
</linearGradient>
<linearGradient id="paint12_linear_63_595" x1="39.419" y1="85.6029" x2="44.104" y2="85.6029" gradientUnits="userSpaceOnUse">
<stop stop-color="#4D84CE"/>
<stop offset="1" stop-color="#94B7E9" stop-opacity="0.996"/>
</linearGradient>
<linearGradient id="paint13_linear_63_595" x1="55.597" y1="85.6029" x2="60.282" y2="85.6029" gradientUnits="userSpaceOnUse">
<stop stop-color="#4D84CE"/>
<stop offset="1" stop-color="#94B7E9" stop-opacity="0.996"/>
</linearGradient>
<linearGradient id="paint14_linear_63_595" x1="71.775" y1="85.6029" x2="76.46" y2="85.6029" gradientUnits="userSpaceOnUse">
<stop stop-color="#4D84CE"/>
<stop offset="1" stop-color="#94B7E9" stop-opacity="0.996"/>
</linearGradient>
<linearGradient id="paint15_linear_63_595" x1="7.06211" y1="85.6029" x2="11.7471" y2="85.6029" gradientUnits="userSpaceOnUse">
<stop stop-color="#4D84CE"/>
<stop offset="1" stop-color="#94B7E9" stop-opacity="0.996"/>
</linearGradient>
<clipPath id="clip0_63_595">
<rect width="100" height="100" fill="white"/>
</clipPath>
</defs>
</svg>
