<svg width="100" height="100" viewBox="0 0 100 100" fill="none" xmlns="http://www.w3.org/2000/svg">
<g clip-path="url(#clip0_63_247)">
<path d="M6.40189 44.626H96.0689C96.0689 44.626 106.275 31.169 92.4489 18.603C78.8759 6.26703 64.8899 15.871 64.8899 15.871C64.8899 15.871 56.2809 -3.50597 39.9779 1.15003C23.6749 5.80903 22.3679 19.287 22.3679 19.287C22.3679 19.287 5.85989 19.623 3.14189 29.91C0.423889 40.197 6.40189 44.626 6.40189 44.626Z" fill="url(#paint0_linear_63_247)"/>
<path d="M3.92691 58.796H93.5939C93.5939 58.796 104.826 45.604 93.8639 30.475C82.2339 14.426 63.1219 27.743 63.1219 27.743C63.1219 27.743 53.8059 10.663 37.5029 15.322C21.1999 19.981 20.4239 34.342 20.4239 34.342C20.4239 34.342 3.38391 33.793 0.666911 44.08C-2.05009 54.367 3.92691 58.796 3.92691 58.796Z" fill="url(#paint1_linear_63_247)"/>
<path d="M18.222 70.5451L17.635 70.1821C17.7411 70.065 17.8627 69.9652 17.996 69.8861C18.0776 69.8305 18.1363 69.7436 18.1601 69.6433C18.184 69.5429 18.1712 69.4366 18.1244 69.3459C18.0776 69.2553 18.0004 69.1872 17.9083 69.1555C17.8163 69.1237 17.7164 69.1307 17.629 69.1751C17.3741 69.326 17.1481 69.5272 16.963 69.7681L15.441 68.8261L16.963 67.8861C17.1476 68.1273 17.3733 68.3289 17.628 68.4801C17.6718 68.5074 17.7201 68.525 17.7703 68.5319C17.8205 68.5389 17.8714 68.5351 17.9202 68.5207C17.9689 68.5062 18.0145 68.4816 18.0543 68.448C18.094 68.4145 18.1271 68.3728 18.1516 68.3254C18.1761 68.278 18.1915 68.2259 18.1969 68.172C18.2024 68.1181 18.1977 68.0637 18.1832 68.0117C18.1687 67.9598 18.1447 67.9116 18.1126 67.8697C18.0804 67.8279 18.0408 67.7933 17.996 67.7681C17.8624 67.6891 17.7404 67.5893 17.634 67.4721L18.222 67.1091C18.2676 67.0838 18.3079 67.0488 18.3405 67.0063C18.373 66.9638 18.3972 66.9147 18.4116 66.8619C18.426 66.8091 18.4302 66.7537 18.424 66.6992C18.4179 66.6446 18.4015 66.5919 18.3758 66.5443C18.3501 66.4967 18.3156 66.4551 18.2746 66.4222C18.2335 66.3892 18.1866 66.3655 18.1367 66.3525C18.0868 66.3395 18.035 66.3375 17.9843 66.3465C17.9337 66.3556 17.8853 66.3755 17.842 66.4051L17.255 66.7681C17.2129 66.6112 17.1927 66.4484 17.195 66.2851C17.197 66.1773 17.159 66.073 17.0892 65.9952C17.0195 65.9173 16.9237 65.8724 16.823 65.8701H16.816C16.7165 65.8701 16.621 65.9119 16.55 65.9865C16.4789 66.0611 16.438 66.1626 16.436 66.2691C16.4308 66.5806 16.4807 66.8904 16.583 67.1821L15.061 68.1221V66.2421C15.3485 66.1913 15.6244 66.0828 15.874 65.9221C15.9545 65.8636 16.011 65.7743 16.0318 65.6725C16.0526 65.5708 16.0362 65.4643 15.986 65.3752C15.9358 65.286 15.8555 65.2208 15.7617 65.1931C15.668 65.1653 15.5679 65.1772 15.482 65.2261C15.3511 65.3103 15.2092 65.3734 15.061 65.4131V64.7981C15.061 64.6902 15.021 64.5866 14.9497 64.5103C14.8785 64.434 14.7818 64.3911 14.681 64.3911C14.5803 64.3911 14.4836 64.434 14.4123 64.5103C14.3411 64.5866 14.301 64.6902 14.301 64.7981V65.4131C14.1529 65.3734 14.011 65.3103 13.88 65.2261C13.8373 65.1951 13.7892 65.1737 13.7385 65.1632C13.6878 65.1527 13.6357 65.1534 13.5852 65.1653C13.5348 65.1771 13.4872 65.1998 13.4452 65.232C13.4033 65.2643 13.3679 65.3053 13.3412 65.3526C13.3146 65.4 13.2972 65.4526 13.2902 65.5074C13.2831 65.5622 13.2866 65.6179 13.3003 65.6712C13.3141 65.7245 13.3378 65.7742 13.3701 65.8173C13.4023 65.8605 13.4425 65.8961 13.488 65.9221C13.7377 66.0828 14.0136 66.1913 14.301 66.2421V68.1221L12.779 67.1821C12.8815 66.8901 12.9314 66.58 12.926 66.2681C12.9241 66.1616 12.8832 66.0601 12.8121 65.9855C12.7411 65.9109 12.6455 65.8691 12.546 65.8691H12.539C12.4383 65.8711 12.3425 65.9158 12.2725 65.9934C12.2026 66.0711 12.1643 66.1752 12.166 66.2831C12.1685 66.4467 12.1483 66.6098 12.106 66.7671L11.52 66.4051C11.4328 66.3511 11.329 66.3365 11.2317 66.3645C11.1343 66.3924 11.0513 66.4606 11.0009 66.5541C10.9505 66.6476 10.9369 66.7587 10.963 66.863C10.9891 66.9672 11.0528 67.0561 11.14 67.1101L11.727 67.4721C11.6207 67.5893 11.4987 67.6891 11.365 67.7681C11.3203 67.7933 11.2807 67.8279 11.2485 67.8697C11.2164 67.9116 11.1924 67.9598 11.1779 68.0117C11.1634 68.0637 11.1587 68.1181 11.1642 68.172C11.1696 68.2259 11.185 68.278 11.2095 68.3254C11.234 68.3728 11.2671 68.4145 11.3068 68.448C11.3466 68.4816 11.3922 68.5062 11.4409 68.5207C11.4897 68.5351 11.5406 68.5389 11.5908 68.5319C11.641 68.525 11.6893 68.5074 11.733 68.4801C11.988 68.3292 12.214 68.128 12.399 67.8871L13.921 68.8271L12.399 69.7671C12.2141 69.5259 11.9881 69.3243 11.733 69.1731C11.6893 69.1459 11.641 69.1283 11.5908 69.1213C11.5406 69.1143 11.4897 69.1182 11.4409 69.1326C11.3922 69.147 11.3466 69.1717 11.3068 69.2052C11.2671 69.2387 11.234 69.2804 11.2095 69.3278C11.185 69.3752 11.1696 69.4274 11.1642 69.4812C11.1587 69.5351 11.1634 69.5896 11.1779 69.6415C11.1924 69.6934 11.2164 69.7417 11.2485 69.7835C11.2807 69.8253 11.3203 69.8599 11.365 69.8851C11.4986 69.9639 11.6206 70.0633 11.727 70.1801L11.14 70.5451C11.0945 70.5705 11.0542 70.6055 11.0216 70.6479C10.9891 70.6904 10.9649 70.7396 10.9505 70.7923C10.9361 70.8451 10.9319 70.9005 10.938 70.9551C10.9442 71.0097 10.9606 71.0623 10.9863 71.1099C11.012 71.1575 11.0464 71.1991 11.0875 71.232C11.1286 71.265 11.1755 71.2887 11.2254 71.3017C11.2753 71.3147 11.3271 71.3167 11.3778 71.3077C11.4284 71.2987 11.4768 71.2787 11.52 71.2491L12.107 70.8861C12.1489 71.0435 12.1688 71.2066 12.166 71.3701C12.1645 71.4778 12.203 71.5817 12.2729 71.6592C12.3428 71.7366 12.4385 71.7811 12.539 71.7831H12.546C12.6455 71.7831 12.7411 71.7414 12.8121 71.6667C12.8832 71.5921 12.9241 71.4907 12.926 71.3841C12.9313 71.0726 12.8814 70.7628 12.779 70.4711L14.301 69.5311V71.4111C14.0136 71.4619 13.7377 71.5705 13.488 71.7311C13.4425 71.7571 13.4023 71.7927 13.3701 71.8359C13.3378 71.879 13.3141 71.9288 13.3003 71.9821C13.2866 72.0353 13.2831 72.0911 13.2902 72.1458C13.2972 72.2006 13.3146 72.2533 13.3412 72.3006C13.3679 72.348 13.4033 72.389 13.4452 72.4212C13.4872 72.4534 13.5348 72.4761 13.5852 72.4879C13.6357 72.4998 13.6878 72.5005 13.7385 72.49C13.7892 72.4796 13.8373 72.4582 13.88 72.4271C14.0107 72.343 14.1522 72.28 14.3 72.2401V72.8551C14.3 72.9631 14.3401 73.0666 14.4113 73.1429C14.4826 73.2192 14.5793 73.2621 14.68 73.2621C14.7808 73.2621 14.8775 73.2192 14.9487 73.1429C15.02 73.0666 15.06 72.9631 15.06 72.8551V72.2401C15.2086 72.2798 15.3508 72.3428 15.482 72.4271C15.5682 72.4793 15.6699 72.4934 15.7656 72.4664C15.8613 72.4395 15.9435 72.3736 15.9945 72.2828C16.0456 72.192 16.0616 72.0835 16.0391 71.9803C16.0166 71.877 15.9574 71.7873 15.874 71.7301C15.6244 71.5695 15.3485 71.4609 15.061 71.4101V69.5301L16.583 70.4711C16.4802 70.763 16.43 71.0732 16.435 71.3851C16.437 71.4917 16.4779 71.5931 16.549 71.6677C16.62 71.7424 16.7155 71.7841 16.815 71.7841H16.823C16.873 71.7831 16.9223 71.7716 16.9681 71.7502C17.0138 71.7288 17.0552 71.698 17.0899 71.6594C17.1245 71.6209 17.1517 71.5754 17.17 71.5256C17.1882 71.4758 17.197 71.4226 17.196 71.3691C17.1933 71.2056 17.2132 71.0425 17.255 70.8851L17.842 71.2481C17.8852 71.279 17.9339 71.3001 17.985 71.3101C18.0361 71.3201 18.0886 71.3188 18.1392 71.3062C18.1899 71.2935 18.2375 71.27 18.2793 71.2368C18.321 71.2037 18.356 71.1618 18.382 71.1136C18.4081 71.0655 18.4246 71.0121 18.4306 70.9568C18.4366 70.9016 18.432 70.8455 18.417 70.7923C18.402 70.739 18.377 70.6896 18.3434 70.647C18.3099 70.6045 18.2686 70.5698 18.222 70.5451Z" fill="url(#paint2_radial_63_247)" stroke="url(#paint3_radial_63_247)" stroke-width="0.505"/>
<path d="M84.611 70.5451L84.024 70.1821C84.13 70.065 84.2517 69.9652 84.385 69.8861C84.4665 69.8305 84.5252 69.7436 84.549 69.6433C84.5729 69.5429 84.5601 69.4366 84.5133 69.3459C84.4665 69.2553 84.3893 69.1872 84.2972 69.1555C84.2052 69.1237 84.1053 69.1307 84.018 69.1751C83.763 69.326 83.537 69.5272 83.352 69.7681L81.83 68.8261L83.352 67.8861C83.5365 68.1273 83.7622 68.3289 84.017 68.4801C84.0607 68.5074 84.109 68.525 84.1592 68.5319C84.2094 68.5389 84.2603 68.5351 84.3091 68.5207C84.3578 68.5062 84.4034 68.4816 84.4432 68.448C84.4829 68.4145 84.516 68.3728 84.5405 68.3254C84.565 68.278 84.5804 68.2259 84.5858 68.172C84.5913 68.1181 84.5866 68.0637 84.5721 68.0117C84.5576 67.9598 84.5336 67.9116 84.5015 67.8697C84.4693 67.8279 84.4297 67.7933 84.385 67.7681C84.2513 67.6891 84.1293 67.5893 84.023 67.4721L84.611 67.1091C84.6565 67.0838 84.6968 67.0488 84.7294 67.0063C84.7619 66.9638 84.7862 66.9147 84.8005 66.8619C84.8149 66.8091 84.8191 66.7537 84.813 66.6992C84.8068 66.6446 84.7904 66.5919 84.7647 66.5443C84.739 66.4967 84.7046 66.4551 84.6635 66.4222C84.6224 66.3892 84.5755 66.3655 84.5256 66.3525C84.4757 66.3395 84.4239 66.3375 84.3733 66.3465C84.3226 66.3556 84.2742 66.3755 84.231 66.4051L83.644 66.7681C83.6018 66.6112 83.5816 66.4484 83.584 66.2851C83.586 66.1773 83.5479 66.073 83.4782 65.9952C83.4084 65.9173 83.3127 65.8724 83.212 65.8701H83.205C83.1055 65.8701 83.0099 65.9119 82.9389 65.9865C82.8678 66.0611 82.8269 66.1626 82.825 66.2691C82.8197 66.5806 82.8696 66.8904 82.972 67.1821L81.45 68.1221V66.2421C81.7374 66.1913 82.0133 66.0828 82.263 65.9221C82.3434 65.8636 82.3999 65.7743 82.4207 65.6725C82.4415 65.5708 82.4251 65.4643 82.3749 65.3752C82.3247 65.286 82.2444 65.2208 82.1507 65.1931C82.0569 65.1653 81.9568 65.1772 81.871 65.2261C81.74 65.3103 81.5982 65.3734 81.45 65.4131V64.7981C81.45 64.6902 81.4099 64.5866 81.3387 64.5103C81.2674 64.434 81.1707 64.3911 81.07 64.3911C80.9692 64.3911 80.8725 64.434 80.8013 64.5103C80.73 64.5866 80.69 64.6902 80.69 64.7981V65.4131C80.5418 65.3734 80.3999 65.3103 80.269 65.2261C80.2263 65.1951 80.1781 65.1737 80.1274 65.1632C80.0767 65.1527 80.0246 65.1534 79.9742 65.1653C79.9237 65.1771 79.8761 65.1998 79.8341 65.232C79.7922 65.2643 79.7568 65.3053 79.7301 65.3526C79.7035 65.4 79.6861 65.4526 79.6791 65.5074C79.672 65.5622 79.6755 65.6179 79.6892 65.6712C79.703 65.7245 79.7267 65.7742 79.759 65.8173C79.7913 65.8605 79.8314 65.8961 79.877 65.9221C80.1266 66.0828 80.4025 66.1913 80.69 66.2421V68.1221L79.168 67.1821C79.2704 66.8901 79.3203 66.58 79.315 66.2681C79.313 66.1616 79.2721 66.0601 79.2011 65.9855C79.13 65.9109 79.0345 65.8691 78.935 65.8691H78.928C78.8273 65.8711 78.7314 65.9158 78.6615 65.9934C78.5915 66.0711 78.5532 66.1752 78.555 66.2831C78.5574 66.4467 78.5372 66.6098 78.495 66.7671L77.909 66.4051C77.8217 66.3511 77.7179 66.3365 77.6206 66.3645C77.5232 66.3924 77.4402 66.4606 77.3898 66.5541C77.3395 66.6476 77.3258 66.7587 77.3519 66.863C77.378 66.9672 77.4417 67.0561 77.529 67.1101L78.116 67.4721C78.0096 67.5893 77.8876 67.6891 77.754 67.7681C77.7092 67.7933 77.6696 67.8279 77.6374 67.8697C77.6053 67.9116 77.5813 67.9598 77.5668 68.0117C77.5523 68.0637 77.5477 68.1181 77.5531 68.172C77.5585 68.2259 77.5739 68.278 77.5984 68.3254C77.6229 68.3728 77.656 68.4145 77.6958 68.448C77.7355 68.4816 77.7811 68.5062 77.8298 68.5207C77.8786 68.5351 77.9295 68.5389 77.9797 68.5319C78.0299 68.525 78.0782 68.5074 78.122 68.4801C78.3769 68.3292 78.6029 68.128 78.788 67.8871L80.31 68.8271L78.788 69.7671C78.603 69.5259 78.377 69.3243 78.122 69.1731C78.0782 69.1459 78.0299 69.1283 77.9797 69.1213C77.9295 69.1143 77.8786 69.1182 77.8298 69.1326C77.7811 69.147 77.7355 69.1717 77.6958 69.2052C77.656 69.2387 77.6229 69.2804 77.5984 69.3278C77.5739 69.3752 77.5585 69.4274 77.5531 69.4812C77.5477 69.5351 77.5523 69.5896 77.5668 69.6415C77.5813 69.6934 77.6053 69.7417 77.6374 69.7835C77.6696 69.8253 77.7092 69.8599 77.754 69.8851C77.8875 69.9639 78.0095 70.0633 78.116 70.1801L77.529 70.5451C77.4834 70.5705 77.4431 70.6055 77.4106 70.6479C77.378 70.6904 77.3538 70.7396 77.3394 70.7923C77.325 70.8451 77.3208 70.9005 77.327 70.9551C77.3331 71.0097 77.3495 71.0623 77.3752 71.1099C77.4009 71.1575 77.4354 71.1991 77.4765 71.232C77.5175 71.265 77.5645 71.2887 77.6143 71.3017C77.6642 71.3147 77.716 71.3167 77.7667 71.3077C77.8173 71.2987 77.8657 71.2787 77.909 71.2491L78.496 70.8861C78.5378 71.0435 78.5577 71.2066 78.555 71.3701C78.5535 71.4778 78.5919 71.5817 78.6618 71.6592C78.7317 71.7366 78.8274 71.7811 78.928 71.7831H78.935C79.0345 71.7831 79.13 71.7414 79.2011 71.6667C79.2721 71.5921 79.313 71.4907 79.315 71.3841C79.3202 71.0726 79.2703 70.7628 79.168 70.4711L80.69 69.5311V71.4111C80.4025 71.4619 80.1266 71.5705 79.877 71.7311C79.8314 71.7571 79.7913 71.7927 79.759 71.8359C79.7267 71.879 79.703 71.9288 79.6892 71.9821C79.6755 72.0353 79.672 72.0911 79.6791 72.1458C79.6861 72.2006 79.7035 72.2533 79.7301 72.3006C79.7568 72.348 79.7922 72.389 79.8341 72.4212C79.8761 72.4534 79.9237 72.4761 79.9742 72.4879C80.0246 72.4998 80.0767 72.5005 80.1274 72.49C80.1781 72.4796 80.2263 72.4582 80.269 72.4271C80.3996 72.343 80.5411 72.28 80.689 72.2401V72.8551C80.689 72.9631 80.729 73.0666 80.8003 73.1429C80.8715 73.2192 80.9682 73.2621 81.069 73.2621C81.1697 73.2621 81.2664 73.2192 81.3377 73.1429C81.4089 73.0666 81.449 72.9631 81.449 72.8551V72.2401C81.5975 72.2798 81.7397 72.3428 81.871 72.4271C81.9571 72.4793 82.0589 72.4934 82.1546 72.4664C82.2503 72.4395 82.3324 72.3736 82.3834 72.2828C82.4345 72.192 82.4505 72.0835 82.428 71.9803C82.4055 71.877 82.3463 71.7873 82.263 71.7301C82.0133 71.5695 81.7374 71.4609 81.45 71.4101V69.5301L82.972 70.4711C82.8691 70.763 82.8189 71.0732 82.824 71.3851C82.8259 71.4917 82.8668 71.5931 82.9379 71.6677C83.0089 71.7424 83.1045 71.7841 83.204 71.7841H83.212C83.2619 71.7831 83.3112 71.7716 83.357 71.7502C83.4028 71.7288 83.4442 71.698 83.4788 71.6594C83.5134 71.6209 83.5407 71.5754 83.5589 71.5256C83.5771 71.4758 83.586 71.4226 83.585 71.3691C83.5822 71.2056 83.6021 71.0425 83.644 70.8851L84.231 71.2481C84.2742 71.279 84.3228 71.3001 84.3739 71.3101C84.4251 71.3201 84.4775 71.3188 84.5282 71.3062C84.5788 71.2935 84.6264 71.27 84.6682 71.2368C84.71 71.2037 84.7449 71.1618 84.771 71.1136C84.797 71.0655 84.8135 71.0121 84.8195 70.9568C84.8256 70.9016 84.8209 70.8455 84.8059 70.7923C84.7909 70.739 84.7659 70.6896 84.7324 70.647C84.6988 70.6045 84.6575 70.5698 84.611 70.5451Z" fill="url(#paint4_radial_63_247)" stroke="url(#paint5_radial_63_247)" stroke-width="0.505"/>
<path d="M51.4171 70.5451L50.8301 70.1821C50.9362 70.065 51.0578 69.9652 51.1911 69.8861C51.2727 69.8305 51.3313 69.7436 51.3552 69.6433C51.379 69.5429 51.3663 69.4366 51.3195 69.3459C51.2727 69.2553 51.1954 69.1872 51.1034 69.1555C51.0114 69.1237 50.9115 69.1307 50.8241 69.1751C50.5691 69.326 50.3431 69.5272 50.1581 69.7681L48.6361 68.8261L50.1581 67.8861C50.3427 68.1273 50.5684 68.3289 50.8231 68.4801C50.8668 68.5074 50.9152 68.525 50.9654 68.5319C51.0155 68.5389 51.0665 68.5351 51.1152 68.5207C51.164 68.5062 51.2096 68.4816 51.2493 68.448C51.2891 68.4145 51.3221 68.3728 51.3466 68.3254C51.3711 68.278 51.3866 68.2259 51.392 68.172C51.3974 68.1181 51.3928 68.0637 51.3783 68.0117C51.3638 67.9598 51.3398 67.9116 51.3076 67.8697C51.2755 67.8279 51.2359 67.7933 51.1911 67.7681C51.0575 67.6891 50.9355 67.5893 50.8291 67.4721L51.4171 67.1091C51.4627 67.0838 51.5029 67.0488 51.5355 67.0063C51.5681 66.9638 51.5923 66.9147 51.6067 66.8619C51.621 66.8091 51.6253 66.7537 51.6191 66.6992C51.613 66.6446 51.5965 66.5919 51.5708 66.5443C51.5451 66.4967 51.5107 66.4551 51.4696 66.4222C51.4285 66.3892 51.3816 66.3655 51.3317 66.3525C51.2819 66.3395 51.23 66.3375 51.1794 66.3465C51.1288 66.3556 51.0804 66.3755 51.0371 66.4051L50.4501 66.7681C50.408 66.6112 50.3878 66.4484 50.3901 66.2851C50.3921 66.1773 50.3541 66.073 50.2843 65.9952C50.2146 65.9173 50.1188 65.8724 50.0181 65.8701H50.0111C49.9116 65.8701 49.8161 65.9119 49.745 65.9865C49.674 66.0611 49.6331 66.1626 49.6311 66.2691C49.6259 66.5806 49.6757 66.8904 49.7781 67.1821L48.2561 68.1221V66.2421C48.5436 66.1913 48.8194 66.0828 49.0691 65.9221C49.1496 65.8636 49.206 65.7743 49.2269 65.6725C49.2477 65.5708 49.2313 65.4643 49.1811 65.3752C49.1308 65.286 49.0506 65.2208 48.9568 65.1931C48.8631 65.1653 48.763 65.1772 48.6771 65.2261C48.5462 65.3103 48.4043 65.3734 48.2561 65.4131V64.7981C48.2561 64.6902 48.2161 64.5866 48.1448 64.5103C48.0736 64.434 47.9769 64.3911 47.8761 64.3911C47.7753 64.3911 47.6787 64.434 47.6074 64.5103C47.5362 64.5866 47.4961 64.6902 47.4961 64.7981V65.4131C47.3479 65.3734 47.206 65.3103 47.0751 65.2261C47.0324 65.1951 46.9842 65.1737 46.9336 65.1632C46.8829 65.1527 46.8307 65.1534 46.7803 65.1653C46.7299 65.1771 46.6822 65.1998 46.6403 65.232C46.5983 65.2643 46.563 65.3053 46.5363 65.3526C46.5096 65.4 46.4923 65.4526 46.4852 65.5074C46.4782 65.5622 46.4816 65.6179 46.4954 65.6712C46.5091 65.7245 46.5329 65.7742 46.5651 65.8173C46.5974 65.8605 46.6376 65.8961 46.6831 65.9221C46.9328 66.0828 47.2087 66.1913 47.4961 66.2421V68.1221L45.9741 67.1821C46.0766 66.8901 46.1265 66.58 46.1211 66.2681C46.1192 66.1616 46.0783 66.0601 46.0072 65.9855C45.9362 65.9109 45.8406 65.8691 45.7411 65.8691H45.7341C45.6334 65.8711 45.5376 65.9158 45.4676 65.9934C45.3977 66.0711 45.3594 66.1752 45.3611 66.2831C45.3636 66.4467 45.3433 66.6098 45.3011 66.7671L44.7151 66.4051C44.6719 66.3784 44.6242 66.361 44.5747 66.3541C44.5252 66.3471 44.475 66.3506 44.4267 66.3645C44.3785 66.3783 44.3334 66.4022 44.2938 66.4347C44.2542 66.4672 44.221 66.5078 44.196 66.5541C44.171 66.6004 44.1549 66.6515 44.1483 66.7045C44.1418 66.7575 44.1451 66.8113 44.158 66.863C44.171 66.9146 44.1932 66.963 44.2236 67.0054C44.254 67.0478 44.2919 67.0834 44.3351 67.1101L44.9221 67.4721C44.8157 67.5893 44.6938 67.6891 44.5601 67.7681C44.5154 67.7933 44.4757 67.8279 44.4436 67.8697C44.4115 67.9116 44.3874 67.9598 44.373 68.0117C44.3585 68.0637 44.3538 68.1181 44.3592 68.172C44.3647 68.2259 44.3801 68.278 44.4046 68.3254C44.4291 68.3728 44.4622 68.4145 44.5019 68.448C44.5416 68.4816 44.5872 68.5062 44.636 68.5207C44.6847 68.5351 44.7357 68.5389 44.7859 68.5319C44.836 68.525 44.8844 68.5074 44.9281 68.4801C45.1831 68.3292 45.4091 68.128 45.5941 67.8871L47.1161 68.8271L45.5941 69.7671C45.4092 69.5259 45.1832 69.3243 44.9281 69.1731C44.8844 69.1459 44.836 69.1283 44.7859 69.1213C44.7357 69.1143 44.6847 69.1182 44.636 69.1326C44.5872 69.147 44.5416 69.1717 44.5019 69.2052C44.4622 69.2387 44.4291 69.2804 44.4046 69.3278C44.3801 69.3752 44.3647 69.4274 44.3592 69.4812C44.3538 69.5351 44.3585 69.5896 44.373 69.6415C44.3874 69.6934 44.4115 69.7417 44.4436 69.7835C44.4757 69.8253 44.5154 69.8599 44.5601 69.8851C44.6937 69.9639 44.8157 70.0633 44.9221 70.1801L44.3351 70.5451C44.2896 70.5705 44.2493 70.6055 44.2167 70.6479C44.1841 70.6904 44.1599 70.7396 44.1456 70.7923C44.1312 70.8451 44.127 70.9005 44.1331 70.9551C44.1393 71.0097 44.1557 71.0623 44.1814 71.1099C44.2071 71.1575 44.2415 71.1991 44.2826 71.232C44.3237 71.265 44.3706 71.2887 44.4205 71.3017C44.4704 71.3147 44.5222 71.3167 44.5728 71.3077C44.6235 71.2987 44.6719 71.2787 44.7151 71.2491L45.3021 70.8861C45.344 71.0435 45.3639 71.2066 45.3611 71.3701C45.3596 71.4778 45.398 71.5817 45.4679 71.6592C45.5379 71.7366 45.6336 71.7811 45.7341 71.7831H45.7411C45.8406 71.7831 45.9362 71.7414 46.0072 71.6667C46.0783 71.5921 46.1192 71.4907 46.1211 71.3841C46.1264 71.0726 46.0765 70.7628 45.9741 70.4711L47.4961 69.5311V71.4111C47.2087 71.4619 46.9328 71.5705 46.6831 71.7311C46.6376 71.7571 46.5974 71.7927 46.5651 71.8359C46.5329 71.879 46.5091 71.9288 46.4954 71.9821C46.4816 72.0353 46.4782 72.0911 46.4852 72.1458C46.4923 72.2006 46.5096 72.2533 46.5363 72.3006C46.563 72.348 46.5983 72.389 46.6403 72.4212C46.6822 72.4534 46.7299 72.4761 46.7803 72.4879C46.8307 72.4998 46.8829 72.5005 46.9336 72.49C46.9842 72.4796 47.0324 72.4582 47.0751 72.4271C47.2057 72.343 47.3473 72.28 47.4951 72.2401V72.8551C47.4951 72.9631 47.5352 73.0666 47.6064 73.1429C47.6777 73.2192 47.7743 73.2621 47.8751 73.2621C47.9759 73.2621 48.0726 73.2192 48.1438 73.1429C48.2151 73.0666 48.2551 72.9631 48.2551 72.8551V72.2401C48.4037 72.2798 48.5459 72.3428 48.6771 72.4271C48.7633 72.4793 48.865 72.4934 48.9607 72.4664C49.0564 72.4395 49.1385 72.3736 49.1896 72.2828C49.2406 72.192 49.2566 72.0835 49.2341 71.9803C49.2116 71.877 49.1524 71.7873 49.0691 71.7301C48.8194 71.5695 48.5436 71.4609 48.2561 71.4101V69.5301L49.7781 70.4711C49.6753 70.763 49.6251 71.0732 49.6301 71.3851C49.6321 71.4917 49.673 71.5931 49.744 71.6677C49.8151 71.7424 49.9106 71.7841 50.0101 71.7841H50.0181C50.0681 71.7831 50.1173 71.7716 50.1631 71.7502C50.2089 71.7288 50.2503 71.698 50.285 71.6594C50.3196 71.6209 50.3468 71.5754 50.365 71.5256C50.3832 71.4758 50.3921 71.4226 50.3911 71.3691C50.3884 71.2056 50.4082 71.0425 50.4501 70.8851L51.0371 71.2481C51.0803 71.279 51.129 71.3001 51.1801 71.3101C51.2312 71.3201 51.2837 71.3188 51.3343 71.3062C51.3849 71.2935 51.4326 71.27 51.4743 71.2368C51.5161 71.2037 51.5511 71.1618 51.5771 71.1136C51.6032 71.0655 51.6197 71.0121 51.6257 70.9568C51.6317 70.9016 51.6271 70.8455 51.6121 70.7923C51.5971 70.739 51.5721 70.6896 51.5385 70.647C51.505 70.6045 51.4637 70.5698 51.4171 70.5451Z" fill="url(#paint6_radial_63_247)" stroke="url(#paint7_radial_63_247)" stroke-width="0.505"/>
<path d="M34.5599 84.925L33.9729 84.562C34.079 84.4448 34.2006 84.3451 34.3339 84.266C34.4155 84.2103 34.4742 84.1235 34.498 84.0231C34.5218 83.9228 34.5091 83.8165 34.4623 83.7258C34.4155 83.6352 34.3382 83.5671 34.2462 83.5353C34.1542 83.5036 34.0543 83.5106 33.9669 83.555C33.7119 83.7059 33.486 83.9071 33.3009 84.148L31.7789 83.206L33.3009 82.266C33.4855 82.5072 33.7112 82.7087 33.9659 82.86C34.0097 82.8872 34.058 82.9049 34.1082 82.9118C34.1583 82.9188 34.2093 82.9149 34.2581 82.9005C34.3068 82.8861 34.3524 82.8614 34.3921 82.8279C34.4319 82.7944 34.465 82.7527 34.4895 82.7053C34.514 82.6579 34.5294 82.6057 34.5348 82.5519C34.5402 82.498 34.5356 82.4435 34.5211 82.3916C34.5066 82.3397 34.4826 82.2914 34.4505 82.2496C34.4183 82.2078 34.3787 82.1732 34.3339 82.148C34.2003 82.0689 34.0783 81.9692 33.9719 81.852L34.5599 81.489C34.6055 81.4636 34.6458 81.4287 34.6783 81.3862C34.7109 81.3437 34.7351 81.2945 34.7495 81.2418C34.7639 81.189 34.7681 81.1336 34.7619 81.079C34.7558 81.0244 34.7394 80.9718 34.7137 80.9242C34.688 80.8766 34.6535 80.835 34.6124 80.8021C34.5713 80.7691 34.5244 80.7454 34.4746 80.7324C34.4247 80.7194 34.3729 80.7174 34.3222 80.7264C34.2716 80.7354 34.2232 80.7554 34.1799 80.785L33.5929 81.148C33.5508 80.991 33.5306 80.8283 33.5329 80.665C33.5349 80.5571 33.4969 80.4528 33.4271 80.375C33.3574 80.2972 33.2616 80.2522 33.1609 80.25H33.1539C33.0544 80.25 32.9589 80.2918 32.8878 80.3664C32.8168 80.441 32.7759 80.5424 32.7739 80.649C32.7687 80.9605 32.8186 81.2703 32.9209 81.562L31.3989 82.502V80.622C31.6864 80.5712 31.9623 80.4626 32.2119 80.302C32.2924 80.2435 32.3489 80.1542 32.3697 80.0524C32.3905 79.9507 32.3741 79.8442 32.3239 79.755C32.2736 79.6658 32.1934 79.6007 32.0996 79.5729C32.0059 79.5452 31.9058 79.557 31.8199 79.606C31.689 79.6902 31.5471 79.7532 31.3989 79.793V79.178C31.3989 79.0701 31.3589 78.9665 31.2876 78.8902C31.2164 78.8139 31.1197 78.771 31.0189 78.771C30.9182 78.771 30.8215 78.8139 30.7502 78.8902C30.679 78.9665 30.6389 79.0701 30.6389 79.178V79.793C30.4907 79.7532 30.3489 79.6902 30.2179 79.606C30.1752 79.5749 30.1271 79.5535 30.0764 79.5431C30.0257 79.5326 29.9736 79.5333 29.9231 79.5452C29.8727 79.557 29.8251 79.5797 29.7831 79.6119C29.7412 79.6441 29.7058 79.6852 29.6791 79.7325C29.6525 79.7798 29.6351 79.8325 29.628 79.8873C29.621 79.942 29.6245 79.9978 29.6382 80.0511C29.6519 80.1043 29.6757 80.1541 29.708 80.1972C29.7402 80.2404 29.7804 80.276 29.8259 80.302C30.0756 80.4626 30.3515 80.5712 30.6389 80.622V82.502L29.1169 81.562C29.2194 81.27 29.2693 80.9599 29.2639 80.648C29.262 80.5414 29.2211 80.44 29.15 80.3654C29.079 80.2908 28.9834 80.249 28.8839 80.249H28.8769C28.7762 80.251 28.6804 80.2957 28.6104 80.3733C28.5405 80.4509 28.5022 80.5551 28.5039 80.663C28.5064 80.8266 28.4862 80.9897 28.4439 81.147L27.8579 80.785C27.7707 80.731 27.6669 80.7164 27.5696 80.7443C27.4722 80.7723 27.3892 80.8405 27.3388 80.934C27.2884 81.0275 27.2748 81.1386 27.3009 81.2429C27.327 81.3471 27.3907 81.436 27.4779 81.49L28.0649 81.852C27.9586 81.9692 27.8366 82.0689 27.7029 82.148C27.6582 82.1732 27.6186 82.2078 27.5864 82.2496C27.5543 82.2914 27.5303 82.3397 27.5158 82.3916C27.5013 82.4435 27.4966 82.498 27.5021 82.5519C27.5075 82.6057 27.5229 82.6579 27.5474 82.7053C27.5719 82.7527 27.605 82.7944 27.6447 82.8279C27.6845 82.8614 27.73 82.8861 27.7788 82.9005C27.8276 82.9149 27.8785 82.9188 27.9287 82.9118C27.9789 82.9049 28.0272 82.8872 28.0709 82.86C28.3259 82.7091 28.5519 82.5079 28.7369 82.267L30.2589 83.207L28.7369 84.147C28.552 83.9058 28.326 83.7042 28.0709 83.553C28.0272 83.5258 27.9789 83.5081 27.9287 83.5012C27.8785 83.4942 27.8276 83.498 27.7788 83.5125C27.73 83.5269 27.6845 83.5516 27.6447 83.5851C27.605 83.6186 27.5719 83.6603 27.5474 83.7077C27.5229 83.7551 27.5075 83.8072 27.5021 83.8611C27.4966 83.915 27.5013 83.9694 27.5158 84.0214C27.5303 84.0733 27.5543 84.1216 27.5864 84.1634C27.6186 84.2052 27.6582 84.2398 27.7029 84.265C27.8365 84.3437 27.9585 84.4431 28.0649 84.56L27.4779 84.925C27.4324 84.9504 27.3921 84.9853 27.3595 85.0278C27.3269 85.0703 27.3027 85.1194 27.2884 85.1722C27.274 85.225 27.2698 85.2804 27.2759 85.335C27.2821 85.3895 27.2985 85.4422 27.3242 85.4898C27.3499 85.5374 27.3843 85.579 27.4254 85.6119C27.4665 85.6449 27.5134 85.6686 27.5633 85.6816C27.6132 85.6946 27.665 85.6966 27.7156 85.6876C27.7663 85.6785 27.8147 85.6586 27.8579 85.629L28.4449 85.266C28.4868 85.4233 28.5067 85.5864 28.5039 85.75C28.5024 85.8577 28.5409 85.9616 28.6108 86.039C28.6807 86.1164 28.7764 86.161 28.8769 86.163H28.8839C28.9834 86.163 29.079 86.1212 29.15 86.0466C29.2211 85.972 29.262 85.8705 29.2639 85.764C29.2692 85.4525 29.2193 85.1427 29.1169 84.851L30.6389 83.911V85.791C30.3515 85.8418 30.0756 85.9503 29.8259 86.111C29.7804 86.137 29.7402 86.1726 29.708 86.2158C29.6757 86.2589 29.6519 86.3086 29.6382 86.3619C29.6245 86.4152 29.621 86.4709 29.628 86.5257C29.6351 86.5805 29.6525 86.6331 29.6791 86.6805C29.7058 86.7278 29.7412 86.7689 29.7831 86.8011C29.8251 86.8333 29.8727 86.856 29.9231 86.8678C29.9736 86.8797 30.0257 86.8804 30.0764 86.8699C30.1271 86.8595 30.1752 86.838 30.2179 86.807C30.3486 86.7229 30.4901 86.6598 30.6379 86.62V87.235C30.6379 87.3429 30.678 87.4465 30.7492 87.5228C30.8205 87.5991 30.9172 87.642 31.0179 87.642C31.1187 87.642 31.2154 87.5991 31.2866 87.5228C31.3579 87.4465 31.3979 87.3429 31.3979 87.235V86.62C31.5465 86.6596 31.6887 86.7227 31.8199 86.807C31.9061 86.8591 32.0078 86.8732 32.1035 86.8463C32.1992 86.8193 32.2813 86.7535 32.3324 86.6627C32.3835 86.5719 32.3994 86.4633 32.3769 86.3601C32.3545 86.2569 32.2953 86.1672 32.2119 86.11C31.9623 85.9493 31.6864 85.8408 31.3989 85.79V83.91L32.9209 84.851C32.8181 85.1429 32.7679 85.4531 32.7729 85.765C32.7749 85.8715 32.8158 85.973 32.8868 86.0476C32.9579 86.1222 33.0534 86.164 33.1529 86.164H33.1609C33.2109 86.163 33.2602 86.1515 33.3059 86.1301C33.3517 86.1087 33.3931 86.0779 33.4278 86.0393C33.4624 86.0008 33.4896 85.9553 33.5078 85.9055C33.5261 85.8557 33.5349 85.8025 33.5339 85.749C33.5312 85.5854 33.5511 85.4223 33.5929 85.265L34.1799 85.628C34.2231 85.6589 34.2718 85.68 34.3229 85.69C34.374 85.7 34.4265 85.6986 34.4771 85.686C34.5277 85.6734 34.5754 85.6498 34.6172 85.6167C34.6589 85.5836 34.6939 85.5417 34.7199 85.4935C34.746 85.4454 34.7625 85.392 34.7685 85.3367C34.7745 85.2814 34.7699 85.2254 34.7549 85.1721C34.7399 85.1189 34.7149 85.0694 34.6813 85.0269C34.6478 84.9844 34.6065 84.9497 34.5599 84.925Z" fill="url(#paint8_radial_63_247)" stroke="url(#paint9_radial_63_247)" stroke-width="0.505"/>
<path d="M66.2111 84.925L65.6241 84.562C65.7301 84.4448 65.8518 84.3451 65.9851 84.266C66.0666 84.2103 66.1253 84.1235 66.1491 84.0231C66.173 83.9228 66.1602 83.8165 66.1134 83.7258C66.0666 83.6352 65.9894 83.5671 65.8973 83.5353C65.8053 83.5036 65.7054 83.5106 65.6181 83.555C65.3631 83.7059 65.1371 83.9071 64.9521 84.148L63.4301 83.206L64.9521 82.266C65.1366 82.5072 65.3623 82.7087 65.6171 82.86C65.6608 82.8872 65.7091 82.9049 65.7593 82.9118C65.8095 82.9188 65.8604 82.9149 65.9092 82.9005C65.9579 82.8861 66.0035 82.8614 66.0433 82.8279C66.083 82.7944 66.1161 82.7527 66.1406 82.7053C66.1651 82.6579 66.1805 82.6057 66.1859 82.5519C66.1914 82.498 66.1867 82.4435 66.1722 82.3916C66.1577 82.3397 66.1337 82.2914 66.1016 82.2496C66.0694 82.2078 66.0298 82.1732 65.9851 82.148C65.8514 82.0689 65.7294 81.9692 65.6231 81.852L66.2111 81.489C66.2566 81.4636 66.2969 81.4287 66.3295 81.3862C66.3621 81.3437 66.3863 81.2945 66.4006 81.2418C66.415 81.189 66.4192 81.1336 66.4131 81.079C66.4069 81.0244 66.3905 80.9718 66.3648 80.9242C66.3391 80.8766 66.3047 80.835 66.2636 80.8021C66.2225 80.7691 66.1756 80.7454 66.1257 80.7324C66.0758 80.7194 66.024 80.7174 65.9733 80.7264C65.9227 80.7354 65.8743 80.7554 65.8311 80.785L65.2441 81.148C65.2019 80.991 65.1817 80.8283 65.1841 80.665C65.1861 80.5571 65.148 80.4528 65.0783 80.375C65.0085 80.2972 64.9128 80.2522 64.8121 80.25H64.8051C64.7056 80.25 64.61 80.2918 64.539 80.3664C64.4679 80.441 64.427 80.5424 64.4251 80.649C64.4198 80.9605 64.4697 81.2703 64.5721 81.562L63.0501 82.502V80.622C63.3375 80.5712 63.6134 80.4626 63.8631 80.302C63.9435 80.2435 64 80.1542 64.0208 80.0524C64.0416 79.9507 64.0252 79.8442 63.975 79.755C63.9248 79.6658 63.8445 79.6007 63.7508 79.5729C63.657 79.5452 63.5569 79.557 63.4711 79.606C63.3401 79.6902 63.1983 79.7532 63.0501 79.793V79.178C63.0501 79.0701 63.01 78.9665 62.9388 78.8902C62.8675 78.8139 62.7708 78.771 62.6701 78.771C62.5693 78.771 62.4726 78.8139 62.4014 78.8902C62.3301 78.9665 62.2901 79.0701 62.2901 79.178V79.793C62.1419 79.7532 62 79.6902 61.8691 79.606C61.8264 79.5749 61.7782 79.5535 61.7275 79.5431C61.6768 79.5326 61.6247 79.5333 61.5743 79.5452C61.5238 79.557 61.4762 79.5797 61.4342 79.6119C61.3923 79.6441 61.3569 79.6852 61.3302 79.7325C61.3036 79.7798 61.2862 79.8325 61.2792 79.8873C61.2721 79.942 61.2756 79.9978 61.2893 80.0511C61.3031 80.1043 61.3268 80.1541 61.3591 80.1972C61.3913 80.2404 61.4315 80.276 61.4771 80.302C61.7267 80.4626 62.0026 80.5712 62.2901 80.622V82.502L60.7681 81.562C60.8705 81.27 60.9204 80.9599 60.9151 80.648C60.9131 80.5414 60.8722 80.44 60.8012 80.3654C60.7301 80.2908 60.6346 80.249 60.5351 80.249H60.5281C60.4274 80.251 60.3315 80.2957 60.2616 80.3733C60.1916 80.4509 60.1533 80.5551 60.1551 80.663C60.1578 80.8266 60.1379 80.9897 60.0961 81.147L59.5091 80.785C59.4218 80.731 59.318 80.7164 59.2207 80.7443C59.1233 80.7723 59.0403 80.8405 58.9899 80.934C58.9396 81.0275 58.9259 81.1386 58.952 81.2429C58.9781 81.3471 59.0418 81.436 59.1291 81.49L59.7161 81.852C59.6097 81.9692 59.4877 82.0689 59.3541 82.148C59.3093 82.1732 59.2697 82.2078 59.2375 82.2496C59.2054 82.2914 59.1814 82.3397 59.1669 82.3916C59.1524 82.4435 59.1478 82.498 59.1532 82.5519C59.1586 82.6057 59.174 82.6579 59.1985 82.7053C59.223 82.7527 59.2561 82.7944 59.2959 82.8279C59.3356 82.8614 59.3812 82.8861 59.4299 82.9005C59.4787 82.9149 59.5297 82.9188 59.5798 82.9118C59.63 82.9049 59.6783 82.8872 59.7221 82.86C59.977 82.7091 60.203 82.5079 60.3881 82.267L61.9101 83.207L60.3881 84.147C60.2031 83.9058 59.9771 83.7042 59.7221 83.553C59.6783 83.5245 59.6296 83.5058 59.5789 83.498C59.5281 83.4902 59.4765 83.4934 59.427 83.5075C59.3775 83.5216 59.3311 83.5463 59.2908 83.5801C59.2504 83.6139 59.2168 83.6561 59.1921 83.7041C59.1673 83.7522 59.1519 83.8051 59.1467 83.8596C59.1415 83.9142 59.1467 83.9694 59.1619 84.0218C59.1771 84.0742 59.2021 84.1227 59.2353 84.1645C59.2685 84.2063 59.3092 84.2405 59.3551 84.265C59.4883 84.3438 59.6099 84.4432 59.7161 84.56L59.1291 84.925C59.0835 84.9504 59.0432 84.9853 59.0106 85.0278C58.9781 85.0703 58.9539 85.1194 58.9395 85.1722C58.9251 85.225 58.9209 85.2804 58.9271 85.335C58.9332 85.3895 58.9496 85.4422 58.9753 85.4898C59.001 85.5374 59.0355 85.579 59.0766 85.6119C59.1176 85.6449 59.1646 85.6686 59.2144 85.6816C59.2643 85.6946 59.3161 85.6966 59.3668 85.6876C59.4174 85.6785 59.4658 85.6586 59.5091 85.629L60.0961 85.266C60.1379 85.4233 60.1578 85.5864 60.1551 85.75C60.1536 85.8577 60.192 85.9616 60.2619 86.039C60.3318 86.1164 60.4275 86.161 60.5281 86.163H60.5351C60.6346 86.163 60.7301 86.1212 60.8012 86.0466C60.8722 85.972 60.9131 85.8705 60.9151 85.764C60.9203 85.4525 60.8704 85.1427 60.7681 84.851L62.2901 83.911V85.791C62.0026 85.8418 61.7267 85.9503 61.4771 86.111C61.4315 86.137 61.3913 86.1726 61.3591 86.2158C61.3268 86.2589 61.3031 86.3086 61.2893 86.3619C61.2756 86.4152 61.2721 86.4709 61.2792 86.5257C61.2862 86.5805 61.3036 86.6331 61.3302 86.6805C61.3569 86.7278 61.3923 86.7689 61.4342 86.8011C61.4762 86.8333 61.5238 86.856 61.5743 86.8678C61.6247 86.8797 61.6768 86.8804 61.7275 86.8699C61.7782 86.8595 61.8264 86.838 61.8691 86.807C61.9997 86.7229 62.1412 86.6598 62.2891 86.62V87.235C62.2891 87.3429 62.3291 87.4465 62.4004 87.5228C62.4716 87.5991 62.5683 87.642 62.6691 87.642C62.7698 87.642 62.8665 87.5991 62.9378 87.5228C63.009 87.4465 63.0491 87.3429 63.0491 87.235V86.62C63.1976 86.6596 63.3398 86.7227 63.4711 86.807C63.5572 86.8591 63.659 86.8732 63.7547 86.8463C63.8504 86.8193 63.9325 86.7535 63.9835 86.6627C64.0346 86.5719 64.0506 86.4633 64.0281 86.3601C64.0056 86.2569 63.9464 86.1672 63.8631 86.11C63.6134 85.9493 63.3375 85.8408 63.0501 85.79V83.91L64.5721 84.851C64.4692 85.1429 64.419 85.4531 64.4241 85.765C64.426 85.8715 64.4669 85.973 64.538 86.0476C64.609 86.1222 64.7046 86.164 64.8041 86.164H64.8121C64.862 86.163 64.9113 86.1515 64.9571 86.1301C65.0029 86.1087 65.0443 86.0779 65.0789 86.0393C65.1135 86.0008 65.1407 85.9553 65.159 85.9055C65.1772 85.8557 65.186 85.8025 65.1851 85.749C65.1823 85.5854 65.2022 85.4223 65.2441 85.265L65.8311 85.628C65.8743 85.6589 65.9229 85.68 65.974 85.69C66.0252 85.7 66.0776 85.6986 66.1283 85.686C66.1789 85.6734 66.2265 85.6498 66.2683 85.6167C66.31 85.5836 66.345 85.5417 66.3711 85.4935C66.3971 85.4454 66.4136 85.392 66.4196 85.3367C66.4257 85.2814 66.421 85.2254 66.406 85.1721C66.391 85.1189 66.366 85.0694 66.3325 85.0269C66.2989 84.9844 66.2576 84.9497 66.2111 84.925Z" fill="url(#paint10_radial_63_247)" stroke="url(#paint11_radial_63_247)" stroke-width="0.505"/>
</g>
<defs>
<linearGradient id="paint0_linear_63_247" x1="51.4009" y1="0.0760319" x2="50.5519" y2="44.271" gradientUnits="userSpaceOnUse">
<stop stop-color="#F2F2F3"/>
<stop offset="1" stop-color="#6F7478"/>
</linearGradient>
<linearGradient id="paint1_linear_63_247" x1="47.1579" y1="14.736" x2="47.2239" y2="58.223" gradientUnits="userSpaceOnUse">
<stop stop-color="#EEEFEF"/>
<stop offset="1" stop-color="#9CA2AF"/>
</linearGradient>
<radialGradient id="paint2_radial_63_247" cx="0" cy="0" r="1" gradientUnits="userSpaceOnUse" gradientTransform="translate(14.686 68.8262) scale(3.99912 4.68743)">
<stop stop-color="#85B2EE"/>
<stop offset="1" stop-color="#DCEEF9"/>
</radialGradient>
<radialGradient id="paint3_radial_63_247" cx="0" cy="0" r="1" gradientUnits="userSpaceOnUse" gradientTransform="translate(14.686 68.8262) scale(3.99912 4.68743)">
<stop stop-color="#85B2EE"/>
<stop offset="1" stop-color="#DCEEF9"/>
</radialGradient>
<radialGradient id="paint4_radial_63_247" cx="0" cy="0" r="1" gradientUnits="userSpaceOnUse" gradientTransform="translate(81.0759 68.8262) scale(3.99912 4.68743)">
<stop stop-color="#85B2EE"/>
<stop offset="1" stop-color="#DCEEF9"/>
</radialGradient>
<radialGradient id="paint5_radial_63_247" cx="0" cy="0" r="1" gradientUnits="userSpaceOnUse" gradientTransform="translate(81.0759 68.8262) scale(3.99912 4.68743)">
<stop stop-color="#85B2EE"/>
<stop offset="1" stop-color="#DCEEF9"/>
</radialGradient>
<radialGradient id="paint6_radial_63_247" cx="0" cy="0" r="1" gradientUnits="userSpaceOnUse" gradientTransform="translate(47.8811 68.8262) scale(3.99912 4.68743)">
<stop stop-color="#85B2EE"/>
<stop offset="1" stop-color="#DCEEF9"/>
</radialGradient>
<radialGradient id="paint7_radial_63_247" cx="0" cy="0" r="1" gradientUnits="userSpaceOnUse" gradientTransform="translate(47.8811 68.8262) scale(3.99912 4.68743)">
<stop stop-color="#85B2EE"/>
<stop offset="1" stop-color="#DCEEF9"/>
</radialGradient>
<radialGradient id="paint8_radial_63_247" cx="0" cy="0" r="1" gradientUnits="userSpaceOnUse" gradientTransform="translate(31.0249 83.206) scale(3.99912 4.68742)">
<stop stop-color="#85B2EE"/>
<stop offset="1" stop-color="#DCEEF9"/>
</radialGradient>
<radialGradient id="paint9_radial_63_247" cx="0" cy="0" r="1" gradientUnits="userSpaceOnUse" gradientTransform="translate(31.0249 83.206) scale(3.99912 4.68742)">
<stop stop-color="#85B2EE"/>
<stop offset="1" stop-color="#DCEEF9"/>
</radialGradient>
<radialGradient id="paint10_radial_63_247" cx="0" cy="0" r="1" gradientUnits="userSpaceOnUse" gradientTransform="translate(62.676 83.206) scale(3.99912 4.68742)">
<stop stop-color="#85B2EE"/>
<stop offset="1" stop-color="#DCEEF9"/>
</radialGradient>
<radialGradient id="paint11_radial_63_247" cx="0" cy="0" r="1" gradientUnits="userSpaceOnUse" gradientTransform="translate(62.676 83.206) scale(3.99912 4.68742)">
<stop stop-color="#85B2EE"/>
<stop offset="1" stop-color="#DCEEF9"/>
</radialGradient>
<clipPath id="clip0_63_247">
<rect width="100" height="100" fill="white"/>
</clipPath>
</defs>
</svg>
