<svg width="100" height="100" viewBox="0 0 100 100" fill="none" xmlns="http://www.w3.org/2000/svg">
<g clip-path="url(#clip0_63_694)">
<path d="M6.40189 44.626H96.0689C96.0689 44.626 106.275 31.169 92.4489 18.603C78.8759 6.26703 64.8899 15.871 64.8899 15.871C64.8899 15.871 56.2809 -3.50597 39.9779 1.15003C23.6749 5.80903 22.3679 19.287 22.3679 19.287C22.3679 19.287 5.85989 19.623 3.14189 29.91C0.423889 40.197 6.40189 44.626 6.40189 44.626Z" fill="url(#paint0_linear_63_694)"/>
<path d="M3.92691 58.796H93.5939C93.5939 58.796 104.826 45.604 93.8639 30.475C82.2339 14.426 63.1219 27.743 63.1219 27.743C63.1219 27.743 53.8059 10.663 37.5029 15.322C21.1999 19.981 20.4239 34.342 20.4239 34.342C20.4239 34.342 3.38391 33.793 0.666911 44.08C-2.05009 54.367 3.92691 58.796 3.92691 58.796Z" fill="url(#paint1_linear_63_694)"/>
<path d="M20.006 69.8439L19.419 69.4809C19.525 69.3638 19.6467 69.264 19.78 69.1849C19.8615 69.1293 19.9202 69.0424 19.944 68.9421C19.9679 68.8417 19.9551 68.7354 19.9083 68.6448C19.8616 68.5541 19.7843 68.486 19.6923 68.4543C19.6002 68.4225 19.5003 68.4296 19.413 68.4739C19.158 68.6248 18.932 68.8261 18.747 69.0669L17.225 68.1249L18.747 67.1849C18.9316 67.4261 19.1572 67.6277 19.412 67.7789C19.4557 67.8062 19.5041 67.8238 19.5542 67.8308C19.6044 67.8377 19.6554 67.8339 19.7041 67.8195C19.7529 67.8051 19.7985 67.7804 19.8382 67.7469C19.8779 67.7133 19.911 67.6717 19.9355 67.6243C19.96 67.5769 19.9754 67.5247 19.9809 67.4708C19.9863 67.417 19.9816 67.3625 19.9671 67.3106C19.9527 67.2587 19.9286 67.2104 19.8965 67.1685C19.8644 67.1267 19.8247 67.0922 19.78 67.0669C19.6463 66.9879 19.5244 66.8881 19.418 66.7709L20.006 66.4079C20.0515 66.3826 20.0918 66.3476 20.1244 66.3051C20.157 66.2626 20.1812 66.2135 20.1955 66.1607C20.2099 66.1079 20.2141 66.0526 20.208 65.998C20.2018 65.9434 20.1854 65.8907 20.1597 65.8431C20.134 65.7955 20.0996 65.754 20.0585 65.721C20.0174 65.6881 19.9705 65.6644 19.9206 65.6514C19.8707 65.6384 19.8189 65.6363 19.7683 65.6454C19.7176 65.6544 19.6692 65.6743 19.626 65.7039L19.039 66.0669C18.9969 65.91 18.9766 65.7472 18.979 65.5839C18.981 65.4761 18.9429 65.3718 18.8732 65.294C18.8034 65.2162 18.7077 65.1712 18.607 65.1689H18.6C18.5005 65.1689 18.4049 65.2107 18.3339 65.2853C18.2628 65.3599 18.2219 65.4614 18.22 65.5679C18.2147 65.8795 18.2646 66.1893 18.367 66.4809L16.845 67.4209V65.5409C17.1324 65.4902 17.4083 65.3816 17.658 65.2209C17.7384 65.1624 17.7949 65.0731 17.8157 64.9714C17.8366 64.8696 17.8202 64.7632 17.7699 64.674C17.7197 64.5848 17.6394 64.5196 17.5457 64.4919C17.4519 64.4642 17.3518 64.476 17.266 64.5249C17.1351 64.6092 16.9932 64.6722 16.845 64.7119V64.0969C16.845 63.989 16.8049 63.8855 16.7337 63.8092C16.6624 63.7328 16.5658 63.6899 16.465 63.6899C16.3642 63.6899 16.2675 63.7328 16.1963 63.8092C16.125 63.8855 16.085 63.989 16.085 64.0969V64.7119C15.9368 64.6722 15.7949 64.6092 15.664 64.5249C15.6213 64.4939 15.5731 64.4725 15.5224 64.462C15.4717 64.4516 15.4196 64.4523 15.3692 64.4641C15.3188 64.476 15.2711 64.4987 15.2292 64.5309C15.1872 64.5631 15.1518 64.6041 15.1252 64.6514C15.0985 64.6988 15.0811 64.7514 15.0741 64.8062C15.0671 64.861 15.0705 64.9167 15.0842 64.97C15.098 65.0233 15.1217 65.073 15.154 65.1162C15.1863 65.1593 15.2264 65.195 15.272 65.2209C15.5217 65.3816 15.7975 65.4902 16.085 65.5409V67.4209L14.563 66.4809C14.6655 66.1889 14.7153 65.8788 14.71 65.5669C14.708 65.4604 14.6671 65.3589 14.5961 65.2843C14.525 65.2097 14.4295 65.1679 14.33 65.1679H14.323C14.2223 65.1699 14.1264 65.2146 14.0565 65.2923C13.9865 65.3699 13.9482 65.4741 13.95 65.5819C13.9524 65.7456 13.9322 65.9087 13.89 66.0659L13.304 65.7039C13.2167 65.65 13.113 65.6353 13.0156 65.6633C12.9183 65.6912 12.8353 65.7595 12.7849 65.8529C12.7345 65.9464 12.7208 66.0575 12.7469 66.1618C12.773 66.2661 12.8367 66.355 12.924 66.4089L13.511 66.7709C13.4046 66.8881 13.2826 66.9879 13.149 67.0669C13.1042 67.0922 13.0646 67.1267 13.0325 67.1685C13.0003 67.2104 12.9763 67.2587 12.9618 67.3106C12.9473 67.3625 12.9427 67.417 12.9481 67.4708C12.9535 67.5247 12.969 67.5769 12.9935 67.6243C13.018 67.6717 13.051 67.7133 13.0908 67.7469C13.1305 67.7804 13.1761 67.8051 13.2249 67.8195C13.2736 67.8339 13.3246 67.8377 13.3747 67.8308C13.4249 67.8238 13.4733 67.8062 13.517 67.7789C13.772 67.628 13.998 67.4268 14.183 67.1859L15.705 68.1259L14.183 69.0659C13.998 68.8247 13.7721 68.6231 13.517 68.4719C13.4733 68.4447 13.4249 68.4271 13.3747 68.4201C13.3246 68.4132 13.2736 68.417 13.2249 68.4314C13.1761 68.4458 13.1305 68.4705 13.0908 68.504C13.051 68.5375 13.018 68.5792 12.9935 68.6266C12.969 68.674 12.9535 68.7262 12.9481 68.7801C12.9427 68.8339 12.9473 68.8884 12.9618 68.9403C12.9763 68.9922 13.0003 69.0405 13.0325 69.0823C13.0646 69.1242 13.1042 69.1587 13.149 69.1839C13.2826 69.2627 13.4045 69.3621 13.511 69.4789L12.924 69.8439C12.8784 69.8693 12.8382 69.9043 12.8056 69.9468C12.773 69.9893 12.7488 70.0384 12.7344 70.0912C12.7201 70.144 12.7158 70.1993 12.722 70.2539C12.7281 70.3085 12.7446 70.3612 12.7703 70.4088C12.796 70.4564 12.8304 70.4979 12.8715 70.5309C12.9126 70.5638 12.9595 70.5875 13.0094 70.6005C13.0592 70.6135 13.1111 70.6156 13.1617 70.6065C13.2123 70.5975 13.2607 70.5776 13.304 70.5479L13.891 70.1849C13.9329 70.3423 13.9527 70.5054 13.95 70.6689C13.9485 70.7766 13.9869 70.8806 14.0568 70.958C14.1267 71.0354 14.2224 71.08 14.323 71.0819H14.33C14.4295 71.082 14.525 71.0402 14.5961 70.9656C14.6671 70.891 14.708 70.7895 14.71 70.6829C14.7152 70.3714 14.6654 70.0616 14.563 69.7699L16.085 68.8299V70.7099C15.7975 70.7607 15.5217 70.8693 15.272 71.0299C15.2264 71.0559 15.1863 71.0916 15.154 71.1347C15.1217 71.1779 15.098 71.2276 15.0842 71.2809C15.0705 71.3342 15.0671 71.3899 15.0741 71.4447C15.0811 71.4994 15.0985 71.5521 15.1252 71.5994C15.1518 71.6468 15.1872 71.6878 15.2292 71.72C15.2711 71.7522 15.3188 71.7749 15.3692 71.7868C15.4196 71.7986 15.4717 71.7993 15.5224 71.7889C15.5731 71.7784 15.6213 71.757 15.664 71.7259C15.7946 71.6418 15.9361 71.5788 16.084 71.5389V72.1539C16.084 72.2619 16.124 72.3654 16.1953 72.4417C16.2665 72.5181 16.3632 72.5609 16.464 72.5609C16.5648 72.5609 16.6614 72.5181 16.7327 72.4417C16.8039 72.3654 16.844 72.2619 16.844 72.1539V71.5389C16.9925 71.5786 17.1347 71.6416 17.266 71.7259C17.3521 71.7781 17.4539 71.7922 17.5496 71.7652C17.6453 71.7383 17.7274 71.6724 17.7785 71.5816C17.8295 71.4908 17.8455 71.3823 17.823 71.2791C17.8005 71.1759 17.7413 71.0861 17.658 71.0289C17.4083 70.8683 17.1324 70.7597 16.845 70.7089V68.8289L18.367 69.7699C18.2642 70.0619 18.2139 70.372 18.219 70.6839C18.2209 70.7905 18.2618 70.892 18.3329 70.9666C18.4039 71.0412 18.4995 71.083 18.599 71.0829H18.607C18.6569 71.082 18.7062 71.0705 18.752 71.0491C18.7978 71.0277 18.8392 70.9968 18.8738 70.9583C18.9085 70.9197 18.9357 70.8742 18.9539 70.8244C18.9721 70.7746 18.981 70.7214 18.98 70.6679C18.9772 70.5044 18.9971 70.3413 19.039 70.1839L19.626 70.5469C19.6692 70.5779 19.7178 70.599 19.769 70.609C19.8201 70.6189 19.8726 70.6176 19.9232 70.605C19.9738 70.5924 20.0214 70.5688 20.0632 70.5357C20.105 70.5026 20.14 70.4606 20.166 70.4125C20.192 70.3643 20.2086 70.3109 20.2146 70.2557C20.2206 70.2004 20.216 70.1444 20.201 70.0911C20.186 70.0378 20.1609 69.9884 20.1274 69.9459C20.0938 69.9034 20.0525 69.8687 20.006 69.8439Z" fill="url(#paint2_radial_63_694)" stroke="url(#paint3_radial_63_694)" stroke-width="0.505"/>
<path d="M89.7799 69.843L89.1929 69.48C89.299 69.3628 89.4206 69.2631 89.5539 69.184C89.6355 69.1283 89.6941 69.0415 89.718 68.9411C89.7418 68.8408 89.7291 68.7344 89.6823 68.6438C89.6355 68.5532 89.5582 68.485 89.4662 68.4533C89.3741 68.4216 89.2743 68.4286 89.1869 68.473C88.9319 68.6239 88.7059 68.8251 88.5209 69.066L86.9989 68.124L88.5209 67.184C88.7055 67.4251 88.9311 67.6267 89.1859 67.778C89.2296 67.8052 89.278 67.8228 89.3282 67.8298C89.3783 67.8367 89.4293 67.8329 89.478 67.8185C89.5268 67.8041 89.5724 67.7794 89.6121 67.7459C89.6519 67.7124 89.6849 67.6707 89.7094 67.6233C89.7339 67.5759 89.7494 67.5237 89.7548 67.4699C89.7602 67.416 89.7556 67.3615 89.7411 67.3096C89.7266 67.2577 89.7026 67.2094 89.6704 67.1676C89.6383 67.1257 89.5987 67.0912 89.5539 67.066C89.4203 66.9869 89.2983 66.8872 89.1919 66.77L89.7799 66.407C89.8255 66.3816 89.8657 66.3466 89.8983 66.3041C89.9309 66.2616 89.9551 66.2125 89.9695 66.1597C89.9838 66.1069 89.9881 66.0516 89.9819 65.997C89.9758 65.9424 89.9593 65.8897 89.9336 65.8421C89.9079 65.7945 89.8735 65.753 89.8324 65.72C89.7913 65.6871 89.7444 65.6634 89.6945 65.6504C89.6447 65.6374 89.5928 65.6353 89.5422 65.6444C89.4916 65.6534 89.4432 65.6733 89.3999 65.703L88.8129 66.066C88.7708 65.909 88.7506 65.7462 88.7529 65.583C88.7549 65.4751 88.7169 65.3708 88.6471 65.293C88.5773 65.2152 88.4816 65.1702 88.3809 65.168H88.3739C88.2744 65.1679 88.1789 65.2097 88.1078 65.2843C88.0368 65.3589 87.9959 65.4604 87.9939 65.567C87.9887 65.8785 88.0385 66.1883 88.1409 66.48L86.6189 67.42V65.54C86.9064 65.4892 87.1822 65.3806 87.4319 65.22C87.5124 65.1615 87.5688 65.0721 87.5897 64.9704C87.6105 64.8686 87.5941 64.7622 87.5438 64.673C87.4936 64.5838 87.4134 64.5186 87.3196 64.4909C87.2259 64.4632 87.1258 64.475 87.0399 64.524C86.909 64.6082 86.7671 64.6712 86.6189 64.711V64.096C86.6189 63.988 86.5789 63.8845 86.5076 63.8082C86.4363 63.7318 86.3397 63.689 86.2389 63.689C86.1381 63.689 86.0415 63.7318 85.9702 63.8082C85.8989 63.8845 85.8589 63.988 85.8589 64.096V64.711C85.7107 64.6712 85.5688 64.6082 85.4379 64.524C85.3952 64.4929 85.347 64.4715 85.2963 64.461C85.2457 64.4506 85.1935 64.4513 85.1431 64.4631C85.0927 64.475 85.045 64.4977 85.0031 64.5299C84.9611 64.5621 84.9257 64.6031 84.8991 64.6505C84.8724 64.6978 84.855 64.7505 84.848 64.8052C84.841 64.86 84.8444 64.9157 84.8582 64.969C84.8719 65.0223 84.8956 65.072 84.9279 65.1152C84.9602 65.1583 85.0003 65.194 85.0459 65.22C85.2956 65.3806 85.5714 65.4892 85.8589 65.54V67.42L84.3369 66.48C84.4394 66.188 84.4893 65.8778 84.4839 65.566C84.482 65.4594 84.4411 65.3579 84.37 65.2833C84.2989 65.2087 84.2034 65.1669 84.1039 65.167H84.0969C83.9962 65.1689 83.9003 65.2136 83.8304 65.2913C83.7605 65.3689 83.7222 65.4731 83.7239 65.581C83.7263 65.7446 83.7061 65.9077 83.6639 66.065L83.0779 65.703C83.0347 65.6762 82.987 65.6589 82.9375 65.6519C82.888 65.6449 82.8377 65.6485 82.7895 65.6623C82.7413 65.6761 82.6961 65.7 82.6566 65.7326C82.617 65.7651 82.5837 65.8057 82.5588 65.852C82.5338 65.8983 82.5177 65.9494 82.5111 66.0024C82.5046 66.0553 82.5079 66.1092 82.5208 66.1608C82.5338 66.2125 82.556 66.2609 82.5864 66.3033C82.6168 66.3457 82.6547 66.3812 82.6979 66.408L83.2849 66.77C83.1785 66.8872 83.0565 66.9869 82.9229 67.066C82.8781 67.0912 82.8385 67.1257 82.8064 67.1676C82.7742 67.2094 82.7502 67.2577 82.7358 67.3096C82.7213 67.3615 82.7166 67.416 82.722 67.4699C82.7275 67.5237 82.7429 67.5759 82.7674 67.6233C82.7919 67.6707 82.825 67.7124 82.8647 67.7459C82.9044 67.7794 82.95 67.8041 82.9988 67.8185C83.0475 67.8329 83.0985 67.8367 83.1487 67.8298C83.1988 67.8228 83.2472 67.8052 83.2909 67.778C83.5459 67.6271 83.7719 67.4258 83.9569 67.185L85.4789 68.125L83.9569 69.065C83.772 68.8237 83.546 68.6222 83.2909 68.471C83.2472 68.4437 83.1988 68.4261 83.1487 68.4191C83.0985 68.4122 83.0475 68.416 82.9988 68.4304C82.95 68.4448 82.9044 68.4695 82.8647 68.503C82.825 68.5366 82.7919 68.5783 82.7674 68.6257C82.7429 68.6731 82.7275 68.7252 82.722 68.7791C82.7166 68.8329 82.7213 68.8874 82.7358 68.9393C82.7502 68.9912 82.7742 69.0395 82.8064 69.0814C82.8385 69.1232 82.8781 69.1577 82.9229 69.183C83.0565 69.2617 83.1785 69.3611 83.2849 69.478L82.6979 69.843C82.6524 69.8683 82.6121 69.9033 82.5795 69.9458C82.5469 69.9883 82.5227 70.0374 82.5083 70.0902C82.494 70.143 82.4898 70.1983 82.4959 70.2529C82.5021 70.3075 82.5185 70.3602 82.5442 70.4078C82.5699 70.4554 82.6043 70.4969 82.6454 70.5299C82.6865 70.5628 82.7334 70.5865 82.7833 70.5995C82.8332 70.6126 82.885 70.6146 82.9356 70.6056C82.9863 70.5965 83.0347 70.5766 83.0779 70.547L83.6649 70.184C83.7068 70.3413 83.7267 70.5044 83.7239 70.668C83.7224 70.7757 83.7608 70.8796 83.8307 70.957C83.9007 71.0344 83.9964 71.079 84.0969 71.081H84.1039C84.2034 71.081 84.2989 71.0392 84.37 70.9646C84.4411 70.89 84.482 70.7885 84.4839 70.682C84.4892 70.3704 84.4393 70.0606 84.3369 69.769L85.8589 68.829V70.709C85.5714 70.7597 85.2956 70.8683 85.0459 71.029C85.0003 71.0549 84.9602 71.0906 84.9279 71.1337C84.8956 71.1769 84.8719 71.2266 84.8582 71.2799C84.8444 71.3332 84.841 71.3889 84.848 71.4437C84.855 71.4985 84.8724 71.5511 84.8991 71.5985C84.9257 71.6458 84.9611 71.6868 85.0031 71.719C85.045 71.7512 85.0927 71.774 85.1431 71.7858C85.1935 71.7976 85.2457 71.7983 85.2963 71.7879C85.347 71.7774 85.3952 71.756 85.4379 71.725C85.5685 71.6408 85.7101 71.5778 85.8579 71.538V72.153C85.8579 72.2609 85.8979 72.3644 85.9692 72.4408C86.0405 72.5171 86.1371 72.56 86.2379 72.56C86.3387 72.56 86.4353 72.5171 86.5066 72.4408C86.5779 72.3644 86.6179 72.2609 86.6179 72.153V71.538C86.7664 71.5776 86.9087 71.6406 87.0399 71.725C87.1261 71.7771 87.2278 71.7912 87.3235 71.7643C87.4192 71.7373 87.5013 71.6714 87.5524 71.5806C87.6034 71.4899 87.6194 71.3813 87.5969 71.2781C87.5744 71.1749 87.5152 71.0852 87.4319 71.028C87.1822 70.8673 86.9064 70.7587 86.6189 70.708V68.828L88.1409 69.769C88.0381 70.0609 87.9879 70.371 87.9929 70.683C87.9949 70.7895 88.0358 70.891 88.1068 70.9656C88.1779 71.0402 88.2734 71.082 88.3729 71.082H88.3809C88.4308 71.081 88.4801 71.0695 88.5259 71.0481C88.5717 71.0267 88.6131 70.9958 88.6477 70.9573C88.6824 70.9188 88.7096 70.8733 88.7278 70.8235C88.746 70.7736 88.7549 70.7205 88.7539 70.667C88.7511 70.5034 88.771 70.3403 88.8129 70.183L89.3999 70.546C89.4431 70.5769 89.4918 70.598 89.5429 70.608C89.594 70.618 89.6465 70.6166 89.6971 70.604C89.7477 70.5914 89.7954 70.5678 89.8371 70.5347C89.8789 70.5016 89.9139 70.4597 89.9399 70.4115C89.9659 70.3633 89.9825 70.31 89.9885 70.2547C89.9945 70.1994 89.9899 70.1434 89.9749 70.0901C89.9599 70.0368 89.9348 69.9874 89.9013 69.9449C89.8678 69.9024 89.8265 69.8677 89.7799 69.843Z" fill="url(#paint4_radial_63_694)" stroke="url(#paint5_radial_63_694)" stroke-width="0.505"/>
<path d="M66.5219 69.843L65.9349 69.48C66.0409 69.3628 66.1625 69.2631 66.2959 69.184C66.3774 69.1283 66.4361 69.0415 66.4599 68.9411C66.4838 68.8408 66.471 68.7344 66.4242 68.6438C66.3774 68.5532 66.3002 68.485 66.2081 68.4533C66.1161 68.4216 66.0162 68.4286 65.9289 68.473C65.6739 68.6239 65.4479 68.8251 65.2629 69.066L63.7409 68.124L65.2629 67.184C65.4474 67.4251 65.6731 67.6267 65.9279 67.778C65.9716 67.8052 66.0199 67.8228 66.0701 67.8298C66.1203 67.8367 66.1712 67.8329 66.22 67.8185C66.2687 67.8041 66.3143 67.7794 66.3541 67.7459C66.3938 67.7124 66.4269 67.6707 66.4514 67.6233C66.4759 67.5759 66.4913 67.5237 66.4967 67.4699C66.5022 67.416 66.4975 67.3615 66.483 67.3096C66.4685 67.2577 66.4445 67.2094 66.4124 67.1676C66.3802 67.1257 66.3406 67.0912 66.2959 67.066C66.1622 66.9869 66.0402 66.8872 65.9339 66.77L66.5219 66.407C66.5674 66.3816 66.6077 66.3466 66.6403 66.3041C66.6728 66.2616 66.697 66.2125 66.7114 66.1597C66.7258 66.1069 66.73 66.0516 66.7239 65.997C66.7177 65.9424 66.7013 65.8897 66.6756 65.8421C66.6499 65.7945 66.6154 65.753 66.5744 65.72C66.5333 65.6871 66.4864 65.6634 66.4365 65.6504C66.3866 65.6374 66.3348 65.6353 66.2841 65.6444C66.2335 65.6534 66.1851 65.6733 66.1419 65.703L65.5549 66.066C65.5127 65.909 65.4925 65.7462 65.4949 65.583C65.4969 65.4751 65.4588 65.3708 65.389 65.293C65.3193 65.2152 65.2235 65.1702 65.1229 65.168H65.1159C65.0163 65.1679 64.9208 65.2097 64.8498 65.2843C64.7787 65.3589 64.7378 65.4604 64.7359 65.567C64.7306 65.8785 64.7805 66.1883 64.8829 66.48L63.3609 67.42V65.54C63.6483 65.4892 63.9242 65.3806 64.1739 65.22C64.2543 65.1615 64.3108 65.0721 64.3316 64.9704C64.3524 64.8686 64.336 64.7622 64.2858 64.673C64.2356 64.5838 64.1553 64.5186 64.0616 64.4909C63.9678 64.4632 63.8677 64.475 63.7819 64.524C63.6509 64.6082 63.509 64.6712 63.3609 64.711V64.096C63.3609 63.988 63.3208 63.8845 63.2496 63.8082C63.1783 63.7318 63.0816 63.689 62.9809 63.689C62.8801 63.689 62.7834 63.7318 62.7122 63.8082C62.6409 63.8845 62.6009 63.988 62.6009 64.096V64.711C62.4527 64.6712 62.3108 64.6082 62.1799 64.524C62.1371 64.4929 62.089 64.4715 62.0383 64.461C61.9876 64.4506 61.9355 64.4513 61.885 64.4631C61.8346 64.475 61.787 64.4977 61.745 64.5299C61.7031 64.5621 61.6677 64.6031 61.641 64.6505C61.6144 64.6978 61.597 64.7505 61.59 64.8052C61.5829 64.86 61.5864 64.9157 61.6001 64.969C61.6139 65.0223 61.6376 65.072 61.6699 65.1152C61.7021 65.1583 61.7423 65.194 61.7879 65.22C62.0375 65.3806 62.3134 65.4892 62.6009 65.54V67.42L61.0789 66.48C61.1813 66.188 61.2312 65.8778 61.2259 65.566C61.2239 65.4594 61.183 65.3579 61.1119 65.2833C61.0409 65.2087 60.9454 65.1669 60.8459 65.167H60.8389C60.7381 65.1689 60.6423 65.2136 60.5724 65.2913C60.5024 65.3689 60.4641 65.4731 60.4659 65.581C60.4683 65.7446 60.4481 65.9077 60.4059 66.065L59.8199 65.703C59.7326 65.649 59.6288 65.6344 59.5315 65.6623C59.4341 65.6903 59.3511 65.7585 59.3007 65.852C59.2503 65.9455 59.2367 66.0566 59.2628 66.1608C59.2889 66.2651 59.3526 66.354 59.4399 66.408L60.0269 66.77C59.9205 66.8872 59.7985 66.9869 59.6649 67.066C59.6201 67.0912 59.5805 67.1257 59.5483 67.1676C59.5162 67.2094 59.4922 67.2577 59.4777 67.3096C59.4632 67.3615 59.4585 67.416 59.464 67.4699C59.4694 67.5237 59.4848 67.5759 59.5093 67.6233C59.5338 67.6707 59.5669 67.7124 59.6066 67.7459C59.6464 67.7794 59.692 67.8041 59.7407 67.8185C59.7895 67.8329 59.8404 67.8367 59.8906 67.8298C59.9408 67.8228 59.9891 67.8052 60.0329 67.778C60.2878 67.6271 60.5138 67.4258 60.6989 67.185L62.2209 68.125L60.6989 69.065C60.5139 68.8237 60.2879 68.6222 60.0329 68.471C59.9891 68.4437 59.9408 68.4261 59.8906 68.4191C59.8404 68.4122 59.7895 68.416 59.7407 68.4304C59.692 68.4448 59.6464 68.4695 59.6066 68.503C59.5669 68.5366 59.5338 68.5783 59.5093 68.6257C59.4848 68.6731 59.4694 68.7252 59.464 68.7791C59.4585 68.8329 59.4632 68.8874 59.4777 68.9393C59.4922 68.9912 59.5162 69.0395 59.5483 69.0814C59.5805 69.1232 59.6201 69.1577 59.6649 69.183C59.7984 69.2617 59.9204 69.3611 60.0269 69.478L59.4399 69.843C59.3943 69.8683 59.354 69.9033 59.3214 69.9458C59.2889 69.9883 59.2647 70.0374 59.2503 70.0902C59.2359 70.143 59.2317 70.1983 59.2379 70.2529C59.244 70.3075 59.2604 70.3602 59.2861 70.4078C59.3118 70.4554 59.3463 70.4969 59.3874 70.5299C59.4284 70.5628 59.4753 70.5865 59.5252 70.5995C59.5751 70.6126 59.6269 70.6146 59.6776 70.6056C59.7282 70.5965 59.7766 70.5766 59.8199 70.547L60.4069 70.184C60.4487 70.3413 60.4686 70.5044 60.4659 70.668C60.4644 70.7757 60.5028 70.8796 60.5727 70.957C60.6426 71.0344 60.7383 71.079 60.8389 71.081H60.8459C60.9454 71.081 61.0409 71.0392 61.1119 70.9646C61.183 70.89 61.2239 70.7885 61.2259 70.682C61.2311 70.3704 61.1812 70.0606 61.0789 69.769L62.6009 68.829V70.709C62.3134 70.7597 62.0375 70.8683 61.7879 71.029C61.7423 71.0549 61.7021 71.0906 61.6699 71.1337C61.6376 71.1769 61.6139 71.2266 61.6001 71.2799C61.5864 71.3332 61.5829 71.3889 61.59 71.4437C61.597 71.4985 61.6144 71.5511 61.641 71.5985C61.6677 71.6458 61.7031 71.6868 61.745 71.719C61.787 71.7512 61.8346 71.774 61.885 71.7858C61.9355 71.7976 61.9876 71.7983 62.0383 71.7879C62.089 71.7774 62.1371 71.756 62.1799 71.725C62.3105 71.6408 62.452 71.5778 62.5999 71.538V72.153C62.5999 72.2609 62.6399 72.3644 62.7112 72.4408C62.7824 72.5171 62.8791 72.56 62.9799 72.56C63.0806 72.56 63.1773 72.5171 63.2486 72.4408C63.3198 72.3644 63.3599 72.2609 63.3599 72.153V71.538C63.5084 71.5776 63.6506 71.6406 63.7819 71.725C63.868 71.7771 63.9697 71.7912 64.0655 71.7643C64.1612 71.7373 64.2433 71.6714 64.2943 71.5806C64.3454 71.4899 64.3614 71.3813 64.3389 71.2781C64.3164 71.1749 64.2572 71.0852 64.1739 71.028C63.9242 70.8673 63.6483 70.7587 63.3609 70.708V68.828L64.8829 69.769C64.78 70.0609 64.7298 70.371 64.7349 70.683C64.7368 70.7895 64.7777 70.891 64.8488 70.9656C64.9198 71.0402 65.0153 71.082 65.1149 71.082H65.1229C65.1728 71.081 65.2221 71.0695 65.2679 71.0481C65.3136 71.0267 65.355 70.9958 65.3897 70.9573C65.4243 70.9188 65.4515 70.8733 65.4698 70.8235C65.488 70.7736 65.4968 70.7205 65.4959 70.667C65.4931 70.5034 65.513 70.3403 65.5549 70.183L66.1419 70.546C66.1851 70.5769 66.2337 70.598 66.2848 70.608C66.336 70.618 66.3884 70.6166 66.439 70.604C66.4897 70.5914 66.5373 70.5678 66.5791 70.5347C66.6208 70.5016 66.6558 70.4597 66.6819 70.4115C66.7079 70.3633 66.7244 70.31 66.7304 70.2547C66.7365 70.1994 66.7318 70.1434 66.7168 70.0901C66.7018 70.0368 66.6768 69.9874 66.6433 69.9449C66.6097 69.9024 66.5684 69.8677 66.5219 69.843Z" fill="url(#paint6_radial_63_694)" stroke="url(#paint7_radial_63_694)" stroke-width="0.505"/>
<path d="M43.2638 69.843L42.6768 69.48C42.7828 69.3628 42.9045 69.2631 43.0378 69.184C43.1193 69.1283 43.178 69.0415 43.2019 68.9411C43.2257 68.8408 43.2129 68.7344 43.1662 68.6438C43.1194 68.5532 43.0421 68.485 42.9501 68.4533C42.858 68.4216 42.7582 68.4286 42.6708 68.473C42.4158 68.6239 42.1898 68.8251 42.0048 69.066L40.4828 68.124L42.0048 67.184C42.1894 67.4251 42.415 67.6267 42.6698 67.778C42.7135 67.8052 42.7619 67.8228 42.812 67.8298C42.8622 67.8367 42.9132 67.8329 42.9619 67.8185C43.0107 67.8041 43.0563 67.7794 43.096 67.7459C43.1357 67.7124 43.1688 67.6707 43.1933 67.6233C43.2178 67.5759 43.2332 67.5237 43.2387 67.4699C43.2441 67.416 43.2394 67.3615 43.225 67.3096C43.2105 67.2577 43.1865 67.2094 43.1543 67.1676C43.1222 67.1257 43.0826 67.0912 43.0378 67.066C42.9042 66.9869 42.7822 66.8872 42.6758 66.77L43.2638 66.407C43.3093 66.3816 43.3496 66.3466 43.3822 66.3041C43.4148 66.2616 43.439 66.2125 43.4534 66.1597C43.4677 66.1069 43.472 66.0516 43.4658 65.997C43.4596 65.9424 43.4432 65.8897 43.4175 65.8421C43.3918 65.7945 43.3574 65.753 43.3163 65.72C43.2752 65.6871 43.2283 65.6634 43.1784 65.6504C43.1285 65.6374 43.0767 65.6353 43.0261 65.6444C42.9754 65.6534 42.927 65.6733 42.8838 65.703L42.2968 66.066C42.2547 65.909 42.2344 65.7462 42.2368 65.583C42.2388 65.4751 42.2007 65.3708 42.131 65.293C42.0612 65.2152 41.9655 65.1702 41.8648 65.168H41.8578C41.7583 65.1679 41.6628 65.2097 41.5917 65.2843C41.5207 65.3589 41.4798 65.4604 41.4778 65.567C41.4725 65.8785 41.5224 66.1883 41.6248 66.48L40.1028 67.42V65.54C40.3903 65.4892 40.6661 65.3806 40.9158 65.22C40.9963 65.1615 41.0527 65.0721 41.0735 64.9704C41.0944 64.8686 41.078 64.7622 41.0277 64.673C40.9775 64.5838 40.8972 64.5186 40.8035 64.4909C40.7098 64.4632 40.6096 64.475 40.5238 64.524C40.3929 64.6082 40.251 64.6712 40.1028 64.711V64.096C40.1028 63.988 40.0628 63.8845 39.9915 63.8082C39.9202 63.7318 39.8236 63.689 39.7228 63.689C39.622 63.689 39.5254 63.7318 39.4541 63.8082C39.3828 63.8845 39.3428 63.988 39.3428 64.096V64.711C39.1946 64.6712 39.0527 64.6082 38.9218 64.524C38.8791 64.4929 38.8309 64.4715 38.7802 64.461C38.7296 64.4506 38.6774 64.4513 38.627 64.4631C38.5766 64.475 38.5289 64.4977 38.487 64.5299C38.445 64.5621 38.4096 64.6031 38.383 64.6505C38.3563 64.6978 38.3389 64.7505 38.3319 64.8052C38.3249 64.86 38.3283 64.9157 38.3421 64.969C38.3558 65.0223 38.3795 65.072 38.4118 65.1152C38.4441 65.1583 38.4842 65.194 38.5298 65.22C38.7795 65.3806 39.0553 65.4892 39.3428 65.54V67.42L37.8208 66.48C37.9233 66.188 37.9732 65.8778 37.9678 65.566C37.9658 65.4594 37.9249 65.3579 37.8539 65.2833C37.7828 65.2087 37.6873 65.1669 37.5878 65.167H37.5808C37.4801 65.1689 37.3842 65.2136 37.3143 65.2913C37.2444 65.3689 37.206 65.4731 37.2078 65.581C37.2102 65.7446 37.19 65.9077 37.1478 66.065L36.5618 65.703C36.4745 65.649 36.3708 65.6344 36.2734 65.6623C36.1761 65.6903 36.0931 65.7585 36.0427 65.852C35.9923 65.9455 35.9786 66.0566 36.0047 66.1608C36.0308 66.2651 36.0945 66.354 36.1818 66.408L36.7688 66.77C36.6624 66.8872 36.5404 66.9869 36.4068 67.066C36.362 67.0912 36.3224 67.1257 36.2903 67.1676C36.2581 67.2094 36.2341 67.2577 36.2196 67.3096C36.2052 67.3615 36.2005 67.416 36.2059 67.4699C36.2113 67.5237 36.2268 67.5759 36.2513 67.6233C36.2758 67.6707 36.3088 67.7124 36.3486 67.7459C36.3883 67.7794 36.4339 67.8041 36.4827 67.8185C36.5314 67.8329 36.5824 67.8367 36.6325 67.8298C36.6827 67.8228 36.7311 67.8052 36.7748 67.778C37.0298 67.6271 37.2558 67.4258 37.4408 67.185L38.9628 68.125L37.4408 69.065C37.2559 68.8237 37.0299 68.6222 36.7748 68.471C36.7311 68.4437 36.6827 68.4261 36.6325 68.4191C36.5824 68.4122 36.5314 68.416 36.4827 68.4304C36.4339 68.4448 36.3883 68.4695 36.3486 68.503C36.3088 68.5366 36.2758 68.5783 36.2513 68.6257C36.2268 68.6731 36.2113 68.7252 36.2059 68.7791C36.2005 68.8329 36.2052 68.8874 36.2196 68.9393C36.2341 68.9912 36.2581 69.0395 36.2903 69.0814C36.3224 69.1232 36.362 69.1577 36.4068 69.183C36.5404 69.2617 36.6624 69.3611 36.7688 69.478L36.1818 69.843C36.1362 69.8683 36.096 69.9033 36.0634 69.9458C36.0308 69.9883 36.0066 70.0374 35.9922 70.0902C35.9779 70.143 35.9736 70.1983 35.9798 70.2529C35.986 70.3075 36.0024 70.3602 36.0281 70.4078C36.0538 70.4554 36.0882 70.4969 36.1293 70.5299C36.1704 70.5628 36.2173 70.5865 36.2672 70.5995C36.317 70.6126 36.3689 70.6146 36.4195 70.6056C36.4701 70.5965 36.5185 70.5766 36.5618 70.547L37.1488 70.184C37.1907 70.3413 37.2106 70.5044 37.2078 70.668C37.2063 70.7757 37.2447 70.8796 37.3146 70.957C37.3845 71.0344 37.4803 71.079 37.5808 71.081H37.5878C37.6873 71.081 37.7828 71.0392 37.8539 70.9646C37.9249 70.89 37.9658 70.7885 37.9678 70.682C37.973 70.3704 37.9232 70.0606 37.8208 69.769L39.3428 68.829V70.709C39.0553 70.7597 38.7795 70.8683 38.5298 71.029C38.4842 71.0549 38.4441 71.0906 38.4118 71.1337C38.3795 71.1769 38.3558 71.2266 38.3421 71.2799C38.3283 71.3332 38.3249 71.3889 38.3319 71.4437C38.3389 71.4985 38.3563 71.5511 38.383 71.5985C38.4096 71.6458 38.445 71.6868 38.487 71.719C38.5289 71.7512 38.5766 71.774 38.627 71.7858C38.6774 71.7976 38.7296 71.7983 38.7802 71.7879C38.8309 71.7774 38.8791 71.756 38.9218 71.725C39.0524 71.6408 39.1939 71.5778 39.3418 71.538V72.153C39.3418 72.2609 39.3818 72.3644 39.4531 72.4408C39.5244 72.5171 39.621 72.56 39.7218 72.56C39.8226 72.56 39.9192 72.5171 39.9905 72.4408C40.0618 72.3644 40.1018 72.2609 40.1018 72.153V71.538C40.2503 71.5776 40.3926 71.6406 40.5238 71.725C40.6099 71.7771 40.7117 71.7912 40.8074 71.7643C40.9031 71.7373 40.9852 71.6714 41.0363 71.5806C41.0873 71.4899 41.1033 71.3813 41.0808 71.2781C41.0583 71.1749 40.9991 71.0852 40.9158 71.028C40.6661 70.8673 40.3903 70.7587 40.1028 70.708V68.828L41.6248 69.769C41.522 70.0609 41.4718 70.371 41.4768 70.683C41.4788 70.7895 41.5196 70.891 41.5907 70.9656C41.6618 71.0402 41.7573 71.082 41.8568 71.082H41.8648C41.9147 71.081 41.964 71.0695 42.0098 71.0481C42.0556 71.0267 42.097 70.9958 42.1316 70.9573C42.1663 70.9188 42.1935 70.8733 42.2117 70.8235C42.2299 70.7736 42.2388 70.7205 42.2378 70.667C42.235 70.5034 42.2549 70.3403 42.2968 70.183L42.8838 70.546C42.927 70.5769 42.9757 70.598 43.0268 70.608C43.0779 70.618 43.1304 70.6166 43.181 70.604C43.2316 70.5914 43.2793 70.5678 43.321 70.5347C43.3628 70.5016 43.3978 70.4597 43.4238 70.4115C43.4498 70.3633 43.4664 70.31 43.4724 70.2547C43.4784 70.1994 43.4738 70.1434 43.4588 70.0901C43.4438 70.0368 43.4187 69.9874 43.3852 69.9449C43.3517 69.9024 43.3103 69.8677 43.2638 69.843Z" fill="url(#paint8_radial_63_694)" stroke="url(#paint9_radial_63_694)" stroke-width="0.505"/>
<path d="M33.775 84.3339L33.188 83.9709C33.2941 83.8538 33.4157 83.754 33.549 83.6749C33.6306 83.6193 33.6892 83.5324 33.7131 83.4321C33.7369 83.3317 33.7242 83.2254 33.6774 83.1348C33.6306 83.0441 33.5533 82.976 33.4613 82.9443C33.3693 82.9125 33.2694 82.9196 33.182 82.9639C32.927 83.1148 32.7011 83.316 32.516 83.5569L30.994 82.6149L32.516 81.6749C32.7006 81.9161 32.9263 82.1177 33.181 82.2689C33.2247 82.2962 33.2731 82.3138 33.3233 82.3207C33.3734 82.3277 33.4244 82.3239 33.4732 82.3095C33.5219 82.2951 33.5675 82.2704 33.6072 82.2368C33.647 82.2033 33.6801 82.1616 33.7046 82.1142C33.7291 82.0668 33.7445 82.0147 33.7499 81.9608C33.7553 81.907 33.7507 81.8525 33.7362 81.8006C33.7217 81.7487 33.6977 81.7004 33.6655 81.6585C33.6334 81.6167 33.5938 81.5822 33.549 81.5569C33.4154 81.4779 33.2934 81.3781 33.187 81.2609L33.775 80.8979C33.8206 80.8726 33.8609 80.8376 33.8934 80.7951C33.926 80.7526 33.9502 80.7035 33.9646 80.6507C33.979 80.5979 33.9832 80.5426 33.977 80.488C33.9709 80.4334 33.9544 80.3807 33.9287 80.3331C33.9031 80.2855 33.8686 80.244 33.8275 80.211C33.7864 80.1781 33.7395 80.1544 33.6897 80.1413C33.6398 80.1283 33.588 80.1263 33.5373 80.1353C33.4867 80.1444 33.4383 80.1643 33.395 80.1939L32.808 80.5569C32.7659 80.4 32.7457 80.2372 32.748 80.0739C32.75 79.9661 32.712 79.8618 32.6422 79.784C32.5725 79.7062 32.4767 79.6612 32.376 79.6589H32.369C32.2695 79.6589 32.174 79.7007 32.1029 79.7753C32.0319 79.8499 31.991 79.9514 31.989 80.0579C31.9838 80.3695 32.0337 80.6792 32.136 80.9709L30.614 81.9109V80.0309C30.9015 79.9802 31.1774 79.8716 31.427 79.7109C31.5075 79.6524 31.5639 79.5631 31.5848 79.4613C31.6056 79.3596 31.5892 79.2532 31.539 79.164C31.4887 79.0748 31.4085 79.0096 31.3147 78.9819C31.221 78.9542 31.1209 78.966 31.035 79.0149C30.9041 79.0992 30.7622 79.1622 30.614 79.2019V78.5869C30.614 78.479 30.574 78.3755 30.5027 78.2991C30.4315 78.2228 30.3348 78.1799 30.234 78.1799C30.1332 78.1799 30.0366 78.2228 29.9653 78.2991C29.8941 78.3755 29.854 78.479 29.854 78.5869V79.2019C29.7058 79.1622 29.564 79.0992 29.433 79.0149C29.3903 78.9839 29.3422 78.9625 29.2915 78.952C29.2408 78.9416 29.1886 78.9423 29.1382 78.9541C29.0878 78.9659 29.0402 78.9887 28.9982 79.0209C28.9563 79.0531 28.9209 79.0941 28.8942 79.1414C28.8675 79.1888 28.8502 79.2414 28.8431 79.2962C28.8361 79.351 28.8396 79.4067 28.8533 79.46C28.867 79.5133 28.8908 79.563 28.923 79.6062C28.9553 79.6493 28.9955 79.685 29.041 79.7109C29.2907 79.8716 29.5666 79.9802 29.854 80.0309V81.9109L28.332 80.9709C28.4345 80.6789 28.4844 80.3688 28.479 80.0569C28.4771 79.9504 28.4362 79.8489 28.3651 79.7743C28.2941 79.6997 28.1985 79.6579 28.099 79.6579H28.092C27.9913 79.6599 27.8955 79.7046 27.8255 79.7822C27.7556 79.8599 27.7173 79.9641 27.719 80.0719C27.7215 80.2355 27.7012 80.3986 27.659 80.5559L27.073 80.1939C26.9857 80.14 26.882 80.1253 26.7847 80.1533C26.6873 80.1812 26.6043 80.2494 26.5539 80.3429C26.5035 80.4364 26.4899 80.5475 26.516 80.6518C26.542 80.7561 26.6057 80.845 26.693 80.8989L27.28 81.2609C27.1736 81.3781 27.0517 81.4779 26.918 81.5569C26.8733 81.5822 26.8336 81.6167 26.8015 81.6585C26.7694 81.7004 26.7454 81.7487 26.7309 81.8006C26.7164 81.8525 26.7117 81.907 26.7171 81.9608C26.7226 82.0147 26.738 82.0668 26.7625 82.1142C26.787 82.1616 26.8201 82.2033 26.8598 82.2368C26.8996 82.2704 26.9451 82.2951 26.9939 82.3095C27.0427 82.3239 27.0936 82.3277 27.1438 82.3207C27.1939 82.3138 27.2423 82.2962 27.286 82.2689C27.541 82.118 27.767 81.9168 27.952 81.6759L29.474 82.6159L27.952 83.5559C27.7671 83.3147 27.5411 83.1131 27.286 82.9619C27.2423 82.9347 27.1939 82.9171 27.1438 82.9101C27.0936 82.9031 27.0427 82.907 26.9939 82.9214C26.9451 82.9358 26.8996 82.9605 26.8598 82.994C26.8201 83.0275 26.787 83.0692 26.7625 83.1166C26.738 83.164 26.7226 83.2162 26.7171 83.27C26.7117 83.3239 26.7164 83.3784 26.7309 83.4303C26.7454 83.4822 26.7694 83.5305 26.8015 83.5723C26.8336 83.6142 26.8733 83.6487 26.918 83.6739C27.0516 83.7527 27.1736 83.8521 27.28 83.9689L26.693 84.3339C26.6475 84.3593 26.6072 84.3943 26.5746 84.4368C26.542 84.4793 26.5178 84.5284 26.5035 84.5812C26.4891 84.6339 26.4849 84.6893 26.491 84.7439C26.4972 84.7985 26.5136 84.8512 26.5393 84.8988C26.565 84.9464 26.5994 84.9879 26.6405 85.0209C26.6816 85.0538 26.7285 85.0775 26.7784 85.0905C26.8283 85.1035 26.8801 85.1056 26.9307 85.0965C26.9814 85.0875 27.0298 85.0676 27.073 85.0379L27.66 84.6749C27.7019 84.8323 27.7218 84.9954 27.719 85.1589C27.7175 85.2666 27.7559 85.3706 27.8259 85.448C27.8958 85.5254 27.9915 85.57 28.092 85.5719H28.099C28.1985 85.572 28.2941 85.5302 28.3651 85.4556C28.4362 85.381 28.4771 85.2795 28.479 85.1729C28.4843 84.8614 28.4344 84.5516 28.332 84.2599L29.854 83.3199V85.1999C29.5666 85.2507 29.2907 85.3593 29.041 85.5199C28.9955 85.5459 28.9553 85.5816 28.923 85.6247C28.8908 85.6678 28.867 85.7176 28.8533 85.7709C28.8396 85.8242 28.8361 85.8799 28.8431 85.9347C28.8502 85.9894 28.8675 86.0421 28.8942 86.0894C28.9209 86.1368 28.9563 86.1778 28.9982 86.21C29.0402 86.2422 29.0878 86.2649 29.1382 86.2768C29.1886 86.2886 29.2408 86.2893 29.2915 86.2789C29.3422 86.2684 29.3903 86.247 29.433 86.2159C29.5636 86.1318 29.7052 86.0688 29.853 86.0289V86.6439C29.853 86.7519 29.8931 86.8554 29.9643 86.9317C30.0356 87.0081 30.1322 87.0509 30.233 87.0509C30.3338 87.0509 30.4305 87.0081 30.5017 86.9317C30.573 86.8554 30.613 86.7519 30.613 86.6439V86.0289C30.7616 86.0686 30.9038 86.1316 31.035 86.2159C31.1212 86.2681 31.2229 86.2822 31.3186 86.2552C31.4143 86.2283 31.4964 86.1624 31.5475 86.0716C31.5986 85.9808 31.6145 85.8723 31.592 85.7691C31.5695 85.6659 31.5103 85.5761 31.427 85.5189C31.1774 85.3583 30.9015 85.2497 30.614 85.1989V83.3189L32.136 84.2599C32.0332 84.5519 31.983 84.862 31.988 85.1739C31.99 85.2805 32.0309 85.382 32.1019 85.4566C32.173 85.5312 32.2685 85.5729 32.368 85.5729H32.376C32.426 85.572 32.4752 85.5604 32.521 85.5391C32.5668 85.5177 32.6082 85.4868 32.6429 85.4483C32.6775 85.4097 32.7047 85.3642 32.7229 85.3144C32.7411 85.2646 32.75 85.2114 32.749 85.1579C32.7463 84.9944 32.7661 84.8313 32.808 84.6739L33.395 85.0369C33.4382 85.0679 33.4869 85.089 33.538 85.0989C33.5891 85.1089 33.6416 85.1076 33.6922 85.095C33.7428 85.0824 33.7905 85.0588 33.8323 85.0257C33.874 84.9926 33.909 84.9506 33.935 84.9025C33.9611 84.8543 33.9776 84.8009 33.9836 84.7457C33.9896 84.6904 33.985 84.6344 33.97 84.5811C33.955 84.5278 33.93 84.4784 33.8964 84.4359C33.8629 84.3934 33.8216 84.3587 33.775 84.3339Z" fill="url(#paint10_radial_63_694)" stroke="url(#paint11_radial_63_694)" stroke-width="0.505"/>
<path d="M54.0619 84.3339L53.4749 83.9709C53.5809 83.8538 53.7026 83.754 53.8359 83.6749C53.9174 83.6193 53.9761 83.5324 54 83.4321C54.0238 83.3317 54.011 83.2254 53.9643 83.1348C53.9175 83.0441 53.8402 82.976 53.7482 82.9443C53.6561 82.9125 53.5563 82.9196 53.4689 82.9639C53.2139 83.1148 52.9879 83.316 52.8029 83.5569L51.2809 82.6149L52.8029 81.6749C52.9875 81.9161 53.2131 82.1177 53.4679 82.2689C53.5116 82.2962 53.56 82.3138 53.6101 82.3207C53.6603 82.3277 53.7113 82.3239 53.76 82.3095C53.8088 82.2951 53.8544 82.2704 53.8941 82.2368C53.9338 82.2033 53.9669 82.1616 53.9914 82.1142C54.0159 82.0668 54.0313 82.0147 54.0368 81.9608C54.0422 81.907 54.0375 81.8525 54.023 81.8006C54.0086 81.7487 53.9845 81.7004 53.9524 81.6585C53.9203 81.6167 53.8807 81.5822 53.8359 81.5569C53.7023 81.4779 53.5803 81.3781 53.4739 81.2609L54.0619 80.8979C54.1074 80.8726 54.1477 80.8376 54.1803 80.7951C54.2129 80.7526 54.2371 80.7035 54.2515 80.6507C54.2658 80.5979 54.2701 80.5426 54.2639 80.488C54.2577 80.4334 54.2413 80.3807 54.2156 80.3331C54.1899 80.2855 54.1555 80.244 54.1144 80.211C54.0733 80.1781 54.0264 80.1544 53.9765 80.1413C53.9266 80.1283 53.8748 80.1263 53.8242 80.1353C53.7735 80.1444 53.7251 80.1643 53.6819 80.1939L53.0949 80.5569C53.0528 80.4 53.0325 80.2372 53.0349 80.0739C53.0369 79.9661 52.9988 79.8618 52.9291 79.784C52.8593 79.7062 52.7636 79.6612 52.6629 79.6589H52.6559C52.5564 79.6589 52.4609 79.7007 52.3898 79.7753C52.3187 79.8499 52.2778 79.9514 52.2759 80.0579C52.2706 80.3695 52.3205 80.6792 52.4229 80.9709L50.9009 81.9109V80.0309C51.1884 79.9802 51.4642 79.8716 51.7139 79.7109C51.7944 79.6524 51.8508 79.5631 51.8716 79.4613C51.8925 79.3596 51.8761 79.2532 51.8258 79.164C51.7756 79.0748 51.6953 79.0096 51.6016 78.9819C51.5078 78.9542 51.4077 78.966 51.3219 79.0149C51.191 79.0992 51.0491 79.1622 50.9009 79.2019V78.5869C50.9009 78.479 50.8609 78.3755 50.7896 78.2991C50.7183 78.2228 50.6217 78.1799 50.5209 78.1799C50.4201 78.1799 50.3235 78.2228 50.2522 78.2991C50.1809 78.3755 50.1409 78.479 50.1409 78.5869V79.2019C49.9927 79.1622 49.8508 79.0992 49.7199 79.0149C49.6772 78.9839 49.629 78.9625 49.5783 78.952C49.5277 78.9416 49.4755 78.9423 49.4251 78.9541C49.3747 78.9659 49.327 78.9887 49.2851 79.0209C49.2431 79.0531 49.2077 79.0941 49.1811 79.1414C49.1544 79.1888 49.137 79.2414 49.13 79.2962C49.123 79.351 49.1264 79.4067 49.1402 79.46C49.1539 79.5133 49.1776 79.563 49.2099 79.6062C49.2422 79.6493 49.2823 79.685 49.3279 79.7109C49.5776 79.8716 49.8534 79.9802 50.1409 80.0309V81.9109L48.6189 80.9709C48.7214 80.6789 48.7713 80.3688 48.7659 80.0569C48.7639 79.9504 48.723 79.8489 48.652 79.7743C48.5809 79.6997 48.4854 79.6579 48.3859 79.6579H48.3789C48.2782 79.6599 48.1823 79.7046 48.1124 79.7822C48.0424 79.8599 48.0041 79.9641 48.0059 80.0719C48.0083 80.2355 47.9881 80.3986 47.9459 80.5559L47.3599 80.1939C47.3167 80.1672 47.269 80.1499 47.2195 80.1429C47.17 80.1359 47.1197 80.1394 47.0715 80.1533C47.0233 80.1671 46.9781 80.191 46.9385 80.2235C46.8989 80.2561 46.8657 80.2966 46.8408 80.3429C46.8158 80.3892 46.7996 80.4403 46.7931 80.4933C46.7866 80.5463 46.7899 80.6002 46.8028 80.6518C46.8157 80.7034 46.838 80.7518 46.8684 80.7942C46.8988 80.8366 46.9367 80.8722 46.9799 80.8989L47.5669 81.2609C47.4605 81.3781 47.3385 81.4779 47.2049 81.5569C47.1601 81.5822 47.1205 81.6167 47.0884 81.6585C47.0562 81.7004 47.0322 81.7487 47.0177 81.8006C47.0033 81.8525 46.9986 81.907 47.004 81.9608C47.0094 82.0147 47.0249 82.0668 47.0494 82.1142C47.0739 82.1616 47.1069 82.2033 47.1467 82.2368C47.1864 82.2704 47.232 82.2951 47.2808 82.3095C47.3295 82.3239 47.3805 82.3277 47.4306 82.3207C47.4808 82.3138 47.5292 82.2962 47.5729 82.2689C47.8279 82.118 48.0539 81.9168 48.2389 81.6759L49.7609 82.6159L48.2389 83.5559C48.0539 83.3147 47.828 83.1131 47.5729 82.9619C47.5292 82.9347 47.4808 82.9171 47.4306 82.9101C47.3805 82.9031 47.3295 82.907 47.2808 82.9214C47.232 82.9358 47.1864 82.9605 47.1467 82.994C47.1069 83.0275 47.0739 83.0692 47.0494 83.1166C47.0249 83.164 47.0094 83.2162 47.004 83.27C46.9986 83.3239 47.0033 83.3784 47.0177 83.4303C47.0322 83.4822 47.0562 83.5305 47.0884 83.5723C47.1205 83.6142 47.1601 83.6487 47.2049 83.6739C47.3385 83.7527 47.4605 83.8521 47.5669 83.9689L46.9799 84.3339C46.9343 84.3593 46.8941 84.3943 46.8615 84.4368C46.8289 84.4793 46.8047 84.5284 46.7903 84.5812C46.776 84.6339 46.7717 84.6893 46.7779 84.7439C46.7841 84.7985 46.8005 84.8512 46.8262 84.8988C46.8519 84.9464 46.8863 84.9879 46.9274 85.0209C46.9685 85.0538 47.0154 85.0775 47.0653 85.0905C47.1151 85.1035 47.167 85.1056 47.2176 85.0965C47.2682 85.0875 47.3166 85.0676 47.3599 85.0379L47.9469 84.6749C47.9888 84.8323 48.0087 84.9954 48.0059 85.1589C48.0044 85.2666 48.0428 85.3706 48.1127 85.448C48.1826 85.5254 48.2784 85.57 48.3789 85.5719H48.3859C48.4854 85.572 48.5809 85.5302 48.652 85.4556C48.723 85.381 48.7639 85.2795 48.7659 85.1729C48.7711 84.8614 48.7213 84.5516 48.6189 84.2599L50.1409 83.3199V85.1999C49.8534 85.2507 49.5776 85.3593 49.3279 85.5199C49.2823 85.5459 49.2422 85.5816 49.2099 85.6247C49.1776 85.6678 49.1539 85.7176 49.1402 85.7709C49.1264 85.8242 49.123 85.8799 49.13 85.9347C49.137 85.9894 49.1544 86.0421 49.1811 86.0894C49.2077 86.1368 49.2431 86.1778 49.2851 86.21C49.327 86.2422 49.3747 86.2649 49.4251 86.2768C49.4755 86.2886 49.5277 86.2893 49.5783 86.2789C49.629 86.2684 49.6772 86.247 49.7199 86.2159C49.8505 86.1318 49.992 86.0688 50.1399 86.0289V86.6439C50.1399 86.7519 50.1799 86.8554 50.2512 86.9317C50.3225 87.0081 50.4191 87.0509 50.5199 87.0509C50.6207 87.0509 50.7173 87.0081 50.7886 86.9317C50.8599 86.8554 50.8999 86.7519 50.8999 86.6439V86.0289C51.0484 86.0686 51.1906 86.1316 51.3219 86.2159C51.408 86.2681 51.5098 86.2822 51.6055 86.2552C51.7012 86.2283 51.7833 86.1624 51.8344 86.0716C51.8854 85.9808 51.9014 85.8723 51.8789 85.7691C51.8564 85.6659 51.7972 85.5761 51.7139 85.5189C51.4642 85.3583 51.1884 85.2497 50.9009 85.1989V83.3189L52.4229 84.2599C52.3201 84.5519 52.2698 84.862 52.2749 85.1739C52.2768 85.2805 52.3177 85.382 52.3888 85.4566C52.4598 85.5312 52.5554 85.5729 52.6549 85.5729H52.6629C52.7128 85.572 52.7621 85.5604 52.8079 85.5391C52.8537 85.5177 52.8951 85.4868 52.9297 85.4483C52.9644 85.4097 52.9916 85.3642 53.0098 85.3144C53.028 85.2646 53.0369 85.2114 53.0359 85.1579C53.0331 84.9944 53.053 84.8313 53.0949 84.6739L53.6819 85.0369C53.7251 85.0679 53.7738 85.089 53.8249 85.0989C53.876 85.1089 53.9285 85.1076 53.9791 85.095C54.0297 85.0824 54.0774 85.0588 54.1191 85.0257C54.1609 84.9926 54.1959 84.9506 54.2219 84.9025C54.2479 84.8543 54.2645 84.8009 54.2705 84.7457C54.2765 84.6904 54.2719 84.6344 54.2569 84.5811C54.2419 84.5278 54.2168 84.4784 54.1833 84.4359C54.1498 84.3934 54.1084 84.3587 54.0619 84.3339Z" fill="url(#paint12_radial_63_694)" stroke="url(#paint13_radial_63_694)" stroke-width="0.505"/>
<path d="M13.4879 84.3339L12.9009 83.9709C13.007 83.8538 13.1286 83.754 13.2619 83.6749C13.3435 83.6193 13.4021 83.5324 13.426 83.4321C13.4498 83.3317 13.4371 83.2254 13.3903 83.1348C13.3435 83.0441 13.2662 82.976 13.1742 82.9443C13.0822 82.9125 12.9823 82.9196 12.8949 82.9639C12.6399 83.1148 12.4139 83.316 12.2289 83.5569L10.7069 82.6149L12.2289 81.6749C12.4135 81.9161 12.6392 82.1177 12.8939 82.2689C12.9376 82.2962 12.986 82.3138 13.0362 82.3207C13.0863 82.3277 13.1373 82.3239 13.186 82.3095C13.2348 82.2951 13.2804 82.2704 13.3201 82.2368C13.3599 82.2033 13.3929 82.1616 13.4174 82.1142C13.4419 82.0668 13.4574 82.0147 13.4628 81.9608C13.4682 81.907 13.4636 81.8525 13.4491 81.8006C13.4346 81.7487 13.4106 81.7004 13.3784 81.6585C13.3463 81.6167 13.3067 81.5822 13.2619 81.5569C13.1283 81.4779 13.0063 81.3781 12.8999 81.2609L13.4879 80.8979C13.5335 80.8726 13.5737 80.8376 13.6063 80.7951C13.6389 80.7526 13.6631 80.7035 13.6775 80.6507C13.6918 80.5979 13.6961 80.5426 13.6899 80.488C13.6838 80.4334 13.6673 80.3807 13.6416 80.3331C13.6159 80.2855 13.5815 80.244 13.5404 80.211C13.4993 80.1781 13.4524 80.1544 13.4025 80.1413C13.3527 80.1283 13.3008 80.1263 13.2502 80.1353C13.1996 80.1444 13.1512 80.1643 13.1079 80.1939L12.5209 80.5569C12.4788 80.4 12.4586 80.2372 12.4609 80.0739C12.4629 79.9661 12.4249 79.8618 12.3551 79.784C12.2854 79.7062 12.1896 79.6612 12.0889 79.6589H12.0819C11.9824 79.6589 11.8869 79.7007 11.8158 79.7753C11.7448 79.8499 11.7039 79.9514 11.7019 80.0579C11.6967 80.3695 11.7465 80.6792 11.8489 80.9709L10.3269 81.9109V80.0309C10.6144 79.9802 10.8902 79.8716 11.1399 79.7109C11.2204 79.6524 11.2768 79.5631 11.2977 79.4613C11.3185 79.3596 11.3021 79.2532 11.2519 79.164C11.2016 79.0748 11.1214 79.0096 11.0276 78.9819C10.9339 78.9542 10.8338 78.966 10.7479 79.0149C10.617 79.0992 10.4751 79.1622 10.3269 79.2019V78.5869C10.3269 78.479 10.2869 78.3755 10.2156 78.2991C10.1444 78.2228 10.0477 78.1799 9.94692 78.1799C9.84613 78.1799 9.74948 78.2228 9.67822 78.2991C9.60695 78.3755 9.56692 78.479 9.56692 78.5869V79.2019C9.41872 79.1622 9.27685 79.0992 9.14592 79.0149C9.10321 78.9839 9.05505 78.9625 9.00436 78.952C8.95368 78.9416 8.90153 78.9423 8.85111 78.9541C8.80069 78.9659 8.75305 78.9887 8.7111 79.0209C8.66914 79.0531 8.63376 79.0941 8.60709 79.1414C8.58043 79.1888 8.56305 79.2414 8.55602 79.2962C8.54899 79.351 8.55244 79.4067 8.56618 79.46C8.57992 79.5133 8.60365 79.563 8.63593 79.6062C8.66821 79.6493 8.70835 79.685 8.75392 79.7109C9.00359 79.8716 9.27945 79.9802 9.56692 80.0309V81.9109L8.04492 80.9709C8.1474 80.6789 8.19728 80.3688 8.19192 80.0569C8.18996 79.9504 8.14906 79.8489 8.07801 79.7743C8.00696 79.6997 7.91142 79.6579 7.81192 79.6579H7.80492C7.70421 79.6599 7.60835 79.7046 7.53841 79.7822C7.46847 79.8599 7.43017 79.9641 7.43192 80.0719C7.43435 80.2355 7.41414 80.3986 7.37192 80.5559L6.78592 80.1939C6.7427 80.1672 6.69499 80.1499 6.64551 80.1429C6.59603 80.1359 6.54575 80.1394 6.49755 80.1533C6.44934 80.1671 6.40415 80.191 6.36456 80.2235C6.32497 80.2561 6.29175 80.2966 6.2668 80.3429C6.24185 80.3892 6.22566 80.4403 6.21914 80.4933C6.21263 80.5463 6.21593 80.6002 6.22885 80.6518C6.24176 80.7034 6.26405 80.7518 6.29443 80.7942C6.32481 80.8366 6.3627 80.8722 6.40592 80.8989L6.99292 81.2609C6.88654 81.3781 6.76456 81.4779 6.63092 81.5569C6.58615 81.5822 6.54654 81.6167 6.5144 81.6585C6.48226 81.7004 6.45825 81.7487 6.44376 81.8006C6.42927 81.8525 6.42461 81.907 6.43004 81.9608C6.43547 82.0147 6.45089 82.0668 6.47539 82.1142C6.49988 82.1616 6.53297 82.2033 6.57271 82.2368C6.61244 82.2704 6.65803 82.2951 6.70679 82.3095C6.75555 82.3239 6.80651 82.3277 6.85667 82.3207C6.90683 82.3138 6.95519 82.2962 6.99892 82.2689C7.2539 82.118 7.47988 81.9168 7.66492 81.6759L9.18692 82.6159L7.66492 83.5559C7.47997 83.3147 7.25398 83.1131 6.99892 82.9619C6.95519 82.9347 6.90683 82.9171 6.85667 82.9101C6.80651 82.9031 6.75555 82.907 6.70679 82.9214C6.65803 82.9358 6.61244 82.9605 6.57271 82.994C6.53297 83.0275 6.49988 83.0692 6.47539 83.1166C6.45089 83.164 6.43547 83.2162 6.43004 83.27C6.42461 83.3239 6.42927 83.3784 6.44376 83.4303C6.45825 83.4822 6.48226 83.5305 6.5144 83.5723C6.54654 83.6142 6.58615 83.6487 6.63092 83.6739C6.76449 83.7527 6.88648 83.8521 6.99292 83.9689L6.40592 84.3339C6.36037 84.3593 6.32009 84.3943 6.28751 84.4368C6.25493 84.4793 6.23072 84.5284 6.21636 84.5812C6.20199 84.6339 6.19776 84.6893 6.20392 84.7439C6.21008 84.7985 6.2265 84.8512 6.25219 84.8988C6.27789 84.9464 6.31232 84.9879 6.35341 85.0209C6.39451 85.0538 6.44141 85.0775 6.49129 85.0905C6.54117 85.1035 6.59299 85.1056 6.64363 85.0965C6.69427 85.0875 6.74267 85.0676 6.78592 85.0379L7.37292 84.6749C7.4148 84.8323 7.43468 84.9954 7.43192 85.1589C7.43042 85.2666 7.46883 85.3706 7.53875 85.448C7.60866 85.5254 7.70437 85.57 7.80492 85.5719H7.81192C7.91142 85.572 8.00696 85.5302 8.07801 85.4556C8.14906 85.381 8.18996 85.2795 8.19192 85.1729C8.19716 84.8614 8.14729 84.5516 8.04492 84.2599L9.56692 83.3199V85.1999C9.27945 85.2507 9.00359 85.3593 8.75392 85.5199C8.70835 85.5459 8.66821 85.5816 8.63593 85.6247C8.60365 85.6678 8.57992 85.7176 8.56618 85.7709C8.55244 85.8242 8.54899 85.8799 8.55602 85.9347C8.56305 85.9894 8.58043 86.0421 8.60709 86.0894C8.63376 86.1368 8.66914 86.1778 8.7111 86.21C8.75305 86.2422 8.80069 86.2649 8.85111 86.2768C8.90153 86.2886 8.95368 86.2893 9.00436 86.2789C9.05505 86.2684 9.10321 86.247 9.14592 86.2159C9.27654 86.1318 9.41807 86.0688 9.56592 86.0289V86.6439C9.56592 86.7519 9.60595 86.8554 9.67722 86.9317C9.74848 87.0081 9.84513 87.0509 9.94592 87.0509C10.0467 87.0509 10.1434 87.0081 10.2146 86.9317C10.2859 86.8554 10.3259 86.7519 10.3259 86.6439V86.0289C10.4745 86.0686 10.6167 86.1316 10.7479 86.2159C10.8341 86.2681 10.9358 86.2822 11.0315 86.2552C11.1272 86.2283 11.2093 86.1624 11.2604 86.0716C11.3114 85.9808 11.3274 85.8723 11.3049 85.7691C11.2824 85.6659 11.2232 85.5761 11.1399 85.5189C10.8902 85.3583 10.6144 85.2497 10.3269 85.1989V83.3189L11.8489 84.2599C11.7461 84.5519 11.6959 84.862 11.7009 85.1739C11.7029 85.2805 11.7438 85.382 11.8148 85.4566C11.8859 85.5312 11.9814 85.5729 12.0809 85.5729H12.0889C12.1389 85.572 12.1881 85.5604 12.2339 85.5391C12.2797 85.5177 12.3211 85.4868 12.3558 85.4483C12.3904 85.4097 12.4176 85.3642 12.4358 85.3144C12.454 85.2646 12.4629 85.2114 12.4619 85.1579C12.4592 84.9944 12.479 84.8313 12.5209 84.6739L13.1079 85.0369C13.1511 85.0679 13.1998 85.089 13.2509 85.0989C13.302 85.1089 13.3545 85.1076 13.4051 85.095C13.4557 85.0824 13.5034 85.0588 13.5451 85.0257C13.5869 84.9926 13.6219 84.9506 13.6479 84.9025C13.674 84.8543 13.6905 84.8009 13.6965 84.7457C13.7025 84.6904 13.6979 84.6344 13.6829 84.5811C13.6679 84.5278 13.6429 84.4784 13.6093 84.4359C13.5758 84.3934 13.5345 84.3587 13.4879 84.3339Z" fill="url(#paint14_radial_63_694)" stroke="url(#paint15_radial_63_694)" stroke-width="0.505"/>
<path d="M74.5619 84.3339L73.9749 83.9709C74.0809 83.8538 74.2026 83.754 74.3359 83.6749C74.4174 83.6193 74.4761 83.5324 74.5 83.4321C74.5238 83.3317 74.511 83.2254 74.4643 83.1348C74.4175 83.0441 74.3402 82.976 74.2482 82.9443C74.1561 82.9125 74.0563 82.9196 73.9689 82.9639C73.7139 83.1148 73.4879 83.316 73.3029 83.5569L71.7809 82.6149L73.3029 81.6749C73.4875 81.9161 73.7131 82.1177 73.9679 82.2689C74.0116 82.2962 74.06 82.3138 74.1101 82.3207C74.1603 82.3277 74.2113 82.3239 74.26 82.3095C74.3088 82.2951 74.3544 82.2704 74.3941 82.2368C74.4338 82.2033 74.4669 82.1616 74.4914 82.1142C74.5159 82.0668 74.5313 82.0147 74.5368 81.9608C74.5422 81.907 74.5375 81.8525 74.523 81.8006C74.5086 81.7487 74.4845 81.7004 74.4524 81.6585C74.4203 81.6167 74.3807 81.5822 74.3359 81.5569C74.2023 81.4779 74.0803 81.3781 73.9739 81.2609L74.5619 80.8979C74.6074 80.8726 74.6477 80.8376 74.6803 80.7951C74.7129 80.7526 74.7371 80.7035 74.7515 80.6507C74.7658 80.5979 74.7701 80.5426 74.7639 80.488C74.7577 80.4334 74.7413 80.3807 74.7156 80.3331C74.6899 80.2855 74.6555 80.244 74.6144 80.211C74.5733 80.1781 74.5264 80.1544 74.4765 80.1413C74.4266 80.1283 74.3748 80.1263 74.3242 80.1353C74.2735 80.1444 74.2251 80.1643 74.1819 80.1939L73.5949 80.5569C73.5528 80.4 73.5326 80.2372 73.5349 80.0739C73.5369 79.9661 73.4988 79.8618 73.4291 79.784C73.3593 79.7062 73.2636 79.6612 73.1629 79.6589H73.1559C73.0564 79.6589 72.9609 79.7007 72.8898 79.7753C72.8187 79.8499 72.7778 79.9514 72.7759 80.0579C72.7706 80.3695 72.8205 80.6792 72.9229 80.9709L71.4009 81.9109V80.0309C71.6884 79.9802 71.9642 79.8716 72.2139 79.7109C72.2944 79.6524 72.3508 79.5631 72.3716 79.4613C72.3925 79.3596 72.3761 79.2532 72.3258 79.164C72.2756 79.0748 72.1953 79.0096 72.1016 78.9819C72.0078 78.9542 71.9077 78.966 71.8219 79.0149C71.691 79.0992 71.5491 79.1622 71.4009 79.2019V78.5869C71.4009 78.479 71.3609 78.3755 71.2896 78.2991C71.2183 78.2228 71.1217 78.1799 71.0209 78.1799C70.9201 78.1799 70.8235 78.2228 70.7522 78.2991C70.6809 78.3755 70.6409 78.479 70.6409 78.5869V79.2019C70.4927 79.1622 70.3508 79.0992 70.2199 79.0149C70.1772 78.9839 70.129 78.9625 70.0783 78.952C70.0277 78.9416 69.9755 78.9423 69.9251 78.9541C69.8747 78.9659 69.827 78.9887 69.7851 79.0209C69.7431 79.0531 69.7077 79.0941 69.6811 79.1414C69.6544 79.1888 69.637 79.2414 69.63 79.2962C69.623 79.351 69.6264 79.4067 69.6402 79.46C69.6539 79.5133 69.6776 79.563 69.7099 79.6062C69.7422 79.6493 69.7823 79.685 69.8279 79.7109C70.0776 79.8716 70.3534 79.9802 70.6409 80.0309V81.9109L69.1189 80.9709C69.2214 80.6789 69.2713 80.3688 69.2659 80.0569C69.2639 79.9504 69.223 79.8489 69.152 79.7743C69.0809 79.6997 68.9854 79.6579 68.8859 79.6579H68.8789C68.7782 79.6599 68.6823 79.7046 68.6124 79.7822C68.5424 79.8599 68.5041 79.9641 68.5059 80.0719C68.5087 80.2355 68.4888 80.3986 68.4469 80.5559L67.8599 80.1939C67.8167 80.1672 67.769 80.1499 67.7195 80.1429C67.67 80.1359 67.6197 80.1394 67.5715 80.1533C67.5233 80.1671 67.4781 80.191 67.4385 80.2235C67.3989 80.2561 67.3657 80.2966 67.3408 80.3429C67.3158 80.3892 67.2996 80.4403 67.2931 80.4933C67.2866 80.5463 67.2899 80.6002 67.3028 80.6518C67.3157 80.7034 67.338 80.7518 67.3684 80.7942C67.3988 80.8366 67.4367 80.8722 67.4799 80.8989L68.0669 81.2609C67.9605 81.3781 67.8385 81.4779 67.7049 81.5569C67.6601 81.5822 67.6205 81.6167 67.5884 81.6585C67.5562 81.7004 67.5322 81.7487 67.5177 81.8006C67.5033 81.8525 67.4986 81.907 67.504 81.9608C67.5095 82.0147 67.5249 82.0668 67.5494 82.1142C67.5739 82.1616 67.6069 82.2033 67.6467 82.2368C67.6864 82.2704 67.732 82.2951 67.7808 82.3095C67.8295 82.3239 67.8805 82.3277 67.9306 82.3207C67.9808 82.3138 68.0292 82.2962 68.0729 82.2689C68.3279 82.118 68.5539 81.9168 68.7389 81.6759L70.2609 82.6159L68.7389 83.5559C68.5539 83.3147 68.328 83.1131 68.0729 82.9619C68.0291 82.9334 67.9804 82.9147 67.9297 82.9069C67.879 82.8991 67.8273 82.9023 67.7778 82.9165C67.7283 82.9306 67.682 82.9553 67.6416 82.9891C67.6012 83.0228 67.5677 83.065 67.5429 83.1131C67.5181 83.1611 67.5027 83.214 67.4975 83.2686C67.4923 83.3232 67.4975 83.3783 67.5127 83.4307C67.528 83.4831 67.5529 83.5317 67.5861 83.5735C67.6193 83.6153 67.6601 83.6494 67.7059 83.6739C67.8391 83.7528 67.9608 83.8522 68.0669 83.9689L67.4799 84.3339C67.4343 84.3593 67.3941 84.3943 67.3615 84.4368C67.3289 84.4793 67.3047 84.5284 67.2903 84.5812C67.276 84.6339 67.2717 84.6893 67.2779 84.7439C67.2841 84.7985 67.3005 84.8512 67.3262 84.8988C67.3519 84.9464 67.3863 84.9879 67.4274 85.0209C67.4685 85.0538 67.5154 85.0775 67.5653 85.0905C67.6151 85.1035 67.667 85.1056 67.7176 85.0965C67.7682 85.0875 67.8166 85.0676 67.8599 85.0379L68.4469 84.6749C68.4888 84.8323 68.5087 84.9954 68.5059 85.1589C68.5044 85.2666 68.5428 85.3706 68.6127 85.448C68.6826 85.5254 68.7783 85.57 68.8789 85.5719H68.8859C68.9854 85.572 69.0809 85.5302 69.152 85.4556C69.223 85.381 69.2639 85.2795 69.2659 85.1729C69.2711 84.8614 69.2213 84.5516 69.1189 84.2599L70.6409 83.3199V85.1999C70.3534 85.2507 70.0776 85.3593 69.8279 85.5199C69.7823 85.5459 69.7422 85.5816 69.7099 85.6247C69.6776 85.6678 69.6539 85.7176 69.6402 85.7709C69.6264 85.8242 69.623 85.8799 69.63 85.9347C69.637 85.9894 69.6544 86.0421 69.6811 86.0894C69.7077 86.1368 69.7431 86.1778 69.7851 86.21C69.827 86.2422 69.8747 86.2649 69.9251 86.2768C69.9755 86.2886 70.0277 86.2893 70.0783 86.2789C70.129 86.2684 70.1772 86.247 70.2199 86.2159C70.3505 86.1318 70.492 86.0688 70.6399 86.0289V86.6439C70.6399 86.7519 70.6799 86.8554 70.7512 86.9317C70.8225 87.0081 70.9191 87.0509 71.0199 87.0509C71.1207 87.0509 71.2173 87.0081 71.2886 86.9317C71.3599 86.8554 71.3999 86.7519 71.3999 86.6439V86.0289C71.5484 86.0686 71.6906 86.1316 71.8219 86.2159C71.908 86.2681 72.0098 86.2822 72.1055 86.2552C72.2012 86.2283 72.2833 86.1624 72.3344 86.0716C72.3854 85.9808 72.4014 85.8723 72.3789 85.7691C72.3564 85.6659 72.2972 85.5761 72.2139 85.5189C71.9642 85.3583 71.6884 85.2497 71.4009 85.1989V83.3189L72.9229 84.2599C72.8201 84.5519 72.7698 84.862 72.7749 85.1739C72.7768 85.2805 72.8177 85.382 72.8888 85.4566C72.9599 85.5312 73.0554 85.5729 73.1549 85.5729H73.1629C73.2128 85.572 73.2621 85.5604 73.3079 85.5391C73.3537 85.5177 73.3951 85.4868 73.4297 85.4483C73.4644 85.4097 73.4916 85.3642 73.5098 85.3144C73.528 85.2646 73.5369 85.2114 73.5359 85.1579C73.5331 84.9944 73.553 84.8313 73.5949 84.6739L74.1819 85.0369C74.2251 85.0679 74.2738 85.089 74.3249 85.0989C74.376 85.1089 74.4285 85.1076 74.4791 85.095C74.5297 85.0824 74.5774 85.0588 74.6191 85.0257C74.6609 84.9926 74.6959 84.9506 74.7219 84.9025C74.7479 84.8543 74.7645 84.8009 74.7705 84.7457C74.7765 84.6904 74.7719 84.6344 74.7569 84.5811C74.7419 84.5278 74.7168 84.4784 74.6833 84.4359C74.6498 84.3934 74.6084 84.3587 74.5619 84.3339Z" fill="url(#paint16_radial_63_694)" stroke="url(#paint17_radial_63_694)" stroke-width="0.505"/>
</g>
<defs>
<linearGradient id="paint0_linear_63_694" x1="48.9415" y1="0.646528" x2="49.0083" y2="44.0541" gradientUnits="userSpaceOnUse">
<stop stop-color="#65BAEB"/>
<stop offset="1" stop-color="#233C77"/>
</linearGradient>
<linearGradient id="paint1_linear_63_694" x1="47.1579" y1="14.736" x2="47.2239" y2="58.223" gradientUnits="userSpaceOnUse">
<stop stop-color="#65BAEB"/>
<stop offset="1" stop-color="#233C77"/>
</linearGradient>
<radialGradient id="paint2_radial_63_694" cx="0" cy="0" r="1" gradientUnits="userSpaceOnUse" gradientTransform="translate(16.47 68.125) scale(3.99912 4.68743)">
<stop stop-color="#85B2EE"/>
<stop offset="1" stop-color="#DCEEF9"/>
</radialGradient>
<radialGradient id="paint3_radial_63_694" cx="0" cy="0" r="1" gradientUnits="userSpaceOnUse" gradientTransform="translate(16.47 68.125) scale(3.99912 4.68743)">
<stop stop-color="#85B2EE"/>
<stop offset="1" stop-color="#DCEEF9"/>
</radialGradient>
<radialGradient id="paint4_radial_63_694" cx="0" cy="0" r="1" gradientUnits="userSpaceOnUse" gradientTransform="translate(86.2439 68.125) scale(3.99912 4.68743)">
<stop stop-color="#85B2EE"/>
<stop offset="1" stop-color="#DCEEF9"/>
</radialGradient>
<radialGradient id="paint5_radial_63_694" cx="0" cy="0" r="1" gradientUnits="userSpaceOnUse" gradientTransform="translate(86.2439 68.125) scale(3.99912 4.68743)">
<stop stop-color="#85B2EE"/>
<stop offset="1" stop-color="#DCEEF9"/>
</radialGradient>
<radialGradient id="paint6_radial_63_694" cx="0" cy="0" r="1" gradientUnits="userSpaceOnUse" gradientTransform="translate(62.9858 68.125) scale(3.99912 4.68743)">
<stop stop-color="#85B2EE"/>
<stop offset="1" stop-color="#DCEEF9"/>
</radialGradient>
<radialGradient id="paint7_radial_63_694" cx="0" cy="0" r="1" gradientUnits="userSpaceOnUse" gradientTransform="translate(62.9858 68.125) scale(3.99912 4.68743)">
<stop stop-color="#85B2EE"/>
<stop offset="1" stop-color="#DCEEF9"/>
</radialGradient>
<radialGradient id="paint8_radial_63_694" cx="0" cy="0" r="1" gradientUnits="userSpaceOnUse" gradientTransform="translate(39.7278 68.125) scale(3.99912 4.68743)">
<stop stop-color="#85B2EE"/>
<stop offset="1" stop-color="#DCEEF9"/>
</radialGradient>
<radialGradient id="paint9_radial_63_694" cx="0" cy="0" r="1" gradientUnits="userSpaceOnUse" gradientTransform="translate(39.7278 68.125) scale(3.99912 4.68743)">
<stop stop-color="#85B2EE"/>
<stop offset="1" stop-color="#DCEEF9"/>
</radialGradient>
<radialGradient id="paint10_radial_63_694" cx="0" cy="0" r="1" gradientUnits="userSpaceOnUse" gradientTransform="translate(30.239 82.616) scale(3.99912 4.68743)">
<stop stop-color="#85B2EE"/>
<stop offset="1" stop-color="#DCEEF9"/>
</radialGradient>
<radialGradient id="paint11_radial_63_694" cx="0" cy="0" r="1" gradientUnits="userSpaceOnUse" gradientTransform="translate(30.239 82.616) scale(3.99912 4.68743)">
<stop stop-color="#85B2EE"/>
<stop offset="1" stop-color="#DCEEF9"/>
</radialGradient>
<radialGradient id="paint12_radial_63_694" cx="0" cy="0" r="1" gradientUnits="userSpaceOnUse" gradientTransform="translate(50.5259 82.616) scale(3.99912 4.68743)">
<stop stop-color="#85B2EE"/>
<stop offset="1" stop-color="#DCEEF9"/>
</radialGradient>
<radialGradient id="paint13_radial_63_694" cx="0" cy="0" r="1" gradientUnits="userSpaceOnUse" gradientTransform="translate(50.5259 82.616) scale(3.99912 4.68743)">
<stop stop-color="#85B2EE"/>
<stop offset="1" stop-color="#DCEEF9"/>
</radialGradient>
<radialGradient id="paint14_radial_63_694" cx="0" cy="0" r="1" gradientUnits="userSpaceOnUse" gradientTransform="translate(9.95189 82.616) scale(3.99912 4.68743)">
<stop stop-color="#85B2EE"/>
<stop offset="1" stop-color="#DCEEF9"/>
</radialGradient>
<radialGradient id="paint15_radial_63_694" cx="0" cy="0" r="1" gradientUnits="userSpaceOnUse" gradientTransform="translate(9.95189 82.616) scale(3.99912 4.68743)">
<stop stop-color="#85B2EE"/>
<stop offset="1" stop-color="#DCEEF9"/>
</radialGradient>
<radialGradient id="paint16_radial_63_694" cx="0" cy="0" r="1" gradientUnits="userSpaceOnUse" gradientTransform="translate(71.0259 82.615) scale(3.99912 4.68743)">
<stop stop-color="#85B2EE"/>
<stop offset="1" stop-color="#DCEEF9"/>
</radialGradient>
<radialGradient id="paint17_radial_63_694" cx="0" cy="0" r="1" gradientUnits="userSpaceOnUse" gradientTransform="translate(71.0259 82.615) scale(3.99912 4.68743)">
<stop stop-color="#85B2EE"/>
<stop offset="1" stop-color="#DCEEF9"/>
</radialGradient>
<clipPath id="clip0_63_694">
<rect width="100" height="100" fill="white"/>
</clipPath>
</defs>
</svg>
