<svg width="100" height="100" viewBox="0 0 100 100" fill="none" xmlns="http://www.w3.org/2000/svg">
<g clip-path="url(#clip0_63_268)">
<path d="M6.40189 44.626H96.0689C96.0689 44.626 106.275 31.169 92.4489 18.603C78.8759 6.26703 64.8899 15.871 64.8899 15.871C64.8899 15.871 56.2809 -3.50597 39.9779 1.15003C23.6749 5.80903 22.3679 19.287 22.3679 19.287C22.3679 19.287 5.85989 19.623 3.14189 29.91C0.423889 40.197 6.40189 44.626 6.40189 44.626Z" fill="url(#paint0_linear_63_268)"/>
<path d="M3.92691 58.7958H93.5939C93.5939 58.7958 104.826 45.6038 93.8639 30.4748C82.2339 14.4258 63.1219 27.7428 63.1219 27.7428C63.1219 27.7428 53.8059 10.6628 37.5029 15.3218C21.1999 19.9808 20.4239 34.3418 20.4239 34.3418C20.4239 34.3418 3.38391 33.7928 0.666911 44.0798C-2.05009 54.3668 3.92691 58.7958 3.92691 58.7958Z" fill="url(#paint1_linear_63_268)"/>
<path d="M20.006 69.8439L19.419 69.4809C19.525 69.3638 19.6467 69.264 19.78 69.1849C19.8615 69.1293 19.9202 69.0424 19.944 68.9421C19.9679 68.8417 19.9551 68.7354 19.9083 68.6448C19.8616 68.5541 19.7843 68.486 19.6923 68.4543C19.6002 68.4225 19.5003 68.4296 19.413 68.4739C19.158 68.6248 18.932 68.8261 18.747 69.0669L17.225 68.1249L18.747 67.1849C18.9316 67.4261 19.1572 67.6277 19.412 67.7789C19.4557 67.8062 19.5041 67.8238 19.5542 67.8308C19.6044 67.8377 19.6554 67.8339 19.7041 67.8195C19.7529 67.8051 19.7985 67.7804 19.8382 67.7469C19.8779 67.7133 19.911 67.6717 19.9355 67.6243C19.96 67.5769 19.9754 67.5247 19.9809 67.4708C19.9863 67.417 19.9816 67.3625 19.9671 67.3106C19.9527 67.2587 19.9286 67.2104 19.8965 67.1685C19.8644 67.1267 19.8247 67.0922 19.78 67.0669C19.6463 66.9879 19.5244 66.8881 19.418 66.7709L20.006 66.4079C20.0515 66.3826 20.0918 66.3476 20.1244 66.3051C20.157 66.2626 20.1812 66.2135 20.1955 66.1607C20.2099 66.1079 20.2141 66.0526 20.208 65.998C20.2018 65.9434 20.1854 65.8907 20.1597 65.8431C20.134 65.7955 20.0996 65.754 20.0585 65.721C20.0174 65.6881 19.9705 65.6644 19.9206 65.6514C19.8707 65.6384 19.8189 65.6363 19.7683 65.6454C19.7176 65.6544 19.6692 65.6743 19.626 65.7039L19.039 66.0669C18.9969 65.91 18.9766 65.7472 18.979 65.5839C18.981 65.4761 18.9429 65.3718 18.8732 65.294C18.8034 65.2162 18.7077 65.1712 18.607 65.1689H18.6C18.5005 65.1689 18.4049 65.2107 18.3339 65.2853C18.2628 65.3599 18.2219 65.4614 18.22 65.5679C18.2147 65.8795 18.2646 66.1893 18.367 66.4809L16.845 67.4209V65.5409C17.1324 65.4902 17.4083 65.3816 17.658 65.2209C17.7384 65.1624 17.7949 65.0731 17.8157 64.9714C17.8366 64.8696 17.8202 64.7632 17.7699 64.674C17.7197 64.5848 17.6394 64.5196 17.5457 64.4919C17.4519 64.4642 17.3518 64.476 17.266 64.5249C17.1351 64.6092 16.9932 64.6722 16.845 64.7119V64.0969C16.845 63.989 16.8049 63.8855 16.7337 63.8092C16.6624 63.7328 16.5658 63.6899 16.465 63.6899C16.3642 63.6899 16.2675 63.7328 16.1963 63.8092C16.125 63.8855 16.085 63.989 16.085 64.0969V64.7119C15.9368 64.6722 15.7949 64.6092 15.664 64.5249C15.6213 64.4939 15.5731 64.4725 15.5224 64.462C15.4717 64.4516 15.4196 64.4523 15.3692 64.4641C15.3188 64.476 15.2711 64.4987 15.2292 64.5309C15.1872 64.5631 15.1518 64.6041 15.1252 64.6514C15.0985 64.6988 15.0811 64.7514 15.0741 64.8062C15.0671 64.861 15.0705 64.9167 15.0842 64.97C15.098 65.0233 15.1217 65.073 15.154 65.1162C15.1863 65.1593 15.2264 65.195 15.272 65.2209C15.5217 65.3816 15.7975 65.4902 16.085 65.5409V67.4209L14.563 66.4809C14.6655 66.1889 14.7153 65.8788 14.71 65.5669C14.708 65.4604 14.6671 65.3589 14.5961 65.2843C14.525 65.2097 14.4295 65.1679 14.33 65.1679H14.323C14.2223 65.1699 14.1264 65.2146 14.0565 65.2923C13.9865 65.3699 13.9482 65.4741 13.95 65.5819C13.9524 65.7456 13.9322 65.9087 13.89 66.0659L13.304 65.7039C13.2167 65.65 13.113 65.6353 13.0156 65.6633C12.9183 65.6912 12.8353 65.7595 12.7849 65.8529C12.7345 65.9464 12.7208 66.0575 12.7469 66.1618C12.773 66.2661 12.8367 66.355 12.924 66.4089L13.511 66.7709C13.4046 66.8881 13.2826 66.9879 13.149 67.0669C13.1042 67.0922 13.0646 67.1267 13.0325 67.1685C13.0003 67.2104 12.9763 67.2587 12.9618 67.3106C12.9473 67.3625 12.9427 67.417 12.9481 67.4708C12.9535 67.5247 12.969 67.5769 12.9935 67.6243C13.018 67.6717 13.051 67.7133 13.0908 67.7469C13.1305 67.7804 13.1761 67.8051 13.2249 67.8195C13.2736 67.8339 13.3246 67.8377 13.3747 67.8308C13.4249 67.8238 13.4733 67.8062 13.517 67.7789C13.772 67.628 13.998 67.4268 14.183 67.1859L15.705 68.1259L14.183 69.0659C13.998 68.8247 13.7721 68.6231 13.517 68.4719C13.4733 68.4447 13.4249 68.4271 13.3747 68.4201C13.3246 68.4132 13.2736 68.417 13.2249 68.4314C13.1761 68.4458 13.1305 68.4705 13.0908 68.504C13.051 68.5375 13.018 68.5792 12.9935 68.6266C12.969 68.674 12.9535 68.7262 12.9481 68.7801C12.9427 68.8339 12.9473 68.8884 12.9618 68.9403C12.9763 68.9922 13.0003 69.0405 13.0325 69.0823C13.0646 69.1242 13.1042 69.1587 13.149 69.1839C13.2826 69.2627 13.4045 69.3621 13.511 69.4789L12.924 69.8439C12.8784 69.8693 12.8382 69.9043 12.8056 69.9468C12.773 69.9893 12.7488 70.0384 12.7344 70.0912C12.7201 70.144 12.7158 70.1993 12.722 70.2539C12.7281 70.3085 12.7446 70.3612 12.7703 70.4088C12.796 70.4564 12.8304 70.4979 12.8715 70.5309C12.9126 70.5638 12.9595 70.5875 13.0094 70.6005C13.0592 70.6135 13.1111 70.6156 13.1617 70.6065C13.2123 70.5975 13.2607 70.5776 13.304 70.5479L13.891 70.1849C13.9329 70.3423 13.9527 70.5054 13.95 70.6689C13.9485 70.7766 13.9869 70.8806 14.0568 70.958C14.1267 71.0354 14.2224 71.08 14.323 71.0819H14.33C14.4295 71.082 14.525 71.0402 14.5961 70.9656C14.6671 70.891 14.708 70.7895 14.71 70.6829C14.7152 70.3714 14.6654 70.0616 14.563 69.7699L16.085 68.8299V70.7099C15.7975 70.7607 15.5217 70.8693 15.272 71.0299C15.2264 71.0559 15.1863 71.0916 15.154 71.1347C15.1217 71.1779 15.098 71.2276 15.0842 71.2809C15.0705 71.3342 15.0671 71.3899 15.0741 71.4447C15.0811 71.4994 15.0985 71.5521 15.1252 71.5994C15.1518 71.6468 15.1872 71.6878 15.2292 71.72C15.2711 71.7522 15.3188 71.7749 15.3692 71.7868C15.4196 71.7986 15.4717 71.7993 15.5224 71.7889C15.5731 71.7784 15.6213 71.757 15.664 71.7259C15.7946 71.6418 15.9361 71.5788 16.084 71.5389V72.1539C16.084 72.2619 16.124 72.3654 16.1953 72.4417C16.2665 72.5181 16.3632 72.5609 16.464 72.5609C16.5648 72.5609 16.6614 72.5181 16.7327 72.4417C16.8039 72.3654 16.844 72.2619 16.844 72.1539V71.5389C16.9925 71.5786 17.1347 71.6416 17.266 71.7259C17.3521 71.7781 17.4539 71.7922 17.5496 71.7652C17.6453 71.7383 17.7274 71.6724 17.7785 71.5816C17.8295 71.4908 17.8455 71.3823 17.823 71.2791C17.8005 71.1759 17.7413 71.0861 17.658 71.0289C17.4083 70.8683 17.1324 70.7597 16.845 70.7089V68.8289L18.367 69.7699C18.2642 70.0619 18.2139 70.372 18.219 70.6839C18.2209 70.7905 18.2618 70.892 18.3329 70.9666C18.4039 71.0412 18.4995 71.083 18.599 71.0829H18.607C18.6569 71.082 18.7062 71.0705 18.752 71.0491C18.7978 71.0277 18.8392 70.9968 18.8738 70.9583C18.9085 70.9197 18.9357 70.8742 18.9539 70.8244C18.9721 70.7746 18.981 70.7214 18.98 70.6679C18.9772 70.5044 18.9971 70.3413 19.039 70.1839L19.626 70.5469C19.6692 70.5779 19.7178 70.599 19.769 70.609C19.8201 70.6189 19.8726 70.6176 19.9232 70.605C19.9738 70.5924 20.0214 70.5688 20.0632 70.5357C20.105 70.5026 20.14 70.4606 20.166 70.4125C20.192 70.3643 20.2086 70.3109 20.2146 70.2557C20.2206 70.2004 20.216 70.1444 20.201 70.0911C20.186 70.0378 20.1609 69.9884 20.1274 69.9459C20.0938 69.9034 20.0525 69.8687 20.006 69.8439Z" fill="url(#paint2_radial_63_268)" stroke="url(#paint3_radial_63_268)" stroke-width="0.505"/>
<path d="M89.7799 69.843L89.1929 69.48C89.299 69.3628 89.4206 69.2631 89.5539 69.184C89.6355 69.1283 89.6941 69.0415 89.718 68.9411C89.7418 68.8408 89.7291 68.7344 89.6823 68.6438C89.6355 68.5532 89.5582 68.485 89.4662 68.4533C89.3741 68.4216 89.2743 68.4286 89.1869 68.473C88.9319 68.6239 88.7059 68.8251 88.5209 69.066L86.9989 68.124L88.5209 67.184C88.7055 67.4251 88.9311 67.6267 89.1859 67.778C89.2296 67.8052 89.278 67.8228 89.3282 67.8298C89.3783 67.8367 89.4293 67.8329 89.478 67.8185C89.5268 67.8041 89.5724 67.7794 89.6121 67.7459C89.6519 67.7124 89.6849 67.6707 89.7094 67.6233C89.7339 67.5759 89.7494 67.5237 89.7548 67.4699C89.7602 67.416 89.7556 67.3615 89.7411 67.3096C89.7266 67.2577 89.7026 67.2094 89.6704 67.1676C89.6383 67.1257 89.5987 67.0912 89.5539 67.066C89.4203 66.9869 89.2983 66.8872 89.1919 66.77L89.7799 66.407C89.8255 66.3816 89.8657 66.3466 89.8983 66.3041C89.9309 66.2616 89.9551 66.2125 89.9695 66.1597C89.9838 66.1069 89.9881 66.0516 89.9819 65.997C89.9758 65.9424 89.9593 65.8897 89.9336 65.8421C89.9079 65.7945 89.8735 65.753 89.8324 65.72C89.7913 65.6871 89.7444 65.6634 89.6945 65.6504C89.6447 65.6374 89.5928 65.6353 89.5422 65.6444C89.4916 65.6534 89.4432 65.6733 89.3999 65.703L88.8129 66.066C88.7708 65.909 88.7506 65.7462 88.7529 65.583C88.7549 65.4751 88.7169 65.3708 88.6471 65.293C88.5773 65.2152 88.4816 65.1702 88.3809 65.168H88.3739C88.2744 65.1679 88.1789 65.2097 88.1078 65.2843C88.0368 65.3589 87.9959 65.4604 87.9939 65.567C87.9887 65.8785 88.0385 66.1883 88.1409 66.48L86.6189 67.42V65.54C86.9064 65.4892 87.1822 65.3806 87.4319 65.22C87.5124 65.1615 87.5688 65.0721 87.5897 64.9704C87.6105 64.8686 87.5941 64.7622 87.5438 64.673C87.4936 64.5838 87.4134 64.5186 87.3196 64.4909C87.2259 64.4632 87.1258 64.475 87.0399 64.524C86.909 64.6082 86.7671 64.6712 86.6189 64.711V64.096C86.6189 63.988 86.5789 63.8845 86.5076 63.8082C86.4363 63.7318 86.3397 63.689 86.2389 63.689C86.1381 63.689 86.0415 63.7318 85.9702 63.8082C85.8989 63.8845 85.8589 63.988 85.8589 64.096V64.711C85.7107 64.6712 85.5688 64.6082 85.4379 64.524C85.3952 64.4929 85.347 64.4715 85.2963 64.461C85.2457 64.4506 85.1935 64.4513 85.1431 64.4631C85.0927 64.475 85.045 64.4977 85.0031 64.5299C84.9611 64.5621 84.9257 64.6031 84.8991 64.6505C84.8724 64.6978 84.855 64.7505 84.848 64.8052C84.841 64.86 84.8444 64.9157 84.8582 64.969C84.8719 65.0223 84.8956 65.072 84.9279 65.1152C84.9602 65.1583 85.0003 65.194 85.0459 65.22C85.2956 65.3806 85.5714 65.4892 85.8589 65.54V67.42L84.3369 66.48C84.4394 66.188 84.4893 65.8778 84.4839 65.566C84.482 65.4594 84.4411 65.3579 84.37 65.2833C84.2989 65.2087 84.2034 65.1669 84.1039 65.167H84.0969C83.9962 65.1689 83.9003 65.2136 83.8304 65.2913C83.7605 65.3689 83.7222 65.4731 83.7239 65.581C83.7263 65.7446 83.7061 65.9077 83.6639 66.065L83.0779 65.703C83.0347 65.6762 82.987 65.6589 82.9375 65.6519C82.888 65.6449 82.8377 65.6485 82.7895 65.6623C82.7413 65.6761 82.6961 65.7 82.6566 65.7326C82.617 65.7651 82.5837 65.8057 82.5588 65.852C82.5338 65.8983 82.5177 65.9494 82.5111 66.0024C82.5046 66.0553 82.5079 66.1092 82.5208 66.1608C82.5338 66.2125 82.556 66.2609 82.5864 66.3033C82.6168 66.3457 82.6547 66.3812 82.6979 66.408L83.2849 66.77C83.1785 66.8872 83.0565 66.9869 82.9229 67.066C82.8781 67.0912 82.8385 67.1257 82.8064 67.1676C82.7742 67.2094 82.7502 67.2577 82.7358 67.3096C82.7213 67.3615 82.7166 67.416 82.722 67.4699C82.7275 67.5237 82.7429 67.5759 82.7674 67.6233C82.7919 67.6707 82.825 67.7124 82.8647 67.7459C82.9044 67.7794 82.95 67.8041 82.9988 67.8185C83.0475 67.8329 83.0985 67.8367 83.1487 67.8298C83.1988 67.8228 83.2472 67.8052 83.2909 67.778C83.5459 67.6271 83.7719 67.4258 83.9569 67.185L85.4789 68.125L83.9569 69.065C83.772 68.8237 83.546 68.6222 83.2909 68.471C83.2472 68.4437 83.1988 68.4261 83.1487 68.4191C83.0985 68.4122 83.0475 68.416 82.9988 68.4304C82.95 68.4448 82.9044 68.4695 82.8647 68.503C82.825 68.5366 82.7919 68.5783 82.7674 68.6257C82.7429 68.6731 82.7275 68.7252 82.722 68.7791C82.7166 68.8329 82.7213 68.8874 82.7358 68.9393C82.7502 68.9912 82.7742 69.0395 82.8064 69.0814C82.8385 69.1232 82.8781 69.1577 82.9229 69.183C83.0565 69.2617 83.1785 69.3611 83.2849 69.478L82.6979 69.843C82.6524 69.8683 82.6121 69.9033 82.5795 69.9458C82.5469 69.9883 82.5227 70.0374 82.5083 70.0902C82.494 70.143 82.4898 70.1983 82.4959 70.2529C82.5021 70.3075 82.5185 70.3602 82.5442 70.4078C82.5699 70.4554 82.6043 70.4969 82.6454 70.5299C82.6865 70.5628 82.7334 70.5865 82.7833 70.5995C82.8332 70.6126 82.885 70.6146 82.9356 70.6056C82.9863 70.5965 83.0347 70.5766 83.0779 70.547L83.6649 70.184C83.7068 70.3413 83.7267 70.5044 83.7239 70.668C83.7224 70.7757 83.7608 70.8796 83.8307 70.957C83.9007 71.0344 83.9964 71.079 84.0969 71.081H84.1039C84.2034 71.081 84.2989 71.0392 84.37 70.9646C84.4411 70.89 84.482 70.7885 84.4839 70.682C84.4892 70.3704 84.4393 70.0606 84.3369 69.769L85.8589 68.829V70.709C85.5714 70.7597 85.2956 70.8683 85.0459 71.029C85.0003 71.0549 84.9602 71.0906 84.9279 71.1337C84.8956 71.1769 84.8719 71.2266 84.8582 71.2799C84.8444 71.3332 84.841 71.3889 84.848 71.4437C84.855 71.4985 84.8724 71.5511 84.8991 71.5985C84.9257 71.6458 84.9611 71.6868 85.0031 71.719C85.045 71.7512 85.0927 71.774 85.1431 71.7858C85.1935 71.7976 85.2457 71.7983 85.2963 71.7879C85.347 71.7774 85.3952 71.756 85.4379 71.725C85.5685 71.6408 85.7101 71.5778 85.8579 71.538V72.153C85.8579 72.2609 85.8979 72.3644 85.9692 72.4408C86.0405 72.5171 86.1371 72.56 86.2379 72.56C86.3387 72.56 86.4353 72.5171 86.5066 72.4408C86.5779 72.3644 86.6179 72.2609 86.6179 72.153V71.538C86.7664 71.5776 86.9087 71.6406 87.0399 71.725C87.1261 71.7771 87.2278 71.7912 87.3235 71.7643C87.4192 71.7373 87.5013 71.6714 87.5524 71.5806C87.6034 71.4899 87.6194 71.3813 87.5969 71.2781C87.5744 71.1749 87.5152 71.0852 87.4319 71.028C87.1822 70.8673 86.9064 70.7587 86.6189 70.708V68.828L88.1409 69.769C88.0381 70.0609 87.9879 70.371 87.9929 70.683C87.9949 70.7895 88.0358 70.891 88.1068 70.9656C88.1779 71.0402 88.2734 71.082 88.3729 71.082H88.3809C88.4308 71.081 88.4801 71.0695 88.5259 71.0481C88.5717 71.0267 88.6131 70.9958 88.6477 70.9573C88.6824 70.9188 88.7096 70.8733 88.7278 70.8235C88.746 70.7736 88.7549 70.7205 88.7539 70.667C88.7511 70.5034 88.771 70.3403 88.8129 70.183L89.3999 70.546C89.4431 70.5769 89.4918 70.598 89.5429 70.608C89.594 70.618 89.6465 70.6166 89.6971 70.604C89.7477 70.5914 89.7954 70.5678 89.8371 70.5347C89.8789 70.5016 89.9139 70.4597 89.9399 70.4115C89.9659 70.3633 89.9825 70.31 89.9885 70.2547C89.9945 70.1994 89.9899 70.1434 89.9749 70.0901C89.9599 70.0368 89.9348 69.9874 89.9013 69.9449C89.8678 69.9024 89.8265 69.8677 89.7799 69.843Z" fill="url(#paint4_radial_63_268)" stroke="url(#paint5_radial_63_268)" stroke-width="0.505"/>
<path d="M66.5221 69.843L65.9351 69.48C66.0411 69.3628 66.1628 69.2631 66.2961 69.184C66.3776 69.1283 66.4363 69.0415 66.4602 68.9411C66.484 68.8408 66.4712 68.7344 66.4245 68.6438C66.3777 68.5532 66.3004 68.485 66.2084 68.4533C66.1163 68.4216 66.0165 68.4286 65.9291 68.473C65.6741 68.6239 65.4481 68.8251 65.2631 69.066L63.7411 68.124L65.2631 67.184C65.4477 67.4251 65.6733 67.6267 65.9281 67.778C65.9718 67.8052 66.0202 67.8228 66.0703 67.8298C66.1205 67.8367 66.1715 67.8329 66.2202 67.8185C66.269 67.8041 66.3146 67.7794 66.3543 67.7459C66.394 67.7124 66.4271 67.6707 66.4516 67.6233C66.4761 67.5759 66.4915 67.5237 66.497 67.4699C66.5024 67.416 66.4977 67.3615 66.4833 67.3096C66.4688 67.2577 66.4447 67.2094 66.4126 67.1676C66.3805 67.1257 66.3409 67.0912 66.2961 67.066C66.1625 66.9869 66.0405 66.8872 65.9341 66.77L66.5221 66.407C66.5677 66.3816 66.6079 66.3466 66.6405 66.3041C66.6731 66.2616 66.6973 66.2125 66.7117 66.1597C66.726 66.1069 66.7303 66.0516 66.7241 65.997C66.7179 65.9424 66.7015 65.8897 66.6758 65.8421C66.6501 65.7945 66.6157 65.753 66.5746 65.72C66.5335 65.6871 66.4866 65.6634 66.4367 65.6504C66.3868 65.6374 66.335 65.6353 66.2844 65.6444C66.2337 65.6534 66.1853 65.6733 66.1421 65.703L65.5551 66.066C65.513 65.909 65.4928 65.7462 65.4951 65.583C65.4971 65.4751 65.459 65.3708 65.3893 65.293C65.3195 65.2152 65.2238 65.1702 65.1231 65.168H65.1161C65.0166 65.1679 64.9211 65.2097 64.85 65.2843C64.779 65.3589 64.7381 65.4604 64.7361 65.567C64.7308 65.8785 64.7807 66.1883 64.8831 66.48L63.3611 67.42V65.54C63.6486 65.4892 63.9244 65.3806 64.1741 65.22C64.2546 65.1615 64.311 65.0721 64.3318 64.9704C64.3527 64.8686 64.3363 64.7622 64.286 64.673C64.2358 64.5838 64.1556 64.5186 64.0618 64.4909C63.9681 64.4632 63.8679 64.475 63.7821 64.524C63.6512 64.6082 63.5093 64.6712 63.3611 64.711V64.096C63.3611 63.988 63.3211 63.8845 63.2498 63.8082C63.1785 63.7318 63.0819 63.689 62.9811 63.689C62.8803 63.689 62.7837 63.7318 62.7124 63.8082C62.6411 63.8845 62.6011 63.988 62.6011 64.096V64.711C62.4529 64.6712 62.311 64.6082 62.1801 64.524C62.1374 64.4929 62.0892 64.4715 62.0385 64.461C61.9879 64.4506 61.9357 64.4513 61.8853 64.4631C61.8349 64.475 61.7872 64.4977 61.7453 64.5299C61.7033 64.5621 61.6679 64.6031 61.6413 64.6505C61.6146 64.6978 61.5972 64.7505 61.5902 64.8052C61.5832 64.86 61.5866 64.9157 61.6004 64.969C61.6141 65.0223 61.6378 65.072 61.6701 65.1152C61.7024 65.1583 61.7425 65.194 61.7881 65.22C62.0378 65.3806 62.3136 65.4892 62.6011 65.54V67.42L61.0791 66.48C61.1816 66.188 61.2315 65.8778 61.2261 65.566C61.2241 65.4594 61.1832 65.3579 61.1122 65.2833C61.0411 65.2087 60.9456 65.1669 60.8461 65.167H60.8391C60.7384 65.1689 60.6425 65.2136 60.5726 65.2913C60.5027 65.3689 60.4643 65.4731 60.4661 65.581C60.4685 65.7446 60.4483 65.9077 60.4061 66.065L59.8201 65.703C59.7328 65.649 59.6291 65.6344 59.5317 65.6623C59.4344 65.6903 59.3514 65.7585 59.301 65.852C59.2506 65.9455 59.2369 66.0566 59.263 66.1608C59.2891 66.2651 59.3528 66.354 59.4401 66.408L60.0271 66.77C59.9207 66.8872 59.7987 66.9869 59.6651 67.066C59.6203 67.0912 59.5807 67.1257 59.5486 67.1676C59.5164 67.2094 59.4924 67.2577 59.4779 67.3096C59.4635 67.3615 59.4588 67.416 59.4642 67.4699C59.4697 67.5237 59.4851 67.5759 59.5096 67.6233C59.5341 67.6707 59.5672 67.7124 59.6069 67.7459C59.6466 67.7794 59.6922 67.8041 59.741 67.8185C59.7897 67.8329 59.8407 67.8367 59.8908 67.8298C59.941 67.8228 59.9894 67.8052 60.0331 67.778C60.2881 67.6271 60.5141 67.4258 60.6991 67.185L62.2211 68.125L60.6991 69.065C60.5142 68.8237 60.2882 68.6222 60.0331 68.471C59.9894 68.4437 59.941 68.4261 59.8908 68.4191C59.8407 68.4122 59.7897 68.416 59.741 68.4304C59.6922 68.4448 59.6466 68.4695 59.6069 68.503C59.5672 68.5366 59.5341 68.5783 59.5096 68.6257C59.4851 68.6731 59.4697 68.7252 59.4642 68.7791C59.4588 68.8329 59.4635 68.8874 59.4779 68.9393C59.4924 68.9912 59.5164 69.0395 59.5486 69.0814C59.5807 69.1232 59.6203 69.1577 59.6651 69.183C59.7987 69.2617 59.9207 69.3611 60.0271 69.478L59.4401 69.843C59.3945 69.8683 59.3543 69.9033 59.3217 69.9458C59.2891 69.9883 59.2649 70.0374 59.2505 70.0902C59.2362 70.143 59.2319 70.1983 59.2381 70.2529C59.2443 70.3075 59.2607 70.3602 59.2864 70.4078C59.3121 70.4554 59.3465 70.4969 59.3876 70.5299C59.4287 70.5628 59.4756 70.5865 59.5255 70.5995C59.5753 70.6126 59.6272 70.6146 59.6778 70.6056C59.7284 70.5965 59.7768 70.5766 59.8201 70.547L60.4071 70.184C60.449 70.3413 60.4689 70.5044 60.4661 70.668C60.4646 70.7757 60.503 70.8796 60.5729 70.957C60.6428 71.0344 60.7386 71.079 60.8391 71.081H60.8461C60.9456 71.081 61.0411 71.0392 61.1122 70.9646C61.1832 70.89 61.2241 70.7885 61.2261 70.682C61.2313 70.3704 61.1815 70.0606 61.0791 69.769L62.6011 68.829V70.709C62.3136 70.7597 62.0378 70.8683 61.7881 71.029C61.7425 71.0549 61.7024 71.0906 61.6701 71.1337C61.6378 71.1769 61.6141 71.2266 61.6004 71.2799C61.5866 71.3332 61.5832 71.3889 61.5902 71.4437C61.5972 71.4985 61.6146 71.5511 61.6413 71.5985C61.6679 71.6458 61.7033 71.6868 61.7453 71.719C61.7872 71.7512 61.8349 71.774 61.8853 71.7858C61.9357 71.7976 61.9879 71.7983 62.0385 71.7879C62.0892 71.7774 62.1374 71.756 62.1801 71.725C62.3107 71.6408 62.4522 71.5778 62.6001 71.538V72.153C62.6001 72.2609 62.6401 72.3644 62.7114 72.4408C62.7827 72.5171 62.8793 72.56 62.9801 72.56C63.0809 72.56 63.1775 72.5171 63.2488 72.4408C63.3201 72.3644 63.3601 72.2609 63.3601 72.153V71.538C63.5086 71.5776 63.6509 71.6406 63.7821 71.725C63.8682 71.7771 63.97 71.7912 64.0657 71.7643C64.1614 71.7373 64.2435 71.6714 64.2946 71.5806C64.3456 71.4899 64.3616 71.3813 64.3391 71.2781C64.3166 71.1749 64.2574 71.0852 64.1741 71.028C63.9244 70.8673 63.6486 70.7587 63.3611 70.708V68.828L64.8831 69.769C64.7803 70.0609 64.7301 70.371 64.7351 70.683C64.7371 70.7895 64.778 70.891 64.849 70.9656C64.9201 71.0402 65.0156 71.082 65.1151 71.082H65.1231C65.173 71.081 65.2223 71.0695 65.2681 71.0481C65.3139 71.0267 65.3553 70.9958 65.3899 70.9573C65.4246 70.9188 65.4518 70.8733 65.47 70.8235C65.4882 70.7736 65.4971 70.7205 65.4961 70.667C65.4933 70.5034 65.5132 70.3403 65.5551 70.183L66.1421 70.546C66.1853 70.5769 66.234 70.598 66.2851 70.608C66.3362 70.618 66.3887 70.6166 66.4393 70.604C66.4899 70.5914 66.5376 70.5678 66.5793 70.5347C66.6211 70.5016 66.6561 70.4597 66.6821 70.4115C66.7081 70.3633 66.7247 70.31 66.7307 70.2547C66.7367 70.1994 66.7321 70.1434 66.7171 70.0901C66.7021 70.0368 66.677 69.9874 66.6435 69.9449C66.61 69.9024 66.5686 69.8677 66.5221 69.843Z" fill="url(#paint6_radial_63_268)" stroke="url(#paint7_radial_63_268)" stroke-width="0.505"/>
<path d="M33.775 84.3342L33.188 83.9712C33.2941 83.854 33.4157 83.7543 33.549 83.6752C33.6306 83.6195 33.6892 83.5327 33.7131 83.4323C33.7369 83.332 33.7242 83.2256 33.6774 83.135C33.6306 83.0444 33.5533 82.9763 33.4613 82.9445C33.3693 82.9128 33.2694 82.9198 33.182 82.9642C32.927 83.1151 32.7011 83.3163 32.516 83.5572L30.994 82.6152L32.516 81.6752C32.7006 81.9164 32.9263 82.1179 33.181 82.2692C33.2247 82.2964 33.2731 82.314 33.3233 82.321C33.3734 82.328 33.4244 82.3241 33.4732 82.3097C33.5219 82.2953 33.5675 82.2706 33.6072 82.2371C33.647 82.2036 33.6801 82.1619 33.7046 82.1145C33.7291 82.0671 33.7445 82.0149 33.7499 81.9611C33.7553 81.9072 33.7507 81.8527 33.7362 81.8008C33.7217 81.7489 33.6977 81.7006 33.6655 81.6588C33.6334 81.6169 33.5938 81.5824 33.549 81.5572C33.4154 81.4781 33.2934 81.3784 33.187 81.2612L33.775 80.8982C33.8206 80.8728 33.8609 80.8378 33.8934 80.7953C33.926 80.7528 33.9502 80.7037 33.9646 80.6509C33.979 80.5982 33.9832 80.5428 33.977 80.4882C33.9709 80.4336 33.9544 80.3809 33.9287 80.3333C33.9031 80.2857 33.8686 80.2442 33.8275 80.2113C33.7864 80.1783 33.7395 80.1546 33.6897 80.1416C33.6398 80.1286 33.588 80.1265 33.5373 80.1356C33.4867 80.1446 33.4383 80.1646 33.395 80.1942L32.808 80.5572C32.7659 80.4002 32.7457 80.2375 32.748 80.0742C32.75 79.9663 32.712 79.862 32.6422 79.7842C32.5725 79.7064 32.4767 79.6614 32.376 79.6592H32.369C32.2695 79.6592 32.174 79.7009 32.1029 79.7755C32.0319 79.8501 31.991 79.9516 31.989 80.0582C31.9838 80.3697 32.0337 80.6795 32.136 80.9712L30.614 81.9112V80.0312C30.9015 79.9804 31.1774 79.8718 31.427 79.7112C31.5075 79.6527 31.5639 79.5633 31.5848 79.4616C31.6056 79.3598 31.5892 79.2534 31.539 79.1642C31.4887 79.075 31.4085 79.0099 31.3147 78.9821C31.221 78.9544 31.1209 78.9662 31.035 79.0152C30.9041 79.0994 30.7622 79.1624 30.614 79.2022V78.5872C30.614 78.4792 30.574 78.3757 30.5027 78.2994C30.4315 78.2231 30.3348 78.1802 30.234 78.1802C30.1332 78.1802 30.0366 78.2231 29.9653 78.2994C29.8941 78.3757 29.854 78.4792 29.854 78.5872V79.2022C29.7058 79.1624 29.564 79.0994 29.433 79.0152C29.3903 78.9841 29.3422 78.9627 29.2915 78.9523C29.2408 78.9418 29.1886 78.9425 29.1382 78.9543C29.0878 78.9662 29.0402 78.9889 28.9982 79.0211C28.9563 79.0533 28.9209 79.0943 28.8942 79.1417C28.8675 79.189 28.8502 79.2417 28.8431 79.2964C28.8361 79.3512 28.8396 79.4069 28.8533 79.4602C28.867 79.5135 28.8908 79.5633 28.923 79.6064C28.9553 79.6496 28.9955 79.6852 29.041 79.7112C29.2907 79.8718 29.5666 79.9804 29.854 80.0312V81.9112L28.332 80.9712C28.4345 80.6792 28.4844 80.369 28.479 80.0572C28.4771 79.9506 28.4362 79.8491 28.3651 79.7745C28.2941 79.6999 28.1985 79.6582 28.099 79.6582H28.092C27.9913 79.6601 27.8955 79.7049 27.8255 79.7825C27.7556 79.8601 27.7173 79.9643 27.719 80.0722C27.7215 80.2358 27.7012 80.3989 27.659 80.5562L27.073 80.1942C26.9857 80.1402 26.882 80.1256 26.7847 80.1535C26.6873 80.1815 26.6043 80.2497 26.5539 80.3432C26.5035 80.4367 26.4899 80.5478 26.516 80.652C26.542 80.7563 26.6057 80.8452 26.693 80.8992L27.28 81.2612C27.1736 81.3784 27.0517 81.4781 26.918 81.5572C26.8733 81.5824 26.8336 81.6169 26.8015 81.6588C26.7694 81.7006 26.7454 81.7489 26.7309 81.8008C26.7164 81.8527 26.7117 81.9072 26.7171 81.9611C26.7226 82.0149 26.738 82.0671 26.7625 82.1145C26.787 82.1619 26.8201 82.2036 26.8598 82.2371C26.8996 82.2706 26.9451 82.2953 26.9939 82.3097C27.0427 82.3241 27.0936 82.328 27.1438 82.321C27.1939 82.314 27.2423 82.2964 27.286 82.2692C27.541 82.1183 27.767 81.9171 27.952 81.6762L29.474 82.6162L27.952 83.5562C27.7671 83.3149 27.5411 83.1134 27.286 82.9622C27.2423 82.9349 27.1939 82.9173 27.1438 82.9104C27.0936 82.9034 27.0427 82.9072 26.9939 82.9216C26.9451 82.936 26.8996 82.9607 26.8598 82.9943C26.8201 83.0278 26.787 83.0695 26.7625 83.1169C26.738 83.1643 26.7226 83.2164 26.7171 83.2703C26.7117 83.3242 26.7164 83.3786 26.7309 83.4305C26.7454 83.4824 26.7694 83.5307 26.8015 83.5726C26.8336 83.6144 26.8733 83.649 26.918 83.6742C27.0516 83.7529 27.1736 83.8523 27.28 83.9692L26.693 84.3342C26.6475 84.3595 26.6072 84.3945 26.5746 84.437C26.542 84.4795 26.5178 84.5286 26.5035 84.5814C26.4891 84.6342 26.4849 84.6896 26.491 84.7441C26.4972 84.7987 26.5136 84.8514 26.5393 84.899C26.565 84.9466 26.5994 84.9881 26.6405 85.0211C26.6816 85.0541 26.7285 85.0778 26.7784 85.0908C26.8283 85.1038 26.8801 85.1058 26.9307 85.0968C26.9814 85.0877 27.0298 85.0678 27.073 85.0382L27.66 84.6752C27.7019 84.8325 27.7218 84.9956 27.719 85.1592C27.7175 85.2669 27.7559 85.3708 27.8259 85.4482C27.8958 85.5256 27.9915 85.5702 28.092 85.5722H28.099C28.1985 85.5722 28.2941 85.5304 28.3651 85.4558C28.4362 85.3812 28.4771 85.2797 28.479 85.1732C28.4843 84.8616 28.4344 84.5519 28.332 84.2602L29.854 83.3202V85.2002C29.5666 85.2509 29.2907 85.3595 29.041 85.5202C28.9955 85.5462 28.9553 85.5818 28.923 85.6249C28.8908 85.6681 28.867 85.7178 28.8533 85.7711C28.8396 85.8244 28.8361 85.8801 28.8431 85.9349C28.8502 85.9897 28.8675 86.0423 28.8942 86.0897C28.9209 86.137 28.9563 86.178 28.9982 86.2102C29.0402 86.2425 29.0878 86.2652 29.1382 86.277C29.1886 86.2888 29.2408 86.2896 29.2915 86.2791C29.3422 86.2686 29.3903 86.2472 29.433 86.2162C29.5636 86.132 29.7052 86.069 29.853 86.0292V86.6442C29.853 86.7521 29.8931 86.8556 29.9643 86.932C30.0356 87.0083 30.1322 87.0512 30.233 87.0512C30.3338 87.0512 30.4305 87.0083 30.5017 86.932C30.573 86.8556 30.613 86.7521 30.613 86.6442V86.0292C30.7616 86.0688 30.9038 86.1319 31.035 86.2162C31.1212 86.2683 31.2229 86.2824 31.3186 86.2555C31.4143 86.2285 31.4964 86.1626 31.5475 86.0719C31.5986 85.9811 31.6145 85.8725 31.592 85.7693C31.5695 85.6661 31.5103 85.5764 31.427 85.5192C31.1774 85.3585 30.9015 85.2499 30.614 85.1992V83.3192L32.136 84.2602C32.0332 84.5521 31.983 84.8622 31.988 85.1742C31.99 85.2807 32.0309 85.3822 32.1019 85.4568C32.173 85.5314 32.2685 85.5732 32.368 85.5732H32.376C32.426 85.5722 32.4752 85.5607 32.521 85.5393C32.5668 85.5179 32.6082 85.4871 32.6429 85.4485C32.6775 85.41 32.7047 85.3645 32.7229 85.3147C32.7411 85.2648 32.75 85.2117 32.749 85.1582C32.7463 84.9946 32.7661 84.8315 32.808 84.6742L33.395 85.0372C33.4382 85.0681 33.4869 85.0892 33.538 85.0992C33.5891 85.1092 33.6416 85.1078 33.6922 85.0952C33.7428 85.0826 33.7905 85.059 33.8323 85.0259C33.874 84.9928 33.909 84.9509 33.935 84.9027C33.9611 84.8545 33.9776 84.8012 33.9836 84.7459C33.9896 84.6906 33.985 84.6346 33.97 84.5813C33.955 84.528 33.93 84.4786 33.8964 84.4361C33.8629 84.3936 33.8216 84.3589 33.775 84.3342Z" fill="url(#paint8_radial_63_268)" stroke="url(#paint9_radial_63_268)" stroke-width="0.505"/>
<path d="M54.0619 84.3342L53.4749 83.9712C53.5809 83.854 53.7026 83.7543 53.8359 83.6752C53.9174 83.6195 53.9761 83.5327 54 83.4323C54.0238 83.332 54.011 83.2256 53.9643 83.135C53.9175 83.0444 53.8402 82.9763 53.7482 82.9445C53.6561 82.9128 53.5563 82.9198 53.4689 82.9642C53.2139 83.1151 52.9879 83.3163 52.8029 83.5572L51.2809 82.6152L52.8029 81.6752C52.9875 81.9164 53.2131 82.1179 53.4679 82.2692C53.5116 82.2964 53.56 82.314 53.6101 82.321C53.6603 82.328 53.7113 82.3241 53.76 82.3097C53.8088 82.2953 53.8544 82.2706 53.8941 82.2371C53.9338 82.2036 53.9669 82.1619 53.9914 82.1145C54.0159 82.0671 54.0313 82.0149 54.0368 81.9611C54.0422 81.9072 54.0375 81.8527 54.023 81.8008C54.0086 81.7489 53.9845 81.7006 53.9524 81.6588C53.9203 81.6169 53.8807 81.5824 53.8359 81.5572C53.7023 81.4781 53.5803 81.3784 53.4739 81.2612L54.0619 80.8982C54.1074 80.8728 54.1477 80.8378 54.1803 80.7953C54.2129 80.7528 54.2371 80.7037 54.2515 80.6509C54.2658 80.5982 54.2701 80.5428 54.2639 80.4882C54.2577 80.4336 54.2413 80.3809 54.2156 80.3333C54.1899 80.2857 54.1555 80.2442 54.1144 80.2113C54.0733 80.1783 54.0264 80.1546 53.9765 80.1416C53.9266 80.1286 53.8748 80.1265 53.8242 80.1356C53.7735 80.1446 53.7251 80.1646 53.6819 80.1942L53.0949 80.5572C53.0528 80.4002 53.0325 80.2375 53.0349 80.0742C53.0369 79.9663 52.9988 79.862 52.9291 79.7842C52.8593 79.7064 52.7636 79.6614 52.6629 79.6592H52.6559C52.5564 79.6592 52.4609 79.7009 52.3898 79.7755C52.3187 79.8501 52.2778 79.9516 52.2759 80.0582C52.2706 80.3697 52.3205 80.6795 52.4229 80.9712L50.9009 81.9112V80.0312C51.1884 79.9804 51.4642 79.8718 51.7139 79.7112C51.7944 79.6527 51.8508 79.5633 51.8716 79.4616C51.8925 79.3598 51.8761 79.2534 51.8258 79.1642C51.7756 79.075 51.6953 79.0099 51.6016 78.9821C51.5078 78.9544 51.4077 78.9662 51.3219 79.0152C51.191 79.0994 51.0491 79.1624 50.9009 79.2022V78.5872C50.9009 78.4792 50.8609 78.3757 50.7896 78.2994C50.7183 78.2231 50.6217 78.1802 50.5209 78.1802C50.4201 78.1802 50.3235 78.2231 50.2522 78.2994C50.1809 78.3757 50.1409 78.4792 50.1409 78.5872V79.2022C49.9927 79.1624 49.8508 79.0994 49.7199 79.0152C49.6772 78.9841 49.629 78.9627 49.5783 78.9523C49.5277 78.9418 49.4755 78.9425 49.4251 78.9543C49.3747 78.9662 49.327 78.9889 49.2851 79.0211C49.2431 79.0533 49.2077 79.0943 49.1811 79.1417C49.1544 79.189 49.137 79.2417 49.13 79.2964C49.123 79.3512 49.1264 79.4069 49.1402 79.4602C49.1539 79.5135 49.1776 79.5633 49.2099 79.6064C49.2422 79.6496 49.2823 79.6852 49.3279 79.7112C49.5776 79.8718 49.8534 79.9804 50.1409 80.0312V81.9112L48.6189 80.9712C48.7214 80.6792 48.7713 80.369 48.7659 80.0572C48.7639 79.9506 48.723 79.8491 48.652 79.7745C48.5809 79.6999 48.4854 79.6582 48.3859 79.6582H48.3789C48.2782 79.6601 48.1823 79.7049 48.1124 79.7825C48.0424 79.8601 48.0041 79.9643 48.0059 80.0722C48.0083 80.2358 47.9881 80.3989 47.9459 80.5562L47.3599 80.1942C47.3167 80.1675 47.269 80.1501 47.2195 80.1431C47.17 80.1362 47.1197 80.1397 47.0715 80.1535C47.0233 80.1674 46.9781 80.1912 46.9385 80.2238C46.8989 80.2563 46.8657 80.2969 46.8408 80.3432C46.8158 80.3895 46.7996 80.4406 46.7931 80.4936C46.7866 80.5466 46.7899 80.6004 46.8028 80.652C46.8157 80.7037 46.838 80.7521 46.8684 80.7945C46.8988 80.8369 46.9367 80.8725 46.9799 80.8992L47.5669 81.2612C47.4605 81.3784 47.3385 81.4781 47.2049 81.5572C47.1601 81.5824 47.1205 81.6169 47.0884 81.6588C47.0562 81.7006 47.0322 81.7489 47.0177 81.8008C47.0033 81.8527 46.9986 81.9072 47.004 81.9611C47.0094 82.0149 47.0249 82.0671 47.0494 82.1145C47.0739 82.1619 47.1069 82.2036 47.1467 82.2371C47.1864 82.2706 47.232 82.2953 47.2808 82.3097C47.3295 82.3241 47.3805 82.328 47.4306 82.321C47.4808 82.314 47.5292 82.2964 47.5729 82.2692C47.8279 82.1183 48.0539 81.9171 48.2389 81.6762L49.7609 82.6162L48.2389 83.5562C48.0539 83.3149 47.828 83.1134 47.5729 82.9622C47.5292 82.9349 47.4808 82.9173 47.4306 82.9104C47.3805 82.9034 47.3295 82.9072 47.2808 82.9216C47.232 82.936 47.1864 82.9607 47.1467 82.9943C47.1069 83.0278 47.0739 83.0695 47.0494 83.1169C47.0249 83.1643 47.0094 83.2164 47.004 83.2703C46.9986 83.3242 47.0033 83.3786 47.0177 83.4305C47.0322 83.4824 47.0562 83.5307 47.0884 83.5726C47.1205 83.6144 47.1601 83.649 47.2049 83.6742C47.3385 83.7529 47.4605 83.8523 47.5669 83.9692L46.9799 84.3342C46.9343 84.3595 46.8941 84.3945 46.8615 84.437C46.8289 84.4795 46.8047 84.5286 46.7903 84.5814C46.776 84.6342 46.7717 84.6896 46.7779 84.7441C46.7841 84.7987 46.8005 84.8514 46.8262 84.899C46.8519 84.9466 46.8863 84.9881 46.9274 85.0211C46.9685 85.0541 47.0154 85.0778 47.0653 85.0908C47.1151 85.1038 47.167 85.1058 47.2176 85.0968C47.2682 85.0877 47.3166 85.0678 47.3599 85.0382L47.9469 84.6752C47.9888 84.8325 48.0087 84.9956 48.0059 85.1592C48.0044 85.2669 48.0428 85.3708 48.1127 85.4482C48.1826 85.5256 48.2784 85.5702 48.3789 85.5722H48.3859C48.4854 85.5722 48.5809 85.5304 48.652 85.4558C48.723 85.3812 48.7639 85.2797 48.7659 85.1732C48.7711 84.8616 48.7213 84.5519 48.6189 84.2602L50.1409 83.3202V85.2002C49.8534 85.2509 49.5776 85.3595 49.3279 85.5202C49.2823 85.5462 49.2422 85.5818 49.2099 85.6249C49.1776 85.6681 49.1539 85.7178 49.1402 85.7711C49.1264 85.8244 49.123 85.8801 49.13 85.9349C49.137 85.9897 49.1544 86.0423 49.1811 86.0897C49.2077 86.137 49.2431 86.178 49.2851 86.2102C49.327 86.2425 49.3747 86.2652 49.4251 86.277C49.4755 86.2888 49.5277 86.2896 49.5783 86.2791C49.629 86.2686 49.6772 86.2472 49.7199 86.2162C49.8505 86.132 49.992 86.069 50.1399 86.0292V86.6442C50.1399 86.7521 50.1799 86.8556 50.2512 86.932C50.3225 87.0083 50.4191 87.0512 50.5199 87.0512C50.6207 87.0512 50.7173 87.0083 50.7886 86.932C50.8599 86.8556 50.8999 86.7521 50.8999 86.6442V86.0292C51.0484 86.0688 51.1906 86.1319 51.3219 86.2162C51.408 86.2683 51.5098 86.2824 51.6055 86.2555C51.7012 86.2285 51.7833 86.1626 51.8344 86.0719C51.8854 85.9811 51.9014 85.8725 51.8789 85.7693C51.8564 85.6661 51.7972 85.5764 51.7139 85.5192C51.4642 85.3585 51.1884 85.2499 50.9009 85.1992V83.3192L52.4229 84.2602C52.3201 84.5521 52.2698 84.8622 52.2749 85.1742C52.2768 85.2807 52.3177 85.3822 52.3888 85.4568C52.4598 85.5314 52.5554 85.5732 52.6549 85.5732H52.6629C52.7128 85.5722 52.7621 85.5607 52.8079 85.5393C52.8537 85.5179 52.8951 85.4871 52.9297 85.4485C52.9644 85.41 52.9916 85.3645 53.0098 85.3147C53.028 85.2648 53.0369 85.2117 53.0359 85.1582C53.0331 84.9946 53.053 84.8315 53.0949 84.6742L53.6819 85.0372C53.7251 85.0681 53.7738 85.0892 53.8249 85.0992C53.876 85.1092 53.9285 85.1078 53.9791 85.0952C54.0297 85.0826 54.0774 85.059 54.1191 85.0259C54.1609 84.9928 54.1959 84.9509 54.2219 84.9027C54.2479 84.8545 54.2645 84.8012 54.2705 84.7459C54.2765 84.6906 54.2719 84.6346 54.2569 84.5813C54.2419 84.528 54.2168 84.4786 54.1833 84.4361C54.1498 84.3936 54.1084 84.3589 54.0619 84.3342Z" fill="url(#paint10_radial_63_268)" stroke="url(#paint11_radial_63_268)" stroke-width="0.505"/>
<path d="M52.8738 73.308L52.5458 73.105C52.6052 73.04 52.6733 72.9848 52.7478 72.941C52.7971 72.9119 52.8336 72.863 52.8492 72.8051C52.8648 72.7472 52.8583 72.685 52.8311 72.6323C52.8039 72.5795 52.7583 72.5404 52.7042 72.5237C52.6501 72.507 52.5921 72.5139 52.5428 72.543C52.4004 72.6272 52.2741 72.7395 52.1708 72.874L51.3218 72.349L52.1718 71.825C52.2746 71.959 52.4001 72.0709 52.5418 72.155C52.5662 72.1715 52.5934 72.1826 52.6219 72.1874C52.6504 72.1922 52.6795 72.1908 52.7074 72.1832C52.7354 72.1756 52.7616 72.1619 52.7844 72.1431C52.8073 72.1243 52.8263 72.1006 52.8404 72.0737C52.8544 72.0467 52.8631 72.0169 52.8661 71.9862C52.869 71.9555 52.866 71.9245 52.8574 71.895C52.8487 71.8655 52.8345 71.8383 52.8157 71.8149C52.7968 71.7915 52.7737 71.7725 52.7478 71.759C52.6732 71.715 52.6052 71.6594 52.5458 71.594L52.8738 71.391C52.8987 71.3765 52.9206 71.3569 52.9382 71.3332C52.9559 71.3095 52.9689 71.2823 52.9766 71.2531C52.9843 71.224 52.9864 71.1934 52.9829 71.1634C52.9794 71.1333 52.9703 71.1043 52.9561 71.078C52.942 71.0518 52.923 71.0289 52.9005 71.0106C52.8779 70.9923 52.8521 70.979 52.8247 70.9716C52.7973 70.9641 52.7687 70.9626 52.7407 70.9671C52.7128 70.9717 52.6859 70.9822 52.6618 70.998L52.3338 71.201C52.3104 71.1133 52.2993 71.0223 52.3008 70.931C52.3014 70.9012 52.2965 70.8714 52.2864 70.8436C52.2763 70.8158 52.2611 70.7903 52.2418 70.7688C52.2225 70.7472 52.1993 70.73 52.1738 70.718C52.1482 70.706 52.1207 70.6996 52.0928 70.699H52.0888C52.0332 70.699 51.9798 70.7224 51.9402 70.7641C51.9005 70.8058 51.8778 70.8625 51.8768 70.922C51.8738 71.096 51.9016 71.2691 51.9588 71.432L51.1098 71.956V70.907C51.2703 70.8789 51.4243 70.8185 51.5638 70.729C51.612 70.6978 51.6466 70.6473 51.66 70.5888C51.6734 70.5302 51.6646 70.4683 51.6354 70.4167C51.6063 70.3652 51.5591 70.3281 51.5044 70.3137C51.4498 70.2993 51.392 70.3088 51.3438 70.34C51.271 70.3868 51.1921 70.4219 51.1098 70.444V70.101C51.1098 70.0408 51.0874 69.9831 51.0477 69.9405C51.0079 69.8979 50.954 69.874 50.8978 69.874C50.8416 69.874 50.7876 69.8979 50.7479 69.9405C50.7081 69.9831 50.6858 70.0408 50.6858 70.101V70.444C50.6031 70.422 50.5239 70.3869 50.4508 70.34C50.4269 70.3246 50.4005 70.3144 50.3729 70.31C50.3454 70.3055 50.3173 70.3069 50.2903 70.3141C50.2632 70.3213 50.2378 70.3341 50.2154 70.3518C50.193 70.3695 50.174 70.3917 50.1596 70.4173C50.1453 70.4428 50.1357 70.4711 50.1316 70.5006C50.1274 70.5301 50.1287 70.5602 50.1354 70.5891C50.1421 70.6181 50.1541 70.6453 50.1706 70.6693C50.1871 70.6933 50.2079 70.7136 50.2318 70.729C50.3712 70.8185 50.5253 70.8789 50.6858 70.907V71.957L49.8368 71.431C49.894 71.2681 49.9218 71.095 49.9188 70.921C49.9176 70.8617 49.8947 70.8052 49.8551 70.7637C49.8154 70.7222 49.7622 70.699 49.7068 70.699H49.7028C49.6466 70.7001 49.5931 70.7251 49.5541 70.7684C49.5151 70.8117 49.4938 70.8699 49.4948 70.93C49.4963 71.0213 49.4852 71.1123 49.4618 71.2L49.1338 70.998C49.1097 70.9822 49.0828 70.9717 49.0548 70.9671C49.0268 70.9626 48.9983 70.9641 48.9709 70.9716C48.9434 70.979 48.9177 70.9923 48.8951 71.0106C48.8725 71.0289 48.8536 71.0518 48.8395 71.078C48.8253 71.1043 48.8162 71.1333 48.8127 71.1634C48.8092 71.1934 48.8113 71.224 48.819 71.2531C48.8266 71.2823 48.8397 71.3095 48.8574 71.3332C48.875 71.3569 48.8969 71.3765 48.9218 71.391L49.2498 71.594C49.1904 71.6594 49.1224 71.715 49.0478 71.759C49.0223 71.7727 48.9996 71.7918 48.9812 71.8152C48.9627 71.8385 48.9488 71.8656 48.9404 71.8948C48.932 71.924 48.9291 71.9547 48.932 71.9851C48.935 72.0155 48.9436 72.045 48.9574 72.0717C48.9712 72.0985 48.9899 72.122 49.0124 72.1408C49.0349 72.1596 49.0607 72.1734 49.0883 72.1812C49.1159 72.1891 49.1447 72.1909 49.173 72.1866C49.2012 72.1823 49.2284 72.1719 49.2528 72.156C49.3952 72.0718 49.5214 71.9595 49.6248 71.825L50.4738 72.349L49.6248 72.873C49.5214 72.7389 49.3951 72.6269 49.2528 72.543C49.2284 72.5272 49.2012 72.5168 49.173 72.5125C49.1447 72.5081 49.1159 72.5099 49.0883 72.5178C49.0607 72.5257 49.0349 72.5394 49.0124 72.5583C48.9899 72.5771 48.9712 72.6006 48.9574 72.6273C48.9436 72.6541 48.935 72.6835 48.932 72.714C48.9291 72.7444 48.932 72.7751 48.9404 72.8043C48.9488 72.8335 48.9627 72.8606 48.9812 72.8839C48.9996 72.9072 49.0223 72.9263 49.0478 72.94C49.1224 72.9841 49.1904 73.0397 49.2498 73.105L48.9218 73.308C48.8969 73.3225 48.875 73.3422 48.8574 73.3658C48.8397 73.3895 48.8266 73.4167 48.819 73.4459C48.8113 73.4751 48.8092 73.5056 48.8127 73.5357C48.8162 73.5657 48.8253 73.5948 48.8395 73.621C48.8536 73.6472 48.8725 73.6702 48.8951 73.6885C48.9177 73.7068 48.9434 73.72 48.9709 73.7275C48.9983 73.7349 49.0268 73.7364 49.0548 73.7319C49.0828 73.7274 49.1097 73.7169 49.1338 73.701L49.4618 73.498C49.4852 73.5858 49.4963 73.6768 49.4948 73.768C49.494 73.828 49.5155 73.8859 49.5545 73.929C49.5934 73.9721 49.6468 73.9969 49.7028 73.998H49.7068C49.7622 73.998 49.8154 73.9748 49.8551 73.9333C49.8947 73.8918 49.9176 73.8354 49.9188 73.776C49.9218 73.602 49.894 73.429 49.8368 73.266L50.6868 72.742V73.791C50.526 73.819 50.3716 73.8794 50.2318 73.969C50.2079 73.9845 50.187 74.0048 50.1705 74.0289C50.1539 74.053 50.1419 74.0804 50.1352 74.1094C50.1285 74.1385 50.1272 74.1686 50.1314 74.1982C50.1356 74.2278 50.1452 74.2562 50.1597 74.2818C50.1741 74.3074 50.1931 74.3297 50.2156 74.3475C50.2381 74.3652 50.2637 74.378 50.2908 74.3852C50.3179 74.3924 50.3461 74.3937 50.3737 74.3893C50.4013 74.3848 50.4279 74.3745 50.4518 74.359C50.5245 74.3119 50.6034 74.2765 50.6858 74.254V74.597C50.6858 74.6572 50.7081 74.715 50.7479 74.7575C50.7876 74.8001 50.8416 74.824 50.8978 74.824C50.954 74.824 51.0079 74.8001 51.0477 74.7575C51.0874 74.715 51.1098 74.6572 51.1098 74.597V74.254C51.1925 74.2761 51.2717 74.3111 51.3448 74.358C51.3686 74.3734 51.3951 74.3836 51.4226 74.3881C51.4502 74.3925 51.4783 74.3911 51.5053 74.384C51.5323 74.3768 51.5578 74.364 51.5802 74.3463C51.6026 74.3286 51.6216 74.3063 51.6359 74.2808C51.6503 74.2552 51.6599 74.2269 51.664 74.1974C51.6682 74.1679 51.6669 74.1378 51.6602 74.1089C51.6535 74.0799 51.6415 74.0527 51.625 74.0287C51.6084 74.0047 51.5876 73.9844 51.5638 73.969C51.4243 73.8795 51.2703 73.8191 51.1098 73.791V72.742L51.9598 73.267C51.9023 73.4299 51.8741 73.6029 51.8768 73.777C51.878 73.8364 51.9009 73.8928 51.9405 73.9343C51.9801 73.9758 52.0334 73.999 52.0888 73.999H52.0928C52.149 73.9979 52.2024 73.9729 52.2414 73.9296C52.2804 73.8863 52.3018 73.8282 52.3008 73.768C52.2993 73.6768 52.3104 73.5858 52.3338 73.498L52.6618 73.7C52.6859 73.7174 52.713 73.7292 52.7416 73.7349C52.7702 73.7405 52.7995 73.7398 52.8278 73.7328C52.8561 73.7258 52.8827 73.7127 52.9061 73.6942C52.9294 73.6757 52.949 73.6523 52.9635 73.6254C52.9781 73.5985 52.9873 73.5687 52.9906 73.5378C52.994 73.5069 52.9914 73.4756 52.983 73.4459C52.9746 73.4161 52.9605 73.3885 52.9417 73.3648C52.923 73.3411 52.8998 73.3218 52.8738 73.308Z" fill="url(#paint12_radial_63_268)" stroke="url(#paint13_radial_63_268)" stroke-width="0.282"/>
<path d="M76.8799 73.308L76.5519 73.105C76.6113 73.04 76.6794 72.9848 76.7539 72.941C76.8032 72.9119 76.8397 72.863 76.8553 72.8051C76.8709 72.7472 76.8644 72.685 76.8372 72.6323C76.8101 72.5795 76.7644 72.5404 76.7103 72.5237C76.6562 72.507 76.5982 72.5139 76.5489 72.543C76.4065 72.6272 76.2802 72.7395 76.1769 72.874L75.3279 72.349L76.1779 71.825C76.2807 71.959 76.4062 72.0709 76.5479 72.155C76.5723 72.1715 76.5995 72.1826 76.628 72.1874C76.6565 72.1922 76.6856 72.1908 76.7135 72.1832C76.7415 72.1756 76.7677 72.1619 76.7906 72.1431C76.8134 72.1243 76.8324 72.1006 76.8465 72.0737C76.8605 72.0467 76.8693 72.0169 76.8722 71.9862C76.8751 71.9555 76.8721 71.9245 76.8635 71.895C76.8548 71.8655 76.8406 71.8383 76.8218 71.8149C76.8029 71.7915 76.7798 71.7725 76.7539 71.759C76.6793 71.715 76.6113 71.6594 76.5519 71.594L76.8799 71.391C76.9048 71.3765 76.9267 71.3569 76.9443 71.3332C76.962 71.3095 76.975 71.2823 76.9827 71.2531C76.9904 71.224 76.9925 71.1934 76.989 71.1634C76.9855 71.1333 76.9764 71.1043 76.9622 71.078C76.9481 71.0518 76.9291 71.0289 76.9066 71.0106C76.884 70.9923 76.8582 70.979 76.8308 70.9716C76.8034 70.9641 76.7748 70.9626 76.7469 70.9671C76.7189 70.9717 76.692 70.9822 76.6679 70.998L76.3399 71.201C76.3165 71.1133 76.3054 71.0223 76.3069 70.931C76.3075 70.9012 76.3026 70.8714 76.2925 70.8436C76.2824 70.8158 76.2672 70.7903 76.2479 70.7688C76.2286 70.7472 76.2054 70.73 76.1799 70.718C76.1543 70.706 76.1268 70.6996 76.0989 70.699H76.0949C76.0393 70.699 75.9859 70.7224 75.9463 70.7641C75.9066 70.8058 75.8839 70.8625 75.8829 70.922C75.8799 71.096 75.9077 71.2691 75.9649 71.432L75.1159 71.956V70.907C75.2764 70.8789 75.4304 70.8185 75.5699 70.729C75.6181 70.6978 75.6527 70.6473 75.6661 70.5888C75.6796 70.5302 75.6707 70.4683 75.6415 70.4167C75.6124 70.3652 75.5653 70.3281 75.5106 70.3137C75.4559 70.2993 75.3981 70.3088 75.3499 70.34C75.2771 70.3868 75.1982 70.4219 75.1159 70.444V70.101C75.1159 70.0408 75.0936 69.9831 75.0538 69.9405C75.014 69.8979 74.9601 69.874 74.9039 69.874C74.8477 69.874 74.7937 69.8979 74.754 69.9405C74.7142 69.9831 74.6919 70.0408 74.6919 70.101V70.444C74.6092 70.422 74.53 70.3869 74.4569 70.34C74.4087 70.3089 74.351 70.2996 74.2964 70.3141C74.2418 70.3286 74.1948 70.3657 74.1657 70.4173C74.1367 70.4689 74.128 70.5307 74.1415 70.5891C74.155 70.6476 74.1897 70.6979 74.2379 70.729C74.3774 70.8185 74.5314 70.8789 74.6919 70.907V71.957L73.8429 71.431C73.9001 71.2681 73.9279 71.095 73.9249 70.921C73.9237 70.8617 73.9008 70.8052 73.8612 70.7637C73.8215 70.7222 73.7683 70.699 73.7129 70.699H73.7089C73.6527 70.7001 73.5992 70.7251 73.5602 70.7684C73.5212 70.8117 73.4999 70.8699 73.5009 70.93C73.5024 71.0213 73.4913 71.1123 73.4679 71.2L73.1399 70.998C73.1158 70.9822 73.0889 70.9717 73.0609 70.9671C73.0329 70.9626 73.0044 70.9641 72.977 70.9716C72.9495 70.979 72.9238 70.9923 72.9012 71.0106C72.8786 71.0289 72.8597 71.0518 72.8456 71.078C72.8314 71.1043 72.8223 71.1333 72.8188 71.1634C72.8153 71.1934 72.8174 71.224 72.8251 71.2531C72.8328 71.2823 72.8458 71.3095 72.8635 71.3332C72.8811 71.3569 72.903 71.3765 72.9279 71.391L73.2559 71.594C73.1965 71.6594 73.1285 71.715 73.0539 71.759C73.0284 71.7727 73.0057 71.7918 72.9873 71.8152C72.9688 71.8385 72.9549 71.8656 72.9465 71.8948C72.9381 71.924 72.9352 71.9547 72.9381 71.9851C72.9411 72.0155 72.9497 72.045 72.9635 72.0717C72.9773 72.0985 72.996 72.122 73.0185 72.1408C73.041 72.1596 73.0668 72.1734 73.0944 72.1812C73.122 72.1891 73.1508 72.1909 73.1791 72.1866C73.2073 72.1823 73.2345 72.1719 73.2589 72.156C73.4013 72.0718 73.5275 71.9595 73.6309 71.825L74.4799 72.349L73.6309 72.873C73.5275 72.7389 73.4012 72.6269 73.2589 72.543C73.2345 72.5272 73.2073 72.5168 73.1791 72.5125C73.1508 72.5081 73.122 72.5099 73.0944 72.5178C73.0668 72.5257 73.041 72.5394 73.0185 72.5583C72.996 72.5771 72.9773 72.6006 72.9635 72.6273C72.9497 72.6541 72.9411 72.6835 72.9381 72.714C72.9352 72.7444 72.9381 72.7751 72.9465 72.8043C72.9549 72.8335 72.9688 72.8606 72.9873 72.8839C73.0057 72.9072 73.0284 72.9263 73.0539 72.94C73.1285 72.9841 73.1965 73.0397 73.2559 73.105L72.9279 73.308C72.903 73.3225 72.8811 73.3422 72.8635 73.3658C72.8458 73.3895 72.8328 73.4167 72.8251 73.4459C72.8174 73.4751 72.8153 73.5056 72.8188 73.5357C72.8223 73.5657 72.8314 73.5948 72.8456 73.621C72.8597 73.6472 72.8786 73.6702 72.9012 73.6885C72.9238 73.7068 72.9495 73.72 72.977 73.7275C73.0044 73.7349 73.0329 73.7364 73.0609 73.7319C73.0889 73.7274 73.1158 73.7169 73.1399 73.701L73.4679 73.498C73.4913 73.5858 73.5024 73.6768 73.5009 73.768C73.5001 73.828 73.5216 73.8859 73.5606 73.929C73.5995 73.9721 73.6529 73.9969 73.7089 73.998H73.7129C73.7683 73.998 73.8215 73.9748 73.8612 73.9333C73.9008 73.8918 73.9237 73.8354 73.9249 73.776C73.9279 73.602 73.9001 73.429 73.8429 73.266L74.6929 72.742V73.791C74.5321 73.819 74.3777 73.8794 74.2379 73.969C74.214 73.9845 74.1931 74.0048 74.1766 74.0289C74.16 74.053 74.148 74.0804 74.1413 74.1094C74.1346 74.1385 74.1333 74.1686 74.1375 74.1982C74.1417 74.2278 74.1513 74.2562 74.1658 74.2818C74.1802 74.3074 74.1992 74.3297 74.2217 74.3475C74.2442 74.3652 74.2698 74.378 74.2969 74.3852C74.324 74.3924 74.3522 74.3937 74.3798 74.3893C74.4074 74.3848 74.434 74.3745 74.4579 74.359C74.5306 74.3119 74.6095 74.2765 74.6919 74.254V74.597C74.6919 74.6572 74.7142 74.715 74.754 74.7575C74.7937 74.8001 74.8477 74.824 74.9039 74.824C74.9601 74.824 75.014 74.8001 75.0538 74.7575C75.0936 74.715 75.1159 74.6572 75.1159 74.597V74.254C75.1986 74.2761 75.2778 74.3111 75.3509 74.358C75.3747 74.3734 75.4012 74.3836 75.4287 74.3881C75.4563 74.3925 75.4844 74.3911 75.5114 74.384C75.5384 74.3768 75.5639 74.364 75.5863 74.3463C75.6087 74.3286 75.6277 74.3063 75.642 74.2808C75.6564 74.2552 75.666 74.2269 75.6701 74.1974C75.6743 74.1679 75.673 74.1378 75.6663 74.1089C75.6596 74.0799 75.6476 74.0527 75.6311 74.0287C75.6145 74.0047 75.5937 73.9844 75.5699 73.969C75.4304 73.8795 75.2764 73.8191 75.1159 73.791V72.742L75.9659 73.267C75.9084 73.4299 75.8802 73.6029 75.8829 73.777C75.8841 73.8364 75.907 73.8928 75.9466 73.9343C75.9862 73.9758 76.0395 73.999 76.0949 73.999H76.0989C76.1551 73.9979 76.2085 73.9729 76.2475 73.9296C76.2865 73.8863 76.3079 73.8282 76.3069 73.768C76.3054 73.6768 76.3165 73.5858 76.3399 73.498L76.6679 73.7C76.692 73.7174 76.7192 73.7292 76.7477 73.7349C76.7763 73.7405 76.8056 73.7398 76.8339 73.7328C76.8622 73.7258 76.8888 73.7127 76.9122 73.6942C76.9355 73.6757 76.9551 73.6523 76.9696 73.6254C76.9842 73.5985 76.9934 73.5687 76.9968 73.5378C77.0001 73.5069 76.9975 73.4756 76.9891 73.4459C76.9807 73.4161 76.9666 73.3885 76.9478 73.3648C76.9291 73.3411 76.9059 73.3218 76.8799 73.308Z" fill="url(#paint14_radial_63_268)" stroke="url(#paint15_radial_63_268)" stroke-width="0.282"/>
<path d="M28.8689 73.308L28.5409 73.105C28.6003 73.04 28.6684 72.9848 28.7429 72.941C28.7922 72.9119 28.8287 72.863 28.8443 72.8051C28.8599 72.7472 28.8534 72.685 28.8263 72.6323C28.7991 72.5795 28.7534 72.5404 28.6993 72.5237C28.6453 72.507 28.5872 72.5139 28.5379 72.543C28.3955 72.6272 28.2692 72.7395 28.1659 72.874L27.3169 72.349L28.1669 71.825C28.2697 71.959 28.3952 72.0709 28.5369 72.155C28.5613 72.1715 28.5885 72.1826 28.617 72.1874C28.6455 72.1922 28.6746 72.1908 28.7026 72.1832C28.7305 72.1756 28.7567 72.1619 28.7796 72.1431C28.8024 72.1243 28.8214 72.1006 28.8355 72.0737C28.8495 72.0467 28.8583 72.0169 28.8612 71.9862C28.8641 71.9555 28.8611 71.9245 28.8525 71.895C28.8438 71.8655 28.8296 71.8383 28.8108 71.8149C28.7919 71.7915 28.7688 71.7725 28.7429 71.759C28.6683 71.715 28.6003 71.6594 28.5409 71.594L28.8689 71.391C28.8938 71.3765 28.9157 71.3569 28.9333 71.3332C28.951 71.3095 28.964 71.2823 28.9717 71.2531C28.9794 71.224 28.9815 71.1934 28.978 71.1634C28.9745 71.1333 28.9654 71.1043 28.9512 71.078C28.9371 71.0518 28.9182 71.0289 28.8956 71.0106C28.873 70.9923 28.8473 70.979 28.8198 70.9716C28.7924 70.9641 28.7638 70.9626 28.7359 70.9671C28.7079 70.9717 28.681 70.9822 28.6569 70.998L28.3289 71.201C28.3055 71.1133 28.2944 71.0223 28.2959 70.931C28.2965 70.9012 28.2916 70.8714 28.2815 70.8436C28.2714 70.8158 28.2562 70.7903 28.2369 70.7688C28.2176 70.7472 28.1945 70.73 28.1689 70.718C28.1433 70.706 28.1158 70.6996 28.0879 70.699H28.0839C28.0283 70.699 27.975 70.7224 27.9353 70.7641C27.8956 70.8058 27.8729 70.8625 27.8719 70.922C27.8689 71.096 27.8967 71.2691 27.9539 71.432L27.1049 71.956V70.907C27.2654 70.8789 27.4194 70.8185 27.5589 70.729C27.6071 70.6978 27.6417 70.6473 27.6551 70.5888C27.6686 70.5302 27.6597 70.4683 27.6306 70.4167C27.6014 70.3652 27.5543 70.3281 27.4996 70.3137C27.4449 70.2993 27.3871 70.3088 27.3389 70.34C27.2661 70.3868 27.1873 70.4219 27.1049 70.444V70.101C27.1049 70.0408 27.0826 69.9831 27.0428 69.9405C27.0031 69.8979 26.9491 69.874 26.8929 69.874C26.8367 69.874 26.7828 69.8979 26.743 69.9405C26.7032 69.9831 26.6809 70.0408 26.6809 70.101V70.444C26.5982 70.422 26.519 70.3869 26.4459 70.34C26.422 70.3246 26.3956 70.3144 26.3681 70.31C26.3405 70.3055 26.3124 70.3069 26.2854 70.3141C26.2584 70.3213 26.2329 70.3341 26.2105 70.3518C26.1881 70.3695 26.1691 70.3917 26.1548 70.4173C26.1404 70.4428 26.1308 70.4711 26.1267 70.5006C26.1225 70.5301 26.1238 70.5602 26.1305 70.5891C26.1372 70.6181 26.1492 70.6453 26.1657 70.6693C26.1823 70.6933 26.203 70.7136 26.2269 70.729C26.3664 70.8185 26.5204 70.8789 26.6809 70.907V71.957L25.8319 71.431C25.8891 71.2681 25.9169 71.095 25.9139 70.921C25.9127 70.8617 25.8898 70.8052 25.8502 70.7637C25.8106 70.7222 25.7573 70.699 25.7019 70.699H25.6979C25.6417 70.7001 25.5883 70.7251 25.5493 70.7684C25.5102 70.8117 25.4889 70.8699 25.4899 70.93C25.4914 71.0213 25.4803 71.1123 25.4569 71.2L25.1289 70.998C25.1048 70.9822 25.0779 70.9717 25.0499 70.9671C25.022 70.9626 24.9934 70.9641 24.966 70.9716C24.9385 70.979 24.9128 70.9923 24.8902 71.0106C24.8677 71.0289 24.8487 71.0518 24.8346 71.078C24.8204 71.1043 24.8113 71.1333 24.8078 71.1634C24.8043 71.1934 24.8064 71.224 24.8141 71.2531C24.8218 71.2823 24.8348 71.3095 24.8525 71.3332C24.8701 71.3569 24.892 71.3765 24.9169 71.391L25.2449 71.594C25.1855 71.6594 25.1175 71.715 25.0429 71.759C25.0174 71.7727 24.9947 71.7918 24.9763 71.8152C24.9578 71.8385 24.944 71.8656 24.9355 71.8948C24.9271 71.924 24.9242 71.9547 24.9272 71.9851C24.9301 72.0155 24.9387 72.045 24.9525 72.0717C24.9663 72.0985 24.985 72.122 25.0075 72.1408C25.03 72.1596 25.0559 72.1734 25.0834 72.1812C25.111 72.1891 25.1398 72.1909 25.1681 72.1866C25.1963 72.1823 25.2235 72.1719 25.2479 72.156C25.3903 72.0718 25.5166 71.9595 25.6199 71.825L26.4689 72.349L25.6199 72.873C25.5165 72.7389 25.3903 72.6269 25.2479 72.543C25.2235 72.5272 25.1963 72.5168 25.1681 72.5125C25.1398 72.5081 25.111 72.5099 25.0834 72.5178C25.0559 72.5257 25.03 72.5394 25.0075 72.5583C24.985 72.5771 24.9663 72.6006 24.9525 72.6273C24.9387 72.6541 24.9301 72.6835 24.9272 72.714C24.9242 72.7444 24.9271 72.7751 24.9355 72.8043C24.944 72.8335 24.9578 72.8606 24.9763 72.8839C24.9947 72.9072 25.0174 72.9263 25.0429 72.94C25.1175 72.9841 25.1855 73.0397 25.2449 73.105L24.9169 73.308C24.892 73.3225 24.8701 73.3422 24.8525 73.3658C24.8348 73.3895 24.8218 73.4167 24.8141 73.4459C24.8064 73.4751 24.8043 73.5056 24.8078 73.5357C24.8113 73.5657 24.8204 73.5948 24.8346 73.621C24.8487 73.6472 24.8677 73.6702 24.8902 73.6885C24.9128 73.7068 24.9385 73.72 24.966 73.7275C24.9934 73.7349 25.022 73.7364 25.0499 73.7319C25.0779 73.7274 25.1048 73.7169 25.1289 73.701L25.4569 73.498C25.4803 73.5858 25.4914 73.6768 25.4899 73.768C25.4892 73.828 25.5106 73.8859 25.5496 73.929C25.5886 73.9721 25.6419 73.9969 25.6979 73.998H25.7019C25.7573 73.998 25.8106 73.9748 25.8502 73.9333C25.8898 73.8918 25.9127 73.8354 25.9139 73.776C25.9169 73.602 25.8891 73.429 25.8319 73.266L26.6819 72.742V73.791C26.5211 73.819 26.3667 73.8794 26.2269 73.969C26.203 73.9845 26.1822 74.0048 26.1656 74.0289C26.149 74.053 26.137 74.0804 26.1303 74.1094C26.1236 74.1385 26.1224 74.1686 26.1266 74.1982C26.1307 74.2278 26.1403 74.2562 26.1548 74.2818C26.1692 74.3074 26.1882 74.3297 26.2107 74.3475C26.2332 74.3652 26.2588 74.378 26.2859 74.3852C26.313 74.3924 26.3412 74.3937 26.3688 74.3893C26.3965 74.3848 26.423 74.3745 26.4469 74.359C26.5196 74.3119 26.5985 74.2765 26.6809 74.254V74.597C26.6809 74.6572 26.7032 74.715 26.743 74.7575C26.7828 74.8001 26.8367 74.824 26.8929 74.824C26.9491 74.824 27.0031 74.8001 27.0428 74.7575C27.0826 74.715 27.1049 74.6572 27.1049 74.597V74.254C27.1876 74.2761 27.2668 74.3111 27.3399 74.358C27.3881 74.3891 27.4458 74.3985 27.5004 74.384C27.555 74.3695 27.602 74.3324 27.6311 74.2808C27.6601 74.2292 27.6688 74.1674 27.6553 74.1089C27.6417 74.0504 27.6071 74.0001 27.5589 73.969C27.4194 73.8795 27.2654 73.8191 27.1049 73.791V72.742L27.9549 73.267C27.8974 73.4299 27.8692 73.6029 27.8719 73.777C27.8731 73.8364 27.896 73.8928 27.9356 73.9343C27.9752 73.9758 28.0285 73.999 28.0839 73.999H28.0879C28.1441 73.9979 28.1976 73.9729 28.2366 73.9296C28.2756 73.8863 28.2969 73.8282 28.2959 73.768C28.2944 73.6768 28.3055 73.5858 28.3289 73.498L28.6569 73.7C28.681 73.7174 28.7082 73.7292 28.7367 73.7349C28.7653 73.7405 28.7946 73.7398 28.8229 73.7328C28.8512 73.7258 28.8778 73.7127 28.9012 73.6942C28.9245 73.6757 28.9441 73.6523 28.9586 73.6254C28.9732 73.5985 28.9824 73.5687 28.9858 73.5378C28.9891 73.5069 28.9865 73.4756 28.9781 73.4459C28.9697 73.4161 28.9556 73.3885 28.9369 73.3648C28.9181 73.3411 28.8949 73.3218 28.8689 73.308Z" fill="url(#paint16_radial_63_268)" stroke="url(#paint17_radial_63_268)" stroke-width="0.282"/>
<path d="M13.5399 84.3618L12.9429 83.9928C13.0511 83.874 13.1751 83.7729 13.3109 83.6928C13.4005 83.6398 13.4668 83.5508 13.4951 83.4455C13.5234 83.3402 13.5114 83.2271 13.4618 83.1313C13.4122 83.0354 13.329 82.9645 13.2306 82.9342C13.1322 82.904 13.0265 82.9168 12.9369 82.9698C12.678 83.1234 12.4487 83.328 12.2609 83.5728L10.7149 82.6158L12.2609 81.6618C12.4487 81.9064 12.6781 82.1106 12.9369 82.2638C12.9813 82.2901 13.0301 82.3068 13.0805 82.3129C13.1308 82.319 13.1819 82.3144 13.2306 82.2994C13.2793 82.2844 13.3248 82.2593 13.3645 82.2255C13.4042 82.1917 13.4372 82.1499 13.4618 82.1024C13.4864 82.0549 13.5019 82.0028 13.5076 81.9489C13.5133 81.8949 13.5091 81.8403 13.4951 81.7882C13.4811 81.7361 13.4576 81.6874 13.426 81.6449C13.3944 81.6025 13.3553 81.5671 13.3109 81.5408C13.1751 81.4608 13.0511 81.3597 12.9429 81.2408L13.5399 80.8718C13.5852 80.8455 13.6252 80.8098 13.6573 80.7667C13.6895 80.7236 13.7133 80.674 13.7273 80.621C13.7413 80.5679 13.7452 80.5123 13.7388 80.4576C13.7324 80.4028 13.7158 80.35 13.6901 80.3023C13.6643 80.2545 13.6298 80.2128 13.5887 80.1795C13.5476 80.1462 13.5006 80.1221 13.4507 80.1085C13.4007 80.095 13.3487 80.0922 13.2977 80.1005C13.2468 80.1088 13.1979 80.128 13.1539 80.1568L12.5569 80.5258C12.5144 80.3662 12.4942 80.2008 12.4969 80.0348C12.498 79.9806 12.4891 79.9266 12.4707 79.876C12.4523 79.8254 12.4248 79.7792 12.3897 79.74C12.3546 79.7008 12.3126 79.6694 12.2661 79.6476C12.2197 79.6258 12.1697 79.614 12.1189 79.6128H12.1119C12.0108 79.6128 11.9138 79.6552 11.8416 79.731C11.7694 79.8067 11.7279 79.9097 11.7259 80.0178C11.7204 80.3345 11.7709 80.6493 11.8749 80.9458L10.3289 81.9008V79.9908C10.621 79.9393 10.9013 79.829 11.1549 79.6658C11.2408 79.6083 11.3021 79.517 11.3256 79.4116C11.3491 79.3062 11.3329 79.1951 11.2806 79.1023C11.2282 79.0095 11.1438 78.9425 11.0457 78.9156C10.9475 78.8888 10.8435 78.9043 10.7559 78.9588C10.6231 79.0443 10.4792 79.1084 10.3289 79.1488V78.5238C10.3289 78.4143 10.2883 78.3093 10.2159 78.2318C10.1435 78.1544 10.0453 78.1108 9.94293 78.1108C9.84055 78.1108 9.74237 78.1544 9.66998 78.2318C9.59759 78.3093 9.55693 78.4143 9.55693 78.5238V79.1488C9.40627 79.1085 9.26203 79.0444 9.12893 78.9588C9.0855 78.9283 9.03675 78.9074 8.98559 78.8975C8.93444 78.8875 8.88194 78.8888 8.83124 78.9011C8.78055 78.9134 8.7327 78.9365 8.69057 78.9691C8.64844 79.0017 8.61289 79.0431 8.58607 79.0907C8.55925 79.1384 8.5417 79.1913 8.53447 79.2464C8.52724 79.3015 8.53049 79.3576 8.54402 79.4113C8.55755 79.465 8.58108 79.5152 8.6132 79.559C8.64531 79.6027 8.68536 79.6391 8.73093 79.6658C8.98453 79.8294 9.26481 79.94 9.55693 79.9918V81.8998L8.01093 80.9448C8.11525 80.6484 8.16614 80.3335 8.16093 80.0168C8.15921 79.9085 8.11779 79.8053 8.04558 79.7293C7.97338 79.6534 7.87618 79.6108 7.77493 79.6108H7.76693C7.71619 79.6118 7.66614 79.6235 7.61962 79.6452C7.57311 79.6669 7.53104 79.6982 7.49584 79.7373C7.46064 79.7764 7.43299 79.8225 7.41447 79.8731C7.39596 79.9236 7.38694 79.9776 7.38793 80.0318C7.39073 80.1981 7.37051 80.3639 7.32793 80.5238L6.73193 80.1558C6.68799 80.127 6.63909 80.1078 6.58812 80.0995C6.53716 80.0912 6.48515 80.094 6.43518 80.1075C6.38521 80.1211 6.33828 80.1452 6.29716 80.1785C6.25605 80.2118 6.22158 80.2535 6.1958 80.3013C6.17001 80.349 6.15343 80.4018 6.14703 80.4566C6.14063 80.5113 6.14454 80.5669 6.15853 80.6199C6.17253 80.673 6.19632 80.7226 6.2285 80.7657C6.26069 80.8088 6.30062 80.8445 6.34593 80.8708L6.94193 81.2398C6.83404 81.3586 6.71038 81.4597 6.57493 81.5398C6.52949 81.5654 6.48928 81.6004 6.45665 81.6428C6.42402 81.6853 6.39962 81.7342 6.38489 81.7868C6.37016 81.8394 6.36539 81.8947 6.37085 81.9493C6.37632 82.0039 6.39191 82.0568 6.41672 82.1049C6.44154 82.153 6.47506 82.1953 6.51535 82.2294C6.55563 82.2634 6.60186 82.2886 6.65132 82.3033C6.70079 82.318 6.7525 82.322 6.80343 82.315C6.85436 82.3081 6.90348 82.2903 6.94793 82.2628C7.20711 82.1097 7.43682 81.9054 7.62493 81.6608L9.17093 82.6148L7.62493 83.5698C7.4372 83.325 7.20783 83.1204 6.94893 82.9668C6.90456 82.9406 6.85579 82.9239 6.8054 82.9178C6.75501 82.9117 6.70399 82.9163 6.65525 82.9312C6.60651 82.9462 6.56101 82.9713 6.52134 83.0051C6.48167 83.039 6.44862 83.0808 6.42406 83.1283C6.3995 83.1757 6.38393 83.2279 6.37822 83.2818C6.37251 83.3357 6.37678 83.3903 6.39079 83.4425C6.4048 83.4946 6.42827 83.5433 6.45987 83.5858C6.49146 83.6282 6.53056 83.6636 6.57493 83.6898C6.71073 83.7699 6.83473 83.871 6.94293 83.9898L6.34593 84.3608C6.30062 84.3872 6.26069 84.4229 6.2285 84.466C6.19632 84.5091 6.17253 84.5586 6.15853 84.6117C6.14454 84.6648 6.14063 84.7204 6.14703 84.7751C6.15343 84.8298 6.17001 84.8826 6.1958 84.9304C6.22158 84.9782 6.25605 85.0199 6.29716 85.0532C6.33828 85.0865 6.38521 85.1106 6.43518 85.1242C6.48515 85.1377 6.53716 85.1404 6.58812 85.1321C6.63909 85.1238 6.68799 85.1047 6.73193 85.0758L7.32793 84.7078C7.37033 84.8671 7.39055 85.0322 7.38793 85.1978C7.38706 85.2521 7.39621 85.3061 7.41484 85.3566C7.43348 85.4071 7.46124 85.4531 7.49653 85.4921C7.53183 85.5312 7.57396 85.5623 7.62053 85.5839C7.6671 85.6055 7.71719 85.617 7.76793 85.6178H7.77393C7.87502 85.6179 7.97208 85.5754 8.04426 85.4997C8.11644 85.424 8.15797 85.321 8.15993 85.2128C8.16534 84.8965 8.11479 84.582 8.01093 84.2858L9.55693 83.3308V85.2398C9.26487 85.2914 8.98459 85.4017 8.73093 85.5648C8.68748 85.5928 8.6496 85.6296 8.61946 85.6733C8.58932 85.7169 8.5675 85.7664 8.55526 85.8191C8.54302 85.8717 8.54058 85.9264 8.5481 85.9801C8.55562 86.0337 8.57294 86.0853 8.59907 86.1318C8.6252 86.1782 8.65964 86.2188 8.70041 86.251C8.74118 86.2833 8.78749 86.3066 8.83669 86.3197C8.88589 86.3328 8.93702 86.3354 8.98717 86.3274C9.03731 86.3193 9.08548 86.3008 9.12893 86.2728C9.26203 86.1872 9.40627 86.1232 9.55693 86.0828V86.7068C9.55693 86.8164 9.59759 86.9214 9.66998 86.9989C9.74237 87.0763 9.84055 87.1198 9.94293 87.1198C10.0453 87.1198 10.1435 87.0763 10.2159 86.9989C10.2883 86.9214 10.3289 86.8164 10.3289 86.7068V86.0828C10.4792 86.1233 10.6231 86.1873 10.7559 86.2728C10.8437 86.3295 10.9488 86.3464 11.0483 86.3201C11.1478 86.2937 11.2334 86.2262 11.2863 86.1323C11.3392 86.0384 11.3551 85.9259 11.3304 85.8195C11.3058 85.713 11.2427 85.6215 11.1549 85.5648C10.9013 85.4017 10.621 85.2914 10.3289 85.2398V83.3298L11.8749 84.2858C11.7706 84.5823 11.7197 84.8971 11.7249 85.2138C11.7269 85.322 11.7684 85.425 11.8406 85.5007C11.9128 85.5764 12.0098 85.6189 12.1109 85.6188H12.1189C12.2212 85.6169 12.3186 85.5715 12.3897 85.4928C12.4607 85.414 12.4997 85.3083 12.4979 85.1988C12.4951 85.0326 12.5153 84.8668 12.5579 84.7068L13.1539 85.0748C13.1978 85.1054 13.2471 85.1262 13.2988 85.1357C13.3504 85.1453 13.4033 85.1435 13.4543 85.1305C13.5053 85.1174 13.5532 85.0934 13.5953 85.0599C13.6373 85.0264 13.6725 84.9841 13.6987 84.9356C13.725 84.887 13.7417 84.8333 13.7479 84.7776C13.7541 84.7219 13.7496 84.6655 13.7348 84.6117C13.7199 84.5579 13.695 84.5079 13.6615 84.4648C13.628 84.4217 13.5866 84.3873 13.5399 84.3618Z" fill="url(#paint18_radial_63_268)" stroke="url(#paint19_radial_63_268)" stroke-width="0.513"/>
<path d="M75.5649 84.8219L74.8109 84.3559C74.9472 84.2054 75.1035 84.0774 75.2749 83.9759C75.3816 83.9055 75.4589 83.7939 75.4907 83.6642C75.5226 83.5346 75.5066 83.3967 75.446 83.2793C75.3855 83.1619 75.285 83.074 75.1654 83.0337C75.0459 82.9934 74.9164 83.0038 74.8039 83.0629C74.4765 83.2565 74.1864 83.5147 73.9489 83.8239L71.9949 82.6159L73.9479 81.4089C74.1853 81.7184 74.4754 81.977 74.8029 82.1709C74.9162 82.2378 75.0497 82.2539 75.1741 82.2155C75.2985 82.1772 75.4035 82.0875 75.4661 81.9663C75.5287 81.8451 75.5437 81.7023 75.5079 81.5692C75.472 81.4362 75.3882 81.3238 75.2749 81.2569C75.1036 81.1553 74.9472 81.0273 74.8109 80.8769L75.5649 80.4119C75.6214 80.3782 75.671 80.3328 75.711 80.2783C75.7509 80.2239 75.7803 80.1615 75.7975 80.0948C75.8147 80.0281 75.8194 79.9584 75.8111 79.8898C75.8029 79.8211 75.782 79.7549 75.7497 79.695C75.7174 79.6351 75.6742 79.5826 75.6227 79.5407C75.5712 79.4988 75.5125 79.4682 75.4499 79.4508C75.3873 79.4334 75.3221 79.4295 75.258 79.4393C75.194 79.4491 75.1324 79.4724 75.0769 79.5079L74.3229 79.9739C74.2692 79.7723 74.2435 79.5634 74.2469 79.3539C74.2484 79.2852 74.2372 79.2169 74.2139 79.1529C74.1907 79.0889 74.1559 79.0304 74.1115 78.9808C74.0671 78.9312 74.014 78.8914 73.9552 78.8638C73.8964 78.8362 73.8331 78.8213 73.7689 78.8199H73.7589C73.6312 78.8201 73.5088 78.8739 73.4177 78.9696C73.3267 79.0653 73.2743 79.1954 73.2719 79.3319C73.2649 79.7317 73.3287 80.1294 73.4599 80.5039L71.5069 81.7119V79.2989C71.876 79.2337 72.2303 79.0942 72.5509 78.8879C72.6607 78.8159 72.7395 78.7003 72.77 78.5665C72.8005 78.4326 72.7803 78.2912 72.7138 78.1732C72.6473 78.0552 72.5398 77.9702 72.4149 77.9366C72.2899 77.903 72.1577 77.9236 72.0469 77.9939C71.8789 78.102 71.697 78.1828 71.5069 78.2339V77.4439C71.5069 77.3054 71.4555 77.1727 71.3639 77.0748C71.2724 76.9769 71.1483 76.9219 71.0189 76.9219C70.8894 76.9219 70.7653 76.9769 70.6738 77.0748C70.5823 77.1727 70.5309 77.3054 70.5309 77.4439V78.2339C70.3408 78.1828 70.1588 78.102 69.9909 77.9939C69.9359 77.9558 69.8744 77.9299 69.81 77.9178C69.7455 77.9057 69.6794 77.9076 69.6156 77.9233C69.5519 77.9391 69.4917 77.9684 69.4387 78.0095C69.3858 78.0506 69.3411 78.1028 69.3073 78.1628C69.2736 78.2227 69.2515 78.2894 69.2423 78.3587C69.2331 78.428 69.2371 78.4986 69.2539 78.5663C69.2707 78.6339 69.3001 78.6972 69.3403 78.7525C69.3805 78.8078 69.4307 78.8538 69.4879 78.8879C69.8082 79.0938 70.1621 79.2329 70.5309 79.2979V81.7119L68.5779 80.5039C68.7094 80.1295 68.7735 79.7318 68.7669 79.3319C68.7644 79.1952 68.7119 79.065 68.6207 78.9692C68.5294 78.8735 68.4067 78.8199 68.2789 78.8199H68.2689C68.1397 78.8227 68.0169 78.8802 67.9273 78.9797C67.8377 79.0792 67.7886 79.2127 67.7909 79.3509C67.7944 79.5611 67.7688 79.7707 67.7149 79.9729L66.9609 79.5079C66.9053 79.4724 66.8438 79.4491 66.7797 79.4393C66.7157 79.4295 66.6505 79.4334 66.5879 79.4508C66.5252 79.4682 66.4665 79.4988 66.415 79.5407C66.3636 79.5826 66.3204 79.6351 66.2881 79.695C66.2557 79.7549 66.2348 79.8211 66.2266 79.8898C66.2184 79.9584 66.223 80.0281 66.2402 80.0948C66.2574 80.1615 66.2868 80.2239 66.3268 80.2783C66.3667 80.3328 66.4164 80.3782 66.4729 80.4119L67.2269 80.8779C67.0905 81.0283 66.9342 81.1563 66.7629 81.2579C66.7044 81.2896 66.6524 81.3335 66.6101 81.3872C66.5679 81.4408 66.5361 81.503 66.5168 81.5701C66.4976 81.6371 66.4911 81.7077 66.4979 81.7774C66.5046 81.8472 66.5245 81.9148 66.5562 81.9762C66.5879 82.0376 66.6309 82.0915 66.6826 82.1348C66.7343 82.178 66.7935 82.2096 66.8569 82.2278C66.9202 82.246 66.9863 82.2503 67.0513 82.2405C67.1162 82.2307 67.1787 82.207 67.2349 82.1709C67.5623 81.9769 67.8524 81.7184 68.0899 81.4089L70.0439 82.6159L68.0899 83.8219C67.8523 83.5127 67.5622 83.2545 67.2349 83.0609C67.1787 83.0247 67.1162 83.001 67.0513 82.9912C66.9863 82.9815 66.9202 82.9858 66.8569 83.004C66.7935 83.0221 66.7343 83.0538 66.6826 83.097C66.6309 83.1402 66.5879 83.1941 66.5562 83.2555C66.5245 83.3169 66.5046 83.3845 66.4979 83.4543C66.4911 83.5241 66.4976 83.5946 66.5168 83.6617C66.5361 83.7287 66.5679 83.7909 66.6101 83.8446C66.6524 83.8982 66.7044 83.9422 66.7629 83.9739C66.9345 84.0753 67.0912 84.2034 67.2279 84.3539L66.4729 84.8219C66.4164 84.8556 66.3667 84.901 66.3268 84.9554C66.2868 85.0099 66.2574 85.0722 66.2402 85.1389C66.223 85.2056 66.2184 85.2753 66.2266 85.344C66.2348 85.4126 66.2557 85.4788 66.2881 85.5387C66.3204 85.5987 66.3636 85.6511 66.415 85.693C66.4665 85.735 66.5252 85.7655 66.5879 85.7829C66.6505 85.8003 66.7157 85.8043 66.7797 85.7945C66.8438 85.7847 66.9053 85.7614 66.9609 85.7259L67.7149 85.2599C67.7686 85.4614 67.7942 85.6703 67.7909 85.8799C67.7886 86.0182 67.8378 86.1519 67.9276 86.2514C68.0174 86.351 68.1405 86.4084 68.2699 86.4109H68.2789C68.4065 86.4106 68.529 86.3569 68.62 86.2612C68.7111 86.1655 68.7634 86.0354 68.7659 85.8989C68.7729 85.499 68.7091 85.1014 68.5779 84.7269L70.5309 83.5199V85.9329C70.1621 85.9979 69.8082 86.137 69.4879 86.3429C69.3769 86.4142 69.297 86.5298 69.2657 86.6642C69.2344 86.7986 69.2543 86.9407 69.321 87.0594C69.3877 87.1781 69.4958 87.2636 69.6214 87.297C69.747 87.3305 69.8799 87.3092 69.9909 87.2379C70.1588 87.1298 70.3408 87.0489 70.5309 86.9979V87.7879C70.5309 87.9263 70.5823 88.0591 70.6738 88.157C70.7653 88.2549 70.8894 88.3099 71.0189 88.3099C71.1483 88.3099 71.2724 88.2549 71.3639 88.157C71.4555 88.0591 71.5069 87.9263 71.5069 87.7879V86.9979C71.697 87.0489 71.8789 87.1298 72.0469 87.2379C72.1577 87.3082 72.2899 87.3288 72.4149 87.2952C72.5398 87.2616 72.6473 87.1765 72.7138 87.0585C72.7803 86.9405 72.8005 86.7992 72.77 86.6653C72.7395 86.5314 72.6607 86.4159 72.5509 86.3439C72.2303 86.1375 71.876 85.9981 71.5069 85.9329V83.5199L73.4599 84.7269C73.3282 85.1016 73.2641 85.4996 73.2709 85.8999C73.2733 86.0366 73.3258 86.1668 73.4171 86.2625C73.5083 86.3583 73.6311 86.4119 73.7589 86.4119H73.7689C73.833 86.4106 73.8963 86.3959 73.955 86.3684C74.0138 86.341 74.067 86.3015 74.1115 86.2521C74.1559 86.2027 74.1909 86.1444 74.2143 86.0805C74.2377 86.0166 74.2491 85.9485 74.2479 85.8799C74.2441 85.6701 74.2694 85.4608 74.3229 85.2589L75.0769 85.7249C75.1324 85.7627 75.1945 85.7882 75.2595 85.7997C75.3245 85.8112 75.391 85.8085 75.455 85.7918C75.519 85.7751 75.5791 85.7447 75.6318 85.7024C75.6845 85.6602 75.7287 85.6069 75.7617 85.5459C75.7946 85.4849 75.8157 85.4174 75.8236 85.3475C75.8315 85.2776 75.8262 85.2066 75.8078 85.139C75.7894 85.0713 75.7584 85.0083 75.7166 84.9538C75.6749 84.8994 75.6233 84.8545 75.5649 84.8219Z" fill="url(#paint20_radial_63_268)" stroke="url(#paint21_radial_63_268)" stroke-width="0.648"/>
<path d="M44.207 70.3312L43.453 69.8652C43.5893 69.7147 43.7456 69.5866 43.917 69.4852C44.0237 69.4148 44.101 69.3032 44.1328 69.1735C44.1647 69.0438 44.1487 68.906 44.0881 68.7886C44.0276 68.6712 43.9271 68.5833 43.8075 68.543C43.688 68.5027 43.5585 68.5131 43.446 68.5722C43.1186 68.7658 42.8285 69.024 42.591 69.3332L40.637 68.1252L42.59 66.9182C42.8274 67.2277 43.1175 67.4863 43.445 67.6802C43.5011 67.7133 43.5627 67.7343 43.6264 67.742C43.6901 67.7496 43.7546 67.7438 43.8162 67.7248C43.8778 67.7058 43.9353 67.674 43.9854 67.6313C44.0355 67.5885 44.0772 67.5356 44.1082 67.4756C44.1392 67.4156 44.1588 67.3496 44.166 67.2815C44.1732 67.2134 44.1677 67.1444 44.1499 67.0785C44.1322 67.0126 44.1025 66.9511 44.0625 66.8975C44.0225 66.844 43.9731 66.7993 43.917 66.7662C43.7457 66.6646 43.5893 66.5366 43.453 66.3862L44.207 65.9212C44.2635 65.8874 44.3131 65.842 44.3531 65.7876C44.393 65.7332 44.4224 65.6708 44.4396 65.6041C44.4568 65.5374 44.4614 65.4677 44.4532 65.399C44.445 65.3304 44.4241 65.2642 44.3918 65.2043C44.3594 65.1444 44.3163 65.0919 44.2648 65.05C44.2133 65.0081 44.1546 64.9775 44.092 64.9601C44.0294 64.9427 43.9642 64.9388 43.9001 64.9486C43.8361 64.9584 43.7745 64.9817 43.719 65.0172L42.965 65.4832C42.9112 65.2816 42.8856 65.0727 42.889 64.8632C42.8905 64.7945 42.8793 64.7262 42.856 64.6622C42.8328 64.5981 42.798 64.5396 42.7536 64.49C42.7092 64.4404 42.6561 64.4007 42.5973 64.3731C42.5385 64.3455 42.4752 64.3305 42.411 64.3292H42.401C42.2733 64.3294 42.1508 64.3832 42.0598 64.4789C41.9688 64.5746 41.9164 64.7046 41.914 64.8412C41.907 65.241 41.9708 65.6387 42.102 66.0132L40.149 67.2212V64.8082C40.5181 64.743 40.8724 64.6035 41.193 64.3972C41.3028 64.3252 41.3816 64.2096 41.4121 64.0757C41.4426 63.9419 41.4224 63.8005 41.3559 63.6825C41.2894 63.5645 41.1819 63.4794 41.057 63.4458C40.932 63.4122 40.7998 63.4328 40.689 63.5032C40.521 63.6112 40.339 63.6921 40.149 63.7432V62.9532C40.149 62.8147 40.0976 62.6819 40.006 62.584C39.9145 62.4861 39.7904 62.4312 39.661 62.4312C39.5315 62.4312 39.4074 62.4861 39.3159 62.584C39.2244 62.6819 39.173 62.8147 39.173 62.9532V63.7432C38.9829 63.6921 38.8009 63.6112 38.633 63.5032C38.578 63.4651 38.5165 63.4392 38.4521 63.4271C38.3876 63.415 38.3215 63.4168 38.2577 63.4326C38.194 63.4483 38.1338 63.4777 38.0808 63.5188C38.0279 63.5599 37.9832 63.612 37.9494 63.672C37.9157 63.732 37.8936 63.7986 37.8844 63.868C37.8752 63.9373 37.8791 64.0079 37.896 64.0755C37.9128 64.1432 37.9422 64.2065 37.9824 64.2618C38.0226 64.317 38.0728 64.3631 38.13 64.3972C38.4503 64.603 38.8042 64.7422 39.173 64.8072V67.2212L37.22 66.0132C37.3515 65.6387 37.4156 65.2411 37.409 64.8412C37.4065 64.7045 37.354 64.5742 37.2628 64.4785C37.1715 64.3828 37.0488 64.3291 36.921 64.3292H36.911C36.7818 64.332 36.659 64.3894 36.5694 64.489C36.4798 64.5885 36.4307 64.722 36.433 64.8602C36.4365 65.0704 36.4109 65.28 36.357 65.4822L35.603 65.0172C35.5474 64.9817 35.4858 64.9584 35.4218 64.9486C35.3578 64.9388 35.2926 64.9427 35.2299 64.9601C35.1673 64.9775 35.1086 65.0081 35.0571 65.05C35.0057 65.0919 34.9625 65.1444 34.9301 65.2043C34.8978 65.2642 34.8769 65.3304 34.8687 65.399C34.8605 65.4677 34.8651 65.5374 34.8823 65.6041C34.8995 65.6708 34.9289 65.7332 34.9689 65.7876C35.0088 65.842 35.0585 65.8874 35.115 65.9212L35.869 66.3872C35.7326 66.5376 35.5763 66.6656 35.405 66.7672C35.3464 66.7988 35.2945 66.8428 35.2522 66.8965C35.21 66.9501 35.1782 67.0123 35.1589 67.0794C35.1396 67.1464 35.1332 67.2169 35.1399 67.2867C35.1467 67.3565 35.1666 67.4241 35.1983 67.4855C35.23 67.5469 35.273 67.6008 35.3247 67.644C35.3763 67.6873 35.4356 67.7189 35.499 67.7371C35.5623 67.7553 35.6284 67.7596 35.6934 67.7498C35.7583 67.74 35.8208 67.7163 35.877 67.6802C36.2044 67.4862 36.4945 67.2276 36.732 66.9182L38.685 68.1252L36.732 69.3312C36.4944 69.022 36.2043 68.7638 35.877 68.5702C35.8208 68.534 35.7583 68.5103 35.6934 68.5005C35.6284 68.4907 35.5623 68.4951 35.499 68.5132C35.4356 68.5314 35.3763 68.563 35.3247 68.6063C35.273 68.6495 35.23 68.7034 35.1983 68.7648C35.1666 68.8262 35.1467 68.8938 35.1399 68.9636C35.1332 69.0334 35.1396 69.1039 35.1589 69.171C35.1782 69.238 35.21 69.3002 35.2522 69.3539C35.2945 69.4075 35.3464 69.4515 35.405 69.4832C35.5766 69.5846 35.7333 69.7127 35.87 69.8632L35.115 70.3312C35.0585 70.3649 35.0088 70.4103 34.9689 70.4647C34.9289 70.5191 34.8995 70.5815 34.8823 70.6482C34.8651 70.7149 34.8605 70.7846 34.8687 70.8533C34.8769 70.9219 34.8978 70.9881 34.9301 71.048C34.9625 71.1079 35.0057 71.1604 35.0571 71.2023C35.1086 71.2442 35.1673 71.2748 35.2299 71.2922C35.2926 71.3096 35.3578 71.3135 35.4218 71.3037C35.4858 71.2939 35.5474 71.2706 35.603 71.2352L36.357 70.7691C36.4107 70.9707 36.4363 71.1796 36.433 71.3892C36.4307 71.5273 36.4798 71.6608 36.5694 71.7603C36.659 71.8599 36.7818 71.9173 36.911 71.9202H36.921C37.0486 71.9199 37.1711 71.8662 37.2621 71.7704C37.3532 71.6747 37.4055 71.5447 37.408 71.4081C37.415 71.0083 37.3512 70.6106 37.22 70.2362L39.173 69.0292V71.4422C38.8039 71.507 38.4496 71.6461 38.129 71.8521C38.074 71.8875 38.0261 71.9342 37.9881 71.9894C37.95 72.0446 37.9224 72.1072 37.907 72.1738C37.8915 72.2404 37.8885 72.3096 37.898 72.3774C37.9076 72.4453 37.9295 72.5104 37.9626 72.5692C37.9957 72.628 38.0393 72.6792 38.0909 72.7199C38.1425 72.7607 38.2011 72.7902 38.2633 72.8067C38.3256 72.8232 38.3903 72.8265 38.4537 72.8162C38.5171 72.806 38.578 72.7826 38.633 72.7472C38.8009 72.6391 38.9829 72.5582 39.173 72.5072V73.2971C39.173 73.4356 39.2244 73.5684 39.3159 73.6663C39.4074 73.7642 39.5315 73.8192 39.661 73.8192C39.7904 73.8192 39.9145 73.7642 40.006 73.6663C40.0976 73.5684 40.149 73.4356 40.149 73.2971V72.5072C40.339 72.5582 40.521 72.6391 40.689 72.7472C40.7998 72.8175 40.932 72.8381 41.057 72.8045C41.1819 72.7709 41.2894 72.6858 41.3559 72.5678C41.4224 72.4498 41.4426 72.3084 41.4121 72.1746C41.3816 72.0407 41.3028 71.9251 41.193 71.8531C40.8724 71.6468 40.5181 71.5073 40.149 71.4422V69.0292L42.102 70.2362C41.9703 70.6109 41.9062 71.0089 41.913 71.4091C41.9154 71.5459 41.9679 71.6761 42.0592 71.7718C42.1504 71.8676 42.2731 71.9212 42.401 71.9212H42.411C42.5403 71.9183 42.6633 71.8607 42.7529 71.761C42.8425 71.6612 42.8915 71.5275 42.889 71.3892C42.8855 71.1793 42.9112 70.97 42.965 70.7682L43.719 71.2342C43.7745 71.272 43.8366 71.2975 43.9016 71.309C43.9666 71.3205 44.0331 71.3178 44.0971 71.301C44.1611 71.2843 44.2212 71.2539 44.2739 71.2117C44.3266 71.1694 44.3708 71.1162 44.4037 71.0552C44.4367 70.9942 44.4578 70.9267 44.4657 70.8568C44.4736 70.7868 44.4682 70.7159 44.4499 70.6482C44.4315 70.5806 44.4005 70.5176 44.3587 70.4631C44.317 70.4086 44.2654 70.3637 44.207 70.3312Z" fill="url(#paint22_radial_63_268)" stroke="url(#paint23_radial_63_268)" stroke-width="0.648"/>
</g>
<defs>
<linearGradient id="paint0_linear_63_268" x1="51.4009" y1="0.0760319" x2="50.5519" y2="44.271" gradientUnits="userSpaceOnUse">
<stop stop-color="#BCBCC1"/>
<stop offset="1" stop-color="#46494B"/>
</linearGradient>
<linearGradient id="paint1_linear_63_268" x1="47.1579" y1="14.7358" x2="47.2239" y2="58.2228" gradientUnits="userSpaceOnUse">
<stop stop-color="#EEEFEF"/>
<stop offset="1" stop-color="#4A4C51"/>
</linearGradient>
<radialGradient id="paint2_radial_63_268" cx="0" cy="0" r="1" gradientUnits="userSpaceOnUse" gradientTransform="translate(16.47 68.125) scale(3.99912 4.68743)">
<stop stop-color="#85B2EE"/>
<stop offset="1" stop-color="#DCEEF9"/>
</radialGradient>
<radialGradient id="paint3_radial_63_268" cx="0" cy="0" r="1" gradientUnits="userSpaceOnUse" gradientTransform="translate(16.47 68.125) scale(3.99912 4.68743)">
<stop stop-color="#85B2EE"/>
<stop offset="1" stop-color="#DCEEF9"/>
</radialGradient>
<radialGradient id="paint4_radial_63_268" cx="0" cy="0" r="1" gradientUnits="userSpaceOnUse" gradientTransform="translate(86.2439 68.125) scale(3.99912 4.68743)">
<stop stop-color="#85B2EE"/>
<stop offset="1" stop-color="#DCEEF9"/>
</radialGradient>
<radialGradient id="paint5_radial_63_268" cx="0" cy="0" r="1" gradientUnits="userSpaceOnUse" gradientTransform="translate(86.2439 68.125) scale(3.99912 4.68743)">
<stop stop-color="#85B2EE"/>
<stop offset="1" stop-color="#DCEEF9"/>
</radialGradient>
<radialGradient id="paint6_radial_63_268" cx="0" cy="0" r="1" gradientUnits="userSpaceOnUse" gradientTransform="translate(62.9861 68.125) scale(3.99912 4.68743)">
<stop stop-color="#85B2EE"/>
<stop offset="1" stop-color="#DCEEF9"/>
</radialGradient>
<radialGradient id="paint7_radial_63_268" cx="0" cy="0" r="1" gradientUnits="userSpaceOnUse" gradientTransform="translate(62.9861 68.125) scale(3.99912 4.68743)">
<stop stop-color="#85B2EE"/>
<stop offset="1" stop-color="#DCEEF9"/>
</radialGradient>
<radialGradient id="paint8_radial_63_268" cx="0" cy="0" r="1" gradientUnits="userSpaceOnUse" gradientTransform="translate(30.239 82.6162) scale(3.99912 4.68743)">
<stop stop-color="#85B2EE"/>
<stop offset="1" stop-color="#DCEEF9"/>
</radialGradient>
<radialGradient id="paint9_radial_63_268" cx="0" cy="0" r="1" gradientUnits="userSpaceOnUse" gradientTransform="translate(30.239 82.6162) scale(3.99912 4.68743)">
<stop stop-color="#85B2EE"/>
<stop offset="1" stop-color="#DCEEF9"/>
</radialGradient>
<radialGradient id="paint10_radial_63_268" cx="0" cy="0" r="1" gradientUnits="userSpaceOnUse" gradientTransform="translate(50.5259 82.6162) scale(3.99912 4.68743)">
<stop stop-color="#85B2EE"/>
<stop offset="1" stop-color="#DCEEF9"/>
</radialGradient>
<radialGradient id="paint11_radial_63_268" cx="0" cy="0" r="1" gradientUnits="userSpaceOnUse" gradientTransform="translate(50.5259 82.6162) scale(3.99912 4.68743)">
<stop stop-color="#85B2EE"/>
<stop offset="1" stop-color="#DCEEF9"/>
</radialGradient>
<radialGradient id="paint12_radial_63_268" cx="0" cy="0" r="1" gradientUnits="userSpaceOnUse" gradientTransform="translate(50.9018 72.3495) scale(2.23145 2.61553)">
<stop stop-color="#85B2EE"/>
<stop offset="1" stop-color="#DCEEF9"/>
</radialGradient>
<radialGradient id="paint13_radial_63_268" cx="0" cy="0" r="1" gradientUnits="userSpaceOnUse" gradientTransform="translate(50.9018 72.3495) scale(2.23145 2.61553)">
<stop stop-color="#85B2EE"/>
<stop offset="1" stop-color="#DCEEF9"/>
</radialGradient>
<radialGradient id="paint14_radial_63_268" cx="0" cy="0" r="1" gradientUnits="userSpaceOnUse" gradientTransform="translate(74.9069 72.3495) scale(2.23145 2.61553)">
<stop stop-color="#85B2EE"/>
<stop offset="1" stop-color="#DCEEF9"/>
</radialGradient>
<radialGradient id="paint15_radial_63_268" cx="0" cy="0" r="1" gradientUnits="userSpaceOnUse" gradientTransform="translate(74.9069 72.3495) scale(2.23145 2.61553)">
<stop stop-color="#85B2EE"/>
<stop offset="1" stop-color="#DCEEF9"/>
</radialGradient>
<radialGradient id="paint16_radial_63_268" cx="0" cy="0" r="1" gradientUnits="userSpaceOnUse" gradientTransform="translate(26.8959 72.3495) scale(2.23145 2.61553)">
<stop stop-color="#85B2EE"/>
<stop offset="1" stop-color="#DCEEF9"/>
</radialGradient>
<radialGradient id="paint17_radial_63_268" cx="0" cy="0" r="1" gradientUnits="userSpaceOnUse" gradientTransform="translate(26.8959 72.3495) scale(2.23145 2.61553)">
<stop stop-color="#85B2EE"/>
<stop offset="1" stop-color="#DCEEF9"/>
</radialGradient>
<radialGradient id="paint18_radial_63_268" cx="0" cy="0" r="1" gradientUnits="userSpaceOnUse" gradientTransform="translate(9.94809 82.6155) scale(4.06218 4.76142)">
<stop stop-color="#85B2EE"/>
<stop offset="1" stop-color="#DCEEF9"/>
</radialGradient>
<radialGradient id="paint19_radial_63_268" cx="0" cy="0" r="1" gradientUnits="userSpaceOnUse" gradientTransform="translate(9.94809 82.6155) scale(4.06218 4.76142)">
<stop stop-color="#85B2EE"/>
<stop offset="1" stop-color="#DCEEF9"/>
</radialGradient>
<radialGradient id="paint20_radial_63_268" cx="0" cy="0" r="1" gradientUnits="userSpaceOnUse" gradientTransform="translate(71.0263 82.6155) scale(5.13378 6.0173)">
<stop stop-color="#85B2EE"/>
<stop offset="1" stop-color="#DCEEF9"/>
</radialGradient>
<radialGradient id="paint21_radial_63_268" cx="0" cy="0" r="1" gradientUnits="userSpaceOnUse" gradientTransform="translate(71.0263 82.6155) scale(5.13378 6.0173)">
<stop stop-color="#85B2EE"/>
<stop offset="1" stop-color="#DCEEF9"/>
</radialGradient>
<radialGradient id="paint22_radial_63_268" cx="0" cy="0" r="1" gradientUnits="userSpaceOnUse" gradientTransform="translate(39.6684 68.1248) scale(5.13378 6.0173)">
<stop stop-color="#85B2EE"/>
<stop offset="1" stop-color="#DCEEF9"/>
</radialGradient>
<radialGradient id="paint23_radial_63_268" cx="0" cy="0" r="1" gradientUnits="userSpaceOnUse" gradientTransform="translate(39.6684 68.1248) scale(5.13378 6.0173)">
<stop stop-color="#85B2EE"/>
<stop offset="1" stop-color="#DCEEF9"/>
</radialGradient>
<clipPath id="clip0_63_268">
<rect width="100" height="100" fill="white"/>
</clipPath>
</defs>
</svg>
