<svg width="101" height="107" viewBox="0 0 101 107" fill="none" xmlns="http://www.w3.org/2000/svg">
<path d="M6.44315 63.626H96.1101C96.1101 63.626 106.316 50.169 92.4901 37.603C78.9171 25.267 64.9311 34.871 64.9311 34.871C64.9311 34.871 56.3221 15.494 40.0191 20.15C23.7162 24.809 22.4091 38.287 22.4091 38.287C22.4091 38.287 5.90115 38.623 3.18315 48.91C0.465149 59.197 6.44315 63.626 6.44315 63.626Z" fill="url(#paint0_linear_63_866)"/>
<g filter="url(#filter0_d_63_866)">
<path d="M74.5932 62.7928C64.3071 72.4128 48.6191 75.4468 34.633 68.5648C20.499 61.5348 12.6549 45.6247 15.689 30.2327C18.723 14.9146 30.711 4.33255 44.6231 2.03854C46.7691 1.66854 48.3971 4.03655 47.2871 5.96056C46.2511 7.81057 45.3631 9.80857 44.6231 11.8806C38.333 30.3807 48.2491 50.4347 66.7491 56.7248C68.8212 57.4648 70.9672 57.9088 73.1132 58.2788C75.2592 58.5748 76.1472 61.2388 74.5932 62.7928Z" fill="url(#paint1_linear_63_866)"/>
</g>
<path d="M73.6587 21.0557C74.0903 21.2756 73.9884 21.9193 73.51 21.9951L70.0067 22.5499C69.7927 22.5838 69.6249 22.7516 69.5911 22.9656L69.0362 26.4688C68.9604 26.9472 68.3167 27.0492 68.0968 26.6176L66.4866 23.4573C66.3882 23.2643 66.1768 23.1565 65.9628 23.1904L62.4596 23.7453C61.9812 23.8211 61.6853 23.2404 62.0278 22.8979L64.5359 20.3898C64.689 20.2366 64.7261 20.0023 64.6278 19.8093L63.0175 16.6489C62.7976 16.2173 63.2585 15.7565 63.69 15.9764L66.8504 17.5867C67.0434 17.685 67.2778 17.6479 67.4309 17.4947L69.939 14.9867C70.2815 14.6442 70.8622 14.94 70.7864 15.4184L70.2315 18.9217C70.1977 19.1357 70.3054 19.3471 70.4984 19.4454L73.6587 21.0557Z" fill="#8FE5F2"/>
<path d="M3.96817 77.7958H93.6352C93.6352 77.7958 104.867 64.6038 93.9052 49.4748C82.2752 33.4258 63.1632 46.7428 63.1632 46.7428C63.1632 46.7428 53.8472 29.6628 37.5442 34.3218C21.2412 38.9808 20.4652 53.3418 20.4652 53.3418C20.4652 53.3418 3.42517 52.7928 0.70817 63.0798C-2.00883 73.3668 3.96817 77.7958 3.96817 77.7958Z" fill="url(#paint2_linear_63_866)"/>
<path d="M10.8604 86.1048L13.5504 82.1138" stroke="url(#paint3_linear_63_866)" stroke-width="4.051" stroke-linecap="round" stroke-linejoin="round"/>
<path d="M46.4443 86.1048L49.1343 82.1138" stroke="url(#paint4_linear_63_866)" stroke-width="4.051" stroke-linecap="round" stroke-linejoin="round"/>
<path d="M61.0413 97.991L63.7313 94" stroke="url(#paint5_linear_63_866)" stroke-width="4.051" stroke-linecap="round" stroke-linejoin="round"/>
<path d="M23.0413 97.991L25.7313 94" stroke="url(#paint6_linear_63_866)" stroke-width="4.051" stroke-linecap="round" stroke-linejoin="round"/>
<path d="M82.0293 86.1048L84.7193 82.1138" stroke="url(#paint7_linear_63_866)" stroke-width="4.051" stroke-linecap="round" stroke-linejoin="round"/>
<defs>
<filter id="filter0_d_63_866" x="13.0413" y="0" width="64.3369" height="74.2998" filterUnits="userSpaceOnUse" color-interpolation-filters="sRGB">
<feFlood flood-opacity="0" result="BackgroundImageFix"/>
<feColorMatrix in="SourceAlpha" type="matrix" values="0 0 0 0 0 0 0 0 0 0 0 0 0 0 0 0 0 0 127 0" result="hardAlpha"/>
<feOffset/>
<feGaussianBlur stdDeviation="1"/>
<feComposite in2="hardAlpha" operator="out"/>
<feColorMatrix type="matrix" values="0 0 0 0 0.278431 0 0 0 0 0.760784 0 0 0 0 0.917647 0 0 0 1 0"/>
<feBlend mode="normal" in2="BackgroundImageFix" result="effect1_dropShadow_63_866"/>
<feBlend mode="normal" in="SourceGraphic" in2="effect1_dropShadow_63_866" result="shape"/>
</filter>
<linearGradient id="paint0_linear_63_866" x1="48.9828" y1="19.6465" x2="49.0495" y2="63.0541" gradientUnits="userSpaceOnUse">
<stop stop-color="#76CDFF"/>
<stop offset="1" stop-color="#126F97"/>
</linearGradient>
<linearGradient id="paint1_linear_63_866" x1="45.2098" y1="2" x2="45.2098" y2="72.3" gradientUnits="userSpaceOnUse">
<stop stop-color="#ACF2F5"/>
<stop offset="1" stop-color="#29B4E7"/>
</linearGradient>
<linearGradient id="paint2_linear_63_866" x1="47.1992" y1="33.7358" x2="47.2652" y2="77.2218" gradientUnits="userSpaceOnUse">
<stop stop-color="#76CDFF"/>
<stop offset="1" stop-color="#126F97"/>
</linearGradient>
<linearGradient id="paint3_linear_63_866" x1="8.86435" y1="86.1708" x2="13.5494" y2="86.1708" gradientUnits="userSpaceOnUse">
<stop stop-color="#4D84CE"/>
<stop offset="1" stop-color="#94B7E9" stop-opacity="0.996"/>
</linearGradient>
<linearGradient id="paint4_linear_63_866" x1="44.4493" y1="86.1708" x2="49.1343" y2="86.1708" gradientUnits="userSpaceOnUse">
<stop stop-color="#4D84CE"/>
<stop offset="1" stop-color="#94B7E9" stop-opacity="0.996"/>
</linearGradient>
<linearGradient id="paint5_linear_63_866" x1="59.0453" y1="98.057" x2="63.7303" y2="98.057" gradientUnits="userSpaceOnUse">
<stop stop-color="#4D84CE"/>
<stop offset="1" stop-color="#94B7E9" stop-opacity="0.996"/>
</linearGradient>
<linearGradient id="paint6_linear_63_866" x1="21.0453" y1="98.057" x2="25.7303" y2="98.057" gradientUnits="userSpaceOnUse">
<stop stop-color="#4D84CE"/>
<stop offset="1" stop-color="#94B7E9" stop-opacity="0.996"/>
</linearGradient>
<linearGradient id="paint7_linear_63_866" x1="80.0343" y1="86.1708" x2="84.7193" y2="86.1708" gradientUnits="userSpaceOnUse">
<stop stop-color="#4D84CE"/>
<stop offset="1" stop-color="#94B7E9" stop-opacity="0.996"/>
</linearGradient>
</defs>
</svg>
