<svg width="109" height="112" viewBox="0 0 109 112" fill="none" xmlns="http://www.w3.org/2000/svg">
<path d="M6.44315 63.9156H96.1101C96.1101 63.9156 106.316 50.4586 92.4901 37.8926C78.9171 25.5566 64.9311 35.1606 64.9311 35.1606C64.9311 35.1606 56.3221 15.7836 40.0191 20.4396C23.7162 25.0986 22.4091 38.5766 22.4091 38.5766C22.4091 38.5766 5.90115 38.9126 3.18315 49.1996C0.465149 59.4866 6.44315 63.9156 6.44315 63.9156Z" fill="url(#paint0_linear_63_345)"/>
<path d="M70.1943 59.4429C81.7923 59.4429 91.1943 50.0409 91.1943 38.4429C91.1943 26.8449 81.7923 17.4429 70.1943 17.4429C58.5964 17.4429 49.1943 26.8449 49.1943 38.4429C49.1943 50.0409 58.5964 59.4429 70.1943 59.4429Z" fill="url(#paint1_linear_63_345)"/>
<path d="M105.194 38.3547L96.5436 38.3635ZM94.9129 13.5548L88.802 19.6781ZM70.1071 3.28955L70.1159 11.9402ZM45.3073 13.5702L51.4306 19.6811ZM35.0413 38.3767L43.6926 38.3679ZM45.3226 63.1758L51.4335 57.0525ZM70.1284 73.4418L70.1196 64.7912ZM94.9283 63.1604L88.805 57.0496Z" fill="#FFDB4A"/>
<path d="M105.194 38.3547L96.5436 38.3635M94.9129 13.5548L88.802 19.6781M70.1071 3.28955L70.1159 11.9402M45.3073 13.5702L51.4306 19.6811M35.0413 38.3767L43.6926 38.3679M45.3226 63.1758L51.4335 57.0525M70.1284 73.4418L70.1196 64.7912M94.9283 63.1604L88.805 57.0496" stroke="#FFEEAA" stroke-width="4.157" stroke-linecap="round"/>
<g opacity="0.723473" filter="url(#filter0_f_63_345)">
<path d="M46.1401 62.3571L50.6161 57.8721Z" fill="#61552C"/>
<path d="M46.1401 62.3571L50.6161 57.8721" stroke="#FFA604" stroke-width="3.04484" stroke-linecap="round"/>
</g>
<g opacity="0.723473" filter="url(#filter1_f_63_345)">
<path d="M36.2026 38.3746L42.539 38.3681Z" fill="#61552C"/>
<path d="M36.2026 38.3746L42.539 38.3681" stroke="#FFA604" stroke-width="3.04484" stroke-linecap="round"/>
</g>
<g opacity="0.723473" filter="url(#filter2_f_63_345)">
<path d="M46.1333 14.3892L50.6184 18.8651Z" fill="#61552C"/>
<path d="M46.1333 14.3892L50.6184 18.8651" stroke="#FFA604" stroke-width="3.04484" stroke-linecap="round"/>
</g>
<g opacity="0.723473" filter="url(#filter3_f_63_345)">
<path d="M70.1157 4.45211L70.1221 10.7885Z" fill="#61552C"/>
<path d="M70.1157 4.45211L70.1221 10.7885" stroke="#FFA604" stroke-width="3.04484" stroke-linecap="round"/>
</g>
<g opacity="0.723473" filter="url(#filter4_f_63_345)">
<path d="M94.1023 14.3826L89.6263 18.8677Z" fill="#61552C"/>
<path d="M94.1023 14.3826L89.6263 18.8677" stroke="#FFA604" stroke-width="3.04484" stroke-linecap="round"/>
</g>
<g opacity="0.723473" filter="url(#filter5_f_63_345)">
<path d="M104.04 38.3652L97.7039 38.3716Z" fill="#61552C"/>
<path d="M104.04 38.3652L97.7039 38.3716" stroke="#FFA604" stroke-width="3.04484" stroke-linecap="round"/>
</g>
<g opacity="0.723473" filter="url(#filter6_f_63_345)">
<path d="M94.1081 62.3491L89.623 57.8732Z" fill="#61552C"/>
<path d="M94.1081 62.3491L89.623 57.8732" stroke="#FFA604" stroke-width="3.04484" stroke-linecap="round"/>
</g>
<g opacity="0.723473" filter="url(#filter7_f_63_345)">
<path d="M70.1255 72.2881L70.1191 65.9517Z" fill="#61552C"/>
<path d="M70.1255 72.2881L70.1191 65.9517" stroke="#FFA604" stroke-width="3.04484" stroke-linecap="round"/>
</g>
<g filter="url(#filter8_f_63_345)">
<path d="M70.1943 58.4429C81.24 58.4429 90.1943 49.4886 90.1943 38.4429C90.1943 27.3972 81.24 18.4429 70.1943 18.4429C59.1486 18.4429 50.1943 27.3972 50.1943 38.4429C50.1943 49.4886 59.1486 58.4429 70.1943 58.4429Z" fill="url(#paint2_linear_63_345)"/>
</g>
<path d="M3.96817 78.0854H93.6352C93.6352 78.0854 104.867 64.8933 93.9052 49.7643C82.2752 33.7153 63.1632 47.0323 63.1632 47.0323C63.1632 47.0323 53.8472 29.9523 37.5442 34.6113C21.2412 39.2703 20.4652 53.6313 20.4652 53.6313C20.4652 53.6313 3.42517 53.0823 0.70817 63.3693C-2.00883 73.6563 3.96817 78.0854 3.96817 78.0854Z" fill="url(#paint3_linear_63_345)"/>
<path d="M10.8604 86.3943L13.5504 82.4033" stroke="url(#paint4_linear_63_345)" stroke-width="4.051" stroke-linecap="round" stroke-linejoin="round"/>
<path d="M46.4443 86.3943L49.1343 82.4033" stroke="url(#paint5_linear_63_345)" stroke-width="4.051" stroke-linecap="round" stroke-linejoin="round"/>
<path d="M43.1365 102.532L45.8265 98.5405" stroke="url(#paint6_linear_63_345)" stroke-width="4.051" stroke-linecap="round" stroke-linejoin="round"/>
<path d="M12.9395 102.532L15.6295 98.5405" stroke="url(#paint7_linear_63_345)" stroke-width="4.051" stroke-linecap="round" stroke-linejoin="round"/>
<path d="M77.7812 102.532L80.4713 98.5405" stroke="url(#paint8_linear_63_345)" stroke-width="4.051" stroke-linecap="round" stroke-linejoin="round"/>
<path d="M82.0293 86.3943L84.7193 82.4033" stroke="url(#paint9_linear_63_345)" stroke-width="4.051" stroke-linecap="round" stroke-linejoin="round"/>
<path d="M62.0454 95.5003L64.7354 91.5093" stroke="url(#paint10_linear_63_345)" stroke-width="4.051" stroke-linecap="round" stroke-linejoin="round"/>
<path d="M26.7263 95.5003L29.4163 91.5093" stroke="url(#paint11_linear_63_345)" stroke-width="4.051" stroke-linecap="round" stroke-linejoin="round"/>
<defs>
<filter id="filter0_f_63_345" x="41.6878" y="53.4198" width="13.3804" height="13.3895" filterUnits="userSpaceOnUse" color-interpolation-filters="sRGB">
<feFlood flood-opacity="0" result="BackgroundImageFix"/>
<feBlend mode="normal" in="SourceGraphic" in2="BackgroundImageFix" result="shape"/>
<feGaussianBlur stdDeviation="1.46492" result="effect1_foregroundBlur_63_345"/>
</filter>
<filter id="filter1_f_63_345" x="31.7503" y="33.9159" width="15.241" height="8.91095" filterUnits="userSpaceOnUse" color-interpolation-filters="sRGB">
<feFlood flood-opacity="0" result="BackgroundImageFix"/>
<feBlend mode="normal" in="SourceGraphic" in2="BackgroundImageFix" result="shape"/>
<feGaussianBlur stdDeviation="1.46492" result="effect1_foregroundBlur_63_345"/>
</filter>
<filter id="filter2_f_63_345" x="41.681" y="9.93686" width="13.3897" height="13.3807" filterUnits="userSpaceOnUse" color-interpolation-filters="sRGB">
<feFlood flood-opacity="0" result="BackgroundImageFix"/>
<feBlend mode="normal" in="SourceGraphic" in2="BackgroundImageFix" result="shape"/>
<feGaussianBlur stdDeviation="1.46492" result="effect1_foregroundBlur_63_345"/>
</filter>
<filter id="filter3_f_63_345" x="65.6634" y="-0.000152588" width="8.91095" height="15.241" filterUnits="userSpaceOnUse" color-interpolation-filters="sRGB">
<feFlood flood-opacity="0" result="BackgroundImageFix"/>
<feBlend mode="normal" in="SourceGraphic" in2="BackgroundImageFix" result="shape"/>
<feGaussianBlur stdDeviation="1.46492" result="effect1_foregroundBlur_63_345"/>
</filter>
<filter id="filter4_f_63_345" x="85.1742" y="9.93051" width="13.3804" height="13.3895" filterUnits="userSpaceOnUse" color-interpolation-filters="sRGB">
<feFlood flood-opacity="0" result="BackgroundImageFix"/>
<feBlend mode="normal" in="SourceGraphic" in2="BackgroundImageFix" result="shape"/>
<feGaussianBlur stdDeviation="1.46492" result="effect1_foregroundBlur_63_345"/>
</filter>
<filter id="filter5_f_63_345" x="93.2516" y="33.9129" width="15.241" height="8.91095" filterUnits="userSpaceOnUse" color-interpolation-filters="sRGB">
<feFlood flood-opacity="0" result="BackgroundImageFix"/>
<feBlend mode="normal" in="SourceGraphic" in2="BackgroundImageFix" result="shape"/>
<feGaussianBlur stdDeviation="1.46492" result="effect1_foregroundBlur_63_345"/>
</filter>
<filter id="filter6_f_63_345" x="85.1707" y="53.4207" width="13.3897" height="13.3807" filterUnits="userSpaceOnUse" color-interpolation-filters="sRGB">
<feFlood flood-opacity="0" result="BackgroundImageFix"/>
<feBlend mode="normal" in="SourceGraphic" in2="BackgroundImageFix" result="shape"/>
<feGaussianBlur stdDeviation="1.46492" result="effect1_foregroundBlur_63_345"/>
</filter>
<filter id="filter7_f_63_345" x="65.6668" y="61.4994" width="8.91095" height="15.241" filterUnits="userSpaceOnUse" color-interpolation-filters="sRGB">
<feFlood flood-opacity="0" result="BackgroundImageFix"/>
<feBlend mode="normal" in="SourceGraphic" in2="BackgroundImageFix" result="shape"/>
<feGaussianBlur stdDeviation="1.46492" result="effect1_foregroundBlur_63_345"/>
</filter>
<filter id="filter8_f_63_345" x="46.2837" y="14.5322" width="47.8214" height="47.8214" filterUnits="userSpaceOnUse" color-interpolation-filters="sRGB">
<feFlood flood-opacity="0" result="BackgroundImageFix"/>
<feBlend mode="normal" in="SourceGraphic" in2="BackgroundImageFix" result="shape"/>
<feGaussianBlur stdDeviation="1.95534" result="effect1_foregroundBlur_63_345"/>
</filter>
<linearGradient id="paint0_linear_63_345" x1="61.2766" y1="20.069" x2="13.5413" y2="79.7895" gradientUnits="userSpaceOnUse">
<stop stop-color="#BDBFC2"/>
<stop offset="1" stop-color="#3A3B3B"/>
</linearGradient>
<linearGradient id="paint1_linear_63_345" x1="49.1943" y1="38.4429" x2="91.1943" y2="38.4429" gradientUnits="userSpaceOnUse">
<stop stop-color="#FFEEAA"/>
<stop offset="1" stop-color="#FFD121"/>
</linearGradient>
<linearGradient id="paint2_linear_63_345" x1="46.7953" y1="38.4429" x2="93.5934" y2="38.4429" gradientUnits="userSpaceOnUse">
<stop stop-color="#D8B127"/>
<stop offset="1" stop-color="#FFE379"/>
</linearGradient>
<linearGradient id="paint3_linear_63_345" x1="47.1992" y1="34.0253" x2="47.2652" y2="77.5124" gradientUnits="userSpaceOnUse">
<stop stop-color="#C9CCCE"/>
<stop offset="1" stop-color="#4C5260"/>
</linearGradient>
<linearGradient id="paint4_linear_63_345" x1="8.86435" y1="86.4603" x2="13.5494" y2="86.4603" gradientUnits="userSpaceOnUse">
<stop stop-color="#4D84CE"/>
<stop offset="1" stop-color="#94B7E9" stop-opacity="0.996"/>
</linearGradient>
<linearGradient id="paint5_linear_63_345" x1="44.4493" y1="86.4603" x2="49.1343" y2="86.4603" gradientUnits="userSpaceOnUse">
<stop stop-color="#4D84CE"/>
<stop offset="1" stop-color="#94B7E9" stop-opacity="0.996"/>
</linearGradient>
<linearGradient id="paint6_linear_63_345" x1="41.1405" y1="102.598" x2="45.8255" y2="102.598" gradientUnits="userSpaceOnUse">
<stop stop-color="#4D84CE"/>
<stop offset="1" stop-color="#94B7E9" stop-opacity="0.996"/>
</linearGradient>
<linearGradient id="paint7_linear_63_345" x1="10.9435" y1="102.598" x2="15.6285" y2="102.598" gradientUnits="userSpaceOnUse">
<stop stop-color="#4D84CE"/>
<stop offset="1" stop-color="#94B7E9" stop-opacity="0.996"/>
</linearGradient>
<linearGradient id="paint8_linear_63_345" x1="75.7852" y1="102.598" x2="80.4703" y2="102.598" gradientUnits="userSpaceOnUse">
<stop stop-color="#4D84CE"/>
<stop offset="1" stop-color="#94B7E9" stop-opacity="0.996"/>
</linearGradient>
<linearGradient id="paint9_linear_63_345" x1="80.0343" y1="86.4603" x2="84.7193" y2="86.4603" gradientUnits="userSpaceOnUse">
<stop stop-color="#4D84CE"/>
<stop offset="1" stop-color="#94B7E9" stop-opacity="0.996"/>
</linearGradient>
<linearGradient id="paint10_linear_63_345" x1="60.0504" y1="95.5663" x2="64.7354" y2="95.5663" gradientUnits="userSpaceOnUse">
<stop stop-color="#4D84CE"/>
<stop offset="1" stop-color="#94B7E9" stop-opacity="0.996"/>
</linearGradient>
<linearGradient id="paint11_linear_63_345" x1="24.7303" y1="95.5663" x2="29.4153" y2="95.5663" gradientUnits="userSpaceOnUse">
<stop stop-color="#4D84CE"/>
<stop offset="1" stop-color="#94B7E9" stop-opacity="0.996"/>
</linearGradient>
</defs>
</svg>
