<svg width="109" height="108" viewBox="0 0 109 108" fill="none" xmlns="http://www.w3.org/2000/svg">
<path d="M6.44315 63.9156H96.1101C96.1101 63.9156 106.316 50.4586 92.4901 37.8926C78.9171 25.5566 64.9311 35.1606 64.9311 35.1606C64.9311 35.1606 56.3221 15.7836 40.0191 20.4396C23.7162 25.0986 22.4091 38.5766 22.4091 38.5766C22.4091 38.5766 5.90115 38.9126 3.18315 49.1996C0.465149 59.4866 6.44315 63.9156 6.44315 63.9156Z" fill="url(#paint0_linear_63_371)"/>
<path d="M70.1943 59.4429C81.7923 59.4429 91.1943 50.0409 91.1943 38.4429C91.1943 26.8449 81.7923 17.4429 70.1943 17.4429C58.5964 17.4429 49.1943 26.8449 49.1943 38.4429C49.1943 50.0409 58.5964 59.4429 70.1943 59.4429Z" fill="url(#paint1_linear_63_371)"/>
<path d="M105.194 38.3547L96.5436 38.3635ZM94.9129 13.5548L88.802 19.6781ZM70.1071 3.28955L70.1159 11.9402ZM45.3073 13.5702L51.4306 19.6811ZM35.0413 38.3767L43.6926 38.3679ZM45.3226 63.1758L51.4335 57.0525ZM70.1284 73.4418L70.1196 64.7912ZM94.9283 63.1604L88.805 57.0496Z" fill="#FFDB4A"/>
<path d="M105.194 38.3547L96.5436 38.3635M94.9129 13.5548L88.802 19.6781M70.1071 3.28955L70.1159 11.9402M45.3073 13.5702L51.4306 19.6811M35.0413 38.3767L43.6926 38.3679M45.3226 63.1758L51.4335 57.0525M70.1284 73.4418L70.1196 64.7912M94.9283 63.1604L88.805 57.0496" stroke="#FFEEAA" stroke-width="4.157" stroke-linecap="round"/>
<g opacity="0.723473" filter="url(#filter0_f_63_371)">
<path d="M46.1401 62.3571L50.6161 57.8721Z" fill="#61552C"/>
<path d="M46.1401 62.3571L50.6161 57.8721" stroke="#FFA604" stroke-width="3.04484" stroke-linecap="round"/>
</g>
<g opacity="0.723473" filter="url(#filter1_f_63_371)">
<path d="M36.2026 38.3746L42.539 38.3681Z" fill="#61552C"/>
<path d="M36.2026 38.3746L42.539 38.3681" stroke="#FFA604" stroke-width="3.04484" stroke-linecap="round"/>
</g>
<g opacity="0.723473" filter="url(#filter2_f_63_371)">
<path d="M46.1333 14.3892L50.6184 18.8651Z" fill="#61552C"/>
<path d="M46.1333 14.3892L50.6184 18.8651" stroke="#FFA604" stroke-width="3.04484" stroke-linecap="round"/>
</g>
<g opacity="0.723473" filter="url(#filter3_f_63_371)">
<path d="M70.1157 4.45211L70.1221 10.7885Z" fill="#61552C"/>
<path d="M70.1157 4.45211L70.1221 10.7885" stroke="#FFA604" stroke-width="3.04484" stroke-linecap="round"/>
</g>
<g opacity="0.723473" filter="url(#filter4_f_63_371)">
<path d="M94.1023 14.3826L89.6263 18.8677Z" fill="#61552C"/>
<path d="M94.1023 14.3826L89.6263 18.8677" stroke="#FFA604" stroke-width="3.04484" stroke-linecap="round"/>
</g>
<g opacity="0.723473" filter="url(#filter5_f_63_371)">
<path d="M104.04 38.3652L97.7039 38.3716Z" fill="#61552C"/>
<path d="M104.04 38.3652L97.7039 38.3716" stroke="#FFA604" stroke-width="3.04484" stroke-linecap="round"/>
</g>
<g opacity="0.723473" filter="url(#filter6_f_63_371)">
<path d="M94.1081 62.3491L89.623 57.8732Z" fill="#61552C"/>
<path d="M94.1081 62.3491L89.623 57.8732" stroke="#FFA604" stroke-width="3.04484" stroke-linecap="round"/>
</g>
<g opacity="0.723473" filter="url(#filter7_f_63_371)">
<path d="M70.1255 72.2881L70.1191 65.9517Z" fill="#61552C"/>
<path d="M70.1255 72.2881L70.1191 65.9517" stroke="#FFA604" stroke-width="3.04484" stroke-linecap="round"/>
</g>
<g filter="url(#filter8_f_63_371)">
<path d="M70.1943 58.4429C81.24 58.4429 90.1943 49.4886 90.1943 38.4429C90.1943 27.3972 81.24 18.4429 70.1943 18.4429C59.1486 18.4429 50.1943 27.3972 50.1943 38.4429C50.1943 49.4886 59.1486 58.4429 70.1943 58.4429Z" fill="url(#paint2_linear_63_371)"/>
</g>
<path d="M3.96817 78.0854H93.6352C93.6352 78.0854 104.867 64.8933 93.9052 49.7643C82.2752 33.7153 63.1632 47.0323 63.1632 47.0323C63.1632 47.0323 53.8472 29.9523 37.5442 34.6113C21.2412 39.2703 20.4652 53.6313 20.4652 53.6313C20.4652 53.6313 3.42517 53.0823 0.70817 63.3693C-2.00883 73.6563 3.96817 78.0854 3.96817 78.0854Z" fill="url(#paint3_linear_63_371)"/>
<path d="M18.2633 86.8347L17.6763 86.4717C17.7824 86.3545 17.904 86.2548 18.0373 86.1757C18.1189 86.12 18.1775 86.0332 18.2014 85.9328C18.2252 85.8324 18.2125 85.7261 18.1657 85.6355C18.1189 85.5449 18.0416 85.4767 17.9496 85.445C17.8575 85.4133 17.7577 85.4203 17.6703 85.4647C17.4153 85.6156 17.1893 85.8168 17.0043 86.0577L15.4823 85.1157L17.0043 84.1757C17.1889 84.4169 17.4145 84.6184 17.6693 84.7697C17.713 84.7969 17.7614 84.8145 17.8116 84.8215C17.8617 84.8284 17.9127 84.8246 17.9614 84.8102C18.0102 84.7958 18.0558 84.7711 18.0955 84.7376C18.1353 84.7041 18.1683 84.6624 18.1928 84.615C18.2173 84.5676 18.2328 84.5154 18.2382 84.4616C18.2436 84.4077 18.2389 84.3532 18.2245 84.3013C18.21 84.2494 18.186 84.2011 18.1538 84.1593C18.1217 84.1174 18.0821 84.0829 18.0373 84.0577C17.9037 83.9786 17.7817 83.8789 17.6753 83.7617L18.2633 83.3987C18.3089 83.3733 18.3491 83.3383 18.3817 83.2958C18.4143 83.2533 18.4385 83.2042 18.4529 83.1514C18.4672 83.0986 18.4715 83.0433 18.4653 82.9887C18.4591 82.9341 18.4427 82.8814 18.417 82.8338C18.3913 82.7862 18.3569 82.7447 18.3158 82.7117C18.2747 82.6788 18.2278 82.6551 18.1779 82.6421C18.1281 82.6291 18.0762 82.627 18.0256 82.6361C17.975 82.6451 17.9266 82.665 17.8833 82.6947L17.2963 83.0577C17.2542 82.9007 17.234 82.738 17.2363 82.5747C17.2383 82.4668 17.2003 82.3625 17.1305 82.2847C17.0607 82.2069 16.965 82.1619 16.8643 82.1597H16.8573C16.7578 82.1596 16.6623 82.2014 16.5912 82.276C16.5202 82.3506 16.4793 82.4521 16.4773 82.5587C16.4721 82.8702 16.5219 83.18 16.6243 83.4717L15.1023 84.4117V82.5317C15.3898 82.4809 15.6656 82.3723 15.9153 82.2117C15.9958 82.1532 16.0522 82.0638 16.0731 81.9621C16.0939 81.8603 16.0775 81.7539 16.0272 81.6647C15.977 81.5755 15.8968 81.5103 15.803 81.4826C15.7093 81.4549 15.6092 81.4667 15.5233 81.5157C15.3924 81.5999 15.2505 81.6629 15.1023 81.7027V81.0877C15.1023 80.9797 15.0623 80.8762 14.991 80.7999C14.9197 80.7235 14.8231 80.6807 14.7223 80.6807C14.6215 80.6807 14.5249 80.7235 14.4536 80.7999C14.3823 80.8762 14.3423 80.9797 14.3423 81.0877V81.7027C14.1941 81.6629 14.0522 81.5999 13.9213 81.5157C13.8786 81.4846 13.8304 81.4632 13.7798 81.4527C13.7291 81.4423 13.6769 81.443 13.6265 81.4548C13.5761 81.4667 13.5284 81.4894 13.4865 81.5216C13.4445 81.5538 13.4091 81.5948 13.3825 81.6422C13.3558 81.6895 13.3384 81.7422 13.3314 81.7969C13.3244 81.8517 13.3278 81.9074 13.3416 81.9607C13.3553 82.014 13.379 82.0638 13.4113 82.1069C13.4436 82.15 13.4837 82.1857 13.5293 82.2117C13.779 82.3723 14.0548 82.4809 14.3423 82.5317V84.4117L12.8203 83.4717C12.9228 83.1797 12.9727 82.8695 12.9673 82.5577C12.9654 82.4511 12.9245 82.3496 12.8534 82.275C12.7823 82.2004 12.6868 82.1586 12.5873 82.1587H12.5803C12.4796 82.1606 12.3837 82.2054 12.3138 82.283C12.2439 82.3606 12.2056 82.4648 12.2073 82.5727C12.2097 82.7363 12.1895 82.8994 12.1473 83.0567L11.5613 82.6947C11.474 82.6407 11.3703 82.6261 11.2729 82.654C11.1756 82.682 11.0926 82.7502 11.0422 82.8437C10.9918 82.9372 10.9781 83.0483 11.0042 83.1525C11.0303 83.2568 11.094 83.3457 11.1813 83.3997L11.7683 83.7617C11.6619 83.8789 11.5399 83.9786 11.4063 84.0577C11.3615 84.0829 11.3219 84.1174 11.2898 84.1593C11.2577 84.2011 11.2336 84.2494 11.2192 84.3013C11.2047 84.3532 11.2 84.4077 11.2054 84.4616C11.2109 84.5154 11.2263 84.5676 11.2508 84.615C11.2753 84.6624 11.3084 84.7041 11.3481 84.7376C11.3878 84.7711 11.4334 84.7958 11.4822 84.8102C11.5309 84.8246 11.5819 84.8284 11.6321 84.8215C11.6822 84.8145 11.7306 84.7969 11.7743 84.7697C12.0293 84.6188 12.2553 84.4176 12.4403 84.1767L13.9623 85.1167L12.4403 86.0567C12.2554 85.8154 12.0294 85.6139 11.7743 85.4627C11.7306 85.4354 11.6822 85.4178 11.6321 85.4108C11.5819 85.4039 11.5309 85.4077 11.4822 85.4221C11.4334 85.4365 11.3878 85.4612 11.3481 85.4948C11.3084 85.5283 11.2753 85.57 11.2508 85.6174C11.2263 85.6648 11.2109 85.7169 11.2054 85.7708C11.2 85.8246 11.2047 85.8791 11.2192 85.931C11.2336 85.9829 11.2577 86.0312 11.2898 86.0731C11.3219 86.1149 11.3615 86.1494 11.4063 86.1747C11.5399 86.2534 11.6619 86.3528 11.7683 86.4697L11.1813 86.8347C11.1358 86.86 11.0955 86.895 11.0629 86.9375C11.0303 86.98 11.0061 87.0291 10.9917 87.0819C10.9774 87.1347 10.9731 87.19 10.9793 87.2446C10.9855 87.2992 11.0019 87.3519 11.0276 87.3995C11.0533 87.4471 11.0877 87.4886 11.1288 87.5216C11.1699 87.5545 11.2168 87.5782 11.2667 87.5912C11.3166 87.6043 11.3684 87.6063 11.419 87.5973C11.4697 87.5882 11.5181 87.5683 11.5613 87.5387L12.1483 87.1757C12.1902 87.333 12.2101 87.4961 12.2073 87.6597C12.2058 87.7674 12.2442 87.8713 12.3141 87.9487C12.3841 88.0261 12.4798 88.0707 12.5803 88.0727H12.5873C12.6868 88.0727 12.7823 88.0309 12.8534 87.9563C12.9245 87.8817 12.9654 87.7802 12.9673 87.6737C12.9726 87.3621 12.9227 87.0524 12.8203 86.7607L14.3423 85.8207V87.7007C14.0548 87.7514 13.779 87.86 13.5293 88.0207C13.4837 88.0466 13.4436 88.0823 13.4113 88.1254C13.379 88.1686 13.3553 88.2183 13.3416 88.2716C13.3278 88.3249 13.3244 88.3806 13.3314 88.4354C13.3384 88.4902 13.3558 88.5428 13.3825 88.5902C13.4091 88.6375 13.4445 88.6785 13.4865 88.7107C13.5284 88.7429 13.5761 88.7657 13.6265 88.7775C13.6769 88.7893 13.7291 88.79 13.7798 88.7796C13.8304 88.7691 13.8786 88.7477 13.9213 88.7167C14.0519 88.6325 14.1935 88.5695 14.3413 88.5297V89.1447C14.3413 89.2526 14.3813 89.3561 14.4526 89.4325C14.5239 89.5088 14.6205 89.5517 14.7213 89.5517C14.8221 89.5517 14.9187 89.5088 14.99 89.4325C15.0613 89.3561 15.1013 89.2526 15.1013 89.1447V88.5297C15.2498 88.5693 15.3921 88.6323 15.5233 88.7167C15.6095 88.7688 15.7112 88.7829 15.8069 88.756C15.9026 88.729 15.9847 88.6631 16.0358 88.5723C16.0868 88.4816 16.1028 88.373 16.0803 88.2698C16.0578 88.1666 15.9986 88.0769 15.9153 88.0197C15.6656 87.859 15.3898 87.7504 15.1023 87.6997V85.8197L16.6243 86.7607C16.5215 87.0526 16.4713 87.3627 16.4763 87.6747C16.4783 87.7812 16.5192 87.8827 16.5902 87.9573C16.6613 88.0319 16.7568 88.0737 16.8563 88.0737H16.8643C16.9143 88.0727 16.9635 88.0612 17.0093 88.0398C17.0551 88.0184 17.0965 87.9875 17.1311 87.949C17.1658 87.9105 17.193 87.865 17.2112 87.8152C17.2294 87.7653 17.2383 87.7122 17.2373 87.6587C17.2345 87.4951 17.2544 87.332 17.2963 87.1747L17.8833 87.5377C17.9265 87.5686 17.9752 87.5897 18.0263 87.5997C18.0774 87.6097 18.1299 87.6083 18.1805 87.5957C18.2311 87.5831 18.2788 87.5595 18.3205 87.5264C18.3623 87.4933 18.3973 87.4514 18.4233 87.4032C18.4493 87.355 18.4659 87.3017 18.4719 87.2464C18.4779 87.1911 18.4733 87.1351 18.4583 87.0818C18.4433 87.0285 18.4182 86.9791 18.3847 86.9366C18.3512 86.8941 18.3099 86.8594 18.2633 86.8347Z" fill="url(#paint4_radial_63_371)" stroke="url(#paint5_radial_63_371)" stroke-width="0.505"/>
<path d="M84.6522 86.8347L84.0652 86.4717C84.1713 86.3545 84.2929 86.2548 84.4262 86.1757C84.5078 86.12 84.5664 86.0332 84.5903 85.9328C84.6141 85.8324 84.6014 85.7261 84.5546 85.6355C84.5078 85.5449 84.4305 85.4767 84.3385 85.445C84.2465 85.4133 84.1466 85.4203 84.0592 85.4647C83.8042 85.6156 83.5783 85.8168 83.3932 86.0577L81.8712 85.1157L83.3932 84.1757C83.5778 84.4169 83.8035 84.6184 84.0582 84.7697C84.1019 84.7969 84.1503 84.8145 84.2005 84.8215C84.2506 84.8284 84.3016 84.8246 84.3503 84.8102C84.3991 84.7958 84.4447 84.7711 84.4844 84.7376C84.5242 84.7041 84.5572 84.6624 84.5817 84.615C84.6062 84.5676 84.6217 84.5154 84.6271 84.4616C84.6325 84.4077 84.6279 84.3532 84.6134 84.3013C84.5989 84.2494 84.5749 84.2011 84.5427 84.1593C84.5106 84.1174 84.471 84.0829 84.4262 84.0577C84.2926 83.9786 84.1706 83.8789 84.0642 83.7617L84.6522 83.3987C84.6978 83.3733 84.738 83.3383 84.7706 83.2958C84.8032 83.2533 84.8274 83.2042 84.8418 83.1514C84.8561 83.0986 84.8604 83.0433 84.8542 82.9887C84.8481 82.9341 84.8316 82.8814 84.8059 82.8338C84.7803 82.7862 84.7458 82.7447 84.7047 82.7117C84.6636 82.6788 84.6167 82.6551 84.5668 82.6421C84.517 82.6291 84.4651 82.627 84.4145 82.6361C84.3639 82.6451 84.3155 82.665 84.2722 82.6947L83.6852 83.0577C83.6431 82.9007 83.6229 82.738 83.6252 82.5747C83.6272 82.4668 83.5892 82.3625 83.5194 82.2847C83.4497 82.2069 83.3539 82.1619 83.2532 82.1597H83.2462C83.1467 82.1596 83.0512 82.2014 82.9801 82.276C82.9091 82.3506 82.8682 82.4521 82.8662 82.5587C82.861 82.8702 82.9109 83.18 83.0132 83.4717L81.4912 84.4117V82.5317C81.7787 82.4809 82.0546 82.3723 82.3042 82.2117C82.3847 82.1532 82.4411 82.0638 82.462 81.9621C82.4828 81.8603 82.4664 81.7539 82.4162 81.6647C82.3659 81.5755 82.2857 81.5103 82.1919 81.4826C82.0982 81.4549 81.9981 81.4667 81.9122 81.5157C81.7813 81.5999 81.6394 81.6629 81.4912 81.7027V81.0877C81.4912 80.9797 81.4512 80.8762 81.3799 80.7999C81.3087 80.7235 81.212 80.6807 81.1112 80.6807C81.0104 80.6807 80.9138 80.7235 80.8425 80.7999C80.7713 80.8762 80.7312 80.9797 80.7312 81.0877V81.7027C80.583 81.6629 80.4411 81.5999 80.3102 81.5157C80.2675 81.4846 80.2193 81.4632 80.1687 81.4527C80.118 81.4423 80.0658 81.443 80.0154 81.4548C79.965 81.4667 79.9174 81.4894 79.8754 81.5216C79.8334 81.5538 79.7981 81.5948 79.7714 81.6422C79.7447 81.6895 79.7274 81.7422 79.7203 81.7969C79.7133 81.8517 79.7168 81.9074 79.7305 81.9607C79.7442 82.014 79.768 82.0638 79.8002 82.1069C79.8325 82.15 79.8727 82.1857 79.9182 82.2117C80.1679 82.3723 80.4438 82.4809 80.7312 82.5317V84.4117L79.2092 83.4717C79.3117 83.1797 79.3616 82.8695 79.3562 82.5577C79.3543 82.4511 79.3134 82.3496 79.2423 82.275C79.1713 82.2004 79.0757 82.1586 78.9762 82.1587H78.9692C78.8685 82.1606 78.7727 82.2054 78.7027 82.283C78.6328 82.3606 78.5945 82.4648 78.5962 82.5727C78.5987 82.7363 78.5784 82.8994 78.5362 83.0567L77.9502 82.6947C77.8629 82.6407 77.7592 82.6261 77.6618 82.654C77.5645 82.682 77.4815 82.7502 77.4311 82.8437C77.3807 82.9372 77.3671 83.0483 77.3931 83.1525C77.4192 83.2568 77.4829 83.3457 77.5702 83.3997L78.1572 83.7617C78.0508 83.8789 77.9289 83.9786 77.7952 84.0577C77.7505 84.0829 77.7108 84.1174 77.6787 84.1593C77.6466 84.2011 77.6225 84.2494 77.6081 84.3013C77.5936 84.3532 77.5889 84.4077 77.5943 84.4616C77.5998 84.5154 77.6152 84.5676 77.6397 84.615C77.6642 84.6624 77.6973 84.7041 77.737 84.7376C77.7767 84.7711 77.8223 84.7958 77.8711 84.8102C77.9199 84.8246 77.9708 84.8284 78.021 84.8215C78.0711 84.8145 78.1195 84.7969 78.1632 84.7697C78.4182 84.6188 78.6442 84.4176 78.8292 84.1767L80.3512 85.1167L78.8292 86.0567C78.6443 85.8154 78.4183 85.6139 78.1632 85.4627C78.1195 85.4354 78.0711 85.4178 78.021 85.4108C77.9708 85.4039 77.9199 85.4077 77.8711 85.4221C77.8223 85.4365 77.7767 85.4612 77.737 85.4948C77.6973 85.5283 77.6642 85.57 77.6397 85.6174C77.6152 85.6648 77.5998 85.7169 77.5943 85.7708C77.5889 85.8246 77.5936 85.8791 77.6081 85.931C77.6225 85.9829 77.6466 86.0312 77.6787 86.0731C77.7108 86.1149 77.7505 86.1494 77.7952 86.1747C77.9288 86.2534 78.0508 86.3528 78.1572 86.4697L77.5702 86.8347C77.5247 86.86 77.4844 86.895 77.4518 86.9375C77.4192 86.98 77.395 87.0291 77.3807 87.0819C77.3663 87.1347 77.3621 87.19 77.3682 87.2446C77.3744 87.2992 77.3908 87.3519 77.4165 87.3995C77.4422 87.4471 77.4766 87.4886 77.5177 87.5216C77.5588 87.5545 77.6057 87.5782 77.6556 87.5912C77.7055 87.6043 77.7573 87.6063 77.8079 87.5973C77.8586 87.5882 77.907 87.5683 77.9502 87.5387L78.5372 87.1757C78.5791 87.333 78.599 87.4961 78.5962 87.6597C78.5947 87.7674 78.6331 87.8713 78.7031 87.9487C78.773 88.0261 78.8687 88.0707 78.9692 88.0727H78.9762C79.0757 88.0727 79.1713 88.0309 79.2423 87.9563C79.3134 87.8817 79.3543 87.7802 79.3562 87.6737C79.3615 87.3621 79.3116 87.0524 79.2092 86.7607L80.7312 85.8207V87.7007C80.4438 87.7514 80.1679 87.86 79.9182 88.0207C79.8727 88.0466 79.8325 88.0823 79.8002 88.1254C79.768 88.1686 79.7442 88.2183 79.7305 88.2716C79.7168 88.3249 79.7133 88.3806 79.7203 88.4354C79.7274 88.4902 79.7447 88.5428 79.7714 88.5902C79.7981 88.6375 79.8334 88.6785 79.8754 88.7107C79.9174 88.7429 79.965 88.7657 80.0154 88.7775C80.0658 88.7893 80.118 88.79 80.1687 88.7796C80.2193 88.7691 80.2675 88.7477 80.3102 88.7167C80.4408 88.6325 80.5824 88.5695 80.7302 88.5297V89.1447C80.7302 89.2526 80.7703 89.3561 80.8415 89.4325C80.9128 89.5088 81.0094 89.5517 81.1102 89.5517C81.211 89.5517 81.3077 89.5088 81.3789 89.4325C81.4502 89.3561 81.4902 89.2526 81.4902 89.1447V88.5297C81.6388 88.5693 81.781 88.6323 81.9122 88.7167C81.9984 88.7688 82.1001 88.7829 82.1958 88.756C82.2915 88.729 82.3736 88.6631 82.4247 88.5723C82.4757 88.4816 82.4917 88.373 82.4692 88.2698C82.4467 88.1666 82.3875 88.0769 82.3042 88.0197C82.0546 87.859 81.7787 87.7504 81.4912 87.6997V85.8197L83.0132 86.7607C82.9104 87.0526 82.8602 87.3627 82.8652 87.6747C82.8672 87.7812 82.9081 87.8827 82.9791 87.9573C83.0502 88.0319 83.1457 88.0737 83.2452 88.0737H83.2532C83.3032 88.0727 83.3524 88.0612 83.3982 88.0398C83.444 88.0184 83.4854 87.9875 83.5201 87.949C83.5547 87.9105 83.5819 87.865 83.6001 87.8152C83.6183 87.7653 83.6272 87.7122 83.6262 87.6587C83.6235 87.4951 83.6433 87.332 83.6852 87.1747L84.2722 87.5377C84.3154 87.5686 84.3641 87.5897 84.4152 87.5997C84.4663 87.6097 84.5188 87.6083 84.5694 87.5957C84.62 87.5831 84.6677 87.5595 84.7094 87.5264C84.7512 87.4933 84.7862 87.4514 84.8122 87.4032C84.8383 87.355 84.8548 87.3017 84.8608 87.2464C84.8668 87.1911 84.8622 87.1351 84.8472 87.0818C84.8322 87.0285 84.8072 86.9791 84.7736 86.9366C84.7401 86.8941 84.6988 86.8594 84.6522 86.8347Z" fill="url(#paint6_radial_63_371)" stroke="url(#paint7_radial_63_371)" stroke-width="0.505"/>
<path d="M51.4584 86.8347L50.8714 86.4717C50.9774 86.3545 51.0991 86.2548 51.2324 86.1757C51.3139 86.12 51.3726 86.0332 51.3964 85.9328C51.4203 85.8324 51.4075 85.7261 51.3607 85.6355C51.314 85.5449 51.2367 85.4767 51.1446 85.445C51.0526 85.4133 50.9527 85.4203 50.8654 85.4647C50.6104 85.6156 50.3844 85.8168 50.1994 86.0577L48.6774 85.1157L50.1994 84.1757C50.384 84.4169 50.6096 84.6184 50.8644 84.7697C50.9081 84.7969 50.9565 84.8145 51.0066 84.8215C51.0568 84.8284 51.1077 84.8246 51.1565 84.8102C51.2053 84.7958 51.2509 84.7711 51.2906 84.7376C51.3303 84.7041 51.3634 84.6624 51.3879 84.615C51.4124 84.5676 51.4278 84.5154 51.4333 84.4616C51.4387 84.4077 51.434 84.3532 51.4195 84.3013C51.405 84.2494 51.381 84.2011 51.3489 84.1593C51.3168 84.1174 51.2771 84.0829 51.2324 84.0577C51.0987 83.9786 50.9768 83.8789 50.8704 83.7617L51.4584 83.3987C51.5039 83.3733 51.5442 83.3383 51.5768 83.2958C51.6094 83.2533 51.6336 83.2042 51.6479 83.1514C51.6623 83.0986 51.6665 83.0433 51.6604 82.9887C51.6542 82.9341 51.6378 82.8814 51.6121 82.8338C51.5864 82.7862 51.552 82.7447 51.5109 82.7117C51.4698 82.6788 51.4229 82.6551 51.373 82.6421C51.3231 82.6291 51.2713 82.627 51.2207 82.6361C51.17 82.6451 51.1216 82.665 51.0784 82.6947L50.4914 83.0577C50.4492 82.9007 50.429 82.738 50.4314 82.5747C50.4334 82.4668 50.3953 82.3625 50.3256 82.2847C50.2558 82.2069 50.1601 82.1619 50.0594 82.1597H50.0524C49.9529 82.1596 49.8573 82.2014 49.7863 82.276C49.7152 82.3506 49.6743 82.4521 49.6724 82.5587C49.6671 82.8702 49.717 83.18 49.8194 83.4717L48.2974 84.4117V82.5317C48.5848 82.4809 48.8607 82.3723 49.1104 82.2117C49.1908 82.1532 49.2473 82.0638 49.2681 81.9621C49.2889 81.8603 49.2726 81.7539 49.2223 81.6647C49.1721 81.5755 49.0918 81.5103 48.9981 81.4826C48.9043 81.4549 48.8042 81.4667 48.7184 81.5157C48.5874 81.5999 48.4456 81.6629 48.2974 81.7027V81.0877C48.2974 80.9797 48.2573 80.8762 48.1861 80.7999C48.1148 80.7235 48.0182 80.6807 47.9174 80.6807C47.8166 80.6807 47.7199 80.7235 47.6487 80.7999C47.5774 80.8762 47.5374 80.9797 47.5374 81.0877V81.7027C47.3892 81.6629 47.2473 81.5999 47.1164 81.5157C47.0737 81.4846 47.0255 81.4632 46.9748 81.4527C46.9241 81.4423 46.872 81.443 46.8216 81.4548C46.7711 81.4667 46.7235 81.4894 46.6816 81.5216C46.6396 81.5538 46.6042 81.5948 46.5776 81.6422C46.5509 81.6895 46.5335 81.7422 46.5265 81.7969C46.5194 81.8517 46.5229 81.9074 46.5366 81.9607C46.5504 82.014 46.5741 82.0638 46.6064 82.1069C46.6387 82.15 46.6788 82.1857 46.7244 82.2117C46.974 82.3723 47.2499 82.4809 47.5374 82.5317V84.4117L46.0154 83.4717C46.1179 83.1797 46.1677 82.8695 46.1624 82.5577C46.1604 82.4511 46.1195 82.3496 46.0485 82.275C45.9774 82.2004 45.8819 82.1586 45.7824 82.1587H45.7754C45.6747 82.1606 45.5788 82.2054 45.5089 82.283C45.4389 82.3606 45.4006 82.4648 45.4024 82.5727C45.4048 82.7363 45.3846 82.8994 45.3424 83.0567L44.7564 82.6947C44.7132 82.6679 44.6654 82.6506 44.616 82.6436C44.5665 82.6366 44.5162 82.6402 44.468 82.654C44.4198 82.6679 44.3746 82.6917 44.335 82.7243C44.2954 82.7568 44.2622 82.7974 44.2373 82.8437C44.2123 82.89 44.1961 82.9411 44.1896 82.994C44.1831 83.047 44.1864 83.1009 44.1993 83.1525C44.2122 83.2042 44.2345 83.2526 44.2649 83.295C44.2953 83.3374 44.3332 83.3729 44.3764 83.3997L44.9634 83.7617C44.857 83.8789 44.735 83.9786 44.6014 84.0577C44.5566 84.0829 44.517 84.1174 44.4849 84.1593C44.4527 84.2011 44.4287 84.2494 44.4142 84.3013C44.3997 84.3532 44.3951 84.4077 44.4005 84.4616C44.4059 84.5154 44.4213 84.5676 44.4458 84.615C44.4703 84.6624 44.5034 84.7041 44.5432 84.7376C44.5829 84.7711 44.6285 84.7958 44.6772 84.8102C44.726 84.8246 44.777 84.8284 44.8271 84.8215C44.8773 84.8145 44.9257 84.7969 44.9694 84.7697C45.2244 84.6188 45.4503 84.4176 45.6354 84.1767L47.1574 85.1167L45.6354 86.0567C45.4504 85.8154 45.2244 85.6139 44.9694 85.4627C44.9257 85.4354 44.8773 85.4178 44.8271 85.4108C44.777 85.4039 44.726 85.4077 44.6772 85.4221C44.6285 85.4365 44.5829 85.4612 44.5432 85.4948C44.5034 85.5283 44.4703 85.57 44.4458 85.6174C44.4213 85.6648 44.4059 85.7169 44.4005 85.7708C44.3951 85.8246 44.3997 85.8791 44.4142 85.931C44.4287 85.9829 44.4527 86.0312 44.4849 86.0731C44.517 86.1149 44.5566 86.1494 44.6014 86.1747C44.735 86.2534 44.8569 86.3528 44.9634 86.4697L44.3764 86.8347C44.3308 86.86 44.2905 86.895 44.258 86.9375C44.2254 86.98 44.2012 87.0291 44.1868 87.0819C44.1724 87.1347 44.1682 87.19 44.1744 87.2446C44.1805 87.2992 44.197 87.3519 44.2227 87.3995C44.2483 87.4471 44.2828 87.4886 44.3239 87.5216C44.365 87.5545 44.4119 87.5782 44.4617 87.5912C44.5116 87.6043 44.5635 87.6063 44.6141 87.5973C44.6647 87.5882 44.7131 87.5683 44.7564 87.5387L45.3434 87.1757C45.3853 87.333 45.4051 87.4961 45.4024 87.6597C45.4009 87.7674 45.4393 87.8713 45.5092 87.9487C45.5791 88.0261 45.6748 88.0707 45.7754 88.0727H45.7824C45.8819 88.0727 45.9774 88.0309 46.0485 87.9563C46.1195 87.8817 46.1604 87.7802 46.1624 87.6737C46.1676 87.3621 46.1177 87.0524 46.0154 86.7607L47.5374 85.8207V87.7007C47.2499 87.7514 46.974 87.86 46.7244 88.0207C46.6788 88.0466 46.6387 88.0823 46.6064 88.1254C46.5741 88.1686 46.5504 88.2183 46.5366 88.2716C46.5229 88.3249 46.5194 88.3806 46.5265 88.4354C46.5335 88.4902 46.5509 88.5428 46.5776 88.5902C46.6042 88.6375 46.6396 88.6785 46.6816 88.7107C46.7235 88.7429 46.7711 88.7657 46.8216 88.7775C46.872 88.7893 46.9241 88.79 46.9748 88.7796C47.0255 88.7691 47.0737 88.7477 47.1164 88.7167C47.247 88.6325 47.3885 88.5695 47.5364 88.5297V89.1447C47.5364 89.2526 47.5764 89.3561 47.6477 89.4325C47.7189 89.5088 47.8156 89.5517 47.9164 89.5517C48.0172 89.5517 48.1138 89.5088 48.1851 89.4325C48.2563 89.3561 48.2964 89.2526 48.2964 89.1447V88.5297C48.4449 88.5693 48.5871 88.6323 48.7184 88.7167C48.8045 88.7688 48.9063 88.7829 49.002 88.756C49.0977 88.729 49.1798 88.6631 49.2308 88.5723C49.2819 88.4816 49.2979 88.373 49.2754 88.2698C49.2529 88.1666 49.1937 88.0769 49.1104 88.0197C48.8607 87.859 48.5848 87.7504 48.2974 87.6997V85.8197L49.8194 86.7607C49.7165 87.0526 49.6663 87.3627 49.6714 87.6747C49.6733 87.7812 49.7142 87.8827 49.7853 87.9573C49.8563 88.0319 49.9519 88.0737 50.0514 88.0737H50.0594C50.1093 88.0727 50.1586 88.0612 50.2044 88.0398C50.2502 88.0184 50.2916 87.9875 50.3262 87.949C50.3609 87.9105 50.3881 87.865 50.4063 87.8152C50.4245 87.7653 50.4334 87.7122 50.4324 87.6587C50.4296 87.4951 50.4495 87.332 50.4914 87.1747L51.0784 87.5377C51.1216 87.5686 51.1702 87.5897 51.2214 87.5997C51.2725 87.6097 51.325 87.6083 51.3756 87.5957C51.4262 87.5831 51.4738 87.5595 51.5156 87.5264C51.5574 87.4933 51.5923 87.4514 51.6184 87.4032C51.6444 87.355 51.6609 87.3017 51.667 87.2464C51.673 87.1911 51.6683 87.1351 51.6533 87.0818C51.6383 87.0285 51.6133 86.9791 51.5798 86.9366C51.5462 86.8941 51.5049 86.8594 51.4584 86.8347Z" fill="url(#paint8_radial_63_371)" stroke="url(#paint9_radial_63_371)" stroke-width="0.505"/>
<path d="M34.6012 101.215L34.0142 100.852C34.1202 100.734 34.2419 100.635 34.3752 100.556C34.4567 100.5 34.5154 100.413 34.5393 100.313C34.5631 100.212 34.5503 100.106 34.5036 100.015C34.4568 99.9248 34.3795 99.8566 34.2875 99.8249C34.1954 99.7931 34.0956 99.8002 34.0082 99.8445C33.7532 99.9954 33.5272 100.197 33.3422 100.438L31.8202 99.4955L33.3422 98.5555C33.5268 98.7967 33.7524 98.9983 34.0072 99.1495C34.0509 99.1768 34.0993 99.1944 34.1494 99.2014C34.1996 99.2083 34.2506 99.2045 34.2993 99.1901C34.3481 99.1757 34.3937 99.151 34.4334 99.1175C34.4731 99.0839 34.5062 99.0423 34.5307 98.9949C34.5552 98.9475 34.5706 98.8953 34.5761 98.8414C34.5815 98.7876 34.5768 98.7331 34.5624 98.6812C34.5479 98.6293 34.5239 98.581 34.4917 98.5391C34.4596 98.4973 34.42 98.4628 34.3752 98.4375C34.2416 98.3585 34.1196 98.2587 34.0132 98.1415L34.6012 97.7785C34.6467 97.7532 34.687 97.7182 34.7196 97.6757C34.7522 97.6332 34.7764 97.5841 34.7908 97.5313C34.8051 97.4785 34.8094 97.4232 34.8032 97.3686C34.797 97.314 34.7806 97.2613 34.7549 97.2137C34.7292 97.1661 34.6948 97.1246 34.6537 97.0916C34.6126 97.0587 34.5657 97.035 34.5158 97.022C34.4659 97.009 34.4141 97.0069 34.3635 97.0159C34.3128 97.025 34.2644 97.0449 34.2212 97.0745L33.6342 97.4375C33.5921 97.2806 33.5719 97.1178 33.5742 96.9545C33.5762 96.8467 33.5381 96.7424 33.4684 96.6646C33.3986 96.5868 33.3029 96.5418 33.2022 96.5395H33.1952C33.0957 96.5395 33.0002 96.5813 32.9291 96.6559C32.858 96.7305 32.8172 96.832 32.8152 96.9385C32.8099 97.2501 32.8598 97.5599 32.9622 97.8515L31.4402 98.7915V96.9115C31.7277 96.8608 32.0035 96.7522 32.2532 96.5915C32.3337 96.533 32.3901 96.4437 32.4109 96.342C32.4318 96.2402 32.4154 96.1338 32.3651 96.0446C32.3149 95.9554 32.2346 95.8902 32.1409 95.8625C32.0472 95.8348 31.947 95.8466 31.8612 95.8955C31.7303 95.9798 31.5884 96.0428 31.4402 96.0825V95.4675C31.4402 95.3596 31.4002 95.2561 31.3289 95.1797C31.2576 95.1034 31.161 95.0605 31.0602 95.0605C30.9594 95.0605 30.8628 95.1034 30.7915 95.1797C30.7202 95.2561 30.6802 95.3596 30.6802 95.4675V96.0825C30.532 96.0428 30.3901 95.9798 30.2592 95.8955C30.2165 95.8645 30.1683 95.8431 30.1176 95.8326C30.067 95.8222 30.0148 95.8229 29.9644 95.8347C29.914 95.8466 29.8663 95.8693 29.8244 95.9015C29.7824 95.9337 29.747 95.9747 29.7204 96.022C29.6937 96.0694 29.6763 96.122 29.6693 96.1768C29.6623 96.2316 29.6657 96.2873 29.6795 96.3406C29.6932 96.3939 29.7169 96.4436 29.7492 96.4868C29.7815 96.5299 29.8216 96.5656 29.8672 96.5915C30.1169 96.7522 30.3927 96.8608 30.6802 96.9115V98.7915L29.1582 97.8515C29.2607 97.5595 29.3106 97.2494 29.3052 96.9375C29.3032 96.831 29.2623 96.7295 29.1913 96.6549C29.1202 96.5803 29.0247 96.5385 28.9252 96.5385H28.9182C28.8175 96.5405 28.7216 96.5852 28.6517 96.6629C28.5818 96.7405 28.5434 96.8447 28.5452 96.9525C28.5476 97.1162 28.5274 97.2793 28.4852 97.4365L27.8992 97.0745C27.8119 97.0206 27.7082 97.0059 27.6108 97.0339C27.5135 97.0618 27.4305 97.1301 27.3801 97.2235C27.3297 97.317 27.316 97.4281 27.3421 97.5324C27.3682 97.6367 27.4319 97.7256 27.5192 97.7795L28.1062 98.1415C27.9998 98.2587 27.8778 98.3585 27.7442 98.4375C27.6994 98.4628 27.6598 98.4973 27.6277 98.5391C27.5955 98.581 27.5715 98.6293 27.557 98.6812C27.5426 98.7331 27.5379 98.7876 27.5433 98.8414C27.5488 98.8953 27.5642 98.9475 27.5887 98.9949C27.6132 99.0423 27.6463 99.0839 27.686 99.1175C27.7257 99.151 27.7713 99.1757 27.8201 99.1901C27.8688 99.2045 27.9198 99.2083 27.97 99.2014C28.0201 99.1944 28.0685 99.1768 28.1122 99.1495C28.3672 98.9986 28.5932 98.7974 28.7782 98.5565L30.3002 99.4965L28.7782 100.437C28.5933 100.195 28.3673 99.9937 28.1122 99.8425C28.0685 99.8153 28.0201 99.7977 27.97 99.7907C27.9198 99.7838 27.8688 99.7876 27.8201 99.802C27.7713 99.8164 27.7257 99.8411 27.686 99.8746C27.6463 99.9081 27.6132 99.9498 27.5887 99.9972C27.5642 100.045 27.5488 100.097 27.5433 100.151C27.5379 100.205 27.5426 100.259 27.557 100.311C27.5715 100.363 27.5955 100.411 27.6277 100.453C27.6598 100.495 27.6994 100.529 27.7442 100.555C27.8778 100.633 27.9998 100.733 28.1062 100.85L27.5192 101.215C27.4736 101.24 27.4334 101.275 27.4008 101.317C27.3682 101.36 27.344 101.409 27.3296 101.462C27.3153 101.515 27.311 101.57 27.3172 101.625C27.3234 101.679 27.3398 101.732 27.3655 101.779C27.3912 101.827 27.4256 101.869 27.4667 101.901C27.5078 101.934 27.5547 101.958 27.6046 101.971C27.6544 101.984 27.7063 101.986 27.7569 101.977C27.8075 101.968 27.8559 101.948 27.8992 101.919L28.4862 101.556C28.5281 101.713 28.548 101.876 28.5452 102.04C28.5437 102.147 28.5821 102.251 28.652 102.329C28.7219 102.406 28.8177 102.451 28.9182 102.453H28.9252C29.0247 102.453 29.1202 102.411 29.1913 102.336C29.2623 102.262 29.3032 102.16 29.3052 102.054C29.3104 101.742 29.2606 101.432 29.1582 101.141L30.6802 100.201V102.081C30.3927 102.131 30.1169 102.24 29.8672 102.401C29.8216 102.427 29.7815 102.462 29.7492 102.505C29.7169 102.548 29.6932 102.598 29.6795 102.651C29.6657 102.705 29.6623 102.761 29.6693 102.815C29.6763 102.87 29.6937 102.923 29.7204 102.97C29.747 103.017 29.7824 103.058 29.8244 103.091C29.8663 103.123 29.914 103.146 29.9644 103.157C30.0148 103.169 30.067 103.17 30.1176 103.159C30.1683 103.149 30.2165 103.128 30.2592 103.097C30.3898 103.012 30.5313 102.949 30.6792 102.91V103.525C30.6792 103.632 30.7192 103.736 30.7905 103.812C30.8618 103.889 30.9584 103.932 31.0592 103.932C31.16 103.932 31.2566 103.889 31.3279 103.812C31.3992 103.736 31.4392 103.632 31.4392 103.525V102.91C31.5877 102.949 31.73 103.012 31.8612 103.097C31.9473 103.149 32.0491 103.163 32.1448 103.136C32.2405 103.109 32.3226 103.043 32.3737 102.952C32.4247 102.861 32.4407 102.753 32.4182 102.65C32.3957 102.546 32.3365 102.457 32.2532 102.4C32.0035 102.239 31.7277 102.13 31.4402 102.08V100.2L32.9622 101.141C32.8594 101.432 32.8091 101.743 32.8142 102.055C32.8162 102.161 32.8571 102.263 32.9281 102.337C32.9992 102.412 33.0947 102.454 33.1942 102.454H33.2022C33.2521 102.453 33.3014 102.441 33.3472 102.42C33.393 102.398 33.4344 102.367 33.469 102.329C33.5037 102.29 33.5309 102.245 33.5491 102.195C33.5673 102.145 33.5762 102.092 33.5752 102.039C33.5724 101.875 33.5923 101.712 33.6342 101.555L34.2212 101.918C34.2644 101.948 34.3131 101.97 34.3642 101.98C34.4153 101.99 34.4678 101.988 34.5184 101.976C34.569 101.963 34.6167 101.939 34.6584 101.906C34.7002 101.873 34.7352 101.831 34.7612 101.783C34.7872 101.735 34.8038 101.682 34.8098 101.626C34.8158 101.571 34.8112 101.515 34.7962 101.462C34.7812 101.408 34.7561 101.359 34.7226 101.316C34.6891 101.274 34.6477 101.239 34.6012 101.215Z" fill="url(#paint10_radial_63_371)" stroke="url(#paint11_radial_63_371)" stroke-width="0.505"/>
<path d="M66.2523 101.215L65.6653 100.852C65.7714 100.734 65.893 100.635 66.0263 100.556C66.1079 100.5 66.1665 100.413 66.1904 100.313C66.2142 100.212 66.2015 100.106 66.1547 100.015C66.1079 99.9248 66.0306 99.8566 65.9386 99.8249C65.8466 99.7931 65.7467 99.8002 65.6593 99.8445C65.4043 99.9954 65.1784 100.197 64.9933 100.438L63.4713 99.4955L64.9933 98.5555C65.1779 98.7967 65.4036 98.9983 65.6583 99.1495C65.702 99.1768 65.7504 99.1944 65.8006 99.2014C65.8507 99.2083 65.9017 99.2045 65.9504 99.1901C65.9992 99.1757 66.0448 99.151 66.0845 99.1175C66.1243 99.0839 66.1574 99.0423 66.1819 98.9949C66.2064 98.9475 66.2218 98.8953 66.2272 98.8414C66.2326 98.7876 66.228 98.7331 66.2135 98.6812C66.199 98.6293 66.175 98.581 66.1428 98.5391C66.1107 98.4973 66.0711 98.4628 66.0263 98.4375C65.8927 98.3585 65.7707 98.2587 65.6643 98.1415L66.2523 97.7785C66.2979 97.7532 66.3382 97.7182 66.3707 97.6757C66.4033 97.6332 66.4275 97.5841 66.4419 97.5313C66.4562 97.4785 66.4605 97.4232 66.4543 97.3686C66.4482 97.314 66.4317 97.2613 66.406 97.2137C66.3803 97.1661 66.3459 97.1246 66.3048 97.0916C66.2637 97.0587 66.2168 97.035 66.1669 97.022C66.1171 97.009 66.0652 97.0069 66.0146 97.0159C65.964 97.025 65.9156 97.0449 65.8723 97.0745L65.2853 97.4375C65.2432 97.2806 65.223 97.1178 65.2253 96.9545C65.2273 96.8467 65.1893 96.7424 65.1195 96.6646C65.0498 96.5868 64.954 96.5418 64.8533 96.5395H64.8463C64.7468 96.5395 64.6513 96.5813 64.5802 96.6559C64.5092 96.7305 64.4683 96.832 64.4663 96.9385C64.4611 97.2501 64.5109 97.5599 64.6133 97.8515L63.0913 98.7915V96.9115C63.3788 96.8608 63.6546 96.7522 63.9043 96.5915C63.9848 96.533 64.0412 96.4437 64.0621 96.342C64.0829 96.2402 64.0665 96.1338 64.0163 96.0446C63.966 95.9554 63.8858 95.8902 63.792 95.8625C63.6983 95.8348 63.5982 95.8466 63.5123 95.8955C63.3814 95.9798 63.2395 96.0428 63.0913 96.0825V95.4675C63.0913 95.3596 63.0513 95.2561 62.98 95.1797C62.9088 95.1034 62.8121 95.0605 62.7113 95.0605C62.6105 95.0605 62.5139 95.1034 62.4426 95.1797C62.3714 95.2561 62.3313 95.3596 62.3313 95.4675V96.0825C62.1831 96.0428 62.0413 95.9798 61.9103 95.8955C61.8676 95.8645 61.8194 95.8431 61.7688 95.8326C61.7181 95.8222 61.6659 95.8229 61.6155 95.8347C61.5651 95.8466 61.5175 95.8693 61.4755 95.9015C61.4335 95.9337 61.3982 95.9747 61.3715 96.022C61.3448 96.0694 61.3275 96.122 61.3204 96.1768C61.3134 96.2316 61.3168 96.2873 61.3306 96.3406C61.3443 96.3939 61.3681 96.4436 61.4003 96.4868C61.4326 96.5299 61.4728 96.5656 61.5183 96.5915C61.768 96.7522 62.0439 96.8608 62.3313 96.9115V98.7915L60.8093 97.8515C60.9118 97.5595 60.9617 97.2494 60.9563 96.9375C60.9544 96.831 60.9135 96.7295 60.8424 96.6549C60.7714 96.5803 60.6758 96.5385 60.5763 96.5385H60.5693C60.4686 96.5405 60.3728 96.5852 60.3028 96.6629C60.2329 96.7405 60.1946 96.8447 60.1963 96.9525C60.1991 97.1161 60.1792 97.2792 60.1373 97.4365L59.5503 97.0745C59.463 97.0206 59.3593 97.0059 59.262 97.0339C59.1646 97.0618 59.0816 97.1301 59.0312 97.2235C58.9808 97.317 58.9672 97.4281 58.9933 97.5324C59.0193 97.6367 59.083 97.7256 59.1703 97.7795L59.7573 98.1415C59.6509 98.2587 59.529 98.3585 59.3953 98.4375C59.3506 98.4628 59.3109 98.4973 59.2788 98.5391C59.2467 98.581 59.2226 98.6293 59.2082 98.6812C59.1937 98.7331 59.189 98.7876 59.1944 98.8414C59.1999 98.8953 59.2153 98.9475 59.2398 98.9949C59.2643 99.0423 59.2974 99.0839 59.3371 99.1175C59.3768 99.151 59.4224 99.1757 59.4712 99.1901C59.52 99.2045 59.5709 99.2083 59.6211 99.2014C59.6712 99.1944 59.7196 99.1768 59.7633 99.1495C60.0183 98.9986 60.2443 98.7974 60.4293 98.5565L61.9513 99.4965L60.4293 100.437C60.2444 100.195 60.0184 99.9937 59.7633 99.8425C59.7195 99.8141 59.6708 99.7953 59.6201 99.7875C59.5694 99.7797 59.5177 99.783 59.4682 99.7971C59.4187 99.8112 59.3724 99.8359 59.332 99.8697C59.2917 99.9035 59.2581 99.9456 59.2333 99.9937C59.2086 100.042 59.1931 100.095 59.188 100.149C59.1828 100.204 59.1879 100.259 59.2032 100.311C59.2184 100.364 59.2434 100.412 59.2765 100.454C59.3097 100.496 59.3505 100.53 59.3963 100.555C59.5295 100.633 59.6512 100.733 59.7573 100.85L59.1703 101.215C59.1248 101.24 59.0845 101.275 59.0519 101.317C59.0193 101.36 58.9951 101.409 58.9808 101.462C58.9664 101.515 58.9622 101.57 58.9683 101.625C58.9745 101.679 58.9909 101.732 59.0166 101.779C59.0423 101.827 59.0767 101.869 59.1178 101.901C59.1589 101.934 59.2058 101.958 59.2557 101.971C59.3056 101.984 59.3574 101.986 59.408 101.977C59.4587 101.968 59.5071 101.948 59.5503 101.919L60.1373 101.556C60.1792 101.713 60.1991 101.876 60.1963 102.04C60.1948 102.147 60.2332 102.251 60.3031 102.329C60.3731 102.406 60.4688 102.451 60.5693 102.453H60.5763C60.6758 102.453 60.7714 102.411 60.8424 102.336C60.9135 102.262 60.9544 102.16 60.9563 102.054C60.9616 101.742 60.9117 101.432 60.8093 101.141L62.3313 100.201V102.081C62.0439 102.131 61.768 102.24 61.5183 102.401C61.4728 102.427 61.4326 102.462 61.4003 102.505C61.3681 102.548 61.3443 102.598 61.3306 102.651C61.3168 102.705 61.3134 102.761 61.3204 102.815C61.3275 102.87 61.3448 102.923 61.3715 102.97C61.3982 103.017 61.4335 103.058 61.4755 103.091C61.5175 103.123 61.5651 103.146 61.6155 103.157C61.6659 103.169 61.7181 103.17 61.7688 103.159C61.8194 103.149 61.8676 103.128 61.9103 103.097C62.0409 103.012 62.1825 102.949 62.3303 102.91V103.525C62.3303 103.632 62.3704 103.736 62.4416 103.812C62.5129 103.889 62.6095 103.932 62.7103 103.932C62.8111 103.932 62.9078 103.889 62.979 103.812C63.0503 103.736 63.0903 103.632 63.0903 103.525V102.91C63.2389 102.949 63.3811 103.012 63.5123 103.097C63.5985 103.149 63.7002 103.163 63.7959 103.136C63.8916 103.109 63.9737 103.043 64.0248 102.952C64.0758 102.861 64.0918 102.753 64.0693 102.65C64.0468 102.546 63.9876 102.457 63.9043 102.4C63.6546 102.239 63.3788 102.13 63.0913 102.08V100.2L64.6133 101.141C64.5105 101.432 64.4603 101.743 64.4653 102.055C64.4673 102.161 64.5082 102.263 64.5792 102.337C64.6503 102.412 64.7458 102.454 64.8453 102.454H64.8533C64.9033 102.453 64.9525 102.441 64.9983 102.42C65.0441 102.398 65.0855 102.367 65.1202 102.329C65.1548 102.29 65.182 102.245 65.2002 102.195C65.2184 102.145 65.2273 102.092 65.2263 102.039C65.2236 101.875 65.2434 101.712 65.2853 101.555L65.8723 101.918C65.9155 101.948 65.9642 101.97 66.0153 101.98C66.0664 101.99 66.1189 101.988 66.1695 101.976C66.2201 101.963 66.2678 101.939 66.3095 101.906C66.3513 101.873 66.3863 101.831 66.4123 101.783C66.4384 101.735 66.4549 101.682 66.4609 101.626C66.4669 101.571 66.4623 101.515 66.4473 101.462C66.4323 101.408 66.4073 101.359 66.3737 101.316C66.3402 101.274 66.2989 101.239 66.2523 101.215Z" fill="url(#paint12_radial_63_371)" stroke="url(#paint13_radial_63_371)" stroke-width="0.505"/>
<defs>
<filter id="filter0_f_63_371" x="41.6878" y="53.4198" width="13.3804" height="13.3895" filterUnits="userSpaceOnUse" color-interpolation-filters="sRGB">
<feFlood flood-opacity="0" result="BackgroundImageFix"/>
<feBlend mode="normal" in="SourceGraphic" in2="BackgroundImageFix" result="shape"/>
<feGaussianBlur stdDeviation="1.46492" result="effect1_foregroundBlur_63_371"/>
</filter>
<filter id="filter1_f_63_371" x="31.7503" y="33.9159" width="15.241" height="8.91095" filterUnits="userSpaceOnUse" color-interpolation-filters="sRGB">
<feFlood flood-opacity="0" result="BackgroundImageFix"/>
<feBlend mode="normal" in="SourceGraphic" in2="BackgroundImageFix" result="shape"/>
<feGaussianBlur stdDeviation="1.46492" result="effect1_foregroundBlur_63_371"/>
</filter>
<filter id="filter2_f_63_371" x="41.681" y="9.93686" width="13.3897" height="13.3807" filterUnits="userSpaceOnUse" color-interpolation-filters="sRGB">
<feFlood flood-opacity="0" result="BackgroundImageFix"/>
<feBlend mode="normal" in="SourceGraphic" in2="BackgroundImageFix" result="shape"/>
<feGaussianBlur stdDeviation="1.46492" result="effect1_foregroundBlur_63_371"/>
</filter>
<filter id="filter3_f_63_371" x="65.6634" y="-0.000152588" width="8.91095" height="15.241" filterUnits="userSpaceOnUse" color-interpolation-filters="sRGB">
<feFlood flood-opacity="0" result="BackgroundImageFix"/>
<feBlend mode="normal" in="SourceGraphic" in2="BackgroundImageFix" result="shape"/>
<feGaussianBlur stdDeviation="1.46492" result="effect1_foregroundBlur_63_371"/>
</filter>
<filter id="filter4_f_63_371" x="85.1742" y="9.93051" width="13.3804" height="13.3895" filterUnits="userSpaceOnUse" color-interpolation-filters="sRGB">
<feFlood flood-opacity="0" result="BackgroundImageFix"/>
<feBlend mode="normal" in="SourceGraphic" in2="BackgroundImageFix" result="shape"/>
<feGaussianBlur stdDeviation="1.46492" result="effect1_foregroundBlur_63_371"/>
</filter>
<filter id="filter5_f_63_371" x="93.2516" y="33.9129" width="15.241" height="8.91095" filterUnits="userSpaceOnUse" color-interpolation-filters="sRGB">
<feFlood flood-opacity="0" result="BackgroundImageFix"/>
<feBlend mode="normal" in="SourceGraphic" in2="BackgroundImageFix" result="shape"/>
<feGaussianBlur stdDeviation="1.46492" result="effect1_foregroundBlur_63_371"/>
</filter>
<filter id="filter6_f_63_371" x="85.1707" y="53.4207" width="13.3897" height="13.3807" filterUnits="userSpaceOnUse" color-interpolation-filters="sRGB">
<feFlood flood-opacity="0" result="BackgroundImageFix"/>
<feBlend mode="normal" in="SourceGraphic" in2="BackgroundImageFix" result="shape"/>
<feGaussianBlur stdDeviation="1.46492" result="effect1_foregroundBlur_63_371"/>
</filter>
<filter id="filter7_f_63_371" x="65.6668" y="61.4994" width="8.91095" height="15.241" filterUnits="userSpaceOnUse" color-interpolation-filters="sRGB">
<feFlood flood-opacity="0" result="BackgroundImageFix"/>
<feBlend mode="normal" in="SourceGraphic" in2="BackgroundImageFix" result="shape"/>
<feGaussianBlur stdDeviation="1.46492" result="effect1_foregroundBlur_63_371"/>
</filter>
<filter id="filter8_f_63_371" x="46.2837" y="14.5322" width="47.8214" height="47.8214" filterUnits="userSpaceOnUse" color-interpolation-filters="sRGB">
<feFlood flood-opacity="0" result="BackgroundImageFix"/>
<feBlend mode="normal" in="SourceGraphic" in2="BackgroundImageFix" result="shape"/>
<feGaussianBlur stdDeviation="1.95534" result="effect1_foregroundBlur_63_371"/>
</filter>
<linearGradient id="paint0_linear_63_371" x1="61.2766" y1="20.069" x2="13.5413" y2="79.7895" gradientUnits="userSpaceOnUse">
<stop stop-color="#EBECED"/>
<stop offset="1" stop-color="#868787"/>
</linearGradient>
<linearGradient id="paint1_linear_63_371" x1="49.1943" y1="38.4429" x2="91.1943" y2="38.4429" gradientUnits="userSpaceOnUse">
<stop stop-color="#FFEEAA"/>
<stop offset="1" stop-color="#FFD121"/>
</linearGradient>
<linearGradient id="paint2_linear_63_371" x1="46.7953" y1="38.4429" x2="93.5934" y2="38.4429" gradientUnits="userSpaceOnUse">
<stop stop-color="#D8B127"/>
<stop offset="1" stop-color="#FFE379"/>
</linearGradient>
<linearGradient id="paint3_linear_63_371" x1="47.1992" y1="34.0253" x2="47.2652" y2="77.5124" gradientUnits="userSpaceOnUse">
<stop stop-color="#D6D8D9"/>
<stop offset="1" stop-color="#8E94A2"/>
</linearGradient>
<radialGradient id="paint4_radial_63_371" cx="0" cy="0" r="1" gradientUnits="userSpaceOnUse" gradientTransform="translate(14.7273 85.1157) scale(3.99912 4.68743)">
<stop stop-color="#85B2EE"/>
<stop offset="1" stop-color="#DCEEF9"/>
</radialGradient>
<radialGradient id="paint5_radial_63_371" cx="0" cy="0" r="1" gradientUnits="userSpaceOnUse" gradientTransform="translate(14.7273 85.1157) scale(3.99912 4.68743)">
<stop stop-color="#85B2EE"/>
<stop offset="1" stop-color="#DCEEF9"/>
</radialGradient>
<radialGradient id="paint6_radial_63_371" cx="0" cy="0" r="1" gradientUnits="userSpaceOnUse" gradientTransform="translate(81.1172 85.1157) scale(3.99912 4.68743)">
<stop stop-color="#85B2EE"/>
<stop offset="1" stop-color="#DCEEF9"/>
</radialGradient>
<radialGradient id="paint7_radial_63_371" cx="0" cy="0" r="1" gradientUnits="userSpaceOnUse" gradientTransform="translate(81.1172 85.1157) scale(3.99912 4.68743)">
<stop stop-color="#85B2EE"/>
<stop offset="1" stop-color="#DCEEF9"/>
</radialGradient>
<radialGradient id="paint8_radial_63_371" cx="0" cy="0" r="1" gradientUnits="userSpaceOnUse" gradientTransform="translate(47.9224 85.1157) scale(3.99912 4.68743)">
<stop stop-color="#85B2EE"/>
<stop offset="1" stop-color="#DCEEF9"/>
</radialGradient>
<radialGradient id="paint9_radial_63_371" cx="0" cy="0" r="1" gradientUnits="userSpaceOnUse" gradientTransform="translate(47.9224 85.1157) scale(3.99912 4.68743)">
<stop stop-color="#85B2EE"/>
<stop offset="1" stop-color="#DCEEF9"/>
</radialGradient>
<radialGradient id="paint10_radial_63_371" cx="0" cy="0" r="1" gradientUnits="userSpaceOnUse" gradientTransform="translate(31.0662 99.4956) scale(3.99912 4.68742)">
<stop stop-color="#85B2EE"/>
<stop offset="1" stop-color="#DCEEF9"/>
</radialGradient>
<radialGradient id="paint11_radial_63_371" cx="0" cy="0" r="1" gradientUnits="userSpaceOnUse" gradientTransform="translate(31.0662 99.4956) scale(3.99912 4.68742)">
<stop stop-color="#85B2EE"/>
<stop offset="1" stop-color="#DCEEF9"/>
</radialGradient>
<radialGradient id="paint12_radial_63_371" cx="0" cy="0" r="1" gradientUnits="userSpaceOnUse" gradientTransform="translate(62.7173 99.4956) scale(3.99912 4.68742)">
<stop stop-color="#85B2EE"/>
<stop offset="1" stop-color="#DCEEF9"/>
</radialGradient>
<radialGradient id="paint13_radial_63_371" cx="0" cy="0" r="1" gradientUnits="userSpaceOnUse" gradientTransform="translate(62.7173 99.4956) scale(3.99912 4.68742)">
<stop stop-color="#85B2EE"/>
<stop offset="1" stop-color="#DCEEF9"/>
</radialGradient>
</defs>
</svg>
