<svg width="101" height="107" viewBox="0 0 101 107" fill="none" xmlns="http://www.w3.org/2000/svg">
<path d="M6.44315 63.626H96.1101C96.1101 63.626 106.316 50.169 92.4901 37.603C78.9171 25.267 64.9311 34.871 64.9311 34.871C64.9311 34.871 56.3221 15.494 40.0191 20.15C23.7162 24.809 22.4091 38.287 22.4091 38.287C22.4091 38.287 5.90115 38.623 3.18315 48.91C0.465149 59.197 6.44315 63.626 6.44315 63.626Z" fill="url(#paint0_linear_63_941)"/>
<g filter="url(#filter0_d_63_941)">
<path d="M74.5932 62.7928C64.3071 72.4128 48.6191 75.4468 34.633 68.5648C20.499 61.5348 12.6549 45.6247 15.689 30.2327C18.723 14.9146 30.711 4.33255 44.6231 2.03854C46.7691 1.66854 48.3971 4.03655 47.2871 5.96056C46.2511 7.81057 45.3631 9.80857 44.6231 11.8806C38.333 30.3807 48.2491 50.4347 66.7491 56.7248C68.8212 57.4648 70.9672 57.9088 73.1132 58.2788C75.2592 58.5748 76.1472 61.2388 74.5932 62.7928Z" fill="url(#paint1_linear_63_941)"/>
</g>
<path d="M72.6587 23.0557C73.0903 23.2756 72.9884 23.9193 72.51 23.9951L69.0067 24.5499C68.7927 24.5838 68.6249 24.7516 68.5911 24.9656L68.0362 28.4688C67.9604 28.9472 67.3167 29.0492 67.0968 28.6176L65.4866 25.4573C65.3882 25.2643 65.1768 25.1565 64.9628 25.1904L61.4596 25.7453C60.9812 25.8211 60.6853 25.2404 61.0278 24.8979L63.5359 22.3898C63.689 22.2366 63.7261 22.0023 63.6278 21.8093L62.0175 18.6489C61.7976 18.2173 62.2585 17.7565 62.69 17.9764L65.8504 19.5867C66.0434 19.685 66.2778 19.6479 66.4309 19.4947L68.939 16.9867C69.2815 16.6442 69.8622 16.94 69.7864 17.4184L69.2315 20.9217C69.1977 21.1357 69.3054 21.3471 69.4984 21.4454L72.6587 23.0557Z" fill="#8FE5F2"/>
<path d="M3.96817 77.7958H93.6352C93.6352 77.7958 104.867 64.6038 93.9052 49.4748C82.2752 33.4258 63.1632 46.7428 63.1632 46.7428C63.1632 46.7428 53.8472 29.6628 37.5442 34.3218C21.2412 38.9808 20.4652 53.3418 20.4652 53.3418C20.4652 53.3418 3.42517 52.7928 0.70817 63.0798C-2.00883 73.3668 3.96817 77.7958 3.96817 77.7958Z" fill="url(#paint2_linear_63_941)"/>
<path d="M18.2633 86.5451L17.6763 86.1821C17.7824 86.065 17.904 85.9652 18.0373 85.8861C18.1189 85.8305 18.1775 85.7436 18.2014 85.6433C18.2252 85.5429 18.2125 85.4366 18.1657 85.3459C18.1189 85.2553 18.0416 85.1872 17.9496 85.1555C17.8575 85.1237 17.7577 85.1307 17.6703 85.1751C17.4153 85.326 17.1893 85.5272 17.0043 85.7681L15.4823 84.8261L17.0043 83.8861C17.1889 84.1273 17.4145 84.3289 17.6693 84.4801C17.713 84.5074 17.7614 84.525 17.8116 84.5319C17.8617 84.5389 17.9127 84.5351 17.9614 84.5207C18.0102 84.5062 18.0558 84.4816 18.0955 84.448C18.1353 84.4145 18.1683 84.3728 18.1928 84.3254C18.2173 84.278 18.2328 84.2259 18.2382 84.172C18.2436 84.1181 18.2389 84.0637 18.2245 84.0117C18.21 83.9598 18.186 83.9116 18.1538 83.8697C18.1217 83.8279 18.0821 83.7933 18.0373 83.7681C17.9037 83.6891 17.7817 83.5893 17.6753 83.4721L18.2633 83.1091C18.3089 83.0838 18.3491 83.0488 18.3817 83.0063C18.4143 82.9638 18.4385 82.9147 18.4529 82.8619C18.4672 82.8091 18.4715 82.7537 18.4653 82.6992C18.4591 82.6446 18.4427 82.5919 18.417 82.5443C18.3913 82.4967 18.3569 82.4551 18.3158 82.4222C18.2747 82.3892 18.2278 82.3655 18.1779 82.3525C18.1281 82.3395 18.0762 82.3375 18.0256 82.3465C17.975 82.3556 17.9266 82.3755 17.8833 82.4051L17.2963 82.7681C17.2542 82.6112 17.234 82.4484 17.2363 82.2851C17.2383 82.1773 17.2003 82.073 17.1305 81.9952C17.0607 81.9173 16.965 81.8724 16.8643 81.8701H16.8573C16.7578 81.8701 16.6623 81.9119 16.5912 81.9865C16.5202 82.0611 16.4793 82.1626 16.4773 82.2691C16.4721 82.5806 16.5219 82.8904 16.6243 83.1821L15.1023 84.1221V82.2421C15.3898 82.1913 15.6656 82.0828 15.9153 81.9221C15.9958 81.8636 16.0522 81.7743 16.0731 81.6725C16.0939 81.5708 16.0775 81.4643 16.0272 81.3752C15.977 81.286 15.8968 81.2208 15.803 81.1931C15.7093 81.1653 15.6092 81.1772 15.5233 81.2261C15.3924 81.3103 15.2505 81.3734 15.1023 81.4131V80.7981C15.1023 80.6902 15.0623 80.5866 14.991 80.5103C14.9197 80.434 14.8231 80.3911 14.7223 80.3911C14.6215 80.3911 14.5249 80.434 14.4536 80.5103C14.3823 80.5866 14.3423 80.6902 14.3423 80.7981V81.4131C14.1941 81.3734 14.0522 81.3103 13.9213 81.2261C13.8786 81.1951 13.8304 81.1737 13.7798 81.1632C13.7291 81.1527 13.6769 81.1534 13.6265 81.1653C13.5761 81.1771 13.5284 81.1998 13.4865 81.232C13.4445 81.2643 13.4091 81.3053 13.3825 81.3526C13.3558 81.4 13.3384 81.4526 13.3314 81.5074C13.3244 81.5622 13.3278 81.6179 13.3416 81.6712C13.3553 81.7245 13.379 81.7742 13.4113 81.8173C13.4436 81.8605 13.4837 81.8961 13.5293 81.9221C13.779 82.0828 14.0548 82.1913 14.3423 82.2421V84.1221L12.8203 83.1821C12.9228 82.8901 12.9727 82.58 12.9673 82.2681C12.9654 82.1616 12.9245 82.0601 12.8534 81.9855C12.7823 81.9109 12.6868 81.8691 12.5873 81.8691H12.5803C12.4796 81.8711 12.3837 81.9158 12.3138 81.9934C12.2439 82.0711 12.2056 82.1752 12.2073 82.2831C12.2097 82.4467 12.1895 82.6098 12.1473 82.7671L11.5613 82.4051C11.474 82.3511 11.3703 82.3365 11.2729 82.3645C11.1756 82.3924 11.0926 82.4606 11.0422 82.5541C10.9918 82.6476 10.9781 82.7587 11.0042 82.863C11.0303 82.9672 11.094 83.0561 11.1813 83.1101L11.7683 83.4721C11.6619 83.5893 11.5399 83.6891 11.4063 83.7681C11.3615 83.7933 11.3219 83.8279 11.2898 83.8697C11.2577 83.9116 11.2336 83.9598 11.2192 84.0117C11.2047 84.0637 11.2 84.1181 11.2054 84.172C11.2109 84.2259 11.2263 84.278 11.2508 84.3254C11.2753 84.3728 11.3084 84.4145 11.3481 84.448C11.3878 84.4816 11.4334 84.5062 11.4822 84.5207C11.5309 84.5351 11.5819 84.5389 11.6321 84.5319C11.6822 84.525 11.7306 84.5074 11.7743 84.4801C12.0293 84.3292 12.2553 84.128 12.4403 83.8871L13.9623 84.8271L12.4403 85.7671C12.2554 85.5259 12.0294 85.3243 11.7743 85.1731C11.7306 85.1459 11.6822 85.1283 11.6321 85.1213C11.5819 85.1143 11.5309 85.1182 11.4822 85.1326C11.4334 85.147 11.3878 85.1717 11.3481 85.2052C11.3084 85.2387 11.2753 85.2804 11.2508 85.3278C11.2263 85.3752 11.2109 85.4274 11.2054 85.4812C11.2 85.5351 11.2047 85.5896 11.2192 85.6415C11.2336 85.6934 11.2577 85.7417 11.2898 85.7835C11.3219 85.8253 11.3615 85.8599 11.4063 85.8851C11.5399 85.9639 11.6619 86.0633 11.7683 86.1801L11.1813 86.5451C11.1358 86.5705 11.0955 86.6055 11.0629 86.6479C11.0303 86.6904 11.0061 86.7396 10.9917 86.7923C10.9774 86.8451 10.9731 86.9005 10.9793 86.9551C10.9855 87.0097 11.0019 87.0623 11.0276 87.1099C11.0533 87.1575 11.0877 87.1991 11.1288 87.232C11.1699 87.265 11.2168 87.2887 11.2667 87.3017C11.3166 87.3147 11.3684 87.3167 11.419 87.3077C11.4697 87.2987 11.5181 87.2787 11.5613 87.2491L12.1483 86.8861C12.1902 87.0435 12.2101 87.2066 12.2073 87.3701C12.2058 87.4778 12.2442 87.5817 12.3141 87.6592C12.3841 87.7366 12.4798 87.7811 12.5803 87.7831H12.5873C12.6868 87.7831 12.7823 87.7414 12.8534 87.6667C12.9245 87.5921 12.9654 87.4907 12.9673 87.3841C12.9726 87.0726 12.9227 86.7628 12.8203 86.4711L14.3423 85.5311V87.4111C14.0548 87.4619 13.779 87.5705 13.5293 87.7311C13.4837 87.7571 13.4436 87.7927 13.4113 87.8359C13.379 87.879 13.3553 87.9288 13.3416 87.9821C13.3278 88.0353 13.3244 88.0911 13.3314 88.1458C13.3384 88.2006 13.3558 88.2533 13.3825 88.3006C13.4091 88.348 13.4445 88.389 13.4865 88.4212C13.5284 88.4534 13.5761 88.4761 13.6265 88.4879C13.6769 88.4998 13.7291 88.5005 13.7798 88.49C13.8304 88.4796 13.8786 88.4582 13.9213 88.4271C14.0519 88.343 14.1935 88.28 14.3413 88.2401V88.8551C14.3413 88.9631 14.3813 89.0666 14.4526 89.1429C14.5239 89.2192 14.6205 89.2621 14.7213 89.2621C14.8221 89.2621 14.9187 89.2192 14.99 89.1429C15.0613 89.0666 15.1013 88.9631 15.1013 88.8551V88.2401C15.2498 88.2798 15.3921 88.3428 15.5233 88.4271C15.6095 88.4793 15.7112 88.4934 15.8069 88.4664C15.9026 88.4395 15.9847 88.3736 16.0358 88.2828C16.0868 88.192 16.1028 88.0835 16.0803 87.9803C16.0578 87.877 15.9986 87.7873 15.9153 87.7301C15.6656 87.5695 15.3898 87.4609 15.1023 87.4101V85.5301L16.6243 86.4711C16.5215 86.763 16.4713 87.0732 16.4763 87.3851C16.4783 87.4917 16.5192 87.5931 16.5902 87.6677C16.6613 87.7424 16.7568 87.7841 16.8563 87.7841H16.8643C16.9143 87.7831 16.9635 87.7716 17.0093 87.7502C17.0551 87.7288 17.0965 87.698 17.1311 87.6594C17.1658 87.6209 17.193 87.5754 17.2112 87.5256C17.2294 87.4758 17.2383 87.4226 17.2373 87.3691C17.2345 87.2056 17.2544 87.0425 17.2963 86.8851L17.8833 87.2481C17.9265 87.279 17.9752 87.3001 18.0263 87.3101C18.0774 87.3201 18.1299 87.3188 18.1805 87.3062C18.2311 87.2935 18.2788 87.27 18.3205 87.2368C18.3623 87.2037 18.3973 87.1618 18.4233 87.1136C18.4493 87.0655 18.4659 87.0121 18.4719 86.9568C18.4779 86.9016 18.4733 86.8455 18.4583 86.7923C18.4433 86.739 18.4182 86.6896 18.3847 86.647C18.3512 86.6045 18.3099 86.5698 18.2633 86.5451Z" fill="url(#paint3_radial_63_941)" stroke="url(#paint4_radial_63_941)" stroke-width="0.505"/>
<path d="M84.6522 86.5451L84.0652 86.1821C84.1713 86.065 84.2929 85.9652 84.4262 85.8861C84.5078 85.8305 84.5664 85.7436 84.5903 85.6433C84.6141 85.5429 84.6014 85.4366 84.5546 85.3459C84.5078 85.2553 84.4305 85.1872 84.3385 85.1555C84.2465 85.1237 84.1466 85.1307 84.0592 85.1751C83.8042 85.326 83.5783 85.5272 83.3932 85.7681L81.8712 84.8261L83.3932 83.8861C83.5778 84.1273 83.8035 84.3289 84.0582 84.4801C84.1019 84.5074 84.1503 84.525 84.2005 84.5319C84.2506 84.5389 84.3016 84.5351 84.3503 84.5207C84.3991 84.5062 84.4447 84.4816 84.4844 84.448C84.5242 84.4145 84.5572 84.3728 84.5817 84.3254C84.6062 84.278 84.6217 84.2259 84.6271 84.172C84.6325 84.1181 84.6279 84.0637 84.6134 84.0117C84.5989 83.9598 84.5749 83.9116 84.5427 83.8697C84.5106 83.8279 84.471 83.7933 84.4262 83.7681C84.2926 83.6891 84.1706 83.5893 84.0642 83.4721L84.6522 83.1091C84.6978 83.0838 84.738 83.0488 84.7706 83.0063C84.8032 82.9638 84.8274 82.9147 84.8418 82.8619C84.8561 82.8091 84.8604 82.7537 84.8542 82.6992C84.8481 82.6446 84.8316 82.5919 84.8059 82.5443C84.7803 82.4967 84.7458 82.4551 84.7047 82.4222C84.6636 82.3892 84.6167 82.3655 84.5668 82.3525C84.517 82.3395 84.4651 82.3375 84.4145 82.3465C84.3639 82.3556 84.3155 82.3755 84.2722 82.4051L83.6852 82.7681C83.6431 82.6112 83.6229 82.4484 83.6252 82.2851C83.6272 82.1773 83.5892 82.073 83.5194 81.9952C83.4497 81.9173 83.3539 81.8724 83.2532 81.8701H83.2462C83.1467 81.8701 83.0512 81.9119 82.9801 81.9865C82.9091 82.0611 82.8682 82.1626 82.8662 82.2691C82.861 82.5806 82.9109 82.8904 83.0132 83.1821L81.4912 84.1221V82.2421C81.7787 82.1913 82.0546 82.0828 82.3042 81.9221C82.3847 81.8636 82.4411 81.7743 82.462 81.6725C82.4828 81.5708 82.4664 81.4643 82.4162 81.3752C82.3659 81.286 82.2857 81.2208 82.1919 81.1931C82.0982 81.1653 81.9981 81.1772 81.9122 81.2261C81.7813 81.3103 81.6394 81.3734 81.4912 81.4131V80.7981C81.4912 80.6902 81.4512 80.5866 81.3799 80.5103C81.3087 80.434 81.212 80.3911 81.1112 80.3911C81.0104 80.3911 80.9138 80.434 80.8425 80.5103C80.7713 80.5866 80.7312 80.6902 80.7312 80.7981V81.4131C80.583 81.3734 80.4411 81.3103 80.3102 81.2261C80.2675 81.1951 80.2193 81.1737 80.1687 81.1632C80.118 81.1527 80.0658 81.1534 80.0154 81.1653C79.965 81.1771 79.9174 81.1998 79.8754 81.232C79.8334 81.2643 79.7981 81.3053 79.7714 81.3526C79.7447 81.4 79.7274 81.4526 79.7203 81.5074C79.7133 81.5622 79.7168 81.6179 79.7305 81.6712C79.7442 81.7245 79.768 81.7742 79.8002 81.8173C79.8325 81.8605 79.8727 81.8961 79.9182 81.9221C80.1679 82.0828 80.4438 82.1913 80.7312 82.2421V84.1221L79.2092 83.1821C79.3117 82.8901 79.3616 82.58 79.3562 82.2681C79.3543 82.1616 79.3134 82.0601 79.2423 81.9855C79.1713 81.9109 79.0757 81.8691 78.9762 81.8691H78.9692C78.8685 81.8711 78.7727 81.9158 78.7027 81.9934C78.6328 82.0711 78.5945 82.1752 78.5962 82.2831C78.5987 82.4467 78.5784 82.6098 78.5362 82.7671L77.9502 82.4051C77.8629 82.3511 77.7592 82.3365 77.6618 82.3645C77.5645 82.3924 77.4815 82.4606 77.4311 82.5541C77.3807 82.6476 77.3671 82.7587 77.3931 82.863C77.4192 82.9672 77.4829 83.0561 77.5702 83.1101L78.1572 83.4721C78.0508 83.5893 77.9289 83.6891 77.7952 83.7681C77.7505 83.7933 77.7108 83.8279 77.6787 83.8697C77.6466 83.9116 77.6225 83.9598 77.6081 84.0117C77.5936 84.0637 77.5889 84.1181 77.5943 84.172C77.5998 84.2259 77.6152 84.278 77.6397 84.3254C77.6642 84.3728 77.6973 84.4145 77.737 84.448C77.7767 84.4816 77.8223 84.5062 77.8711 84.5207C77.9199 84.5351 77.9708 84.5389 78.021 84.5319C78.0711 84.525 78.1195 84.5074 78.1632 84.4801C78.4182 84.3292 78.6442 84.128 78.8292 83.8871L80.3512 84.8271L78.8292 85.7671C78.6443 85.5259 78.4183 85.3243 78.1632 85.1731C78.1195 85.1459 78.0711 85.1283 78.021 85.1213C77.9708 85.1143 77.9199 85.1182 77.8711 85.1326C77.8223 85.147 77.7767 85.1717 77.737 85.2052C77.6973 85.2387 77.6642 85.2804 77.6397 85.3278C77.6152 85.3752 77.5998 85.4274 77.5943 85.4812C77.5889 85.5351 77.5936 85.5896 77.6081 85.6415C77.6225 85.6934 77.6466 85.7417 77.6787 85.7835C77.7108 85.8253 77.7505 85.8599 77.7952 85.8851C77.9288 85.9639 78.0508 86.0633 78.1572 86.1801L77.5702 86.5451C77.5247 86.5705 77.4844 86.6055 77.4518 86.6479C77.4192 86.6904 77.395 86.7396 77.3807 86.7923C77.3663 86.8451 77.3621 86.9005 77.3682 86.9551C77.3744 87.0097 77.3908 87.0623 77.4165 87.1099C77.4422 87.1575 77.4766 87.1991 77.5177 87.232C77.5588 87.265 77.6057 87.2887 77.6556 87.3017C77.7055 87.3147 77.7573 87.3167 77.8079 87.3077C77.8586 87.2987 77.907 87.2787 77.9502 87.2491L78.5372 86.8861C78.5791 87.0435 78.599 87.2066 78.5962 87.3701C78.5947 87.4778 78.6331 87.5817 78.7031 87.6592C78.773 87.7366 78.8687 87.7811 78.9692 87.7831H78.9762C79.0757 87.7831 79.1713 87.7414 79.2423 87.6667C79.3134 87.5921 79.3543 87.4907 79.3562 87.3841C79.3615 87.0726 79.3116 86.7628 79.2092 86.4711L80.7312 85.5311V87.4111C80.4438 87.4619 80.1679 87.5705 79.9182 87.7311C79.8727 87.7571 79.8325 87.7927 79.8002 87.8359C79.768 87.879 79.7442 87.9288 79.7305 87.9821C79.7168 88.0353 79.7133 88.0911 79.7203 88.1458C79.7274 88.2006 79.7447 88.2533 79.7714 88.3006C79.7981 88.348 79.8334 88.389 79.8754 88.4212C79.9174 88.4534 79.965 88.4761 80.0154 88.4879C80.0658 88.4998 80.118 88.5005 80.1687 88.49C80.2193 88.4796 80.2675 88.4582 80.3102 88.4271C80.4408 88.343 80.5824 88.28 80.7302 88.2401V88.8551C80.7302 88.9631 80.7703 89.0666 80.8415 89.1429C80.9128 89.2192 81.0094 89.2621 81.1102 89.2621C81.211 89.2621 81.3077 89.2192 81.3789 89.1429C81.4502 89.0666 81.4902 88.9631 81.4902 88.8551V88.2401C81.6388 88.2798 81.781 88.3428 81.9122 88.4271C81.9984 88.4793 82.1001 88.4934 82.1958 88.4664C82.2915 88.4395 82.3736 88.3736 82.4247 88.2828C82.4757 88.192 82.4917 88.0835 82.4692 87.9803C82.4467 87.877 82.3875 87.7873 82.3042 87.7301C82.0546 87.5695 81.7787 87.4609 81.4912 87.4101V85.5301L83.0132 86.4711C82.9104 86.763 82.8602 87.0732 82.8652 87.3851C82.8672 87.4917 82.9081 87.5931 82.9791 87.6677C83.0502 87.7424 83.1457 87.7841 83.2452 87.7841H83.2532C83.3032 87.7831 83.3524 87.7716 83.3982 87.7502C83.444 87.7288 83.4854 87.698 83.5201 87.6594C83.5547 87.6209 83.5819 87.5754 83.6001 87.5256C83.6183 87.4758 83.6272 87.4226 83.6262 87.3691C83.6235 87.2056 83.6433 87.0425 83.6852 86.8851L84.2722 87.2481C84.3154 87.279 84.3641 87.3001 84.4152 87.3101C84.4663 87.3201 84.5188 87.3188 84.5694 87.3062C84.62 87.2935 84.6677 87.27 84.7094 87.2368C84.7512 87.2037 84.7862 87.1618 84.8122 87.1136C84.8383 87.0655 84.8548 87.0121 84.8608 86.9568C84.8668 86.9016 84.8622 86.8455 84.8472 86.7923C84.8322 86.739 84.8072 86.6896 84.7736 86.647C84.7401 86.6045 84.6988 86.5698 84.6522 86.5451Z" fill="url(#paint5_radial_63_941)" stroke="url(#paint6_radial_63_941)" stroke-width="0.505"/>
<path d="M51.4584 86.5451L50.8714 86.1821C50.9774 86.065 51.0991 85.9652 51.2324 85.8861C51.3139 85.8305 51.3726 85.7436 51.3964 85.6433C51.4203 85.5429 51.4075 85.4366 51.3607 85.3459C51.314 85.2553 51.2367 85.1872 51.1446 85.1555C51.0526 85.1237 50.9527 85.1307 50.8654 85.1751C50.6104 85.326 50.3844 85.5272 50.1994 85.7681L48.6774 84.8261L50.1994 83.8861C50.384 84.1273 50.6096 84.3289 50.8644 84.4801C50.9081 84.5074 50.9565 84.525 51.0066 84.5319C51.0568 84.5389 51.1077 84.5351 51.1565 84.5207C51.2053 84.5062 51.2509 84.4816 51.2906 84.448C51.3303 84.4145 51.3634 84.3728 51.3879 84.3254C51.4124 84.278 51.4278 84.2259 51.4333 84.172C51.4387 84.1181 51.434 84.0637 51.4195 84.0117C51.405 83.9598 51.381 83.9116 51.3489 83.8697C51.3168 83.8279 51.2771 83.7933 51.2324 83.7681C51.0987 83.6891 50.9768 83.5893 50.8704 83.4721L51.4584 83.1091C51.5039 83.0838 51.5442 83.0488 51.5768 83.0063C51.6094 82.9638 51.6336 82.9147 51.6479 82.8619C51.6623 82.8091 51.6665 82.7537 51.6604 82.6992C51.6542 82.6446 51.6378 82.5919 51.6121 82.5443C51.5864 82.4967 51.552 82.4551 51.5109 82.4222C51.4698 82.3892 51.4229 82.3655 51.373 82.3525C51.3231 82.3395 51.2713 82.3375 51.2207 82.3465C51.17 82.3556 51.1216 82.3755 51.0784 82.4051L50.4914 82.7681C50.4492 82.6112 50.429 82.4484 50.4314 82.2851C50.4334 82.1773 50.3953 82.073 50.3256 81.9952C50.2558 81.9173 50.1601 81.8724 50.0594 81.8701H50.0524C49.9529 81.8701 49.8573 81.9119 49.7863 81.9865C49.7152 82.0611 49.6743 82.1626 49.6724 82.2691C49.6671 82.5806 49.717 82.8904 49.8194 83.1821L48.2974 84.1221V82.2421C48.5848 82.1913 48.8607 82.0828 49.1104 81.9221C49.1908 81.8636 49.2473 81.7743 49.2681 81.6725C49.2889 81.5708 49.2726 81.4643 49.2223 81.3752C49.1721 81.286 49.0918 81.2208 48.9981 81.1931C48.9043 81.1653 48.8042 81.1772 48.7184 81.2261C48.5874 81.3103 48.4456 81.3734 48.2974 81.4131V80.7981C48.2974 80.6902 48.2573 80.5866 48.1861 80.5103C48.1148 80.434 48.0182 80.3911 47.9174 80.3911C47.8166 80.3911 47.7199 80.434 47.6487 80.5103C47.5774 80.5866 47.5374 80.6902 47.5374 80.7981V81.4131C47.3892 81.3734 47.2473 81.3103 47.1164 81.2261C47.0737 81.1951 47.0255 81.1737 46.9748 81.1632C46.9241 81.1527 46.872 81.1534 46.8216 81.1653C46.7711 81.1771 46.7235 81.1998 46.6816 81.232C46.6396 81.2643 46.6042 81.3053 46.5776 81.3526C46.5509 81.4 46.5335 81.4526 46.5265 81.5074C46.5194 81.5622 46.5229 81.6179 46.5366 81.6712C46.5504 81.7245 46.5741 81.7742 46.6064 81.8173C46.6387 81.8605 46.6788 81.8961 46.7244 81.9221C46.974 82.0828 47.2499 82.1913 47.5374 82.2421V84.1221L46.0154 83.1821C46.1179 82.8901 46.1677 82.58 46.1624 82.2681C46.1604 82.1616 46.1195 82.0601 46.0485 81.9855C45.9774 81.9109 45.8819 81.8691 45.7824 81.8691H45.7754C45.6747 81.8711 45.5788 81.9158 45.5089 81.9934C45.4389 82.0711 45.4006 82.1752 45.4024 82.2831C45.4048 82.4467 45.3846 82.6098 45.3424 82.7671L44.7564 82.4051C44.7132 82.3784 44.6654 82.361 44.616 82.3541C44.5665 82.3471 44.5162 82.3506 44.468 82.3645C44.4198 82.3783 44.3746 82.4022 44.335 82.4347C44.2954 82.4672 44.2622 82.5078 44.2373 82.5541C44.2123 82.6004 44.1961 82.6515 44.1896 82.7045C44.1831 82.7575 44.1864 82.8113 44.1993 82.863C44.2122 82.9146 44.2345 82.963 44.2649 83.0054C44.2953 83.0478 44.3332 83.0834 44.3764 83.1101L44.9634 83.4721C44.857 83.5893 44.735 83.6891 44.6014 83.7681C44.5566 83.7933 44.517 83.8279 44.4849 83.8697C44.4527 83.9116 44.4287 83.9598 44.4142 84.0117C44.3997 84.0637 44.3951 84.1181 44.4005 84.172C44.4059 84.2259 44.4213 84.278 44.4458 84.3254C44.4703 84.3728 44.5034 84.4145 44.5432 84.448C44.5829 84.4816 44.6285 84.5062 44.6772 84.5207C44.726 84.5351 44.777 84.5389 44.8271 84.5319C44.8773 84.525 44.9257 84.5074 44.9694 84.4801C45.2244 84.3292 45.4503 84.128 45.6354 83.8871L47.1574 84.8271L45.6354 85.7671C45.4504 85.5259 45.2244 85.3243 44.9694 85.1731C44.9257 85.1459 44.8773 85.1283 44.8271 85.1213C44.777 85.1143 44.726 85.1182 44.6772 85.1326C44.6285 85.147 44.5829 85.1717 44.5432 85.2052C44.5034 85.2387 44.4703 85.2804 44.4458 85.3278C44.4213 85.3752 44.4059 85.4274 44.4005 85.4812C44.3951 85.5351 44.3997 85.5896 44.4142 85.6415C44.4287 85.6934 44.4527 85.7417 44.4849 85.7835C44.517 85.8253 44.5566 85.8599 44.6014 85.8851C44.735 85.9639 44.8569 86.0633 44.9634 86.1801L44.3764 86.5451C44.3308 86.5705 44.2905 86.6055 44.258 86.6479C44.2254 86.6904 44.2012 86.7396 44.1868 86.7923C44.1724 86.8451 44.1682 86.9005 44.1744 86.9551C44.1805 87.0097 44.197 87.0623 44.2227 87.1099C44.2483 87.1575 44.2828 87.1991 44.3239 87.232C44.365 87.265 44.4119 87.2887 44.4617 87.3017C44.5116 87.3147 44.5635 87.3167 44.6141 87.3077C44.6647 87.2987 44.7131 87.2787 44.7564 87.2491L45.3434 86.8861C45.3853 87.0435 45.4051 87.2066 45.4024 87.3701C45.4009 87.4778 45.4393 87.5817 45.5092 87.6592C45.5791 87.7366 45.6748 87.7811 45.7754 87.7831H45.7824C45.8819 87.7831 45.9774 87.7414 46.0485 87.6667C46.1195 87.5921 46.1604 87.4907 46.1624 87.3841C46.1676 87.0726 46.1177 86.7628 46.0154 86.4711L47.5374 85.5311V87.4111C47.2499 87.4619 46.974 87.5705 46.7244 87.7311C46.6788 87.7571 46.6387 87.7927 46.6064 87.8359C46.5741 87.879 46.5504 87.9288 46.5366 87.9821C46.5229 88.0353 46.5194 88.0911 46.5265 88.1458C46.5335 88.2006 46.5509 88.2533 46.5776 88.3006C46.6042 88.348 46.6396 88.389 46.6816 88.4212C46.7235 88.4534 46.7711 88.4761 46.8216 88.4879C46.872 88.4998 46.9241 88.5005 46.9748 88.49C47.0255 88.4796 47.0737 88.4582 47.1164 88.4271C47.247 88.343 47.3885 88.28 47.5364 88.2401V88.8551C47.5364 88.9631 47.5764 89.0666 47.6477 89.1429C47.7189 89.2192 47.8156 89.2621 47.9164 89.2621C48.0172 89.2621 48.1138 89.2192 48.1851 89.1429C48.2563 89.0666 48.2964 88.9631 48.2964 88.8551V88.2401C48.4449 88.2798 48.5871 88.3428 48.7184 88.4271C48.8045 88.4793 48.9063 88.4934 49.002 88.4664C49.0977 88.4395 49.1798 88.3736 49.2308 88.2828C49.2819 88.192 49.2979 88.0835 49.2754 87.9803C49.2529 87.877 49.1937 87.7873 49.1104 87.7301C48.8607 87.5695 48.5848 87.4609 48.2974 87.4101V85.5301L49.8194 86.4711C49.7165 86.763 49.6663 87.0732 49.6714 87.3851C49.6733 87.4917 49.7142 87.5931 49.7853 87.6677C49.8563 87.7424 49.9519 87.7841 50.0514 87.7841H50.0594C50.1093 87.7831 50.1586 87.7716 50.2044 87.7502C50.2502 87.7288 50.2916 87.698 50.3262 87.6594C50.3609 87.6209 50.3881 87.5754 50.4063 87.5256C50.4245 87.4758 50.4334 87.4226 50.4324 87.3691C50.4296 87.2056 50.4495 87.0425 50.4914 86.8851L51.0784 87.2481C51.1216 87.279 51.1702 87.3001 51.2214 87.3101C51.2725 87.3201 51.325 87.3188 51.3756 87.3062C51.4262 87.2935 51.4738 87.27 51.5156 87.2368C51.5574 87.2037 51.5923 87.1618 51.6184 87.1136C51.6444 87.0655 51.6609 87.0121 51.667 86.9568C51.673 86.9016 51.6683 86.8455 51.6533 86.7923C51.6383 86.739 51.6133 86.6896 51.5798 86.647C51.5462 86.6045 51.5049 86.5698 51.4584 86.5451Z" fill="url(#paint7_radial_63_941)" stroke="url(#paint8_radial_63_941)" stroke-width="0.505"/>
<path d="M34.6012 100.925L34.0142 100.562C34.1202 100.445 34.2419 100.345 34.3752 100.266C34.4567 100.21 34.5154 100.123 34.5393 100.023C34.5631 99.9228 34.5503 99.8165 34.5036 99.7258C34.4568 99.6352 34.3795 99.5671 34.2875 99.5353C34.1954 99.5036 34.0956 99.5106 34.0082 99.555C33.7532 99.7059 33.5272 99.9071 33.3422 100.148L31.8202 99.206L33.3422 98.266C33.5268 98.5072 33.7524 98.7087 34.0072 98.86C34.0509 98.8872 34.0993 98.9049 34.1494 98.9118C34.1996 98.9188 34.2506 98.9149 34.2993 98.9005C34.3481 98.8861 34.3937 98.8614 34.4334 98.8279C34.4731 98.7944 34.5062 98.7527 34.5307 98.7053C34.5552 98.6579 34.5706 98.6057 34.5761 98.5519C34.5815 98.498 34.5768 98.4435 34.5624 98.3916C34.5479 98.3397 34.5239 98.2914 34.4917 98.2496C34.4596 98.2078 34.42 98.1732 34.3752 98.148C34.2416 98.0689 34.1196 97.9692 34.0132 97.852L34.6012 97.489C34.6467 97.4636 34.687 97.4287 34.7196 97.3862C34.7522 97.3437 34.7764 97.2945 34.7908 97.2418C34.8051 97.189 34.8094 97.1336 34.8032 97.079C34.797 97.0244 34.7806 96.9718 34.7549 96.9242C34.7292 96.8766 34.6948 96.835 34.6537 96.8021C34.6126 96.7691 34.5657 96.7454 34.5158 96.7324C34.4659 96.7194 34.4141 96.7174 34.3635 96.7264C34.3128 96.7354 34.2644 96.7554 34.2212 96.785L33.6342 97.148C33.5921 96.991 33.5719 96.8283 33.5742 96.665C33.5762 96.5571 33.5381 96.4528 33.4684 96.375C33.3986 96.2972 33.3029 96.2522 33.2022 96.25H33.1952C33.0957 96.25 33.0002 96.2918 32.9291 96.3664C32.858 96.441 32.8172 96.5424 32.8152 96.649C32.8099 96.9605 32.8598 97.2703 32.9622 97.562L31.4402 98.502V96.622C31.7277 96.5712 32.0035 96.4626 32.2532 96.302C32.3337 96.2435 32.3901 96.1542 32.4109 96.0524C32.4318 95.9507 32.4154 95.8442 32.3651 95.755C32.3149 95.6658 32.2346 95.6007 32.1409 95.5729C32.0472 95.5452 31.947 95.557 31.8612 95.606C31.7303 95.6902 31.5884 95.7532 31.4402 95.793V95.178C31.4402 95.0701 31.4002 94.9665 31.3289 94.8902C31.2576 94.8139 31.161 94.771 31.0602 94.771C30.9594 94.771 30.8628 94.8139 30.7915 94.8902C30.7202 94.9665 30.6802 95.0701 30.6802 95.178V95.793C30.532 95.7532 30.3901 95.6902 30.2592 95.606C30.2165 95.5749 30.1683 95.5535 30.1176 95.5431C30.067 95.5326 30.0148 95.5333 29.9644 95.5452C29.914 95.557 29.8663 95.5797 29.8244 95.6119C29.7824 95.6441 29.747 95.6852 29.7204 95.7325C29.6937 95.7798 29.6763 95.8325 29.6693 95.8873C29.6623 95.942 29.6657 95.9978 29.6795 96.0511C29.6932 96.1043 29.7169 96.1541 29.7492 96.1972C29.7815 96.2404 29.8216 96.276 29.8672 96.302C30.1169 96.4626 30.3927 96.5712 30.6802 96.622V98.502L29.1582 97.562C29.2607 97.27 29.3106 96.9599 29.3052 96.648C29.3032 96.5414 29.2623 96.44 29.1913 96.3654C29.1202 96.2908 29.0247 96.249 28.9252 96.249H28.9182C28.8175 96.251 28.7216 96.2957 28.6517 96.3733C28.5818 96.4509 28.5434 96.5551 28.5452 96.663C28.5476 96.8266 28.5274 96.9897 28.4852 97.147L27.8992 96.785C27.8119 96.731 27.7082 96.7164 27.6108 96.7443C27.5135 96.7723 27.4305 96.8405 27.3801 96.934C27.3297 97.0275 27.316 97.1386 27.3421 97.2429C27.3682 97.3471 27.4319 97.436 27.5192 97.49L28.1062 97.852C27.9998 97.9692 27.8778 98.0689 27.7442 98.148C27.6994 98.1732 27.6598 98.2078 27.6277 98.2496C27.5955 98.2914 27.5715 98.3397 27.557 98.3916C27.5426 98.4435 27.5379 98.498 27.5433 98.5519C27.5488 98.6057 27.5642 98.6579 27.5887 98.7053C27.6132 98.7527 27.6463 98.7944 27.686 98.8279C27.7257 98.8614 27.7713 98.8861 27.8201 98.9005C27.8688 98.9149 27.9198 98.9188 27.97 98.9118C28.0201 98.9049 28.0685 98.8872 28.1122 98.86C28.3672 98.7091 28.5932 98.5079 28.7782 98.267L30.3002 99.207L28.7782 100.147C28.5933 99.9058 28.3673 99.7042 28.1122 99.553C28.0685 99.5258 28.0201 99.5081 27.97 99.5012C27.9198 99.4942 27.8688 99.498 27.8201 99.5125C27.7713 99.5269 27.7257 99.5516 27.686 99.5851C27.6463 99.6186 27.6132 99.6603 27.5887 99.7077C27.5642 99.7551 27.5488 99.8072 27.5433 99.8611C27.5379 99.915 27.5426 99.9694 27.557 100.021C27.5715 100.073 27.5955 100.122 27.6277 100.163C27.6598 100.205 27.6994 100.24 27.7442 100.265C27.8778 100.344 27.9998 100.443 28.1062 100.56L27.5192 100.925C27.4736 100.95 27.4334 100.985 27.4008 101.028C27.3682 101.07 27.344 101.119 27.3296 101.172C27.3153 101.225 27.311 101.28 27.3172 101.335C27.3234 101.39 27.3398 101.442 27.3655 101.49C27.3912 101.537 27.4256 101.579 27.4667 101.612C27.5078 101.645 27.5547 101.669 27.6046 101.682C27.6544 101.695 27.7063 101.697 27.7569 101.688C27.8075 101.679 27.8559 101.659 27.8992 101.629L28.4862 101.266C28.5281 101.423 28.548 101.586 28.5452 101.75C28.5437 101.858 28.5821 101.962 28.652 102.039C28.7219 102.116 28.8177 102.161 28.9182 102.163H28.9252C29.0247 102.163 29.1202 102.121 29.1913 102.047C29.2623 101.972 29.3032 101.871 29.3052 101.764C29.3104 101.452 29.2606 101.143 29.1582 100.851L30.6802 99.911V101.791C30.3927 101.842 30.1169 101.95 29.8672 102.111C29.8216 102.137 29.7815 102.173 29.7492 102.216C29.7169 102.259 29.6932 102.309 29.6795 102.362C29.6657 102.415 29.6623 102.471 29.6693 102.526C29.6763 102.58 29.6937 102.633 29.7204 102.68C29.747 102.728 29.7824 102.769 29.8244 102.801C29.8663 102.833 29.914 102.856 29.9644 102.868C30.0148 102.88 30.067 102.88 30.1176 102.87C30.1683 102.859 30.2165 102.838 30.2592 102.807C30.3898 102.723 30.5313 102.66 30.6792 102.62V103.235C30.6792 103.343 30.7192 103.446 30.7905 103.523C30.8618 103.599 30.9584 103.642 31.0592 103.642C31.16 103.642 31.2566 103.599 31.3279 103.523C31.3992 103.446 31.4392 103.343 31.4392 103.235V102.62C31.5877 102.66 31.73 102.723 31.8612 102.807C31.9473 102.859 32.0491 102.873 32.1448 102.846C32.2405 102.819 32.3226 102.753 32.3737 102.663C32.4247 102.572 32.4407 102.463 32.4182 102.36C32.3957 102.257 32.3365 102.167 32.2532 102.11C32.0035 101.949 31.7277 101.841 31.4402 101.79V99.91L32.9622 100.851C32.8594 101.143 32.8091 101.453 32.8142 101.765C32.8162 101.872 32.8571 101.973 32.9281 102.048C32.9992 102.122 33.0947 102.164 33.1942 102.164H33.2022C33.2521 102.163 33.3014 102.152 33.3472 102.13C33.393 102.109 33.4344 102.078 33.469 102.039C33.5037 102.001 33.5309 101.955 33.5491 101.905C33.5673 101.856 33.5762 101.802 33.5752 101.749C33.5724 101.585 33.5923 101.422 33.6342 101.265L34.2212 101.628C34.2644 101.659 34.3131 101.68 34.3642 101.69C34.4153 101.7 34.4678 101.699 34.5184 101.686C34.569 101.673 34.6167 101.65 34.6584 101.617C34.7002 101.584 34.7352 101.542 34.7612 101.494C34.7872 101.445 34.8038 101.392 34.8098 101.337C34.8158 101.281 34.8112 101.225 34.7962 101.172C34.7812 101.119 34.7561 101.069 34.7226 101.027C34.6891 100.984 34.6477 100.95 34.6012 100.925Z" fill="url(#paint9_radial_63_941)" stroke="url(#paint10_radial_63_941)" stroke-width="0.505"/>
<path d="M66.2523 100.925L65.6653 100.562C65.7714 100.445 65.893 100.345 66.0263 100.266C66.1079 100.21 66.1665 100.123 66.1904 100.023C66.2142 99.9228 66.2015 99.8165 66.1547 99.7258C66.1079 99.6352 66.0306 99.5671 65.9386 99.5353C65.8466 99.5036 65.7467 99.5106 65.6593 99.555C65.4043 99.7059 65.1784 99.9071 64.9933 100.148L63.4713 99.206L64.9933 98.266C65.1779 98.5072 65.4036 98.7087 65.6583 98.86C65.702 98.8872 65.7504 98.9049 65.8006 98.9118C65.8507 98.9188 65.9017 98.9149 65.9504 98.9005C65.9992 98.8861 66.0448 98.8614 66.0845 98.8279C66.1243 98.7944 66.1574 98.7527 66.1819 98.7053C66.2064 98.6579 66.2218 98.6057 66.2272 98.5519C66.2326 98.498 66.228 98.4435 66.2135 98.3916C66.199 98.3397 66.175 98.2914 66.1428 98.2496C66.1107 98.2078 66.0711 98.1732 66.0263 98.148C65.8927 98.0689 65.7707 97.9692 65.6643 97.852L66.2523 97.489C66.2979 97.4636 66.3382 97.4287 66.3707 97.3862C66.4033 97.3437 66.4275 97.2945 66.4419 97.2418C66.4562 97.189 66.4605 97.1336 66.4543 97.079C66.4482 97.0244 66.4317 96.9718 66.406 96.9242C66.3803 96.8766 66.3459 96.835 66.3048 96.8021C66.2637 96.7691 66.2168 96.7454 66.1669 96.7324C66.1171 96.7194 66.0652 96.7174 66.0146 96.7264C65.964 96.7354 65.9156 96.7554 65.8723 96.785L65.2853 97.148C65.2432 96.991 65.223 96.8283 65.2253 96.665C65.2273 96.5571 65.1893 96.4528 65.1195 96.375C65.0498 96.2972 64.954 96.2522 64.8533 96.25H64.8463C64.7468 96.25 64.6513 96.2918 64.5802 96.3664C64.5092 96.441 64.4683 96.5424 64.4663 96.649C64.4611 96.9605 64.5109 97.2703 64.6133 97.562L63.0913 98.502V96.622C63.3788 96.5712 63.6546 96.4626 63.9043 96.302C63.9848 96.2435 64.0412 96.1542 64.0621 96.0524C64.0829 95.9507 64.0665 95.8442 64.0163 95.755C63.966 95.6658 63.8858 95.6007 63.792 95.5729C63.6983 95.5452 63.5982 95.557 63.5123 95.606C63.3814 95.6902 63.2395 95.7532 63.0913 95.793V95.178C63.0913 95.0701 63.0513 94.9665 62.98 94.8902C62.9088 94.8139 62.8121 94.771 62.7113 94.771C62.6105 94.771 62.5139 94.8139 62.4426 94.8902C62.3714 94.9665 62.3313 95.0701 62.3313 95.178V95.793C62.1831 95.7532 62.0413 95.6902 61.9103 95.606C61.8676 95.5749 61.8194 95.5535 61.7688 95.5431C61.7181 95.5326 61.6659 95.5333 61.6155 95.5452C61.5651 95.557 61.5175 95.5797 61.4755 95.6119C61.4335 95.6441 61.3982 95.6852 61.3715 95.7325C61.3448 95.7798 61.3275 95.8325 61.3204 95.8873C61.3134 95.942 61.3168 95.9978 61.3306 96.0511C61.3443 96.1043 61.3681 96.1541 61.4003 96.1972C61.4326 96.2404 61.4728 96.276 61.5183 96.302C61.768 96.4626 62.0439 96.5712 62.3313 96.622V98.502L60.8093 97.562C60.9118 97.27 60.9617 96.9599 60.9563 96.648C60.9544 96.5414 60.9135 96.44 60.8424 96.3654C60.7714 96.2908 60.6758 96.249 60.5763 96.249H60.5693C60.4686 96.251 60.3728 96.2957 60.3028 96.3733C60.2329 96.4509 60.1946 96.5551 60.1963 96.663C60.1991 96.8266 60.1792 96.9897 60.1373 97.147L59.5503 96.785C59.463 96.731 59.3593 96.7164 59.262 96.7443C59.1646 96.7723 59.0816 96.8405 59.0312 96.934C58.9808 97.0275 58.9672 97.1386 58.9933 97.2429C59.0193 97.3471 59.083 97.436 59.1703 97.49L59.7573 97.852C59.6509 97.9692 59.529 98.0689 59.3953 98.148C59.3506 98.1732 59.3109 98.2078 59.2788 98.2496C59.2467 98.2914 59.2226 98.3397 59.2082 98.3916C59.1937 98.4435 59.189 98.498 59.1944 98.5519C59.1999 98.6057 59.2153 98.6579 59.2398 98.7053C59.2643 98.7527 59.2974 98.7944 59.3371 98.8279C59.3768 98.8614 59.4224 98.8861 59.4712 98.9005C59.52 98.9149 59.5709 98.9188 59.6211 98.9118C59.6712 98.9049 59.7196 98.8872 59.7633 98.86C60.0183 98.7091 60.2443 98.5079 60.4293 98.267L61.9513 99.207L60.4293 100.147C60.2444 99.9058 60.0184 99.7042 59.7633 99.553C59.7195 99.5245 59.6708 99.5058 59.6201 99.498C59.5694 99.4902 59.5177 99.4934 59.4682 99.5075C59.4187 99.5216 59.3724 99.5463 59.332 99.5801C59.2917 99.6139 59.2581 99.6561 59.2333 99.7041C59.2086 99.7522 59.1931 99.8051 59.188 99.8596C59.1828 99.9142 59.1879 99.9694 59.2032 100.022C59.2184 100.074 59.2434 100.123 59.2765 100.165C59.3097 100.206 59.3505 100.24 59.3963 100.265C59.5295 100.344 59.6512 100.443 59.7573 100.56L59.1703 100.925C59.1248 100.95 59.0845 100.985 59.0519 101.028C59.0193 101.07 58.9951 101.119 58.9808 101.172C58.9664 101.225 58.9622 101.28 58.9683 101.335C58.9745 101.39 58.9909 101.442 59.0166 101.49C59.0423 101.537 59.0767 101.579 59.1178 101.612C59.1589 101.645 59.2058 101.669 59.2557 101.682C59.3056 101.695 59.3574 101.697 59.408 101.688C59.4587 101.679 59.5071 101.659 59.5503 101.629L60.1373 101.266C60.1792 101.423 60.1991 101.586 60.1963 101.75C60.1948 101.858 60.2332 101.962 60.3031 102.039C60.3731 102.116 60.4688 102.161 60.5693 102.163H60.5763C60.6758 102.163 60.7714 102.121 60.8424 102.047C60.9135 101.972 60.9544 101.871 60.9563 101.764C60.9616 101.452 60.9117 101.143 60.8093 100.851L62.3313 99.911V101.791C62.0439 101.842 61.768 101.95 61.5183 102.111C61.4728 102.137 61.4326 102.173 61.4003 102.216C61.3681 102.259 61.3443 102.309 61.3306 102.362C61.3168 102.415 61.3134 102.471 61.3204 102.526C61.3275 102.58 61.3448 102.633 61.3715 102.68C61.3982 102.728 61.4335 102.769 61.4755 102.801C61.5175 102.833 61.5651 102.856 61.6155 102.868C61.6659 102.88 61.7181 102.88 61.7688 102.87C61.8194 102.859 61.8676 102.838 61.9103 102.807C62.0409 102.723 62.1825 102.66 62.3303 102.62V103.235C62.3303 103.343 62.3704 103.446 62.4416 103.523C62.5129 103.599 62.6095 103.642 62.7103 103.642C62.8111 103.642 62.9078 103.599 62.979 103.523C63.0503 103.446 63.0903 103.343 63.0903 103.235V102.62C63.2389 102.66 63.3811 102.723 63.5123 102.807C63.5985 102.859 63.7002 102.873 63.7959 102.846C63.8916 102.819 63.9737 102.753 64.0248 102.663C64.0758 102.572 64.0918 102.463 64.0693 102.36C64.0468 102.257 63.9876 102.167 63.9043 102.11C63.6546 101.949 63.3788 101.841 63.0913 101.79V99.91L64.6133 100.851C64.5105 101.143 64.4603 101.453 64.4653 101.765C64.4673 101.872 64.5082 101.973 64.5792 102.048C64.6503 102.122 64.7458 102.164 64.8453 102.164H64.8533C64.9033 102.163 64.9525 102.152 64.9983 102.13C65.0441 102.109 65.0855 102.078 65.1202 102.039C65.1548 102.001 65.182 101.955 65.2002 101.905C65.2184 101.856 65.2273 101.802 65.2263 101.749C65.2236 101.585 65.2434 101.422 65.2853 101.265L65.8723 101.628C65.9155 101.659 65.9642 101.68 66.0153 101.69C66.0664 101.7 66.1189 101.699 66.1695 101.686C66.2201 101.673 66.2678 101.65 66.3095 101.617C66.3513 101.584 66.3863 101.542 66.4123 101.494C66.4384 101.445 66.4549 101.392 66.4609 101.337C66.4669 101.281 66.4623 101.225 66.4473 101.172C66.4323 101.119 66.4073 101.069 66.3737 101.027C66.3402 100.984 66.2989 100.95 66.2523 100.925Z" fill="url(#paint11_radial_63_941)" stroke="url(#paint12_radial_63_941)" stroke-width="0.505"/>
<defs>
<filter id="filter0_d_63_941" x="13.0413" y="0" width="64.3369" height="74.2998" filterUnits="userSpaceOnUse" color-interpolation-filters="sRGB">
<feFlood flood-opacity="0" result="BackgroundImageFix"/>
<feColorMatrix in="SourceAlpha" type="matrix" values="0 0 0 0 0 0 0 0 0 0 0 0 0 0 0 0 0 0 127 0" result="hardAlpha"/>
<feOffset/>
<feGaussianBlur stdDeviation="1"/>
<feComposite in2="hardAlpha" operator="out"/>
<feColorMatrix type="matrix" values="0 0 0 0 0.278431 0 0 0 0 0.760784 0 0 0 0 0.917647 0 0 0 1 0"/>
<feBlend mode="normal" in2="BackgroundImageFix" result="effect1_dropShadow_63_941"/>
<feBlend mode="normal" in="SourceGraphic" in2="effect1_dropShadow_63_941" result="shape"/>
</filter>
<linearGradient id="paint0_linear_63_941" x1="48.9828" y1="19.6465" x2="49.0495" y2="63.0541" gradientUnits="userSpaceOnUse">
<stop stop-color="#76CDFF"/>
<stop offset="1" stop-color="#126F97"/>
</linearGradient>
<linearGradient id="paint1_linear_63_941" x1="45.2098" y1="2" x2="45.2098" y2="72.3" gradientUnits="userSpaceOnUse">
<stop stop-color="#ACF2F5"/>
<stop offset="1" stop-color="#29B4E7"/>
</linearGradient>
<linearGradient id="paint2_linear_63_941" x1="47.1992" y1="33.7358" x2="47.2652" y2="77.2218" gradientUnits="userSpaceOnUse">
<stop stop-color="#76CDFF"/>
<stop offset="1" stop-color="#126F97"/>
</linearGradient>
<radialGradient id="paint3_radial_63_941" cx="0" cy="0" r="1" gradientUnits="userSpaceOnUse" gradientTransform="translate(14.7273 84.8262) scale(3.99912 4.68743)">
<stop stop-color="#85B2EE"/>
<stop offset="1" stop-color="#DCEEF9"/>
</radialGradient>
<radialGradient id="paint4_radial_63_941" cx="0" cy="0" r="1" gradientUnits="userSpaceOnUse" gradientTransform="translate(14.7273 84.8262) scale(3.99912 4.68743)">
<stop stop-color="#85B2EE"/>
<stop offset="1" stop-color="#DCEEF9"/>
</radialGradient>
<radialGradient id="paint5_radial_63_941" cx="0" cy="0" r="1" gradientUnits="userSpaceOnUse" gradientTransform="translate(81.1172 84.8262) scale(3.99912 4.68743)">
<stop stop-color="#85B2EE"/>
<stop offset="1" stop-color="#DCEEF9"/>
</radialGradient>
<radialGradient id="paint6_radial_63_941" cx="0" cy="0" r="1" gradientUnits="userSpaceOnUse" gradientTransform="translate(81.1172 84.8262) scale(3.99912 4.68743)">
<stop stop-color="#85B2EE"/>
<stop offset="1" stop-color="#DCEEF9"/>
</radialGradient>
<radialGradient id="paint7_radial_63_941" cx="0" cy="0" r="1" gradientUnits="userSpaceOnUse" gradientTransform="translate(47.9224 84.8262) scale(3.99912 4.68743)">
<stop stop-color="#85B2EE"/>
<stop offset="1" stop-color="#DCEEF9"/>
</radialGradient>
<radialGradient id="paint8_radial_63_941" cx="0" cy="0" r="1" gradientUnits="userSpaceOnUse" gradientTransform="translate(47.9224 84.8262) scale(3.99912 4.68743)">
<stop stop-color="#85B2EE"/>
<stop offset="1" stop-color="#DCEEF9"/>
</radialGradient>
<radialGradient id="paint9_radial_63_941" cx="0" cy="0" r="1" gradientUnits="userSpaceOnUse" gradientTransform="translate(31.0662 99.206) scale(3.99912 4.68742)">
<stop stop-color="#85B2EE"/>
<stop offset="1" stop-color="#DCEEF9"/>
</radialGradient>
<radialGradient id="paint10_radial_63_941" cx="0" cy="0" r="1" gradientUnits="userSpaceOnUse" gradientTransform="translate(31.0662 99.206) scale(3.99912 4.68742)">
<stop stop-color="#85B2EE"/>
<stop offset="1" stop-color="#DCEEF9"/>
</radialGradient>
<radialGradient id="paint11_radial_63_941" cx="0" cy="0" r="1" gradientUnits="userSpaceOnUse" gradientTransform="translate(62.7173 99.206) scale(3.99912 4.68742)">
<stop stop-color="#85B2EE"/>
<stop offset="1" stop-color="#DCEEF9"/>
</radialGradient>
<radialGradient id="paint12_radial_63_941" cx="0" cy="0" r="1" gradientUnits="userSpaceOnUse" gradientTransform="translate(62.7173 99.206) scale(3.99912 4.68742)">
<stop stop-color="#85B2EE"/>
<stop offset="1" stop-color="#DCEEF9"/>
</radialGradient>
</defs>
</svg>
