<svg width="109" height="112" viewBox="0 0 109 112" fill="none" xmlns="http://www.w3.org/2000/svg">
<path d="M6.44315 63.9156H96.1101C96.1101 63.9156 106.316 50.4586 92.4901 37.8926C78.9171 25.5566 64.9311 35.1606 64.9311 35.1606C64.9311 35.1606 56.3221 15.7836 40.0191 20.4396C23.7162 25.0986 22.4091 38.5766 22.4091 38.5766C22.4091 38.5766 5.90115 38.9126 3.18315 49.1996C0.465149 59.4866 6.44315 63.9156 6.44315 63.9156Z" fill="url(#paint0_linear_63_401)"/>
<path d="M70.1943 59.4429C81.7923 59.4429 91.1943 50.0409 91.1943 38.4429C91.1943 26.8449 81.7923 17.4429 70.1943 17.4429C58.5964 17.4429 49.1943 26.8449 49.1943 38.4429C49.1943 50.0409 58.5964 59.4429 70.1943 59.4429Z" fill="url(#paint1_linear_63_401)"/>
<path d="M105.194 38.3547L96.5436 38.3635ZM94.9129 13.5548L88.802 19.6781ZM70.1071 3.28955L70.1159 11.9402ZM45.3073 13.5702L51.4306 19.6811ZM35.0413 38.3767L43.6926 38.3679ZM45.3226 63.1758L51.4335 57.0525ZM70.1284 73.4418L70.1196 64.7912ZM94.9283 63.1604L88.805 57.0496Z" fill="#FFDB4A"/>
<path d="M105.194 38.3547L96.5436 38.3635M94.9129 13.5548L88.802 19.6781M70.1071 3.28955L70.1159 11.9402M45.3073 13.5702L51.4306 19.6811M35.0413 38.3767L43.6926 38.3679M45.3226 63.1758L51.4335 57.0525M70.1284 73.4418L70.1196 64.7912M94.9283 63.1604L88.805 57.0496" stroke="#FFEEAA" stroke-width="4.157" stroke-linecap="round"/>
<g opacity="0.723473" filter="url(#filter0_f_63_401)">
<path d="M46.1401 62.3571L50.6161 57.8721Z" fill="#61552C"/>
<path d="M46.1401 62.3571L50.6161 57.8721" stroke="#FFA604" stroke-width="3.04484" stroke-linecap="round"/>
</g>
<g opacity="0.723473" filter="url(#filter1_f_63_401)">
<path d="M36.2026 38.3746L42.539 38.3681Z" fill="#61552C"/>
<path d="M36.2026 38.3746L42.539 38.3681" stroke="#FFA604" stroke-width="3.04484" stroke-linecap="round"/>
</g>
<g opacity="0.723473" filter="url(#filter2_f_63_401)">
<path d="M46.1333 14.3892L50.6184 18.8651Z" fill="#61552C"/>
<path d="M46.1333 14.3892L50.6184 18.8651" stroke="#FFA604" stroke-width="3.04484" stroke-linecap="round"/>
</g>
<g opacity="0.723473" filter="url(#filter3_f_63_401)">
<path d="M70.1157 4.45211L70.1221 10.7885Z" fill="#61552C"/>
<path d="M70.1157 4.45211L70.1221 10.7885" stroke="#FFA604" stroke-width="3.04484" stroke-linecap="round"/>
</g>
<g opacity="0.723473" filter="url(#filter4_f_63_401)">
<path d="M94.1023 14.3826L89.6263 18.8677Z" fill="#61552C"/>
<path d="M94.1023 14.3826L89.6263 18.8677" stroke="#FFA604" stroke-width="3.04484" stroke-linecap="round"/>
</g>
<g opacity="0.723473" filter="url(#filter5_f_63_401)">
<path d="M104.04 38.3652L97.7039 38.3716Z" fill="#61552C"/>
<path d="M104.04 38.3652L97.7039 38.3716" stroke="#FFA604" stroke-width="3.04484" stroke-linecap="round"/>
</g>
<g opacity="0.723473" filter="url(#filter6_f_63_401)">
<path d="M94.1081 62.3491L89.623 57.8732Z" fill="#61552C"/>
<path d="M94.1081 62.3491L89.623 57.8732" stroke="#FFA604" stroke-width="3.04484" stroke-linecap="round"/>
</g>
<g opacity="0.723473" filter="url(#filter7_f_63_401)">
<path d="M70.1255 72.2881L70.1191 65.9517Z" fill="#61552C"/>
<path d="M70.1255 72.2881L70.1191 65.9517" stroke="#FFA604" stroke-width="3.04484" stroke-linecap="round"/>
</g>
<g filter="url(#filter8_f_63_401)">
<path d="M70.1943 58.4429C81.24 58.4429 90.1943 49.4886 90.1943 38.4429C90.1943 27.3972 81.24 18.4429 70.1943 18.4429C59.1486 18.4429 50.1943 27.3972 50.1943 38.4429C50.1943 49.4886 59.1486 58.4429 70.1943 58.4429Z" fill="url(#paint2_linear_63_401)"/>
</g>
<path d="M3.96817 78.0854H93.6352C93.6352 78.0854 104.867 64.8933 93.9052 49.7643C82.2752 33.7153 63.1632 47.0323 63.1632 47.0323C63.1632 47.0323 53.8472 29.9523 37.5442 34.6113C21.2412 39.2703 20.4652 53.6313 20.4652 53.6313C20.4652 53.6313 3.42517 53.0823 0.70817 63.3693C-2.00883 73.6563 3.96817 78.0854 3.96817 78.0854Z" fill="url(#paint3_linear_63_401)"/>
<path d="M20.0472 87.1335L19.4602 86.7705C19.5663 86.6533 19.6879 86.5536 19.8212 86.4745C19.9028 86.4188 19.9615 86.332 19.9853 86.2316C20.0092 86.1313 19.9964 86.025 19.9496 85.9343C19.9028 85.8437 19.8256 85.7756 19.7335 85.7438C19.6415 85.7121 19.5416 85.7191 19.4542 85.7635C19.1993 85.9144 18.9733 86.1156 18.7882 86.3565L17.2662 85.4145L18.7882 84.4745C18.9728 84.7157 19.1985 84.9172 19.4532 85.0685C19.497 85.0957 19.5453 85.1134 19.5955 85.1203C19.6457 85.1273 19.6966 85.1234 19.7454 85.109C19.7941 85.0946 19.8397 85.0699 19.8795 85.0364C19.9192 85.0029 19.9523 84.9612 19.9768 84.9138C20.0013 84.8664 20.0167 84.8142 20.0221 84.7604C20.0276 84.7065 20.0229 84.652 20.0084 84.6001C19.9939 84.5482 19.9699 84.4999 19.9378 84.4581C19.9056 84.4163 19.866 84.3817 19.8212 84.3565C19.6876 84.2774 19.5656 84.1777 19.4592 84.0605L20.0472 83.6975C20.0928 83.6721 20.1331 83.6372 20.1657 83.5947C20.1982 83.5522 20.2224 83.503 20.2368 83.4503C20.2512 83.3975 20.2554 83.3421 20.2492 83.2875C20.2431 83.2329 20.2267 83.1803 20.201 83.1327C20.1753 83.0851 20.1408 83.0435 20.0997 83.0106C20.0587 82.9776 20.0118 82.9539 19.9619 82.9409C19.912 82.9279 19.8602 82.9259 19.8095 82.9349C19.7589 82.9439 19.7105 82.9639 19.6672 82.9935L19.0802 83.3565C19.0381 83.1995 19.0179 83.0368 19.0202 82.8735C19.0222 82.7656 18.9842 82.6613 18.9144 82.5835C18.8447 82.5057 18.7489 82.4607 18.6482 82.4585H18.6412C18.5417 82.4585 18.4462 82.5003 18.3751 82.5749C18.3041 82.6495 18.2632 82.7509 18.2612 82.8575C18.256 83.169 18.3059 83.4788 18.4082 83.7705L16.8862 84.7105V82.8305C17.1737 82.7797 17.4496 82.6711 17.6992 82.5105C17.7797 82.452 17.8362 82.3627 17.857 82.2609C17.8778 82.1592 17.8614 82.0527 17.8112 81.9635C17.7609 81.8743 17.6807 81.8092 17.5869 81.7814C17.4932 81.7537 17.3931 81.7655 17.3072 81.8145C17.1763 81.8987 17.0344 81.9617 16.8862 82.0015V81.3865C16.8862 81.2786 16.8462 81.175 16.7749 81.0987C16.7037 81.0224 16.607 80.9795 16.5062 80.9795C16.4055 80.9795 16.3088 81.0224 16.2375 81.0987C16.1663 81.175 16.1262 81.2786 16.1262 81.3865V82.0015C15.978 81.9617 15.8362 81.8987 15.7052 81.8145C15.6625 81.7834 15.6144 81.762 15.5637 81.7516C15.513 81.7411 15.4609 81.7418 15.4104 81.7537C15.36 81.7655 15.3124 81.7882 15.2704 81.8204C15.2285 81.8526 15.1931 81.8937 15.1664 81.941C15.1398 81.9883 15.1224 82.041 15.1153 82.0958C15.1083 82.1505 15.1118 82.2063 15.1255 82.2596C15.1392 82.3128 15.163 82.3626 15.1953 82.4057C15.2275 82.4489 15.2677 82.4845 15.3132 82.5105C15.5629 82.6711 15.8388 82.7797 16.1262 82.8305V84.7105L14.6042 83.7705C14.7067 83.4785 14.7566 83.1684 14.7512 82.8565C14.7493 82.7499 14.7084 82.6485 14.6373 82.5739C14.5663 82.4993 14.4707 82.4575 14.3712 82.4575H14.3642C14.2635 82.4595 14.1677 82.5042 14.0977 82.5818C14.0278 82.6594 13.9895 82.7636 13.9912 82.8715C13.9937 83.0351 13.9735 83.1982 13.9312 83.3555L13.3452 82.9935C13.258 82.9395 13.1542 82.9249 13.0569 82.9528C12.9595 82.9808 12.8765 83.049 12.8261 83.1425C12.7757 83.236 12.7621 83.3471 12.7882 83.4514C12.8143 83.5556 12.878 83.6445 12.9652 83.6985L13.5522 84.0605C13.4459 84.1777 13.3239 84.2774 13.1902 84.3565C13.1455 84.3817 13.1059 84.4163 13.0737 84.4581C13.0416 84.4999 13.0176 84.5482 13.0031 84.6001C12.9886 84.652 12.9839 84.7065 12.9894 84.7604C12.9948 84.8142 13.0102 84.8664 13.0347 84.9138C13.0592 84.9612 13.0923 85.0029 13.132 85.0364C13.1718 85.0699 13.2174 85.0946 13.2661 85.109C13.3149 85.1234 13.3658 85.1273 13.416 85.1203C13.4662 85.1134 13.5145 85.0957 13.5582 85.0685C13.8132 84.9176 14.0392 84.7164 14.2242 84.4755L15.7462 85.4155L14.2242 86.3555C14.0393 86.1143 13.8133 85.9127 13.5582 85.7615C13.5145 85.7343 13.4662 85.7166 13.416 85.7097C13.3658 85.7027 13.3149 85.7066 13.2661 85.721C13.2174 85.7354 13.1718 85.7601 13.132 85.7936C13.0923 85.8271 13.0592 85.8688 13.0347 85.9162C13.0102 85.9636 12.9948 86.0157 12.9894 86.0696C12.9839 86.1235 12.9886 86.1779 13.0031 86.2299C13.0176 86.2818 13.0416 86.3301 13.0737 86.3719C13.1059 86.4137 13.1455 86.4483 13.1902 86.4735C13.3238 86.5522 13.4458 86.6516 13.5522 86.7685L12.9652 87.1335C12.9197 87.1589 12.8794 87.1938 12.8468 87.2363C12.8143 87.2788 12.79 87.3279 12.7757 87.3807C12.7613 87.4335 12.7571 87.4889 12.7632 87.5435C12.7694 87.598 12.7858 87.6507 12.8115 87.6983C12.8372 87.7459 12.8716 87.7875 12.9127 87.8204C12.9538 87.8534 13.0007 87.8771 13.0506 87.8901C13.1005 87.9031 13.1523 87.9051 13.203 87.8961C13.2536 87.8871 13.302 87.8671 13.3452 87.8375L13.9322 87.4745C13.9741 87.6318 13.994 87.7949 13.9912 87.9585C13.9897 88.0662 14.0282 88.1701 14.0981 88.2475C14.168 88.3249 14.2637 88.3695 14.3642 88.3715H14.3712C14.4707 88.3715 14.5663 88.3297 14.6373 88.2551C14.7084 88.1805 14.7493 88.079 14.7512 87.9725C14.7565 87.661 14.7066 87.3512 14.6042 87.0595L16.1262 86.1195V87.9995C15.8388 88.0503 15.5629 88.1588 15.3132 88.3195C15.2677 88.3455 15.2275 88.3811 15.1953 88.4243C15.163 88.4674 15.1392 88.5171 15.1255 88.5704C15.1118 88.6237 15.1083 88.6794 15.1153 88.7342C15.1224 88.789 15.1398 88.8416 15.1664 88.889C15.1931 88.9363 15.2285 88.9774 15.2704 89.0096C15.3124 89.0418 15.36 89.0645 15.4104 89.0763C15.4609 89.0882 15.513 89.0889 15.5637 89.0784C15.6144 89.068 15.6625 89.0465 15.7052 89.0155C15.8359 88.9314 15.9774 88.8683 16.1252 88.8285V89.4435C16.1252 89.5514 16.1653 89.655 16.2365 89.7313C16.3078 89.8076 16.4045 89.8505 16.5052 89.8505C16.606 89.8505 16.7027 89.8076 16.7739 89.7313C16.8452 89.655 16.8852 89.5514 16.8852 89.4435V88.8285C17.0338 88.8681 17.176 88.9312 17.3072 89.0155C17.3934 89.0676 17.4951 89.0817 17.5908 89.0548C17.6865 89.0278 17.7687 88.962 17.8197 88.8712C17.8708 88.7804 17.8868 88.6718 17.8643 88.5686C17.8418 88.4654 17.7826 88.3757 17.6992 88.3185C17.4496 88.1578 17.1737 88.0493 16.8862 87.9985V86.1185L18.4082 87.0595C18.3054 87.3514 18.2552 87.6616 18.2602 87.9735C18.2622 88.08 18.3031 88.1815 18.3741 88.2561C18.4452 88.3307 18.5407 88.3725 18.6402 88.3725H18.6482C18.6982 88.3715 18.7475 88.36 18.7933 88.3386C18.839 88.3172 18.8804 88.2864 18.9151 88.2478C18.9497 88.2093 18.9769 88.1638 18.9952 88.114C19.0134 88.0642 19.0222 88.011 19.0212 87.9575C19.0185 87.7939 19.0384 87.6308 19.0802 87.4735L19.6672 87.8365C19.7104 87.8674 19.7591 87.8885 19.8102 87.8985C19.8613 87.9085 19.9138 87.9071 19.9644 87.8945C20.015 87.8819 20.0627 87.8583 20.1045 87.8252C20.1462 87.7921 20.1812 87.7502 20.2072 87.702C20.2333 87.6539 20.2498 87.6005 20.2558 87.5452C20.2618 87.4899 20.2572 87.4339 20.2422 87.3806C20.2272 87.3274 20.2022 87.2779 20.1686 87.2354C20.1351 87.1929 20.0938 87.1582 20.0472 87.1335Z" fill="url(#paint4_radial_63_401)" stroke="url(#paint5_radial_63_401)" stroke-width="0.505"/>
<path d="M89.8212 87.1325L89.2342 86.7695C89.3402 86.6524 89.4619 86.5526 89.5952 86.4735C89.6767 86.4179 89.7354 86.331 89.7592 86.2307C89.7831 86.1303 89.7703 86.024 89.7235 85.9334C89.6768 85.8427 89.5995 85.7746 89.5074 85.7429C89.4154 85.7111 89.3155 85.7181 89.2282 85.7625C88.9732 85.9134 88.7472 86.1146 88.5622 86.3555L87.0402 85.4135L88.5622 84.4735C88.7468 84.7147 88.9724 84.9163 89.2272 85.0675C89.2709 85.0948 89.3193 85.1124 89.3694 85.1193C89.4196 85.1263 89.4705 85.1225 89.5193 85.1081C89.5681 85.0936 89.6136 85.069 89.6534 85.0354C89.6931 85.0019 89.7262 84.9602 89.7507 84.9128C89.7752 84.8654 89.7906 84.8133 89.796 84.7594C89.8015 84.7055 89.7968 84.6511 89.7823 84.5992C89.7678 84.5472 89.7438 84.499 89.7117 84.4571C89.6795 84.4153 89.6399 84.3807 89.5952 84.3555C89.4615 84.2765 89.3395 84.1767 89.2332 84.0595L89.8212 83.6965C89.8667 83.6712 89.907 83.6362 89.9396 83.5937C89.9722 83.5512 89.9964 83.5021 90.0107 83.4493C90.0251 83.3965 90.0293 83.3411 90.0232 83.2866C90.017 83.232 90.0006 83.1793 89.9749 83.1317C89.9492 83.0841 89.9148 83.0425 89.8737 83.0096C89.8326 82.9766 89.7857 82.9529 89.7358 82.9399C89.6859 82.9269 89.6341 82.9249 89.5835 82.9339C89.5328 82.943 89.4844 82.9629 89.4412 82.9925L88.8542 83.3555C88.812 83.1986 88.7918 83.0358 88.7942 82.8725C88.7962 82.7647 88.7581 82.6604 88.6884 82.5826C88.6186 82.5047 88.5229 82.4598 88.4222 82.4575H88.4152C88.3157 82.4575 88.2201 82.4993 88.1491 82.5739C88.078 82.6485 88.0371 82.75 88.0352 82.8565C88.0299 83.168 88.0798 83.4778 88.1822 83.7695L86.6602 84.7095V82.8295C86.9476 82.7788 87.2235 82.6702 87.4732 82.5095C87.5536 82.451 87.6101 82.3617 87.6309 82.2599C87.6517 82.1582 87.6353 82.0518 87.5851 81.9626C87.5349 81.8734 87.4546 81.8082 87.3609 81.7805C87.2671 81.7527 87.167 81.7646 87.0812 81.8135C86.9502 81.8978 86.8084 81.9608 86.6602 82.0005V81.3855C86.6602 81.2776 86.6201 81.1741 86.5489 81.0977C86.4776 81.0214 86.3809 80.9785 86.2802 80.9785C86.1794 80.9785 86.0827 81.0214 86.0115 81.0977C85.9402 81.1741 85.9002 81.2776 85.9002 81.3855V82.0005C85.752 81.9608 85.6101 81.8978 85.4792 81.8135C85.4365 81.7825 85.3883 81.7611 85.3376 81.7506C85.2869 81.7401 85.2348 81.7409 85.1844 81.7527C85.1339 81.7645 85.0863 81.7872 85.0443 81.8194C85.0024 81.8517 84.967 81.8927 84.9403 81.94C84.9137 81.9874 84.8963 82.04 84.8893 82.0948C84.8822 82.1496 84.8857 82.2053 84.8994 82.2586C84.9132 82.3119 84.9369 82.3616 84.9692 82.4047C85.0015 82.4479 85.0416 82.4835 85.0872 82.5095C85.3368 82.6702 85.6127 82.7788 85.9002 82.8295V84.7095L84.3782 83.7695C84.4807 83.4775 84.5305 83.1674 84.5252 82.8555C84.5232 82.749 84.4823 82.6475 84.4113 82.5729C84.3402 82.4983 84.2447 82.4565 84.1452 82.4565H84.1382C84.0375 82.4585 83.9416 82.5032 83.8717 82.5808C83.8017 82.6585 83.7634 82.7627 83.7652 82.8705C83.7676 83.0341 83.7474 83.1972 83.7052 83.3545L83.1192 82.9925C83.076 82.9658 83.0282 82.9484 82.9788 82.9415C82.9293 82.9345 82.879 82.938 82.8308 82.9519C82.7826 82.9657 82.7374 82.9896 82.6978 83.0221C82.6582 83.0547 82.625 83.0952 82.6001 83.1415C82.5751 83.1878 82.5589 83.2389 82.5524 83.2919C82.5459 83.3449 82.5492 83.3987 82.5621 83.4504C82.575 83.502 82.5973 83.5504 82.6277 83.5928C82.6581 83.6352 82.6959 83.6708 82.7392 83.6975L83.3262 84.0595C83.2198 84.1767 83.0978 84.2765 82.9642 84.3555C82.9194 84.3807 82.8798 84.4153 82.8476 84.4571C82.8155 84.499 82.7915 84.5472 82.777 84.5992C82.7625 84.6511 82.7579 84.7055 82.7633 84.7594C82.7687 84.8133 82.7841 84.8654 82.8086 84.9128C82.8331 84.9602 82.8662 85.0019 82.906 85.0354C82.9457 85.069 82.9913 85.0936 83.04 85.1081C83.0888 85.1225 83.1398 85.1263 83.1899 85.1193C83.2401 85.1124 83.2884 85.0948 83.3322 85.0675C83.5872 84.9166 83.8131 84.7154 83.9982 84.4745L85.5202 85.4145L83.9982 86.3545C83.8132 86.1133 83.5872 85.9117 83.3322 85.7605C83.2884 85.7333 83.2401 85.7157 83.1899 85.7087C83.1398 85.7017 83.0888 85.7056 83.04 85.72C82.9913 85.7344 82.9457 85.7591 82.906 85.7926C82.8662 85.8261 82.8331 85.8678 82.8086 85.9152C82.7841 85.9626 82.7687 86.0148 82.7633 86.0686C82.7579 86.1225 82.7625 86.177 82.777 86.2289C82.7915 86.2808 82.8155 86.3291 82.8476 86.3709C82.8798 86.4128 82.9194 86.4473 82.9642 86.4725C83.0977 86.5513 83.2197 86.6507 83.3262 86.7675L82.7392 87.1325C82.6936 87.1579 82.6533 87.1929 82.6208 87.2353C82.5882 87.2778 82.564 87.327 82.5496 87.3797C82.5352 87.4325 82.531 87.4879 82.5372 87.5425C82.5433 87.5971 82.5597 87.6498 82.5854 87.6974C82.6111 87.745 82.6456 87.7865 82.6867 87.8194C82.7278 87.8524 82.7747 87.8761 82.8245 87.8891C82.8744 87.9021 82.9262 87.9042 82.9769 87.8951C83.0275 87.8861 83.0759 87.8661 83.1192 87.8365L83.7062 87.4735C83.748 87.6309 83.7679 87.794 83.7652 87.9575C83.7637 88.0652 83.8021 88.1691 83.872 88.2466C83.9419 88.324 84.0376 88.3685 84.1382 88.3705H84.1452C84.2447 88.3705 84.3402 88.3288 84.4113 88.2542C84.4823 88.1795 84.5232 88.0781 84.5252 87.9715C84.5304 87.66 84.4805 87.3502 84.3782 87.0585L85.9002 86.1185V87.9985C85.6127 88.0493 85.3368 88.1579 85.0872 88.3185C85.0416 88.3445 85.0015 88.3801 84.9692 88.4233C84.9369 88.4664 84.9132 88.5162 84.8994 88.5695C84.8857 88.6227 84.8822 88.6785 84.8893 88.7332C84.8963 88.788 84.9137 88.8407 84.9403 88.888C84.967 88.9354 85.0024 88.9764 85.0443 89.0086C85.0863 89.0408 85.1339 89.0635 85.1844 89.0753C85.2348 89.0872 85.2869 89.0879 85.3376 89.0774C85.3883 89.067 85.4365 89.0456 85.4792 89.0145C85.6098 88.9304 85.7513 88.8674 85.8992 88.8275V89.4425C85.8992 89.5505 85.9392 89.654 86.0105 89.7303C86.0817 89.8066 86.1784 89.8495 86.2792 89.8495C86.3799 89.8495 86.4766 89.8066 86.5479 89.7303C86.6191 89.654 86.6592 89.5505 86.6592 89.4425V88.8275C86.8077 88.8672 86.9499 88.9302 87.0812 89.0145C87.1673 89.0667 87.2691 89.0808 87.3648 89.0538C87.4605 89.0269 87.5426 88.961 87.5936 88.8702C87.6447 88.7794 87.6607 88.6709 87.6382 88.5677C87.6157 88.4644 87.5565 88.3747 87.4732 88.3175C87.2235 88.1569 86.9476 88.0483 86.6602 87.9975V86.1175L88.1822 87.0585C88.0793 87.3504 88.0291 87.6606 88.0342 87.9725C88.0361 88.0791 88.077 88.1805 88.1481 88.2552C88.2191 88.3298 88.3147 88.3715 88.4142 88.3715H88.4222C88.4721 88.3705 88.5214 88.359 88.5672 88.3376C88.613 88.3162 88.6544 88.2854 88.689 88.2469C88.7236 88.2083 88.7509 88.1628 88.7691 88.113C88.7873 88.0632 88.7962 88.01 88.7952 87.9565C88.7924 87.793 88.8123 87.6299 88.8542 87.4725L89.4412 87.8355C89.4844 87.8664 89.533 87.8875 89.5842 87.8975C89.6353 87.9075 89.6878 87.9062 89.7384 87.8936C89.789 87.8809 89.8366 87.8574 89.8784 87.8243C89.9202 87.7911 89.9551 87.7492 89.9812 87.701C90.0072 87.6529 90.0237 87.5995 90.0298 87.5442C90.0358 87.489 90.0311 87.4329 90.0161 87.3797C90.0011 87.3264 89.9761 87.277 89.9426 87.2344C89.909 87.1919 89.8677 87.1572 89.8212 87.1325Z" fill="url(#paint6_radial_63_401)" stroke="url(#paint7_radial_63_401)" stroke-width="0.505"/>
<path d="M66.5634 87.1325L65.9764 86.7695C66.0824 86.6524 66.204 86.5526 66.3374 86.4735C66.4189 86.4179 66.4776 86.331 66.5014 86.2307C66.5253 86.1303 66.5125 86.024 66.4657 85.9334C66.4189 85.8427 66.3417 85.7746 66.2496 85.7429C66.1576 85.7111 66.0577 85.7181 65.9704 85.7625C65.7154 85.9134 65.4894 86.1146 65.3044 86.3555L63.7824 85.4135L65.3044 84.4735C65.4889 84.7147 65.7146 84.9163 65.9694 85.0675C66.0131 85.0948 66.0614 85.1124 66.1116 85.1193C66.1618 85.1263 66.2127 85.1225 66.2615 85.1081C66.3102 85.0936 66.3558 85.069 66.3956 85.0354C66.4353 85.0019 66.4684 84.9602 66.4929 84.9128C66.5174 84.8654 66.5328 84.8133 66.5382 84.7594C66.5437 84.7055 66.539 84.6511 66.5245 84.5992C66.51 84.5472 66.486 84.499 66.4539 84.4571C66.4217 84.4153 66.3821 84.3807 66.3374 84.3555C66.2037 84.2765 66.0817 84.1767 65.9754 84.0595L66.5634 83.6965C66.6089 83.6712 66.6492 83.6362 66.6818 83.5937C66.7143 83.5512 66.7386 83.5021 66.7529 83.4493C66.7673 83.3965 66.7715 83.3411 66.7654 83.2866C66.7592 83.232 66.7428 83.1793 66.7171 83.1317C66.6914 83.0841 66.657 83.0425 66.6159 83.0096C66.5748 82.9766 66.5279 82.9529 66.478 82.9399C66.4281 82.9269 66.3763 82.9249 66.3256 82.9339C66.275 82.943 66.2266 82.9629 66.1834 82.9925L65.5964 83.3555C65.5542 83.1986 65.534 83.0358 65.5364 82.8725C65.5384 82.7647 65.5003 82.6604 65.4305 82.5826C65.3608 82.5047 65.2651 82.4598 65.1644 82.4575H65.1574C65.0579 82.4575 64.9623 82.4993 64.8913 82.5739C64.8202 82.6485 64.7793 82.75 64.7774 82.8565C64.7721 83.168 64.822 83.4778 64.9244 83.7695L63.4024 84.7095V82.8295C63.6898 82.7788 63.9657 82.6702 64.2154 82.5095C64.2958 82.451 64.3523 82.3617 64.3731 82.2599C64.3939 82.1582 64.3775 82.0518 64.3273 81.9626C64.2771 81.8734 64.1968 81.8082 64.1031 81.7805C64.0093 81.7527 63.9092 81.7646 63.8234 81.8135C63.6924 81.8978 63.5506 81.9608 63.4024 82.0005V81.3855C63.4024 81.2776 63.3623 81.1741 63.2911 81.0977C63.2198 81.0214 63.1231 80.9785 63.0224 80.9785C62.9216 80.9785 62.8249 81.0214 62.7537 81.0977C62.6824 81.1741 62.6424 81.2776 62.6424 81.3855V82.0005C62.4942 81.9608 62.3523 81.8978 62.2214 81.8135C62.1787 81.7825 62.1305 81.7611 62.0798 81.7506C62.0291 81.7401 61.977 81.7409 61.9265 81.7527C61.8761 81.7645 61.8285 81.7872 61.7865 81.8194C61.7446 81.8517 61.7092 81.8927 61.6825 81.94C61.6559 81.9874 61.6385 82.04 61.6315 82.0948C61.6244 82.1496 61.6279 82.2053 61.6416 82.2586C61.6554 82.3119 61.6791 82.3616 61.7114 82.4047C61.7436 82.4479 61.7838 82.4835 61.8294 82.5095C62.079 82.6702 62.3549 82.7788 62.6424 82.8295V84.7095L61.1204 83.7695C61.2228 83.4775 61.2727 83.1674 61.2674 82.8555C61.2654 82.749 61.2245 82.6475 61.1535 82.5729C61.0824 82.4983 60.9869 82.4565 60.8874 82.4565H60.8804C60.7797 82.4585 60.6838 82.5032 60.6139 82.5808C60.5439 82.6585 60.5056 82.7627 60.5074 82.8705C60.5098 83.0341 60.4896 83.1972 60.4474 83.3545L59.8614 82.9925C59.7741 82.9385 59.6703 82.9239 59.573 82.9519C59.4756 82.9798 59.3926 83.048 59.3422 83.1415C59.2919 83.235 59.2782 83.3461 59.3043 83.4504C59.3304 83.5546 59.3941 83.6435 59.4814 83.6975L60.0684 84.0595C59.962 84.1767 59.84 84.2765 59.7064 84.3555C59.6616 84.3807 59.622 84.4153 59.5898 84.4571C59.5577 84.499 59.5337 84.5472 59.5192 84.5992C59.5047 84.6511 59.5 84.7055 59.5055 84.7594C59.5109 84.8133 59.5263 84.8654 59.5508 84.9128C59.5753 84.9602 59.6084 85.0019 59.6481 85.0354C59.6879 85.069 59.7335 85.0936 59.7822 85.1081C59.831 85.1225 59.8819 85.1263 59.9321 85.1193C59.9823 85.1124 60.0306 85.0948 60.0744 85.0675C60.3293 84.9166 60.5553 84.7154 60.7404 84.4745L62.2624 85.4145L60.7404 86.3545C60.5554 86.1133 60.3294 85.9117 60.0744 85.7605C60.0306 85.7333 59.9823 85.7157 59.9321 85.7087C59.8819 85.7017 59.831 85.7056 59.7822 85.72C59.7335 85.7344 59.6879 85.7591 59.6481 85.7926C59.6084 85.8261 59.5753 85.8678 59.5508 85.9152C59.5263 85.9626 59.5109 86.0148 59.5055 86.0686C59.5 86.1225 59.5047 86.177 59.5192 86.2289C59.5337 86.2808 59.5577 86.3291 59.5898 86.3709C59.622 86.4128 59.6616 86.4473 59.7064 86.4725C59.8399 86.5513 59.9619 86.6507 60.0684 86.7675L59.4814 87.1325C59.4358 87.1579 59.3955 87.1929 59.3629 87.2353C59.3304 87.2778 59.3062 87.327 59.2918 87.3797C59.2774 87.4325 59.2732 87.4879 59.2794 87.5425C59.2855 87.5971 59.3019 87.6498 59.3276 87.6974C59.3533 87.745 59.3878 87.7865 59.4289 87.8194C59.4699 87.8524 59.5168 87.8761 59.5667 87.8891C59.6166 87.9021 59.6684 87.9042 59.7191 87.8951C59.7697 87.8861 59.8181 87.8661 59.8614 87.8365L60.4484 87.4735C60.4902 87.6309 60.5101 87.794 60.5074 87.9575C60.5059 88.0652 60.5443 88.1691 60.6142 88.2466C60.6841 88.324 60.7798 88.3685 60.8804 88.3705H60.8874C60.9869 88.3705 61.0824 88.3288 61.1535 88.2542C61.2245 88.1795 61.2654 88.0781 61.2674 87.9715C61.2726 87.66 61.2227 87.3502 61.1204 87.0585L62.6424 86.1185V87.9985C62.3549 88.0493 62.079 88.1579 61.8294 88.3185C61.7838 88.3445 61.7436 88.3801 61.7114 88.4233C61.6791 88.4664 61.6554 88.5162 61.6416 88.5695C61.6279 88.6227 61.6244 88.6785 61.6315 88.7332C61.6385 88.788 61.6559 88.8407 61.6825 88.888C61.7092 88.9354 61.7446 88.9764 61.7865 89.0086C61.8285 89.0408 61.8761 89.0635 61.9265 89.0753C61.977 89.0872 62.0291 89.0879 62.0798 89.0774C62.1305 89.067 62.1787 89.0456 62.2214 89.0145C62.352 88.9304 62.4935 88.8674 62.6414 88.8275V89.4425C62.6414 89.5505 62.6814 89.654 62.7527 89.7303C62.8239 89.8066 62.9206 89.8495 63.0214 89.8495C63.1221 89.8495 63.2188 89.8066 63.2901 89.7303C63.3613 89.654 63.4014 89.5505 63.4014 89.4425V88.8275C63.5499 88.8672 63.6921 88.9302 63.8234 89.0145C63.9095 89.0667 64.0113 89.0808 64.107 89.0538C64.2027 89.0269 64.2848 88.961 64.3358 88.8702C64.3869 88.7794 64.4029 88.6709 64.3804 88.5677C64.3579 88.4644 64.2987 88.3747 64.2154 88.3175C63.9657 88.1569 63.6898 88.0483 63.4024 87.9975V86.1175L64.9244 87.0585C64.8215 87.3504 64.7713 87.6606 64.7764 87.9725C64.7783 88.0791 64.8192 88.1805 64.8903 88.2552C64.9613 88.3298 65.0569 88.3715 65.1564 88.3715H65.1644C65.2143 88.3705 65.2636 88.359 65.3094 88.3376C65.3551 88.3162 65.3966 88.2854 65.4312 88.2469C65.4658 88.2083 65.4931 88.1628 65.5113 88.113C65.5295 88.0632 65.5383 88.01 65.5374 87.9565C65.5346 87.793 65.5545 87.6299 65.5964 87.4725L66.1834 87.8355C66.2266 87.8664 66.2752 87.8875 66.3263 87.8975C66.3775 87.9075 66.4299 87.9062 66.4806 87.8936C66.5312 87.8809 66.5788 87.8574 66.6206 87.8243C66.6623 87.7911 66.6973 87.7492 66.7234 87.701C66.7494 87.6529 66.7659 87.5995 66.7719 87.5442C66.778 87.489 66.7733 87.4329 66.7583 87.3797C66.7433 87.3264 66.7183 87.277 66.6848 87.2344C66.6512 87.1919 66.6099 87.1572 66.5634 87.1325Z" fill="url(#paint8_radial_63_401)" stroke="url(#paint9_radial_63_401)" stroke-width="0.505"/>
<path d="M33.8163 101.624L33.2293 101.261C33.3353 101.144 33.457 101.044 33.5903 100.965C33.6718 100.909 33.7305 100.822 33.7543 100.722C33.7782 100.622 33.7654 100.515 33.7186 100.425C33.6719 100.334 33.5946 100.266 33.5026 100.234C33.4105 100.202 33.3106 100.209 33.2233 100.254C32.9683 100.405 32.7423 100.606 32.5573 100.847L31.0353 99.9047L32.5573 98.9647C32.7419 99.2059 32.9675 99.4075 33.2223 99.5587C33.266 99.586 33.3144 99.6036 33.3645 99.6105C33.4147 99.6175 33.4657 99.6137 33.5144 99.5993C33.5632 99.5849 33.6088 99.5602 33.6485 99.5266C33.6882 99.4931 33.7213 99.4514 33.7458 99.404C33.7703 99.3566 33.7857 99.3045 33.7912 99.2506C33.7966 99.1968 33.7919 99.1423 33.7774 99.0904C33.763 99.0385 33.7389 98.9902 33.7068 98.9483C33.6747 98.9065 33.6351 98.872 33.5903 98.8467C33.4566 98.7677 33.3347 98.6679 33.2283 98.5507L33.8163 98.1877C33.8618 98.1624 33.9021 98.1274 33.9347 98.0849C33.9673 98.0424 33.9915 97.9933 34.0058 97.9405C34.0202 97.8877 34.0244 97.8323 34.0183 97.7778C34.0121 97.7232 33.9957 97.6705 33.97 97.6229C33.9443 97.5753 33.9099 97.5338 33.8688 97.5008C33.8277 97.4678 33.7808 97.4442 33.7309 97.4311C33.681 97.4181 33.6292 97.4161 33.5786 97.4251C33.5279 97.4342 33.4795 97.4541 33.4363 97.4837L32.8493 97.8467C32.8072 97.6898 32.7869 97.527 32.7893 97.3637C32.7913 97.2559 32.7532 97.1516 32.6835 97.0738C32.6137 96.996 32.518 96.951 32.4173 96.9487H32.4103C32.3108 96.9487 32.2152 96.9905 32.1442 97.0651C32.0731 97.1397 32.0322 97.2412 32.0303 97.3477C32.025 97.6593 32.0749 97.969 32.1773 98.2607L30.6553 99.2007V97.3207C30.9427 97.27 31.2186 97.1614 31.4683 97.0007C31.5487 96.9422 31.6052 96.8529 31.626 96.7511C31.6469 96.6494 31.6305 96.543 31.5802 96.4538C31.53 96.3646 31.4497 96.2994 31.356 96.2717C31.2622 96.2439 31.1621 96.2558 31.0763 96.3047C30.9454 96.389 30.8035 96.452 30.6553 96.4917V95.8767C30.6553 95.7688 30.6152 95.6653 30.544 95.5889C30.4727 95.5126 30.3761 95.4697 30.2753 95.4697C30.1745 95.4697 30.0778 95.5126 30.0066 95.5889C29.9353 95.6653 29.8953 95.7688 29.8953 95.8767V96.4917C29.7471 96.452 29.6052 96.389 29.4743 96.3047C29.4316 96.2737 29.3834 96.2523 29.3327 96.2418C29.282 96.2313 29.2299 96.2321 29.1795 96.2439C29.1291 96.2557 29.0814 96.2785 29.0395 96.3107C28.9975 96.3429 28.9621 96.3839 28.9355 96.4312C28.9088 96.4786 28.8914 96.5312 28.8844 96.586C28.8774 96.6408 28.8808 96.6965 28.8946 96.7498C28.9083 96.8031 28.932 96.8528 28.9643 96.896C28.9966 96.9391 29.0367 96.9747 29.0823 97.0007C29.332 97.1614 29.6078 97.27 29.8953 97.3207V99.2007L28.3733 98.2607C28.4758 97.9687 28.5257 97.6586 28.5203 97.3467C28.5183 97.2402 28.4774 97.1387 28.4064 97.0641C28.3353 96.9895 28.2398 96.9477 28.1403 96.9477H28.1333C28.0326 96.9497 27.9367 96.9944 27.8668 97.072C27.7968 97.1497 27.7585 97.2539 27.7603 97.3617C27.7627 97.5253 27.7425 97.6884 27.7003 97.8457L27.1143 97.4837C27.027 97.4298 26.9233 97.4151 26.8259 97.4431C26.7286 97.471 26.6456 97.5392 26.5952 97.6327C26.5448 97.7262 26.5311 97.8373 26.5572 97.9416C26.5833 98.0459 26.647 98.1348 26.7343 98.1887L27.3213 98.5507C27.2149 98.6679 27.0929 98.7677 26.9593 98.8467C26.9145 98.872 26.8749 98.9065 26.8428 98.9483C26.8106 98.9902 26.7866 99.0385 26.7721 99.0904C26.7576 99.1423 26.753 99.1968 26.7584 99.2506C26.7638 99.3045 26.7793 99.3566 26.8038 99.404C26.8283 99.4514 26.8613 99.4931 26.9011 99.5266C26.9408 99.5602 26.9864 99.5849 27.0352 99.5993C27.0839 99.6137 27.1349 99.6175 27.185 99.6105C27.2352 99.6036 27.2836 99.586 27.3273 99.5587C27.5823 99.4078 27.8083 99.2066 27.9933 98.9657L29.5153 99.9057L27.9933 100.846C27.8083 100.604 27.5824 100.403 27.3273 100.252C27.2836 100.224 27.2352 100.207 27.185 100.2C27.1349 100.193 27.0839 100.197 27.0352 100.211C26.9864 100.226 26.9408 100.25 26.9011 100.284C26.8613 100.317 26.8283 100.359 26.8038 100.406C26.7793 100.454 26.7638 100.506 26.7584 100.56C26.753 100.614 26.7576 100.668 26.7721 100.72C26.7866 100.772 26.8106 100.82 26.8428 100.862C26.8749 100.904 26.9145 100.939 26.9593 100.964C27.0929 101.042 27.2148 101.142 27.3213 101.259L26.7343 101.624C26.6887 101.649 26.6485 101.684 26.6159 101.727C26.5833 101.769 26.5591 101.818 26.5447 101.871C26.5304 101.924 26.5261 101.979 26.5323 102.034C26.5384 102.088 26.5549 102.141 26.5806 102.189C26.6063 102.236 26.6407 102.278 26.6818 102.311C26.7229 102.344 26.7698 102.367 26.8197 102.38C26.8695 102.393 26.9214 102.395 26.972 102.386C27.0226 102.377 27.071 102.357 27.1143 102.328L27.7013 101.965C27.7432 102.122 27.763 102.285 27.7603 102.449C27.7588 102.556 27.7972 102.66 27.8671 102.738C27.937 102.815 28.0327 102.86 28.1333 102.862H28.1403C28.2398 102.862 28.3353 102.82 28.4064 102.745C28.4774 102.671 28.5183 102.569 28.5203 102.463C28.5255 102.151 28.4757 101.841 28.3733 101.55L29.8953 100.61V102.49C29.6078 102.54 29.332 102.649 29.0823 102.81C29.0367 102.836 28.9966 102.871 28.9643 102.914C28.932 102.958 28.9083 103.007 28.8946 103.061C28.8808 103.114 28.8774 103.17 28.8844 103.224C28.8914 103.279 28.9088 103.332 28.9355 103.379C28.9621 103.427 28.9975 103.468 29.0395 103.5C29.0814 103.532 29.1291 103.555 29.1795 103.567C29.2299 103.578 29.282 103.579 29.3327 103.569C29.3834 103.558 29.4316 103.537 29.4743 103.506C29.6049 103.422 29.7464 103.359 29.8943 103.319V103.934C29.8943 104.042 29.9343 104.145 30.0056 104.222C30.0768 104.298 30.1735 104.341 30.2743 104.341C30.3751 104.341 30.4717 104.298 30.543 104.222C30.6143 104.145 30.6543 104.042 30.6543 103.934V103.319C30.8028 103.358 30.945 103.421 31.0763 103.506C31.1624 103.558 31.2642 103.572 31.3599 103.545C31.4556 103.518 31.5377 103.452 31.5888 103.361C31.6398 103.271 31.6558 103.162 31.6333 103.059C31.6108 102.956 31.5516 102.866 31.4683 102.809C31.2186 102.648 30.9427 102.539 30.6553 102.489V100.609L32.1773 101.55C32.0745 101.842 32.0242 102.152 32.0293 102.464C32.0312 102.57 32.0721 102.672 32.1432 102.746C32.2142 102.821 32.3098 102.863 32.4093 102.863H32.4173C32.4672 102.862 32.5165 102.85 32.5623 102.829C32.6081 102.807 32.6495 102.777 32.6841 102.738C32.7188 102.7 32.746 102.654 32.7642 102.604C32.7824 102.554 32.7913 102.501 32.7903 102.448C32.7875 102.284 32.8074 102.121 32.8493 101.964L33.4363 102.327C33.4795 102.358 33.5282 102.379 33.5793 102.389C33.6304 102.399 33.6829 102.397 33.7335 102.385C33.7841 102.372 33.8317 102.349 33.8735 102.315C33.9153 102.282 33.9503 102.24 33.9763 102.192C34.0023 102.144 34.0189 102.091 34.0249 102.035C34.0309 101.98 34.0263 101.924 34.0113 101.871C33.9963 101.818 33.9712 101.768 33.9377 101.726C33.9042 101.683 33.8628 101.648 33.8163 101.624Z" fill="url(#paint10_radial_63_401)" stroke="url(#paint11_radial_63_401)" stroke-width="0.505"/>
<path d="M54.1032 101.624L53.5161 101.261C53.6222 101.144 53.7438 101.044 53.8771 100.965C53.9587 100.909 54.0174 100.822 54.0412 100.722C54.0651 100.622 54.0523 100.515 54.0055 100.425C53.9587 100.334 53.8815 100.266 53.7894 100.234C53.6974 100.202 53.5975 100.209 53.5102 100.254C53.2552 100.405 53.0292 100.606 52.8442 100.847L51.3221 99.9047L52.8442 98.9647C53.0287 99.2059 53.2544 99.4075 53.5091 99.5587C53.5529 99.586 53.6012 99.6036 53.6514 99.6105C53.7016 99.6175 53.7525 99.6137 53.8013 99.5993C53.85 99.5849 53.8956 99.5602 53.9354 99.5266C53.9751 99.4931 54.0082 99.4514 54.0327 99.404C54.0572 99.3566 54.0726 99.3045 54.078 99.2506C54.0835 99.1968 54.0788 99.1423 54.0643 99.0904C54.0498 99.0385 54.0258 98.9902 53.9937 98.9483C53.9615 98.9065 53.9219 98.872 53.8771 98.8467C53.7435 98.7677 53.6215 98.6679 53.5152 98.5507L54.1032 98.1877C54.1487 98.1624 54.189 98.1274 54.2216 98.0849C54.2541 98.0424 54.2783 97.9933 54.2927 97.9405C54.3071 97.8877 54.3113 97.8323 54.3052 97.7778C54.299 97.7232 54.2826 97.6705 54.2569 97.6229C54.2312 97.5753 54.1967 97.5338 54.1557 97.5008C54.1146 97.4678 54.0677 97.4442 54.0178 97.4311C53.9679 97.4181 53.9161 97.4161 53.8654 97.4251C53.8148 97.4342 53.7664 97.4541 53.7232 97.4837L53.1362 97.8467C53.094 97.6898 53.0738 97.527 53.0762 97.3637C53.0782 97.2559 53.0401 97.1516 52.9703 97.0738C52.9006 96.996 52.8048 96.951 52.7041 96.9487H52.6971C52.5976 96.9487 52.5021 96.9905 52.4311 97.0651C52.36 97.1397 52.3191 97.2412 52.3172 97.3477C52.3119 97.6593 52.3618 97.969 52.4642 98.2607L50.9422 99.2007V97.3207C51.2296 97.27 51.5055 97.1614 51.7552 97.0007C51.8356 96.9422 51.8921 96.8529 51.9129 96.7511C51.9337 96.6494 51.9173 96.543 51.8671 96.4538C51.8169 96.3646 51.7366 96.2994 51.6429 96.2717C51.5491 96.2439 51.449 96.2558 51.3631 96.3047C51.2322 96.389 51.0903 96.452 50.9422 96.4917V95.8767C50.9422 95.7688 50.9021 95.6653 50.8309 95.5889C50.7596 95.5126 50.6629 95.4697 50.5622 95.4697C50.4614 95.4697 50.3647 95.5126 50.2935 95.5889C50.2222 95.6653 50.1821 95.7688 50.1821 95.8767V96.4917C50.034 96.452 49.8921 96.389 49.7612 96.3047C49.7184 96.2737 49.6703 96.2523 49.6196 96.2418C49.5689 96.2313 49.5168 96.2321 49.4663 96.2439C49.4159 96.2557 49.3683 96.2785 49.3263 96.3107C49.2844 96.3429 49.249 96.3839 49.2223 96.4312C49.1957 96.4786 49.1783 96.5312 49.1713 96.586C49.1642 96.6408 49.1677 96.6965 49.1814 96.7498C49.1952 96.8031 49.2189 96.8528 49.2512 96.896C49.2834 96.9391 49.3236 96.9747 49.3692 97.0007C49.6188 97.1614 49.8947 97.27 50.1821 97.3207V99.2007L48.6602 98.2607C48.7626 97.9687 48.8125 97.6586 48.8072 97.3467C48.8052 97.2402 48.7643 97.1387 48.6932 97.0641C48.6222 96.9895 48.5267 96.9477 48.4272 96.9477H48.4202C48.3194 96.9497 48.2236 96.9944 48.1536 97.072C48.0837 97.1497 48.0454 97.2539 48.0472 97.3617C48.0496 97.5253 48.0294 97.6884 47.9872 97.8457L47.4012 97.4837C47.3579 97.457 47.3102 97.4397 47.2607 97.4327C47.2113 97.4257 47.161 97.4292 47.1128 97.4431C47.0646 97.4569 47.0194 97.4808 46.9798 97.5133C46.9402 97.5459 46.907 97.5864 46.882 97.6327C46.8571 97.679 46.8409 97.7301 46.8344 97.7831C46.8279 97.8361 46.8312 97.89 46.8441 97.9416C46.857 97.9932 46.8793 98.0416 46.9097 98.084C46.94 98.1264 46.9779 98.162 47.0212 98.1887L47.6082 98.5507C47.5018 98.6679 47.3798 98.7677 47.2462 98.8467C47.2014 98.872 47.1618 98.9065 47.1296 98.9483C47.0975 98.9902 47.0735 99.0385 47.059 99.0904C47.0445 99.1423 47.0398 99.1968 47.0453 99.2506C47.0507 99.3045 47.0661 99.3566 47.0906 99.404C47.1151 99.4514 47.1482 99.4931 47.1879 99.5266C47.2277 99.5602 47.2733 99.5849 47.322 99.5993C47.3708 99.6137 47.4217 99.6175 47.4719 99.6105C47.5221 99.6036 47.5704 99.586 47.6142 99.5587C47.8691 99.4078 48.0951 99.2066 48.2801 98.9657L49.8022 99.9057L48.2801 100.846C48.0952 100.604 47.8692 100.403 47.6142 100.252C47.5704 100.224 47.5221 100.207 47.4719 100.2C47.4217 100.193 47.3708 100.197 47.322 100.211C47.2733 100.226 47.2277 100.25 47.1879 100.284C47.1482 100.317 47.1151 100.359 47.0906 100.406C47.0661 100.454 47.0507 100.506 47.0453 100.56C47.0398 100.614 47.0445 100.668 47.059 100.72C47.0735 100.772 47.0975 100.82 47.1296 100.862C47.1618 100.904 47.2014 100.939 47.2462 100.964C47.3797 101.042 47.5017 101.142 47.6082 101.259L47.0212 101.624C46.9756 101.649 46.9353 101.684 46.9027 101.727C46.8702 101.769 46.846 101.818 46.8316 101.871C46.8172 101.924 46.813 101.979 46.8192 102.034C46.8253 102.088 46.8417 102.141 46.8674 102.189C46.8931 102.236 46.9276 102.278 46.9686 102.311C47.0097 102.344 47.0566 102.367 47.1065 102.38C47.1564 102.393 47.2082 102.395 47.2589 102.386C47.3095 102.377 47.3579 102.357 47.4012 102.328L47.9881 101.965C48.03 102.122 48.0499 102.285 48.0472 102.449C48.0457 102.556 48.0841 102.66 48.154 102.738C48.2239 102.815 48.3196 102.86 48.4202 102.862H48.4272C48.5267 102.862 48.6222 102.82 48.6932 102.745C48.7643 102.671 48.8052 102.569 48.8072 102.463C48.8124 102.151 48.7625 101.841 48.6602 101.55L50.1821 100.61V102.49C49.8947 102.54 49.6188 102.649 49.3692 102.81C49.3236 102.836 49.2834 102.871 49.2512 102.914C49.2189 102.958 49.1952 103.007 49.1814 103.061C49.1677 103.114 49.1642 103.17 49.1713 103.224C49.1783 103.279 49.1957 103.332 49.2223 103.379C49.249 103.427 49.2844 103.468 49.3263 103.5C49.3683 103.532 49.4159 103.555 49.4663 103.567C49.5168 103.578 49.5689 103.579 49.6196 103.569C49.6703 103.558 49.7184 103.537 49.7612 103.506C49.8918 103.422 50.0333 103.359 50.1812 103.319V103.934C50.1812 104.042 50.2212 104.145 50.2925 104.222C50.3637 104.298 50.4604 104.341 50.5612 104.341C50.6619 104.341 50.7586 104.298 50.8299 104.222C50.9011 104.145 50.9412 104.042 50.9412 103.934V103.319C51.0897 103.358 51.2319 103.421 51.3631 103.506C51.4493 103.558 51.551 103.572 51.6467 103.545C51.7424 103.518 51.8246 103.452 51.8756 103.361C51.9267 103.271 51.9427 103.162 51.9202 103.059C51.8977 102.956 51.8385 102.866 51.7552 102.809C51.5055 102.648 51.2296 102.539 50.9422 102.489V100.609L52.4642 101.55C52.3613 101.842 52.3111 102.152 52.3162 102.464C52.3181 102.57 52.359 102.672 52.4301 102.746C52.5011 102.821 52.5966 102.863 52.6961 102.863H52.7041C52.7541 102.862 52.8034 102.85 52.8492 102.829C52.8949 102.807 52.9363 102.777 52.971 102.738C53.0056 102.7 53.0328 102.654 53.0511 102.604C53.0693 102.554 53.0781 102.501 53.0772 102.448C53.0744 102.284 53.0943 102.121 53.1362 101.964L53.7232 102.327C53.7664 102.358 53.815 102.379 53.8661 102.389C53.9172 102.399 53.9697 102.397 54.0203 102.385C54.071 102.372 54.1186 102.349 54.1604 102.315C54.2021 102.282 54.2371 102.24 54.2632 102.192C54.2892 102.144 54.3057 102.091 54.3117 102.035C54.3177 101.98 54.3131 101.924 54.2981 101.871C54.2831 101.818 54.2581 101.768 54.2246 101.726C54.191 101.683 54.1497 101.648 54.1032 101.624Z" fill="url(#paint12_radial_63_401)" stroke="url(#paint13_radial_63_401)" stroke-width="0.505"/>
<path d="M52.915 90.5976L52.587 90.3946C52.6465 90.3296 52.7145 90.2743 52.789 90.2306C52.8383 90.2015 52.8748 90.1526 52.8904 90.0947C52.9061 90.0368 52.8996 89.9746 52.8724 89.9218C52.8452 89.869 52.7996 89.83 52.7455 89.8133C52.6914 89.7965 52.6333 89.8035 52.584 89.8326C52.4416 89.9168 52.3154 90.0291 52.212 90.1636L51.363 89.6386L52.213 89.1146C52.3159 89.2485 52.4414 89.3605 52.583 89.4446C52.6074 89.4611 52.6347 89.4721 52.6632 89.477C52.6916 89.4818 52.7207 89.4804 52.7487 89.4727C52.7766 89.4651 52.8028 89.4515 52.8257 89.4327C52.8486 89.4138 52.8676 89.3902 52.8816 89.3632C52.8957 89.3362 52.9044 89.3065 52.9073 89.2758C52.9102 89.245 52.9073 89.214 52.8986 89.1845C52.89 89.1551 52.8758 89.1278 52.8569 89.1045C52.8381 89.0811 52.815 89.0621 52.789 89.0486C52.7145 89.0045 52.6464 88.9489 52.587 88.8836L52.915 88.6806C52.9399 88.6661 52.9618 88.6464 52.9795 88.6228C52.9971 88.5991 53.0102 88.5718 53.0179 88.5427C53.0255 88.5135 53.0277 88.483 53.0242 88.4529C53.0206 88.4228 53.0115 88.3938 52.9974 88.3676C52.9832 88.3414 52.9643 88.3184 52.9417 88.3001C52.9192 88.2818 52.8934 88.2686 52.866 88.2611C52.8385 88.2537 52.81 88.2522 52.782 88.2567C52.754 88.2612 52.7272 88.2717 52.703 88.2876L52.375 88.4906C52.3517 88.4028 52.3405 88.3118 52.342 88.2206C52.3427 88.1907 52.3378 88.161 52.3276 88.1332C52.3175 88.1053 52.3024 88.0799 52.283 88.0583C52.2637 88.0368 52.2406 88.0195 52.215 88.0075C52.1895 87.9956 52.1619 87.9891 52.134 87.9886H52.13C52.0745 87.9886 52.0211 88.0119 51.9814 88.0536C51.9418 88.0954 51.919 88.1521 51.918 88.2116C51.915 88.3856 51.9429 88.5586 52 88.7216L51.151 89.2456V88.1966C51.3115 88.1685 51.4656 88.1081 51.605 88.0186C51.6532 87.9873 51.6878 87.9369 51.7013 87.8783C51.7147 87.8198 51.7059 87.7579 51.6767 87.7063C51.6475 87.6547 51.6004 87.6176 51.5457 87.6033C51.491 87.5889 51.4332 87.5983 51.385 87.6296C51.3123 87.6764 51.2334 87.7114 51.151 87.7336V87.3906C51.151 87.3304 51.1287 87.2726 51.089 87.2301C51.0492 87.1875 50.9953 87.1636 50.939 87.1636C50.8828 87.1636 50.8289 87.1875 50.7891 87.2301C50.7494 87.2726 50.727 87.3304 50.727 87.3906V87.7336C50.6443 87.7115 50.5651 87.6765 50.492 87.6296C50.4682 87.6142 50.4417 87.604 50.4142 87.5995C50.3867 87.5951 50.3586 87.5965 50.3315 87.6036C50.3045 87.6108 50.279 87.6236 50.2566 87.6413C50.2342 87.659 50.2153 87.6813 50.2009 87.7068C50.1865 87.7324 50.177 87.7607 50.1728 87.7902C50.1687 87.8197 50.17 87.8498 50.1767 87.8787C50.1834 87.9076 50.1953 87.9349 50.2119 87.9589C50.2284 87.9829 50.2492 88.0032 50.273 88.0186C50.4125 88.1081 50.5666 88.1685 50.727 88.1966V89.2466L49.878 88.7206C49.9352 88.5576 49.9631 88.3846 49.96 88.2106C49.9588 88.1512 49.9359 88.0948 49.8963 88.0533C49.8567 88.0118 49.8035 87.9886 49.748 87.9886H49.744C49.6879 87.9897 49.6344 88.0147 49.5954 88.058C49.5564 88.1013 49.535 88.1594 49.536 88.2196C49.5376 88.3108 49.5264 88.4018 49.503 88.4896L49.175 88.2876C49.1509 88.2717 49.1241 88.2612 49.0961 88.2567C49.0681 88.2522 49.0396 88.2537 49.0121 88.2611C48.9847 88.2686 48.9589 88.2818 48.9364 88.3001C48.9138 88.3184 48.8949 88.3414 48.8807 88.3676C48.8666 88.3938 48.8575 88.4228 48.8539 88.4529C48.8504 88.483 48.8526 88.5135 48.8602 88.5427C48.8679 88.5718 48.881 88.5991 48.8986 88.6228C48.9163 88.6464 48.9382 88.6661 48.963 88.6806L49.291 88.8836C49.2317 88.9489 49.1636 89.0045 49.089 89.0486C49.0635 89.0623 49.0409 89.0814 49.0224 89.1047C49.004 89.128 48.9901 89.1551 48.9817 89.1843C48.9732 89.2135 48.9704 89.2442 48.9733 89.2747C48.9762 89.3051 48.9848 89.3345 48.9987 89.3613C49.0125 89.388 49.0312 89.4115 49.0537 89.4303C49.0762 89.4491 49.102 89.4629 49.1296 89.4708C49.1572 89.4787 49.186 89.4805 49.2142 89.4761C49.2425 89.4718 49.2696 89.4614 49.294 89.4456C49.4365 89.3614 49.5627 89.2491 49.666 89.1146L50.515 89.6386L49.666 90.1626C49.5626 90.0284 49.4364 89.9165 49.294 89.8326C49.2696 89.8167 49.2425 89.8063 49.2142 89.802C49.186 89.7977 49.1572 89.7995 49.1296 89.8074C49.102 89.8152 49.0762 89.829 49.0537 89.8478C49.0312 89.8666 49.0125 89.8901 48.9987 89.9169C48.9848 89.9436 48.9762 89.9731 48.9733 90.0035C48.9704 90.0339 48.9732 90.0646 48.9817 90.0938C48.9901 90.123 49.004 90.1501 49.0224 90.1734C49.0409 90.1968 49.0635 90.2159 49.089 90.2296C49.1636 90.2736 49.2317 90.3292 49.291 90.3946L48.963 90.5976C48.9382 90.612 48.9163 90.6317 48.8986 90.6554C48.881 90.6791 48.8679 90.7063 48.8602 90.7355C48.8526 90.7646 48.8504 90.7952 48.8539 90.8252C48.8575 90.8553 48.8666 90.8843 48.8807 90.9106C48.8949 90.9368 48.9138 90.9597 48.9364 90.978C48.9589 90.9963 48.9847 91.0096 49.0121 91.017C49.0396 91.0245 49.0681 91.026 49.0961 91.0214C49.1241 91.0169 49.1509 91.0064 49.175 90.9906L49.503 90.7876C49.5264 90.8753 49.5376 90.9663 49.536 91.0576C49.5353 91.1176 49.5568 91.1754 49.5957 91.2185C49.6347 91.2616 49.688 91.2864 49.744 91.2876H49.748C49.8035 91.2876 49.8567 91.2644 49.8963 91.2229C49.9359 91.1814 49.9588 91.1249 49.96 91.0656C49.9631 90.8916 49.9352 90.7185 49.878 90.5556L50.728 90.0316V91.0806C50.5672 91.1086 50.4128 91.169 50.273 91.2586C50.2491 91.274 50.2283 91.2944 50.2117 91.3185C50.1952 91.3426 50.1832 91.3699 50.1765 91.399C50.1698 91.428 50.1685 91.4582 50.1727 91.4878C50.1769 91.5173 50.1865 91.5457 50.2009 91.5714C50.2154 91.597 50.2344 91.6193 50.2569 91.637C50.2794 91.6548 50.3049 91.6676 50.3321 91.6747C50.3592 91.6819 50.3874 91.6833 50.415 91.6788C50.4426 91.6743 50.4691 91.664 50.493 91.6486C50.5658 91.6014 50.6446 91.566 50.727 91.5436V91.8866C50.727 91.9468 50.7494 92.0045 50.7891 92.0471C50.8289 92.0897 50.8828 92.1136 50.939 92.1136C50.9953 92.1136 51.0492 92.0897 51.089 92.0471C51.1287 92.0045 51.151 91.9468 51.151 91.8866V91.5436C51.2338 91.5656 51.3129 91.6007 51.386 91.6476C51.4099 91.663 51.4364 91.6732 51.4639 91.6776C51.4914 91.6821 51.5195 91.6807 51.5466 91.6735C51.5736 91.6663 51.599 91.6535 51.6215 91.6358C51.6439 91.6181 51.6628 91.5959 51.6772 91.5703C51.6916 91.5448 51.7011 91.5165 51.7053 91.487C51.7094 91.4575 51.7081 91.4274 51.7014 91.3984C51.6947 91.3695 51.6828 91.3422 51.6662 91.3182C51.6497 91.2942 51.6289 91.274 51.605 91.2586C51.4656 91.1691 51.3115 91.1087 51.151 91.0806V90.0316L52.001 90.5566C51.9435 90.7194 51.9153 90.8925 51.918 91.0666C51.9193 91.1259 51.9421 91.1824 51.9818 91.2239C52.0214 91.2654 52.0746 91.2886 52.13 91.2886H52.134C52.1902 91.2874 52.2437 91.2625 52.2827 91.2192C52.3217 91.1759 52.343 91.1177 52.342 91.0576C52.3405 90.9663 52.3517 90.8753 52.375 90.7876L52.703 90.9896C52.7271 91.0069 52.7543 91.0188 52.7829 91.0244C52.8114 91.0301 52.8407 91.0294 52.869 91.0224C52.8973 91.0154 52.924 91.0022 52.9473 90.9837C52.9707 90.9653 52.9902 90.9418 53.0048 90.9149C53.0193 90.888 53.0286 90.8582 53.0319 90.8273C53.0353 90.7965 53.0326 90.7652 53.0242 90.7354C53.0158 90.7056 53.0018 90.6781 52.983 90.6544C52.9642 90.6306 52.9411 90.6113 52.915 90.5976Z" fill="url(#paint14_radial_63_401)" stroke="url(#paint15_radial_63_401)" stroke-width="0.282"/>
<path d="M76.9211 90.5976L76.5932 90.3946C76.6526 90.3296 76.7206 90.2743 76.7951 90.2306C76.8444 90.2015 76.8809 90.1526 76.8965 90.0947C76.9122 90.0368 76.9057 89.9746 76.8785 89.9218C76.8513 89.869 76.8057 89.83 76.7516 89.8133C76.6975 89.7965 76.6394 89.8035 76.5902 89.8326C76.4477 89.9168 76.3215 90.0291 76.2182 90.1636L75.3692 89.6386L76.2192 89.1146C76.322 89.2485 76.4475 89.3605 76.5891 89.4446C76.6135 89.4611 76.6408 89.4721 76.6693 89.477C76.6977 89.4818 76.7269 89.4804 76.7548 89.4727C76.7828 89.4651 76.809 89.4515 76.8318 89.4327C76.8547 89.4138 76.8737 89.3902 76.8877 89.3632C76.9018 89.3362 76.9105 89.3065 76.9134 89.2758C76.9164 89.245 76.9134 89.214 76.9047 89.1845C76.8961 89.1551 76.8819 89.1278 76.863 89.1045C76.8442 89.0811 76.8211 89.0621 76.7951 89.0486C76.7206 89.0045 76.6525 88.9489 76.5932 88.8836L76.9211 88.6806C76.946 88.6661 76.9679 88.6464 76.9856 88.6228C77.0032 88.5991 77.0163 88.5718 77.024 88.5427C77.0316 88.5135 77.0338 88.483 77.0303 88.4529C77.0267 88.4228 77.0176 88.3938 77.0035 88.3676C76.9893 88.3414 76.9704 88.3184 76.9478 88.3001C76.9253 88.2818 76.8995 88.2686 76.8721 88.2611C76.8446 88.2537 76.8161 88.2522 76.7881 88.2567C76.7601 88.2612 76.7333 88.2717 76.7091 88.2876L76.3811 88.4906C76.3578 88.4028 76.3466 88.3118 76.3481 88.2206C76.3488 88.1907 76.3439 88.161 76.3337 88.1332C76.3236 88.1053 76.3085 88.0799 76.2891 88.0583C76.2698 88.0368 76.2467 88.0195 76.2211 88.0075C76.1956 87.9956 76.168 87.9891 76.1401 87.9886H76.1362C76.0806 87.9886 76.0272 88.0119 75.9875 88.0536C75.9479 88.0954 75.9251 88.1521 75.9242 88.2116C75.9211 88.3856 75.949 88.5586 76.0061 88.7216L75.1571 89.2456V88.1966C75.3176 88.1685 75.4717 88.1081 75.6111 88.0186C75.6593 87.9873 75.6939 87.9369 75.7074 87.8783C75.7208 87.8198 75.712 87.7579 75.6828 87.7063C75.6536 87.6547 75.6065 87.6176 75.5518 87.6033C75.4971 87.5889 75.4393 87.5983 75.3911 87.6296C75.3184 87.6764 75.2395 87.7114 75.1571 87.7336V87.3906C75.1571 87.3304 75.1348 87.2726 75.0951 87.2301C75.0553 87.1875 75.0014 87.1636 74.9451 87.1636C74.8889 87.1636 74.835 87.1875 74.7952 87.2301C74.7555 87.2726 74.7332 87.3304 74.7332 87.3906V87.7336C74.6504 87.7115 74.5713 87.6765 74.4982 87.6296C74.45 87.5985 74.3922 87.5892 74.3376 87.6036C74.283 87.6181 74.236 87.6552 74.207 87.7068C74.178 87.7584 74.1692 87.8202 74.1828 87.8787C74.1963 87.9372 74.231 87.9875 74.2791 88.0186C74.4186 88.1081 74.5727 88.1685 74.7332 88.1966V89.2466L73.8842 88.7206C73.9413 88.5576 73.9692 88.3846 73.9662 88.2106C73.9649 88.1512 73.9421 88.0948 73.9024 88.0533C73.8628 88.0118 73.8096 87.9886 73.7541 87.9886H73.7501C73.694 87.9897 73.6405 88.0147 73.6015 88.058C73.5625 88.1013 73.5411 88.1594 73.5421 88.2196C73.5437 88.3108 73.5325 88.4018 73.5092 88.4896L73.1811 88.2876C73.157 88.2717 73.1302 88.2612 73.1022 88.2567C73.0742 88.2522 73.0457 88.2537 73.0182 88.2611C72.9908 88.2686 72.965 88.2818 72.9425 88.3001C72.9199 88.3184 72.901 88.3414 72.8868 88.3676C72.8727 88.3938 72.8636 88.4228 72.86 88.4529C72.8565 88.483 72.8587 88.5135 72.8663 88.5427C72.874 88.5718 72.8871 88.5991 72.9047 88.6228C72.9224 88.6464 72.9443 88.6661 72.9692 88.6806L73.2971 88.8836C73.2378 88.9489 73.1697 89.0045 73.0952 89.0486C73.0696 89.0623 73.047 89.0814 73.0285 89.1047C73.0101 89.128 72.9962 89.1551 72.9878 89.1843C72.9793 89.2135 72.9765 89.2442 72.9794 89.2747C72.9823 89.3051 72.9909 89.3345 73.0048 89.3613C73.0186 89.388 73.0373 89.4115 73.0598 89.4303C73.0823 89.4491 73.1081 89.4629 73.1357 89.4708C73.1633 89.4787 73.1921 89.4805 73.2203 89.4761C73.2486 89.4718 73.2757 89.4614 73.3002 89.4456C73.4426 89.3614 73.5688 89.2491 73.6721 89.1146L74.5212 89.6386L73.6721 90.1626C73.5687 90.0284 73.4425 89.9165 73.3002 89.8326C73.2757 89.8167 73.2486 89.8063 73.2203 89.802C73.1921 89.7977 73.1633 89.7995 73.1357 89.8074C73.1081 89.8152 73.0823 89.829 73.0598 89.8478C73.0373 89.8666 73.0186 89.8901 73.0048 89.9169C72.9909 89.9436 72.9823 89.9731 72.9794 90.0035C72.9765 90.0339 72.9793 90.0646 72.9878 90.0938C72.9962 90.123 73.0101 90.1501 73.0285 90.1734C73.047 90.1968 73.0696 90.2159 73.0952 90.2296C73.1697 90.2736 73.2378 90.3292 73.2971 90.3946L72.9692 90.5976C72.9443 90.612 72.9224 90.6317 72.9047 90.6554C72.8871 90.6791 72.874 90.7063 72.8663 90.7355C72.8587 90.7646 72.8565 90.7952 72.86 90.8252C72.8636 90.8553 72.8727 90.8843 72.8868 90.9106C72.901 90.9368 72.9199 90.9597 72.9425 90.978C72.965 90.9963 72.9908 91.0096 73.0182 91.017C73.0457 91.0245 73.0742 91.026 73.1022 91.0214C73.1302 91.0169 73.157 91.0064 73.1811 90.9906L73.5092 90.7876C73.5325 90.8753 73.5437 90.9663 73.5421 91.0576C73.5414 91.1176 73.5629 91.1754 73.6018 91.2185C73.6408 91.2616 73.6941 91.2864 73.7501 91.2876H73.7541C73.8096 91.2876 73.8628 91.2644 73.9024 91.2229C73.9421 91.1814 73.9649 91.1249 73.9662 91.0656C73.9692 90.8916 73.9413 90.7185 73.8842 90.5556L74.7342 90.0316V91.0806C74.5733 91.1086 74.4189 91.169 74.2791 91.2586C74.2552 91.274 74.2344 91.2944 74.2178 91.3185C74.2013 91.3426 74.1893 91.3699 74.1826 91.399C74.1759 91.428 74.1746 91.4582 74.1788 91.4878C74.183 91.5173 74.1926 91.5457 74.207 91.5714C74.2215 91.597 74.2405 91.6193 74.263 91.637C74.2855 91.6548 74.311 91.6676 74.3382 91.6747C74.3653 91.6819 74.3935 91.6833 74.4211 91.6788C74.4487 91.6743 74.4752 91.664 74.4991 91.6486C74.5719 91.6014 74.6507 91.566 74.7332 91.5436V91.8866C74.7332 91.9468 74.7555 92.0045 74.7952 92.0471C74.835 92.0897 74.8889 92.1136 74.9451 92.1136C75.0014 92.1136 75.0553 92.0897 75.0951 92.0471C75.1348 92.0045 75.1571 91.9468 75.1571 91.8866V91.5436C75.2399 91.5656 75.319 91.6007 75.3921 91.6476C75.416 91.663 75.4425 91.6732 75.47 91.6776C75.4975 91.6821 75.5256 91.6807 75.5527 91.6735C75.5797 91.6663 75.6052 91.6535 75.6276 91.6358C75.65 91.6181 75.6689 91.5959 75.6833 91.5703C75.6977 91.5448 75.7072 91.5165 75.7114 91.487C75.7155 91.4575 75.7142 91.4274 75.7075 91.3984C75.7008 91.3695 75.6889 91.3422 75.6723 91.3182C75.6558 91.2942 75.635 91.274 75.6111 91.2586C75.4717 91.1691 75.3176 91.1087 75.1571 91.0806V90.0316L76.0072 90.5566C75.9496 90.7194 75.9215 90.8925 75.9242 91.0666C75.9254 91.1259 75.9482 91.1824 75.9879 91.2239C76.0275 91.2654 76.0807 91.2886 76.1362 91.2886H76.1401C76.1963 91.2874 76.2498 91.2625 76.2888 91.2192C76.3278 91.1759 76.3491 91.1177 76.3481 91.0576C76.3466 90.9663 76.3578 90.8753 76.3811 90.7876L76.7091 90.9896C76.7332 91.0069 76.7604 91.0188 76.789 91.0244C76.8175 91.0301 76.8469 91.0294 76.8751 91.0224C76.9034 91.0154 76.9301 91.0022 76.9534 90.9837C76.9768 90.9653 76.9963 90.9418 77.0109 90.9149C77.0254 90.888 77.0347 90.8582 77.038 90.8273C77.0414 90.7965 77.0387 90.7652 77.0303 90.7354C77.0219 90.7056 77.0079 90.6781 76.9891 90.6544C76.9703 90.6306 76.9472 90.6113 76.9211 90.5976Z" fill="url(#paint16_radial_63_401)" stroke="url(#paint17_radial_63_401)" stroke-width="0.282"/>
<path d="M28.9102 90.5976L28.5822 90.3946C28.6416 90.3296 28.7096 90.2743 28.7842 90.2306C28.8335 90.2015 28.8699 90.1526 28.8856 90.0947C28.9012 90.0368 28.8947 89.9746 28.8675 89.9218C28.8403 89.869 28.7947 89.83 28.7406 89.8133C28.6865 89.7965 28.6285 89.8035 28.5792 89.8326C28.4367 89.9168 28.3105 90.0291 28.2072 90.1636L27.3582 89.6386L28.2082 89.1146C28.311 89.2485 28.4365 89.3605 28.5782 89.4446C28.6025 89.4611 28.6298 89.4721 28.6583 89.477C28.6868 89.4818 28.7159 89.4804 28.7438 89.4727C28.7718 89.4651 28.798 89.4515 28.8208 89.4327C28.8437 89.4138 28.8627 89.3902 28.8767 89.3632C28.8908 89.3362 28.8995 89.3065 28.9024 89.2758C28.9054 89.245 28.9024 89.214 28.8937 89.1845C28.8851 89.1551 28.8709 89.1278 28.852 89.1045C28.8332 89.0811 28.8101 89.0621 28.7842 89.0486C28.7096 89.0045 28.6415 88.9489 28.5822 88.8836L28.9102 88.6806C28.935 88.6661 28.9569 88.6464 28.9746 88.6228C28.9922 88.5991 29.0053 88.5718 29.013 88.5427C29.0206 88.5135 29.0228 88.483 29.0193 88.4529C29.0158 88.4228 29.0066 88.3938 28.9925 88.3676C28.9783 88.3414 28.9594 88.3184 28.9368 88.3001C28.9143 88.2818 28.8885 88.2686 28.8611 88.2611C28.8337 88.2537 28.8051 88.2522 28.7771 88.2567C28.7491 88.2612 28.7223 88.2717 28.6982 88.2876L28.3702 88.4906C28.3468 88.4028 28.3356 88.3118 28.3372 88.2206C28.3378 88.1907 28.3329 88.161 28.3228 88.1332C28.3126 88.1053 28.2975 88.0799 28.2782 88.0583C28.2588 88.0368 28.2357 88.0195 28.2101 88.0075C28.1846 87.9956 28.1571 87.9891 28.1292 87.9886H28.1252C28.0696 87.9886 28.0162 88.0119 27.9766 88.0536C27.9369 88.0954 27.9141 88.1521 27.9132 88.2116C27.9101 88.3856 27.938 88.5586 27.9952 88.7216L27.1462 89.2456V88.1966C27.3066 88.1685 27.4607 88.1081 27.6002 88.0186C27.6483 87.9873 27.683 87.9369 27.6964 87.8783C27.7098 87.8198 27.701 87.7579 27.6718 87.7063C27.6426 87.6547 27.5955 87.6176 27.5408 87.6033C27.4861 87.5889 27.4283 87.5983 27.3802 87.6296C27.3074 87.6764 27.2285 87.7114 27.1462 87.7336V87.3906C27.1462 87.3304 27.1238 87.2726 27.0841 87.2301C27.0443 87.1875 26.9904 87.1636 26.9342 87.1636C26.8779 87.1636 26.824 87.1875 26.7843 87.2301C26.7445 87.2726 26.7222 87.3304 26.7222 87.3906V87.7336C26.6395 87.7115 26.5603 87.6765 26.4872 87.6296C26.4633 87.6142 26.4369 87.604 26.4093 87.5995C26.3818 87.5951 26.3537 87.5965 26.3266 87.6036C26.2996 87.6108 26.2742 87.6236 26.2517 87.6413C26.2293 87.659 26.2104 87.6813 26.196 87.7068C26.1816 87.7324 26.1721 87.7607 26.1679 87.7902C26.1638 87.8197 26.1651 87.8498 26.1718 87.8787C26.1785 87.9076 26.1904 87.9349 26.207 87.9589C26.2235 87.9829 26.2443 88.0032 26.2682 88.0186C26.4076 88.1081 26.5617 88.1685 26.7222 88.1966V89.2466L25.8732 88.7206C25.9304 88.5576 25.9582 88.3846 25.9552 88.2106C25.9539 88.1512 25.9311 88.0948 25.8914 88.0533C25.8518 88.0118 25.7986 87.9886 25.7432 87.9886H25.7392C25.683 87.9897 25.6295 88.0147 25.5905 88.058C25.5515 88.1013 25.5302 88.1594 25.5312 88.2196C25.5327 88.3108 25.5216 88.4018 25.4982 88.4896L25.1702 88.2876C25.146 88.2717 25.1192 88.2612 25.0912 88.2567C25.0632 88.2522 25.0347 88.2537 25.0072 88.2611C24.9798 88.2686 24.954 88.2818 24.9315 88.3001C24.9089 88.3184 24.89 88.3414 24.8758 88.3676C24.8617 88.3938 24.8526 88.4228 24.8491 88.4529C24.8455 88.483 24.8477 88.5135 24.8554 88.5427C24.863 88.5718 24.8761 88.5991 24.8937 88.6228C24.9114 88.6464 24.9333 88.6661 24.9582 88.6806L25.2862 88.8836C25.2268 88.9489 25.1587 89.0045 25.0842 89.0486C25.0586 89.0623 25.036 89.0814 25.0175 89.1047C24.9991 89.128 24.9852 89.1551 24.9768 89.1843C24.9683 89.2135 24.9655 89.2442 24.9684 89.2747C24.9713 89.3051 24.98 89.3345 24.9938 89.3613C25.0076 89.388 25.0263 89.4115 25.0488 89.4303C25.0713 89.4491 25.0971 89.4629 25.1247 89.4708C25.1523 89.4787 25.1811 89.4805 25.2093 89.4761C25.2376 89.4718 25.2647 89.4614 25.2892 89.4456C25.4316 89.3614 25.5578 89.2491 25.6612 89.1146L26.5102 89.6386L25.6612 90.1626C25.5577 90.0284 25.4315 89.9165 25.2892 89.8326C25.2647 89.8167 25.2376 89.8063 25.2093 89.802C25.1811 89.7977 25.1523 89.7995 25.1247 89.8074C25.0971 89.8152 25.0713 89.829 25.0488 89.8478C25.0263 89.8666 25.0076 89.8901 24.9938 89.9169C24.98 89.9436 24.9713 89.9731 24.9684 90.0035C24.9655 90.0339 24.9683 90.0646 24.9768 90.0938C24.9852 90.123 24.9991 90.1501 25.0175 90.1734C25.036 90.1968 25.0586 90.2159 25.0842 90.2296C25.1587 90.2736 25.2268 90.3292 25.2862 90.3946L24.9582 90.5976C24.9333 90.612 24.9114 90.6317 24.8937 90.6554C24.8761 90.6791 24.863 90.7063 24.8554 90.7355C24.8477 90.7646 24.8455 90.7952 24.8491 90.8252C24.8526 90.8553 24.8617 90.8843 24.8758 90.9106C24.89 90.9368 24.9089 90.9597 24.9315 90.978C24.954 90.9963 24.9798 91.0096 25.0072 91.017C25.0347 91.0245 25.0632 91.026 25.0912 91.0214C25.1192 91.0169 25.146 91.0064 25.1702 90.9906L25.4982 90.7876C25.5216 90.8753 25.5327 90.9663 25.5312 91.0576C25.5304 91.1176 25.5519 91.1754 25.5908 91.2185C25.6298 91.2616 25.6831 91.2864 25.7392 91.2876H25.7432C25.7986 91.2876 25.8518 91.2644 25.8914 91.2229C25.9311 91.1814 25.9539 91.1249 25.9552 91.0656C25.9582 90.8916 25.9304 90.7185 25.8732 90.5556L26.7232 90.0316V91.0806C26.5623 91.1086 26.4079 91.169 26.2682 91.2586C26.2442 91.274 26.2234 91.2944 26.2068 91.3185C26.1903 91.3426 26.1783 91.3699 26.1716 91.399C26.1649 91.428 26.1636 91.4582 26.1678 91.4878C26.172 91.5173 26.1816 91.5457 26.196 91.5714C26.2105 91.597 26.2295 91.6193 26.252 91.637C26.2745 91.6548 26.3 91.6676 26.3272 91.6747C26.3543 91.6819 26.3825 91.6833 26.4101 91.6788C26.4377 91.6743 26.4642 91.664 26.4882 91.6486C26.5609 91.6014 26.6398 91.566 26.7222 91.5436V91.8866C26.7222 91.9468 26.7445 92.0045 26.7843 92.0471C26.824 92.0897 26.8779 92.1136 26.9342 92.1136C26.9904 92.1136 27.0443 92.0897 27.0841 92.0471C27.1238 92.0045 27.1462 91.9468 27.1462 91.8866V91.5436C27.2289 91.5656 27.3081 91.6007 27.3812 91.6476C27.4293 91.6787 27.4871 91.688 27.5417 91.6735C27.5963 91.659 27.6433 91.6219 27.6723 91.5703C27.7014 91.5187 27.7101 91.4569 27.6965 91.3984C27.683 91.34 27.6483 91.2897 27.6002 91.2586C27.4607 91.1691 27.3066 91.1087 27.1462 91.0806V90.0316L27.9962 90.5566C27.9386 90.7194 27.9105 90.8925 27.9132 91.0666C27.9144 91.1259 27.9373 91.1824 27.9769 91.2239C28.0165 91.2654 28.0697 91.2886 28.1252 91.2886H28.1292C28.1853 91.2874 28.2388 91.2625 28.2778 91.2192C28.3168 91.1759 28.3382 91.1177 28.3372 91.0576C28.3356 90.9663 28.3468 90.8753 28.3702 90.7876L28.6982 90.9896C28.7223 91.0069 28.7494 91.0188 28.778 91.0244C28.8065 91.0301 28.8359 91.0294 28.8642 91.0224C28.8924 91.0154 28.9191 91.0022 28.9424 90.9837C28.9658 90.9653 28.9853 90.9418 28.9999 90.9149C29.0144 90.888 29.0237 90.8582 29.027 90.8273C29.0304 90.7965 29.0278 90.7652 29.0193 90.7354C29.0109 90.7056 28.9969 90.6781 28.9781 90.6544C28.9593 90.6306 28.9362 90.6113 28.9102 90.5976Z" fill="url(#paint18_radial_63_401)" stroke="url(#paint19_radial_63_401)" stroke-width="0.282"/>
<path d="M13.5812 101.651L12.9842 101.282C13.0923 101.164 13.2163 101.062 13.3522 100.982C13.4418 100.929 13.508 100.84 13.5363 100.735C13.5646 100.63 13.5526 100.517 13.5031 100.421C13.4535 100.325 13.3703 100.254 13.2719 100.224C13.1734 100.194 13.0678 100.206 12.9782 100.259C12.7193 100.413 12.4899 100.618 12.3022 100.862L10.7562 99.9054L12.3022 98.9514C12.4899 99.1959 12.7193 99.4002 12.9782 99.5534C13.0226 99.5797 13.0713 99.5963 13.1217 99.6024C13.1721 99.6085 13.2231 99.604 13.2719 99.589C13.3206 99.574 13.3661 99.5489 13.4058 99.5151C13.4454 99.4813 13.4785 99.4394 13.5031 99.392C13.5276 99.3445 13.5432 99.2923 13.5489 99.2384C13.5546 99.1845 13.5503 99.1299 13.5363 99.0778C13.5223 99.0256 13.4988 98.9769 13.4672 98.9345C13.4357 98.892 13.3966 98.8567 13.3522 98.8304C13.2164 98.7503 13.0924 98.6492 12.9842 98.5304L13.5812 98.1614C13.6265 98.1351 13.6664 98.0993 13.6986 98.0562C13.7308 98.0131 13.7546 97.9636 13.7686 97.9105C13.7826 97.8574 13.7865 97.8019 13.7801 97.7471C13.7737 97.6924 13.7571 97.6396 13.7313 97.5918C13.7055 97.5441 13.6711 97.5023 13.63 97.469C13.5888 97.4358 13.5419 97.4116 13.4919 97.3981C13.442 97.3845 13.39 97.3818 13.339 97.3901C13.288 97.3984 13.2391 97.4175 13.1952 97.4464L12.5982 97.8154C12.5557 97.6558 12.5355 97.4903 12.5382 97.3244C12.5393 97.2701 12.5304 97.2161 12.512 97.1655C12.4936 97.1149 12.4661 97.0687 12.431 97.0295C12.3959 96.9903 12.3539 96.9589 12.3074 96.9371C12.2609 96.9153 12.2109 96.9035 12.1602 96.9024H12.1532C12.0521 96.9024 11.955 96.9448 11.8829 97.0205C11.8107 97.0962 11.7691 97.1992 11.7672 97.3074C11.7617 97.624 11.8122 97.9389 11.9162 98.2354L10.3702 99.1904V97.2804C10.6622 97.2288 10.9425 97.1186 11.1962 96.9554C11.2821 96.8979 11.3434 96.8066 11.3669 96.7011C11.3904 96.5957 11.3742 96.4846 11.3218 96.3918C11.2695 96.299 11.1851 96.232 11.087 96.2052C10.9888 96.1783 10.8847 96.1939 10.7972 96.2484C10.6644 96.3339 10.5205 96.3979 10.3702 96.4384V95.8134C10.3702 95.7039 10.3295 95.5988 10.2571 95.5214C10.1847 95.4439 10.0866 95.4004 9.98419 95.4004C9.88181 95.4004 9.78363 95.4439 9.71124 95.5214C9.63885 95.5988 9.59819 95.7039 9.59819 95.8134V96.4384C9.44753 96.398 9.30329 96.334 9.17019 96.2484C9.12676 96.2178 9.07801 96.1969 9.02685 96.187C8.9757 96.1771 8.9232 96.1783 8.8725 96.1906C8.82181 96.203 8.77396 96.2261 8.73183 96.2587C8.6897 96.2913 8.65415 96.3326 8.62733 96.3803C8.60051 96.4279 8.58296 96.4809 8.57573 96.536C8.5685 96.5911 8.57175 96.6471 8.58528 96.7009C8.59881 96.7546 8.62234 96.8048 8.65446 96.8485C8.68657 96.8923 8.72662 96.9286 8.77219 96.9554C9.02579 97.1189 9.30607 97.2295 9.59819 97.2814V99.1894L8.05219 98.2344C8.15651 97.938 8.2074 97.6231 8.20219 97.3064C8.20047 97.1981 8.15905 97.0948 8.08684 97.0189C8.01464 96.9429 7.91744 96.9004 7.81619 96.9004H7.80819C7.75745 96.9014 7.7074 96.913 7.66088 96.9347C7.61437 96.9564 7.5723 96.9877 7.5371 97.0268C7.5019 97.0659 7.47425 97.1121 7.45573 97.1626C7.43722 97.2132 7.4282 97.2671 7.42919 97.3214C7.43199 97.4877 7.41177 97.6535 7.36919 97.8134L6.77319 97.4454C6.72925 97.4165 6.68035 97.3974 6.62938 97.3891C6.57842 97.3808 6.52641 97.3835 6.47644 97.3971C6.42647 97.4106 6.37954 97.4348 6.33842 97.468C6.29731 97.5013 6.26284 97.5431 6.23706 97.5908C6.21127 97.6386 6.19469 97.6914 6.18829 97.7461C6.18189 97.8009 6.1858 97.8564 6.19979 97.9095C6.21379 97.9626 6.23758 98.0121 6.26976 98.0552C6.30195 98.0983 6.34188 98.1341 6.38719 98.1604L6.98319 98.5294C6.8753 98.6481 6.75163 98.7492 6.61619 98.8294C6.57075 98.855 6.53054 98.89 6.49791 98.9324C6.46528 98.9748 6.44088 99.0238 6.42615 99.0764C6.41142 99.129 6.40665 99.1842 6.41211 99.2389C6.41758 99.2935 6.43317 99.3464 6.45798 99.3945C6.4828 99.4426 6.51632 99.4849 6.55661 99.5189C6.59689 99.553 6.64312 99.5781 6.69258 99.5928C6.74205 99.6075 6.79376 99.6115 6.84469 99.6046C6.89562 99.5976 6.94474 99.5799 6.98919 99.5524C7.24837 99.3992 7.47808 99.195 7.66619 98.9504L9.21219 99.9044L7.66619 100.859C7.47846 100.615 7.24909 100.41 6.99019 100.256C6.94582 100.23 6.89705 100.213 6.84666 100.207C6.79627 100.201 6.74525 100.206 6.69651 100.221C6.64777 100.236 6.60227 100.261 6.5626 100.295C6.52293 100.329 6.48988 100.37 6.46532 100.418C6.44076 100.465 6.42518 100.517 6.41948 100.571C6.41377 100.625 6.41804 100.68 6.43205 100.732C6.44606 100.784 6.46953 100.833 6.50113 100.875C6.53272 100.918 6.57182 100.953 6.61619 100.979C6.75199 101.059 6.87599 101.161 6.98419 101.279L6.38719 101.65C6.34188 101.677 6.30195 101.712 6.26976 101.756C6.23758 101.799 6.21379 101.848 6.19979 101.901C6.1858 101.954 6.18189 102.01 6.18829 102.065C6.19469 102.119 6.21127 102.172 6.23706 102.22C6.26284 102.268 6.29731 102.309 6.33842 102.343C6.37954 102.376 6.42647 102.4 6.47644 102.414C6.52641 102.427 6.57842 102.43 6.62938 102.422C6.68035 102.413 6.72925 102.394 6.77319 102.365L7.36919 101.997C7.41159 102.157 7.43181 102.322 7.42919 102.487C7.42832 102.542 7.43747 102.596 7.4561 102.646C7.47474 102.697 7.5025 102.743 7.53779 102.782C7.57309 102.821 7.61522 102.852 7.66179 102.873C7.70836 102.895 7.75845 102.907 7.80919 102.907H7.81519C7.91628 102.907 8.01334 102.865 8.08552 102.789C8.1577 102.714 8.19923 102.611 8.20119 102.502C8.2066 102.186 8.15605 101.872 8.05219 101.575L9.59819 100.62V102.529C9.30613 102.581 9.02585 102.691 8.77219 102.854C8.72874 102.882 8.69086 102.919 8.66072 102.963C8.63058 103.006 8.60876 103.056 8.59652 103.109C8.58428 103.161 8.58184 103.216 8.58936 103.27C8.59688 103.323 8.6142 103.375 8.64033 103.421C8.66646 103.468 8.7009 103.508 8.74167 103.541C8.78244 103.573 8.82875 103.596 8.87795 103.609C8.92715 103.622 8.97828 103.625 9.02843 103.617C9.07857 103.609 9.12674 103.59 9.17019 103.562C9.30329 103.477 9.44753 103.413 9.59819 103.372V103.996C9.59819 104.106 9.63885 104.211 9.71124 104.288C9.78363 104.366 9.88181 104.409 9.98419 104.409C10.0866 104.409 10.1847 104.366 10.2571 104.288C10.3295 104.211 10.3702 104.106 10.3702 103.996V103.372C10.5205 103.413 10.6644 103.477 10.7972 103.562C10.8849 103.619 10.9901 103.636 11.0896 103.61C11.189 103.583 11.2746 103.516 11.3275 103.422C11.3805 103.328 11.3963 103.215 11.3717 103.109C11.3471 103.003 11.2839 102.911 11.1962 102.854C10.9425 102.691 10.6622 102.581 10.3702 102.529V100.619L11.9162 101.575C11.8119 101.872 11.761 102.187 11.7662 102.503C11.7681 102.612 11.8097 102.715 11.8819 102.79C11.954 102.866 12.0511 102.908 12.1522 102.908H12.1602C12.2625 102.906 12.3599 102.861 12.4309 102.782C12.502 102.704 12.5409 102.598 12.5392 102.488C12.5364 102.322 12.5566 102.156 12.5992 101.996L13.1952 102.364C13.2391 102.395 13.2884 102.416 13.34 102.425C13.3917 102.435 13.4446 102.433 13.4956 102.42C13.5465 102.407 13.5945 102.383 13.6365 102.349C13.6786 102.316 13.7138 102.274 13.74 102.225C13.7662 102.177 13.783 102.123 13.7892 102.067C13.7954 102.011 13.7909 101.955 13.776 101.901C13.7612 101.847 13.7362 101.797 13.7027 101.754C13.6692 101.711 13.6279 101.677 13.5812 101.651Z" fill="url(#paint20_radial_63_401)" stroke="url(#paint21_radial_63_401)" stroke-width="0.513"/>
<path d="M75.6061 102.111L74.8521 101.645C74.9884 101.495 75.1448 101.367 75.3161 101.265C75.4228 101.195 75.5001 101.083 75.532 100.954C75.5639 100.824 75.5478 100.686 75.4873 100.569C75.4267 100.451 75.3263 100.364 75.2067 100.323C75.0871 100.283 74.9577 100.293 74.8451 100.352C74.5178 100.546 74.2277 100.804 73.9901 101.113L72.0361 99.9054L73.9891 98.6984C74.2265 99.008 74.5167 99.2665 74.8441 99.4604C74.9574 99.5274 75.091 99.5434 75.2154 99.5051C75.3397 99.4667 75.4448 99.3771 75.5074 99.2559C75.57 99.1347 75.585 98.9918 75.5491 98.8588C75.5133 98.7257 75.4294 98.6134 75.3161 98.5464C75.1448 98.4449 74.9885 98.3168 74.8521 98.1664L75.6061 97.7014C75.6626 97.6677 75.7123 97.6223 75.7522 97.5679C75.7922 97.5135 75.8216 97.4511 75.8388 97.3844C75.856 97.3177 75.8606 97.248 75.8524 97.1793C75.8442 97.1107 75.8233 97.0445 75.791 96.9846C75.7586 96.9246 75.7154 96.8722 75.664 96.8303C75.6125 96.7884 75.5538 96.7578 75.4912 96.7404C75.4285 96.723 75.3633 96.7191 75.2993 96.7288C75.2353 96.7386 75.1737 96.762 75.1181 96.7974L74.3641 97.2634C74.3104 97.0619 74.2848 96.853 74.2881 96.6434C74.2896 96.5748 74.2784 96.5065 74.2552 96.4424C74.232 96.3784 74.1971 96.3199 74.1527 96.2703C74.1083 96.2207 74.0552 96.181 73.9964 96.1534C73.9376 96.1257 73.8743 96.1108 73.8101 96.1094H73.8001C73.6725 96.1097 73.55 96.1634 73.459 96.2591C73.3679 96.3549 73.3156 96.4849 73.3131 96.6214C73.3061 97.0213 73.3699 97.4189 73.5011 97.7934L71.5481 99.0014V96.5884C71.9173 96.5233 72.2715 96.3838 72.5921 96.1774C72.702 96.1054 72.7807 95.9899 72.8113 95.856C72.8418 95.7221 72.8216 95.5808 72.7551 95.4628C72.6885 95.3448 72.5811 95.2597 72.4561 95.2261C72.3312 95.1925 72.1989 95.2131 72.0881 95.2834C71.9202 95.3915 71.7382 95.4724 71.5481 95.5234V94.7334C71.5481 94.595 71.4967 94.4622 71.4052 94.3643C71.3137 94.2664 71.1896 94.2114 71.0601 94.2114C70.9307 94.2114 70.8066 94.2664 70.7151 94.3643C70.6236 94.4622 70.5721 94.595 70.5721 94.7334V95.5234C70.3821 95.4724 70.2001 95.3915 70.0321 95.2834C69.9772 95.2454 69.9157 95.2195 69.8512 95.2074C69.7868 95.1952 69.7207 95.1971 69.6569 95.2129C69.5931 95.2286 69.533 95.2579 69.48 95.2991C69.427 95.3402 69.3823 95.3923 69.3486 95.4523C69.3148 95.5123 69.2927 95.5789 69.2835 95.6482C69.2744 95.7176 69.2783 95.7881 69.2952 95.8558C69.312 95.9235 69.3414 95.9868 69.3816 96.0421C69.4218 96.0973 69.472 96.1433 69.5291 96.1774C69.8495 96.3833 70.2034 96.5224 70.5721 96.5874V99.0014L68.6191 97.7934C68.7507 97.419 68.8148 97.0214 68.8081 96.6214C68.8057 96.4847 68.7532 96.3545 68.6619 96.2588C68.5707 96.163 68.448 96.1094 68.3201 96.1094H68.3101C68.181 96.1122 68.0581 96.1697 67.9685 96.2692C67.8789 96.3688 67.8299 96.5023 67.8321 96.6404C67.8356 96.8506 67.81 97.0602 67.7561 97.2624L67.0021 96.7974C66.9466 96.762 66.885 96.7386 66.821 96.7288C66.7569 96.7191 66.6917 96.723 66.6291 96.7404C66.5665 96.7578 66.5078 96.7884 66.4563 96.8303C66.4048 96.8722 66.3617 96.9246 66.3293 96.9846C66.297 97.0445 66.2761 97.1107 66.2679 97.1793C66.2597 97.248 66.2643 97.3177 66.2815 97.3844C66.2987 97.4511 66.3281 97.5135 66.368 97.5679C66.408 97.6223 66.4576 97.6677 66.5141 97.7014L67.2681 98.1674C67.1318 98.3178 66.9754 98.4459 66.8041 98.5474C66.7456 98.5791 66.6937 98.6231 66.6514 98.6767C66.6091 98.7304 66.5774 98.7926 66.5581 98.8596C66.5388 98.9267 66.5324 98.9972 66.5391 99.067C66.5459 99.1368 66.5657 99.2044 66.5975 99.2658C66.6292 99.3272 66.6722 99.3811 66.7239 99.4243C66.7755 99.4675 66.8348 99.4992 66.8981 99.5174C66.9615 99.5355 67.0276 99.5398 67.0926 99.5301C67.1575 99.5203 67.2199 99.4966 67.2761 99.4604C67.6036 99.2665 67.8937 99.0079 68.1311 98.6984L70.0851 99.9054L68.1311 101.111C67.8936 100.802 67.6035 100.544 67.2761 100.35C67.2199 100.314 67.1575 100.291 67.0926 100.281C67.0276 100.271 66.9615 100.275 66.8981 100.294C66.8348 100.312 66.7755 100.343 66.7239 100.387C66.6722 100.43 66.6292 100.484 66.5975 100.545C66.5657 100.606 66.5459 100.674 66.5391 100.744C66.5324 100.814 66.5388 100.884 66.5581 100.951C66.5774 101.018 66.6091 101.08 66.6514 101.134C66.6937 101.188 66.7456 101.232 66.8041 101.263C66.9758 101.365 67.1325 101.493 67.2691 101.643L66.5141 102.111C66.4576 102.145 66.408 102.191 66.368 102.245C66.3281 102.299 66.2987 102.362 66.2815 102.428C66.2643 102.495 66.2597 102.565 66.2679 102.634C66.2761 102.702 66.297 102.768 66.3293 102.828C66.3617 102.888 66.4048 102.941 66.4563 102.983C66.5078 103.025 66.5665 103.055 66.6291 103.072C66.6917 103.09 66.7569 103.094 66.821 103.084C66.885 103.074 66.9466 103.051 67.0021 103.015L67.7561 102.549C67.8098 102.751 67.8355 102.96 67.8321 103.169C67.8299 103.308 67.8791 103.441 67.9689 103.541C68.0587 103.641 68.1818 103.698 68.3111 103.7H68.3201C68.4478 103.7 68.5703 103.646 68.6613 103.551C68.7523 103.455 68.8047 103.325 68.8071 103.188C68.8141 102.789 68.7503 102.391 68.6191 102.016L70.5721 100.809V103.222C70.2034 103.287 69.8495 103.427 69.5291 103.632C69.4182 103.704 69.3383 103.819 69.307 103.954C69.2757 104.088 69.2956 104.23 69.3623 104.349C69.429 104.468 69.537 104.553 69.6627 104.587C69.7883 104.62 69.9212 104.599 70.0321 104.527C70.2001 104.419 70.3821 104.338 70.5721 104.287V105.077C70.5721 105.216 70.6236 105.349 70.7151 105.447C70.8066 105.544 70.9307 105.599 71.0601 105.599C71.1896 105.599 71.3137 105.544 71.4052 105.447C71.4967 105.349 71.5481 105.216 71.5481 105.077V104.287C71.7382 104.338 71.9202 104.419 72.0881 104.527C72.1989 104.598 72.3312 104.618 72.4561 104.585C72.5811 104.551 72.6885 104.466 72.7551 104.348C72.8216 104.23 72.8418 104.089 72.8113 103.955C72.7807 103.821 72.702 103.705 72.5921 103.633C72.2715 103.427 71.9173 103.288 71.5481 103.222V100.809L73.5011 102.016C73.3695 102.391 73.3053 102.789 73.3121 103.189C73.3146 103.326 73.3671 103.456 73.4583 103.552C73.5496 103.648 73.6723 103.701 73.8001 103.701H73.8101C73.8742 103.7 73.9375 103.685 73.9963 103.658C74.0551 103.631 74.1082 103.591 74.1527 103.542C74.1972 103.492 74.2322 103.434 74.2556 103.37C74.279 103.306 74.2904 103.238 74.2891 103.169C74.2854 102.96 74.3107 102.75 74.3641 102.548L75.1181 103.014C75.1737 103.052 75.2358 103.078 75.3008 103.089C75.3658 103.101 75.4323 103.098 75.4962 103.081C75.5602 103.065 75.6204 103.034 75.6731 102.992C75.7258 102.95 75.77 102.896 75.8029 102.835C75.8359 102.774 75.857 102.707 75.8649 102.637C75.8728 102.567 75.8674 102.496 75.849 102.429C75.8306 102.361 75.7996 102.298 75.7579 102.243C75.7162 102.189 75.6645 102.144 75.6061 102.111Z" fill="url(#paint22_radial_63_401)" stroke="url(#paint23_radial_63_401)" stroke-width="0.648"/>
<path d="M44.2482 87.6207L43.4942 87.1547C43.6305 87.0042 43.7869 86.8762 43.9582 86.7747C44.0649 86.7043 44.1422 86.5927 44.1741 86.4631C44.2059 86.3334 44.1899 86.1956 44.1294 86.0782C44.0688 85.9608 43.9683 85.8728 43.8488 85.8325C43.7292 85.7922 43.5998 85.8027 43.4872 85.8617C43.1599 86.0554 42.8698 86.3136 42.6322 86.6227L40.6782 85.4147L42.6312 84.2077C42.8686 84.5172 43.1587 84.7758 43.4862 84.9697C43.5423 85.0029 43.604 85.0239 43.6677 85.0315C43.7314 85.0392 43.7959 85.0334 43.8574 85.0144C43.919 84.9954 43.9765 84.9636 44.0266 84.9208C44.0767 84.8781 44.1185 84.8252 44.1495 84.7651C44.1805 84.7051 44.2001 84.6392 44.2073 84.571C44.2144 84.5029 44.209 84.4339 44.1912 84.3681C44.1734 84.3022 44.1437 84.2407 44.1038 84.1871C44.0638 84.1335 44.0143 84.0889 43.9582 84.0557C43.7869 83.9542 43.6306 83.8261 43.4942 83.6757L44.2482 83.2107C44.3047 83.177 44.3544 83.1316 44.3943 83.0772C44.4343 83.0227 44.4637 82.9603 44.4809 82.8936C44.4981 82.8269 44.5027 82.7572 44.4945 82.6886C44.4863 82.62 44.4654 82.5538 44.433 82.4938C44.4007 82.4339 44.3575 82.3815 44.3061 82.3395C44.2546 82.2976 44.1959 82.2671 44.1332 82.2497C44.0706 82.2323 44.0054 82.2283 43.9414 82.2381C43.8773 82.2479 43.8158 82.2712 43.7602 82.3067L43.0062 82.7727C42.9525 82.5712 42.9269 82.3622 42.9302 82.1527C42.9317 82.084 42.9205 82.0157 42.8973 81.9517C42.8741 81.8877 42.8392 81.8292 42.7948 81.7796C42.7504 81.73 42.6973 81.6902 42.6385 81.6626C42.5797 81.635 42.5164 81.6201 42.4522 81.6187H42.4422C42.3146 81.619 42.1921 81.6727 42.1011 81.7684C42.01 81.8641 41.9577 81.9942 41.9552 82.1307C41.9482 82.5306 42.012 82.9282 42.1432 83.3027L40.1902 84.5107V82.0977C40.5594 82.0325 40.9136 81.8931 41.2342 81.6867C41.3441 81.6147 41.4228 81.4992 41.4534 81.3653C41.4839 81.2314 41.4637 81.0901 41.3971 80.9721C41.3306 80.8541 41.2232 80.769 41.0982 80.7354C40.9733 80.7018 40.841 80.7224 40.7302 80.7927C40.5623 80.9008 40.3803 80.9816 40.1902 81.0327V80.2427C40.1902 80.1043 40.1388 79.9715 40.0473 79.8736C39.9558 79.7757 39.8316 79.7207 39.7022 79.7207C39.5728 79.7207 39.4487 79.7757 39.3572 79.8736C39.2656 79.9715 39.2142 80.1043 39.2142 80.2427V81.0327C39.0241 80.9816 38.8422 80.9008 38.6742 80.7927C38.6193 80.7546 38.5578 80.7288 38.4933 80.7166C38.4288 80.7045 38.3628 80.7064 38.299 80.7221C38.2352 80.7379 38.1751 80.7672 38.1221 80.8083C38.0691 80.8495 38.0244 80.9016 37.9907 80.9616C37.9569 81.0216 37.9348 81.0882 37.9256 81.1575C37.9165 81.2268 37.9204 81.2974 37.9372 81.3651C37.9541 81.4327 37.9835 81.4961 38.0237 81.5513C38.0639 81.6066 38.1141 81.6526 38.1712 81.6867C38.4916 81.8926 38.8455 82.0317 39.2142 82.0967V84.5107L37.2612 83.3027C37.3928 82.9283 37.4569 82.5306 37.4502 82.1307C37.4478 81.994 37.3953 81.8638 37.304 81.768C37.2128 81.6723 37.09 81.6187 36.9622 81.6187H36.9522C36.8231 81.6215 36.7002 81.679 36.6106 81.7785C36.521 81.8781 36.472 82.0115 36.4742 82.1497C36.4777 82.3599 36.4521 82.5695 36.3982 82.7717L35.6442 82.3067C35.5887 82.2712 35.5271 82.2479 35.4631 82.2381C35.399 82.2283 35.3338 82.2323 35.2712 82.2497C35.2086 82.2671 35.1498 82.2976 35.0984 82.3395C35.0469 82.3815 35.0037 82.4339 34.9714 82.4938C34.9391 82.5538 34.9182 82.62 34.91 82.6886C34.9017 82.7572 34.9064 82.8269 34.9236 82.8936C34.9408 82.9603 34.9702 83.0227 35.0101 83.0772C35.0501 83.1316 35.0997 83.177 35.1562 83.2107L35.9102 83.6767C35.7739 83.8271 35.6175 83.9552 35.4462 84.0567C35.3877 84.0884 35.3358 84.1324 35.2935 84.186C35.2512 84.2396 35.2195 84.3019 35.2002 84.3689C35.1809 84.436 35.1744 84.5065 35.1812 84.5763C35.188 84.646 35.2078 84.7137 35.2396 84.7751C35.2713 84.8364 35.3143 84.8904 35.3659 84.9336C35.4176 84.9768 35.4769 85.0085 35.5402 85.0266C35.6036 85.0448 35.6697 85.0491 35.7346 85.0393C35.7996 85.0296 35.862 85.0059 35.9182 84.9697C36.2456 84.7758 36.5358 84.5172 36.7732 84.2077L38.7262 85.4147L36.7732 86.6207C36.5357 86.3116 36.2456 86.0534 35.9182 85.8597C35.862 85.8235 35.7996 85.7998 35.7346 85.7901C35.6697 85.7803 35.6036 85.7846 35.5402 85.8028C35.4769 85.8209 35.4176 85.8526 35.3659 85.8958C35.3143 85.939 35.2713 85.993 35.2396 86.0544C35.2078 86.1157 35.188 86.1834 35.1812 86.2531C35.1744 86.3229 35.1809 86.3934 35.2002 86.4605C35.2195 86.5276 35.2512 86.5898 35.2935 86.6434C35.3358 86.697 35.3877 86.741 35.4462 86.7727C35.6179 86.8742 35.7746 87.0022 35.9112 87.1527L35.1562 87.6207C35.0997 87.6544 35.0501 87.6998 35.0101 87.7542C34.9702 87.8087 34.9408 87.8711 34.9236 87.9378C34.9064 88.0045 34.9017 88.0742 34.91 88.1428C34.9182 88.2114 34.9391 88.2776 34.9714 88.3376C35.0037 88.3975 35.0469 88.4499 35.0984 88.4919C35.1498 88.5338 35.2086 88.5643 35.2712 88.5817C35.3338 88.5992 35.399 88.6031 35.4631 88.5933C35.5271 88.5835 35.5887 88.5602 35.6442 88.5247L36.3982 88.0587C36.4519 88.2602 36.4776 88.4692 36.4742 88.6787C36.472 88.8169 36.521 88.9503 36.6106 89.0499C36.7002 89.1494 36.8231 89.2069 36.9522 89.2097H36.9622C37.0899 89.2094 37.2123 89.1557 37.3034 89.06C37.3944 88.9643 37.4468 88.8342 37.4492 88.6977C37.4562 88.2978 37.3924 87.9002 37.2612 87.5257L39.2142 86.3187V88.7317C38.8451 88.7966 38.4909 88.9357 38.1702 89.1417C38.1153 89.1771 38.0674 89.2237 38.0293 89.2789C37.9912 89.3341 37.9637 89.3968 37.9482 89.4634C37.9328 89.53 37.9297 89.5992 37.9393 89.667C37.9488 89.7348 37.9708 89.8 38.0039 89.8588C38.037 89.9175 38.0806 89.9687 38.1322 90.0095C38.1838 90.0502 38.2423 90.0797 38.3046 90.0962C38.3668 90.1128 38.4315 90.116 38.4949 90.1058C38.5584 90.0956 38.6193 90.0721 38.6742 90.0367C38.8422 89.9286 39.0241 89.8478 39.2142 89.7967V90.5867C39.2142 90.7251 39.2656 90.8579 39.3572 90.9558C39.4487 91.0537 39.5728 91.1087 39.7022 91.1087C39.8316 91.1087 39.9558 91.0537 40.0473 90.9558C40.1388 90.8579 40.1902 90.7251 40.1902 90.5867V89.7967C40.3803 89.8478 40.5623 89.9286 40.7302 90.0367C40.841 90.107 40.9733 90.1276 41.0982 90.094C41.2232 90.0604 41.3306 89.9753 41.3971 89.8573C41.4637 89.7393 41.4839 89.598 41.4534 89.4641C41.4228 89.3302 41.3441 89.2147 41.2342 89.1427C40.9136 88.9363 40.5594 88.7969 40.1902 88.7317V86.3187L42.1432 87.5257C42.0116 87.9004 41.9474 88.2984 41.9542 88.6987C41.9567 88.8354 42.0092 88.9656 42.1004 89.0614C42.1917 89.1571 42.3144 89.2107 42.4422 89.2107H42.4522C42.5815 89.2079 42.7045 89.1503 42.7942 89.0505C42.8838 88.9508 42.9327 88.817 42.9302 88.6787C42.9268 88.4688 42.9524 88.2596 43.0062 88.0577L43.7602 88.5237C43.8158 88.5616 43.8779 88.587 43.9429 88.5985C44.0079 88.61 44.0743 88.6073 44.1383 88.5906C44.2023 88.5739 44.2625 88.5435 44.3152 88.5012C44.3679 88.459 44.412 88.4058 44.445 88.3448C44.478 88.2838 44.499 88.2163 44.507 88.1463C44.5149 88.0764 44.5095 88.0054 44.4911 87.9378C44.4727 87.8701 44.4417 87.8072 44.4 87.7527C44.3582 87.6982 44.3066 87.6533 44.2482 87.6207Z" fill="url(#paint24_radial_63_401)" stroke="url(#paint25_radial_63_401)" stroke-width="0.648"/>
<defs>
<filter id="filter0_f_63_401" x="41.6878" y="53.4198" width="13.3804" height="13.3895" filterUnits="userSpaceOnUse" color-interpolation-filters="sRGB">
<feFlood flood-opacity="0" result="BackgroundImageFix"/>
<feBlend mode="normal" in="SourceGraphic" in2="BackgroundImageFix" result="shape"/>
<feGaussianBlur stdDeviation="1.46492" result="effect1_foregroundBlur_63_401"/>
</filter>
<filter id="filter1_f_63_401" x="31.7503" y="33.9159" width="15.241" height="8.91095" filterUnits="userSpaceOnUse" color-interpolation-filters="sRGB">
<feFlood flood-opacity="0" result="BackgroundImageFix"/>
<feBlend mode="normal" in="SourceGraphic" in2="BackgroundImageFix" result="shape"/>
<feGaussianBlur stdDeviation="1.46492" result="effect1_foregroundBlur_63_401"/>
</filter>
<filter id="filter2_f_63_401" x="41.681" y="9.93686" width="13.3897" height="13.3807" filterUnits="userSpaceOnUse" color-interpolation-filters="sRGB">
<feFlood flood-opacity="0" result="BackgroundImageFix"/>
<feBlend mode="normal" in="SourceGraphic" in2="BackgroundImageFix" result="shape"/>
<feGaussianBlur stdDeviation="1.46492" result="effect1_foregroundBlur_63_401"/>
</filter>
<filter id="filter3_f_63_401" x="65.6634" y="-0.000152588" width="8.91095" height="15.241" filterUnits="userSpaceOnUse" color-interpolation-filters="sRGB">
<feFlood flood-opacity="0" result="BackgroundImageFix"/>
<feBlend mode="normal" in="SourceGraphic" in2="BackgroundImageFix" result="shape"/>
<feGaussianBlur stdDeviation="1.46492" result="effect1_foregroundBlur_63_401"/>
</filter>
<filter id="filter4_f_63_401" x="85.1742" y="9.93051" width="13.3804" height="13.3895" filterUnits="userSpaceOnUse" color-interpolation-filters="sRGB">
<feFlood flood-opacity="0" result="BackgroundImageFix"/>
<feBlend mode="normal" in="SourceGraphic" in2="BackgroundImageFix" result="shape"/>
<feGaussianBlur stdDeviation="1.46492" result="effect1_foregroundBlur_63_401"/>
</filter>
<filter id="filter5_f_63_401" x="93.2516" y="33.9129" width="15.241" height="8.91095" filterUnits="userSpaceOnUse" color-interpolation-filters="sRGB">
<feFlood flood-opacity="0" result="BackgroundImageFix"/>
<feBlend mode="normal" in="SourceGraphic" in2="BackgroundImageFix" result="shape"/>
<feGaussianBlur stdDeviation="1.46492" result="effect1_foregroundBlur_63_401"/>
</filter>
<filter id="filter6_f_63_401" x="85.1707" y="53.4207" width="13.3897" height="13.3807" filterUnits="userSpaceOnUse" color-interpolation-filters="sRGB">
<feFlood flood-opacity="0" result="BackgroundImageFix"/>
<feBlend mode="normal" in="SourceGraphic" in2="BackgroundImageFix" result="shape"/>
<feGaussianBlur stdDeviation="1.46492" result="effect1_foregroundBlur_63_401"/>
</filter>
<filter id="filter7_f_63_401" x="65.6668" y="61.4994" width="8.91095" height="15.241" filterUnits="userSpaceOnUse" color-interpolation-filters="sRGB">
<feFlood flood-opacity="0" result="BackgroundImageFix"/>
<feBlend mode="normal" in="SourceGraphic" in2="BackgroundImageFix" result="shape"/>
<feGaussianBlur stdDeviation="1.46492" result="effect1_foregroundBlur_63_401"/>
</filter>
<filter id="filter8_f_63_401" x="46.2837" y="14.5322" width="47.8214" height="47.8214" filterUnits="userSpaceOnUse" color-interpolation-filters="sRGB">
<feFlood flood-opacity="0" result="BackgroundImageFix"/>
<feBlend mode="normal" in="SourceGraphic" in2="BackgroundImageFix" result="shape"/>
<feGaussianBlur stdDeviation="1.95534" result="effect1_foregroundBlur_63_401"/>
</filter>
<linearGradient id="paint0_linear_63_401" x1="61.2766" y1="20.069" x2="13.5413" y2="79.7895" gradientUnits="userSpaceOnUse">
<stop stop-color="#BDBFC2"/>
<stop offset="1" stop-color="#3A3B3B"/>
</linearGradient>
<linearGradient id="paint1_linear_63_401" x1="49.1943" y1="38.4429" x2="91.1943" y2="38.4429" gradientUnits="userSpaceOnUse">
<stop stop-color="#FFEEAA"/>
<stop offset="1" stop-color="#FFD121"/>
</linearGradient>
<linearGradient id="paint2_linear_63_401" x1="46.7953" y1="38.4429" x2="93.5934" y2="38.4429" gradientUnits="userSpaceOnUse">
<stop stop-color="#D8B127"/>
<stop offset="1" stop-color="#FFE379"/>
</linearGradient>
<linearGradient id="paint3_linear_63_401" x1="47.1992" y1="34.0253" x2="47.2652" y2="77.5124" gradientUnits="userSpaceOnUse">
<stop stop-color="#C9CCCE"/>
<stop offset="1" stop-color="#4C5260"/>
</linearGradient>
<radialGradient id="paint4_radial_63_401" cx="0" cy="0" r="1" gradientUnits="userSpaceOnUse" gradientTransform="translate(16.5112 85.4145) scale(3.99912 4.68743)">
<stop stop-color="#85B2EE"/>
<stop offset="1" stop-color="#DCEEF9"/>
</radialGradient>
<radialGradient id="paint5_radial_63_401" cx="0" cy="0" r="1" gradientUnits="userSpaceOnUse" gradientTransform="translate(16.5112 85.4145) scale(3.99912 4.68743)">
<stop stop-color="#85B2EE"/>
<stop offset="1" stop-color="#DCEEF9"/>
</radialGradient>
<radialGradient id="paint6_radial_63_401" cx="0" cy="0" r="1" gradientUnits="userSpaceOnUse" gradientTransform="translate(86.2851 85.4146) scale(3.99912 4.68743)">
<stop stop-color="#85B2EE"/>
<stop offset="1" stop-color="#DCEEF9"/>
</radialGradient>
<radialGradient id="paint7_radial_63_401" cx="0" cy="0" r="1" gradientUnits="userSpaceOnUse" gradientTransform="translate(86.2851 85.4146) scale(3.99912 4.68743)">
<stop stop-color="#85B2EE"/>
<stop offset="1" stop-color="#DCEEF9"/>
</radialGradient>
<radialGradient id="paint8_radial_63_401" cx="0" cy="0" r="1" gradientUnits="userSpaceOnUse" gradientTransform="translate(63.0273 85.4146) scale(3.99912 4.68743)">
<stop stop-color="#85B2EE"/>
<stop offset="1" stop-color="#DCEEF9"/>
</radialGradient>
<radialGradient id="paint9_radial_63_401" cx="0" cy="0" r="1" gradientUnits="userSpaceOnUse" gradientTransform="translate(63.0273 85.4146) scale(3.99912 4.68743)">
<stop stop-color="#85B2EE"/>
<stop offset="1" stop-color="#DCEEF9"/>
</radialGradient>
<radialGradient id="paint10_radial_63_401" cx="0" cy="0" r="1" gradientUnits="userSpaceOnUse" gradientTransform="translate(30.2803 99.9058) scale(3.99912 4.68743)">
<stop stop-color="#85B2EE"/>
<stop offset="1" stop-color="#DCEEF9"/>
</radialGradient>
<radialGradient id="paint11_radial_63_401" cx="0" cy="0" r="1" gradientUnits="userSpaceOnUse" gradientTransform="translate(30.2803 99.9058) scale(3.99912 4.68743)">
<stop stop-color="#85B2EE"/>
<stop offset="1" stop-color="#DCEEF9"/>
</radialGradient>
<radialGradient id="paint12_radial_63_401" cx="0" cy="0" r="1" gradientUnits="userSpaceOnUse" gradientTransform="translate(50.5671 99.9058) scale(3.99912 4.68743)">
<stop stop-color="#85B2EE"/>
<stop offset="1" stop-color="#DCEEF9"/>
</radialGradient>
<radialGradient id="paint13_radial_63_401" cx="0" cy="0" r="1" gradientUnits="userSpaceOnUse" gradientTransform="translate(50.5671 99.9058) scale(3.99912 4.68743)">
<stop stop-color="#85B2EE"/>
<stop offset="1" stop-color="#DCEEF9"/>
</radialGradient>
<radialGradient id="paint14_radial_63_401" cx="0" cy="0" r="1" gradientUnits="userSpaceOnUse" gradientTransform="translate(50.943 89.639) scale(2.23145 2.61553)">
<stop stop-color="#85B2EE"/>
<stop offset="1" stop-color="#DCEEF9"/>
</radialGradient>
<radialGradient id="paint15_radial_63_401" cx="0" cy="0" r="1" gradientUnits="userSpaceOnUse" gradientTransform="translate(50.943 89.639) scale(2.23145 2.61553)">
<stop stop-color="#85B2EE"/>
<stop offset="1" stop-color="#DCEEF9"/>
</radialGradient>
<radialGradient id="paint16_radial_63_401" cx="0" cy="0" r="1" gradientUnits="userSpaceOnUse" gradientTransform="translate(74.9481 89.639) scale(2.23145 2.61553)">
<stop stop-color="#85B2EE"/>
<stop offset="1" stop-color="#DCEEF9"/>
</radialGradient>
<radialGradient id="paint17_radial_63_401" cx="0" cy="0" r="1" gradientUnits="userSpaceOnUse" gradientTransform="translate(74.9481 89.639) scale(2.23145 2.61553)">
<stop stop-color="#85B2EE"/>
<stop offset="1" stop-color="#DCEEF9"/>
</radialGradient>
<radialGradient id="paint18_radial_63_401" cx="0" cy="0" r="1" gradientUnits="userSpaceOnUse" gradientTransform="translate(26.9371 89.639) scale(2.23145 2.61553)">
<stop stop-color="#85B2EE"/>
<stop offset="1" stop-color="#DCEEF9"/>
</radialGradient>
<radialGradient id="paint19_radial_63_401" cx="0" cy="0" r="1" gradientUnits="userSpaceOnUse" gradientTransform="translate(26.9371 89.639) scale(2.23145 2.61553)">
<stop stop-color="#85B2EE"/>
<stop offset="1" stop-color="#DCEEF9"/>
</radialGradient>
<radialGradient id="paint20_radial_63_401" cx="0" cy="0" r="1" gradientUnits="userSpaceOnUse" gradientTransform="translate(9.98935 99.9051) scale(4.06218 4.76142)">
<stop stop-color="#85B2EE"/>
<stop offset="1" stop-color="#DCEEF9"/>
</radialGradient>
<radialGradient id="paint21_radial_63_401" cx="0" cy="0" r="1" gradientUnits="userSpaceOnUse" gradientTransform="translate(9.98935 99.9051) scale(4.06218 4.76142)">
<stop stop-color="#85B2EE"/>
<stop offset="1" stop-color="#DCEEF9"/>
</radialGradient>
<radialGradient id="paint22_radial_63_401" cx="0" cy="0" r="1" gradientUnits="userSpaceOnUse" gradientTransform="translate(71.0676 99.9051) scale(5.13378 6.0173)">
<stop stop-color="#85B2EE"/>
<stop offset="1" stop-color="#DCEEF9"/>
</radialGradient>
<radialGradient id="paint23_radial_63_401" cx="0" cy="0" r="1" gradientUnits="userSpaceOnUse" gradientTransform="translate(71.0676 99.9051) scale(5.13378 6.0173)">
<stop stop-color="#85B2EE"/>
<stop offset="1" stop-color="#DCEEF9"/>
</radialGradient>
<radialGradient id="paint24_radial_63_401" cx="0" cy="0" r="1" gradientUnits="userSpaceOnUse" gradientTransform="translate(39.7097 85.4144) scale(5.13378 6.0173)">
<stop stop-color="#85B2EE"/>
<stop offset="1" stop-color="#DCEEF9"/>
</radialGradient>
<radialGradient id="paint25_radial_63_401" cx="0" cy="0" r="1" gradientUnits="userSpaceOnUse" gradientTransform="translate(39.7097 85.4144) scale(5.13378 6.0173)">
<stop stop-color="#85B2EE"/>
<stop offset="1" stop-color="#DCEEF9"/>
</radialGradient>
</defs>
</svg>
