<svg width="101" height="107" viewBox="0 0 101 107" fill="none" xmlns="http://www.w3.org/2000/svg">
<path d="M6.44315 59.626H96.1101C96.1101 59.626 106.316 46.169 92.4901 33.603C78.9171 21.267 64.9311 30.871 64.9311 30.871C64.9311 30.871 56.3221 11.494 40.0191 16.15C23.7162 20.809 22.4091 34.287 22.4091 34.287C22.4091 34.287 5.90115 34.623 3.18315 44.91C0.465149 55.197 6.44315 59.626 6.44315 59.626Z" fill="url(#paint0_linear_63_964)"/>
<g filter="url(#filter0_d_63_964)">
<path d="M74.5932 62.7928C64.3071 72.4128 48.6191 75.4468 34.633 68.5648C20.499 61.5348 12.6549 45.6247 15.689 30.2327C18.723 14.9146 30.711 4.33255 44.6231 2.03854C46.7691 1.66854 48.3971 4.03655 47.2871 5.96056C46.2511 7.81057 45.3631 9.80857 44.6231 11.8806C38.333 30.3807 48.2491 50.4347 66.7491 56.7248C68.8212 57.4648 70.9672 57.9088 73.1132 58.2788C75.2592 58.5748 76.1472 61.2388 74.5932 62.7928Z" fill="url(#paint1_linear_63_964)"/>
</g>
<path d="M73.6587 20.0557C74.0903 20.2756 73.9884 20.9193 73.51 20.9951L70.0067 21.5499C69.7927 21.5838 69.6249 21.7516 69.5911 21.9656L69.0362 25.4688C68.9604 25.9472 68.3167 26.0492 68.0968 25.6176L66.4866 22.4573C66.3882 22.2643 66.1768 22.1565 65.9628 22.1904L62.4596 22.7453C61.9812 22.8211 61.6853 22.2404 62.0278 21.8979L64.5359 19.3898C64.689 19.2366 64.7261 19.0023 64.6278 18.8093L63.0175 15.6489C62.7976 15.2173 63.2585 14.7565 63.69 14.9764L66.8504 16.5867C67.0434 16.685 67.2778 16.6479 67.4309 16.4947L69.939 13.9867C70.2815 13.6442 70.8622 13.94 70.7864 14.4184L70.2315 17.9217C70.1977 18.1357 70.3054 18.3471 70.4984 18.4454L73.6587 20.0557Z" fill="#8FE5F2"/>
<path d="M3.96817 73.7958H93.6352C93.6352 73.7958 104.867 60.6038 93.9052 45.4748C82.2752 29.4258 63.1632 42.7428 63.1632 42.7428C63.1632 42.7428 53.8472 25.6628 37.5442 30.3218C21.2412 34.9808 20.4652 49.3418 20.4652 49.3418C20.4652 49.3418 3.42517 48.7928 0.70817 59.0798C-2.00883 69.3668 3.96817 73.7958 3.96817 73.7958Z" fill="url(#paint2_linear_63_964)"/>
<path d="M20.0472 82.8439L19.4602 82.4809C19.5663 82.3638 19.6879 82.264 19.8212 82.1849C19.9028 82.1293 19.9615 82.0424 19.9853 81.9421C20.0092 81.8417 19.9964 81.7354 19.9496 81.6448C19.9028 81.5541 19.8256 81.486 19.7335 81.4543C19.6415 81.4225 19.5416 81.4296 19.4542 81.4739C19.1993 81.6248 18.9733 81.8261 18.7882 82.0669L17.2662 81.1249L18.7882 80.1849C18.9728 80.4261 19.1985 80.6277 19.4532 80.7789C19.497 80.8062 19.5453 80.8238 19.5955 80.8308C19.6457 80.8377 19.6966 80.8339 19.7454 80.8195C19.7941 80.8051 19.8397 80.7804 19.8795 80.7469C19.9192 80.7133 19.9523 80.6717 19.9768 80.6243C20.0013 80.5769 20.0167 80.5247 20.0221 80.4708C20.0276 80.417 20.0229 80.3625 20.0084 80.3106C19.9939 80.2587 19.9699 80.2104 19.9378 80.1685C19.9056 80.1267 19.866 80.0922 19.8212 80.0669C19.6876 79.9879 19.5656 79.8881 19.4592 79.7709L20.0472 79.4079C20.0928 79.3826 20.1331 79.3476 20.1657 79.3051C20.1982 79.2626 20.2224 79.2135 20.2368 79.1607C20.2512 79.1079 20.2554 79.0526 20.2492 78.998C20.2431 78.9434 20.2267 78.8907 20.201 78.8431C20.1753 78.7955 20.1408 78.754 20.0997 78.721C20.0587 78.6881 20.0118 78.6644 19.9619 78.6514C19.912 78.6384 19.8602 78.6363 19.8095 78.6454C19.7589 78.6544 19.7105 78.6743 19.6672 78.7039L19.0802 79.0669C19.0381 78.91 19.0179 78.7472 19.0202 78.5839C19.0222 78.4761 18.9842 78.3718 18.9144 78.294C18.8447 78.2162 18.7489 78.1712 18.6482 78.1689H18.6412C18.5417 78.1689 18.4462 78.2107 18.3751 78.2853C18.3041 78.3599 18.2632 78.4614 18.2612 78.5679C18.256 78.8795 18.3059 79.1893 18.4082 79.4809L16.8862 80.4209V78.5409C17.1737 78.4902 17.4496 78.3816 17.6992 78.2209C17.7797 78.1624 17.8362 78.0731 17.857 77.9714C17.8778 77.8696 17.8614 77.7632 17.8112 77.674C17.7609 77.5848 17.6807 77.5196 17.5869 77.4919C17.4932 77.4642 17.3931 77.476 17.3072 77.5249C17.1763 77.6092 17.0344 77.6722 16.8862 77.7119V77.0969C16.8862 76.989 16.8462 76.8855 16.7749 76.8092C16.7037 76.7328 16.607 76.6899 16.5062 76.6899C16.4055 76.6899 16.3088 76.7328 16.2375 76.8092C16.1663 76.8855 16.1262 76.989 16.1262 77.0969V77.7119C15.978 77.6722 15.8362 77.6092 15.7052 77.5249C15.6625 77.4939 15.6144 77.4725 15.5637 77.462C15.513 77.4516 15.4609 77.4523 15.4104 77.4641C15.36 77.476 15.3124 77.4987 15.2704 77.5309C15.2285 77.5631 15.1931 77.6041 15.1664 77.6514C15.1398 77.6988 15.1224 77.7514 15.1153 77.8062C15.1083 77.861 15.1118 77.9167 15.1255 77.97C15.1392 78.0233 15.163 78.073 15.1953 78.1162C15.2275 78.1593 15.2677 78.195 15.3132 78.2209C15.5629 78.3816 15.8388 78.4902 16.1262 78.5409V80.4209L14.6042 79.4809C14.7067 79.1889 14.7566 78.8788 14.7512 78.5669C14.7493 78.4604 14.7084 78.3589 14.6373 78.2843C14.5663 78.2097 14.4707 78.1679 14.3712 78.1679H14.3642C14.2635 78.1699 14.1677 78.2146 14.0977 78.2923C14.0278 78.3699 13.9895 78.4741 13.9912 78.5819C13.9937 78.7456 13.9735 78.9087 13.9312 79.0659L13.3452 78.7039C13.258 78.65 13.1542 78.6353 13.0569 78.6633C12.9595 78.6912 12.8765 78.7595 12.8261 78.8529C12.7757 78.9464 12.7621 79.0575 12.7882 79.1618C12.8143 79.2661 12.878 79.355 12.9652 79.4089L13.5522 79.7709C13.4459 79.8881 13.3239 79.9879 13.1902 80.0669C13.1455 80.0922 13.1059 80.1267 13.0737 80.1685C13.0416 80.2104 13.0176 80.2587 13.0031 80.3106C12.9886 80.3625 12.9839 80.417 12.9894 80.4708C12.9948 80.5247 13.0102 80.5769 13.0347 80.6243C13.0592 80.6717 13.0923 80.7133 13.132 80.7469C13.1718 80.7804 13.2174 80.8051 13.2661 80.8195C13.3149 80.8339 13.3658 80.8377 13.416 80.8308C13.4662 80.8238 13.5145 80.8062 13.5582 80.7789C13.8132 80.628 14.0392 80.4268 14.2242 80.1859L15.7462 81.1259L14.2242 82.0659C14.0393 81.8247 13.8133 81.6231 13.5582 81.4719C13.5145 81.4447 13.4662 81.4271 13.416 81.4201C13.3658 81.4132 13.3149 81.417 13.2661 81.4314C13.2174 81.4458 13.1718 81.4705 13.132 81.504C13.0923 81.5375 13.0592 81.5792 13.0347 81.6266C13.0102 81.674 12.9948 81.7262 12.9894 81.7801C12.9839 81.8339 12.9886 81.8884 13.0031 81.9403C13.0176 81.9922 13.0416 82.0405 13.0737 82.0823C13.1059 82.1242 13.1455 82.1587 13.1902 82.1839C13.3238 82.2627 13.4458 82.3621 13.5522 82.4789L12.9652 82.8439C12.9197 82.8693 12.8794 82.9043 12.8468 82.9468C12.8143 82.9893 12.79 83.0384 12.7757 83.0912C12.7613 83.144 12.7571 83.1993 12.7632 83.2539C12.7694 83.3085 12.7858 83.3612 12.8115 83.4088C12.8372 83.4564 12.8716 83.4979 12.9127 83.5309C12.9538 83.5638 13.0007 83.5875 13.0506 83.6005C13.1005 83.6135 13.1523 83.6156 13.203 83.6065C13.2536 83.5975 13.302 83.5776 13.3452 83.5479L13.9322 83.1849C13.9741 83.3423 13.994 83.5054 13.9912 83.6689C13.9897 83.7766 14.0282 83.8806 14.0981 83.958C14.168 84.0354 14.2637 84.08 14.3642 84.0819H14.3712C14.4707 84.082 14.5663 84.0402 14.6373 83.9656C14.7084 83.891 14.7493 83.7895 14.7512 83.6829C14.7565 83.3714 14.7066 83.0616 14.6042 82.7699L16.1262 81.8299V83.7099C15.8388 83.7607 15.5629 83.8693 15.3132 84.0299C15.2677 84.0559 15.2275 84.0916 15.1953 84.1347C15.163 84.1779 15.1392 84.2276 15.1255 84.2809C15.1118 84.3342 15.1083 84.3899 15.1153 84.4447C15.1224 84.4994 15.1398 84.5521 15.1664 84.5994C15.1931 84.6468 15.2285 84.6878 15.2704 84.72C15.3124 84.7522 15.36 84.7749 15.4104 84.7868C15.4609 84.7986 15.513 84.7993 15.5637 84.7889C15.6144 84.7784 15.6625 84.757 15.7052 84.7259C15.8359 84.6418 15.9774 84.5788 16.1252 84.5389V85.1539C16.1252 85.2619 16.1653 85.3654 16.2365 85.4417C16.3078 85.5181 16.4045 85.5609 16.5052 85.5609C16.606 85.5609 16.7027 85.5181 16.7739 85.4417C16.8452 85.3654 16.8852 85.2619 16.8852 85.1539V84.5389C17.0338 84.5786 17.176 84.6416 17.3072 84.7259C17.3934 84.7781 17.4951 84.7922 17.5908 84.7652C17.6865 84.7383 17.7687 84.6724 17.8197 84.5816C17.8708 84.4908 17.8868 84.3823 17.8643 84.2791C17.8418 84.1759 17.7826 84.0861 17.6992 84.0289C17.4496 83.8683 17.1737 83.7597 16.8862 83.7089V81.8289L18.4082 82.7699C18.3054 83.0619 18.2552 83.372 18.2602 83.6839C18.2622 83.7905 18.3031 83.892 18.3741 83.9666C18.4452 84.0412 18.5407 84.083 18.6402 84.0829H18.6482C18.6982 84.082 18.7475 84.0705 18.7933 84.0491C18.839 84.0277 18.8804 83.9968 18.9151 83.9583C18.9497 83.9197 18.9769 83.8742 18.9952 83.8244C19.0134 83.7746 19.0222 83.7214 19.0212 83.6679C19.0185 83.5044 19.0384 83.3413 19.0802 83.1839L19.6672 83.5469C19.7104 83.5779 19.7591 83.599 19.8102 83.609C19.8613 83.6189 19.9138 83.6176 19.9644 83.605C20.015 83.5924 20.0627 83.5688 20.1045 83.5357C20.1462 83.5026 20.1812 83.4606 20.2072 83.4125C20.2333 83.3643 20.2498 83.3109 20.2558 83.2557C20.2618 83.2004 20.2572 83.1444 20.2422 83.0911C20.2272 83.0378 20.2022 82.9884 20.1686 82.9459C20.1351 82.9034 20.0938 82.8687 20.0472 82.8439Z" fill="url(#paint3_radial_63_964)" stroke="url(#paint4_radial_63_964)" stroke-width="0.505"/>
<path d="M89.8212 82.843L89.2342 82.48C89.3402 82.3628 89.4619 82.2631 89.5952 82.184C89.6767 82.1283 89.7354 82.0415 89.7592 81.9411C89.7831 81.8408 89.7703 81.7344 89.7235 81.6438C89.6768 81.5532 89.5995 81.485 89.5074 81.4533C89.4154 81.4216 89.3155 81.4286 89.2282 81.473C88.9732 81.6239 88.7472 81.8251 88.5622 82.066L87.0402 81.124L88.5622 80.184C88.7468 80.4251 88.9724 80.6267 89.2272 80.778C89.2709 80.8052 89.3193 80.8228 89.3694 80.8298C89.4196 80.8367 89.4705 80.8329 89.5193 80.8185C89.5681 80.8041 89.6136 80.7794 89.6534 80.7459C89.6931 80.7124 89.7262 80.6707 89.7507 80.6233C89.7752 80.5759 89.7906 80.5237 89.796 80.4699C89.8015 80.416 89.7968 80.3615 89.7823 80.3096C89.7678 80.2577 89.7438 80.2094 89.7117 80.1676C89.6795 80.1257 89.6399 80.0912 89.5952 80.066C89.4615 79.9869 89.3395 79.8872 89.2332 79.77L89.8212 79.407C89.8667 79.3816 89.907 79.3466 89.9396 79.3041C89.9722 79.2616 89.9964 79.2125 90.0107 79.1597C90.0251 79.1069 90.0293 79.0516 90.0232 78.997C90.017 78.9424 90.0006 78.8897 89.9749 78.8421C89.9492 78.7945 89.9148 78.753 89.8737 78.72C89.8326 78.6871 89.7857 78.6634 89.7358 78.6504C89.6859 78.6374 89.6341 78.6353 89.5835 78.6444C89.5328 78.6534 89.4844 78.6733 89.4412 78.703L88.8542 79.066C88.812 78.909 88.7918 78.7462 88.7942 78.583C88.7962 78.4751 88.7581 78.3708 88.6884 78.293C88.6186 78.2152 88.5229 78.1702 88.4222 78.168H88.4152C88.3157 78.1679 88.2201 78.2097 88.1491 78.2843C88.078 78.3589 88.0371 78.4604 88.0352 78.567C88.0299 78.8785 88.0798 79.1883 88.1822 79.48L86.6602 80.42V78.54C86.9476 78.4892 87.2235 78.3806 87.4732 78.22C87.5536 78.1615 87.6101 78.0721 87.6309 77.9704C87.6517 77.8686 87.6353 77.7622 87.5851 77.673C87.5349 77.5838 87.4546 77.5186 87.3609 77.4909C87.2671 77.4632 87.167 77.475 87.0812 77.524C86.9502 77.6082 86.8084 77.6712 86.6602 77.711V77.096C86.6602 76.988 86.6201 76.8845 86.5489 76.8082C86.4776 76.7318 86.3809 76.689 86.2802 76.689C86.1794 76.689 86.0827 76.7318 86.0115 76.8082C85.9402 76.8845 85.9002 76.988 85.9002 77.096V77.711C85.752 77.6712 85.6101 77.6082 85.4792 77.524C85.4365 77.4929 85.3883 77.4715 85.3376 77.461C85.2869 77.4506 85.2348 77.4513 85.1844 77.4631C85.1339 77.475 85.0863 77.4977 85.0443 77.5299C85.0024 77.5621 84.967 77.6031 84.9403 77.6505C84.9137 77.6978 84.8963 77.7505 84.8893 77.8052C84.8822 77.86 84.8857 77.9157 84.8994 77.969C84.9132 78.0223 84.9369 78.072 84.9692 78.1152C85.0015 78.1583 85.0416 78.194 85.0872 78.22C85.3368 78.3806 85.6127 78.4892 85.9002 78.54V80.42L84.3782 79.48C84.4807 79.188 84.5305 78.8778 84.5252 78.566C84.5232 78.4594 84.4823 78.3579 84.4113 78.2833C84.3402 78.2087 84.2447 78.1669 84.1452 78.167H84.1382C84.0375 78.1689 83.9416 78.2136 83.8717 78.2913C83.8017 78.3689 83.7634 78.4731 83.7652 78.581C83.7676 78.7446 83.7474 78.9077 83.7052 79.065L83.1192 78.703C83.076 78.6762 83.0282 78.6589 82.9788 78.6519C82.9293 78.6449 82.879 78.6485 82.8308 78.6623C82.7826 78.6761 82.7374 78.7 82.6978 78.7326C82.6582 78.7651 82.625 78.8057 82.6001 78.852C82.5751 78.8983 82.5589 78.9494 82.5524 79.0024C82.5459 79.0553 82.5492 79.1092 82.5621 79.1608C82.575 79.2125 82.5973 79.2609 82.6277 79.3033C82.6581 79.3457 82.6959 79.3812 82.7392 79.408L83.3262 79.77C83.2198 79.8872 83.0978 79.9869 82.9642 80.066C82.9194 80.0912 82.8798 80.1257 82.8476 80.1676C82.8155 80.2094 82.7915 80.2577 82.777 80.3096C82.7625 80.3615 82.7579 80.416 82.7633 80.4699C82.7687 80.5237 82.7841 80.5759 82.8086 80.6233C82.8331 80.6707 82.8662 80.7124 82.906 80.7459C82.9457 80.7794 82.9913 80.8041 83.04 80.8185C83.0888 80.8329 83.1398 80.8367 83.1899 80.8298C83.2401 80.8228 83.2884 80.8052 83.3322 80.778C83.5872 80.6271 83.8131 80.4258 83.9982 80.185L85.5202 81.125L83.9982 82.065C83.8132 81.8237 83.5872 81.6222 83.3322 81.471C83.2884 81.4437 83.2401 81.4261 83.1899 81.4191C83.1398 81.4122 83.0888 81.416 83.04 81.4304C82.9913 81.4448 82.9457 81.4695 82.906 81.503C82.8662 81.5366 82.8331 81.5783 82.8086 81.6257C82.7841 81.6731 82.7687 81.7252 82.7633 81.7791C82.7579 81.8329 82.7625 81.8874 82.777 81.9393C82.7915 81.9912 82.8155 82.0395 82.8476 82.0814C82.8798 82.1232 82.9194 82.1577 82.9642 82.183C83.0977 82.2617 83.2197 82.3611 83.3262 82.478L82.7392 82.843C82.6936 82.8683 82.6533 82.9033 82.6208 82.9458C82.5882 82.9883 82.564 83.0374 82.5496 83.0902C82.5352 83.143 82.531 83.1983 82.5372 83.2529C82.5433 83.3075 82.5597 83.3602 82.5854 83.4078C82.6111 83.4554 82.6456 83.4969 82.6867 83.5299C82.7278 83.5628 82.7747 83.5865 82.8245 83.5995C82.8744 83.6126 82.9262 83.6146 82.9769 83.6056C83.0275 83.5965 83.0759 83.5766 83.1192 83.547L83.7062 83.184C83.748 83.3413 83.7679 83.5044 83.7652 83.668C83.7637 83.7757 83.8021 83.8796 83.872 83.957C83.9419 84.0344 84.0376 84.079 84.1382 84.081H84.1452C84.2447 84.081 84.3402 84.0392 84.4113 83.9646C84.4823 83.89 84.5232 83.7885 84.5252 83.682C84.5304 83.3704 84.4805 83.0606 84.3782 82.769L85.9002 81.829V83.709C85.6127 83.7597 85.3368 83.8683 85.0872 84.029C85.0416 84.0549 85.0015 84.0906 84.9692 84.1337C84.9369 84.1769 84.9132 84.2266 84.8994 84.2799C84.8857 84.3332 84.8822 84.3889 84.8893 84.4437C84.8963 84.4985 84.9137 84.5511 84.9403 84.5985C84.967 84.6458 85.0024 84.6868 85.0443 84.719C85.0863 84.7512 85.1339 84.774 85.1844 84.7858C85.2348 84.7976 85.2869 84.7983 85.3376 84.7879C85.3883 84.7774 85.4365 84.756 85.4792 84.725C85.6098 84.6408 85.7513 84.5778 85.8992 84.538V85.153C85.8992 85.2609 85.9392 85.3644 86.0105 85.4408C86.0817 85.5171 86.1784 85.56 86.2792 85.56C86.3799 85.56 86.4766 85.5171 86.5479 85.4408C86.6191 85.3644 86.6592 85.2609 86.6592 85.153V84.538C86.8077 84.5776 86.9499 84.6406 87.0812 84.725C87.1673 84.7771 87.2691 84.7912 87.3648 84.7643C87.4605 84.7373 87.5426 84.6714 87.5936 84.5806C87.6447 84.4899 87.6607 84.3813 87.6382 84.2781C87.6157 84.1749 87.5565 84.0852 87.4732 84.028C87.2235 83.8673 86.9476 83.7587 86.6602 83.708V81.828L88.1822 82.769C88.0793 83.0609 88.0291 83.371 88.0342 83.683C88.0361 83.7895 88.077 83.891 88.1481 83.9656C88.2191 84.0402 88.3147 84.082 88.4142 84.082H88.4222C88.4721 84.081 88.5214 84.0695 88.5672 84.0481C88.613 84.0267 88.6544 83.9958 88.689 83.9573C88.7236 83.9188 88.7509 83.8733 88.7691 83.8235C88.7873 83.7736 88.7962 83.7205 88.7952 83.667C88.7924 83.5034 88.8123 83.3403 88.8542 83.183L89.4412 83.546C89.4844 83.5769 89.533 83.598 89.5842 83.608C89.6353 83.618 89.6878 83.6166 89.7384 83.604C89.789 83.5914 89.8366 83.5678 89.8784 83.5347C89.9202 83.5016 89.9551 83.4597 89.9812 83.4115C90.0072 83.3633 90.0237 83.31 90.0298 83.2547C90.0358 83.1994 90.0311 83.1434 90.0161 83.0901C90.0011 83.0368 89.9761 82.9874 89.9426 82.9449C89.909 82.9024 89.8677 82.8677 89.8212 82.843Z" fill="url(#paint5_radial_63_964)" stroke="url(#paint6_radial_63_964)" stroke-width="0.505"/>
<path d="M66.5634 82.843L65.9764 82.48C66.0824 82.3628 66.204 82.2631 66.3374 82.184C66.4189 82.1283 66.4776 82.0415 66.5014 81.9411C66.5253 81.8408 66.5125 81.7344 66.4657 81.6438C66.4189 81.5532 66.3417 81.485 66.2496 81.4533C66.1576 81.4216 66.0577 81.4286 65.9704 81.473C65.7154 81.6239 65.4894 81.8251 65.3044 82.066L63.7824 81.124L65.3044 80.184C65.4889 80.4251 65.7146 80.6267 65.9694 80.778C66.0131 80.8052 66.0614 80.8228 66.1116 80.8298C66.1618 80.8367 66.2127 80.8329 66.2615 80.8185C66.3102 80.8041 66.3558 80.7794 66.3956 80.7459C66.4353 80.7124 66.4684 80.6707 66.4929 80.6233C66.5174 80.5759 66.5328 80.5237 66.5382 80.4699C66.5437 80.416 66.539 80.3615 66.5245 80.3096C66.51 80.2577 66.486 80.2094 66.4539 80.1676C66.4217 80.1257 66.3821 80.0912 66.3374 80.066C66.2037 79.9869 66.0817 79.8872 65.9754 79.77L66.5634 79.407C66.6089 79.3816 66.6492 79.3466 66.6818 79.3041C66.7143 79.2616 66.7386 79.2125 66.7529 79.1597C66.7673 79.1069 66.7715 79.0516 66.7654 78.997C66.7592 78.9424 66.7428 78.8897 66.7171 78.8421C66.6914 78.7945 66.657 78.753 66.6159 78.72C66.5748 78.6871 66.5279 78.6634 66.478 78.6504C66.4281 78.6374 66.3763 78.6353 66.3256 78.6444C66.275 78.6534 66.2266 78.6733 66.1834 78.703L65.5964 79.066C65.5542 78.909 65.534 78.7462 65.5364 78.583C65.5384 78.4751 65.5003 78.3708 65.4305 78.293C65.3608 78.2152 65.2651 78.1702 65.1644 78.168H65.1574C65.0579 78.1679 64.9623 78.2097 64.8913 78.2843C64.8202 78.3589 64.7793 78.4604 64.7774 78.567C64.7721 78.8785 64.822 79.1883 64.9244 79.48L63.4024 80.42V78.54C63.6898 78.4892 63.9657 78.3806 64.2154 78.22C64.2958 78.1615 64.3523 78.0721 64.3731 77.9704C64.3939 77.8686 64.3775 77.7622 64.3273 77.673C64.2771 77.5838 64.1968 77.5186 64.1031 77.4909C64.0093 77.4632 63.9092 77.475 63.8234 77.524C63.6924 77.6082 63.5506 77.6712 63.4024 77.711V77.096C63.4024 76.988 63.3623 76.8845 63.2911 76.8082C63.2198 76.7318 63.1231 76.689 63.0224 76.689C62.9216 76.689 62.8249 76.7318 62.7537 76.8082C62.6824 76.8845 62.6424 76.988 62.6424 77.096V77.711C62.4942 77.6712 62.3523 77.6082 62.2214 77.524C62.1787 77.4929 62.1305 77.4715 62.0798 77.461C62.0291 77.4506 61.977 77.4513 61.9265 77.4631C61.8761 77.475 61.8285 77.4977 61.7865 77.5299C61.7446 77.5621 61.7092 77.6031 61.6825 77.6505C61.6559 77.6978 61.6385 77.7505 61.6315 77.8052C61.6244 77.86 61.6279 77.9157 61.6416 77.969C61.6554 78.0223 61.6791 78.072 61.7114 78.1152C61.7436 78.1583 61.7838 78.194 61.8294 78.22C62.079 78.3806 62.3549 78.4892 62.6424 78.54V80.42L61.1204 79.48C61.2228 79.188 61.2727 78.8778 61.2674 78.566C61.2654 78.4594 61.2245 78.3579 61.1535 78.2833C61.0824 78.2087 60.9869 78.1669 60.8874 78.167H60.8804C60.7797 78.1689 60.6838 78.2136 60.6139 78.2913C60.5439 78.3689 60.5056 78.4731 60.5074 78.581C60.5098 78.7446 60.4896 78.9077 60.4474 79.065L59.8614 78.703C59.7741 78.649 59.6703 78.6344 59.573 78.6623C59.4756 78.6903 59.3926 78.7585 59.3422 78.852C59.2919 78.9455 59.2782 79.0566 59.3043 79.1608C59.3304 79.2651 59.3941 79.354 59.4814 79.408L60.0684 79.77C59.962 79.8872 59.84 79.9869 59.7064 80.066C59.6616 80.0912 59.622 80.1257 59.5898 80.1676C59.5577 80.2094 59.5337 80.2577 59.5192 80.3096C59.5047 80.3615 59.5 80.416 59.5055 80.4699C59.5109 80.5237 59.5263 80.5759 59.5508 80.6233C59.5753 80.6707 59.6084 80.7124 59.6481 80.7459C59.6879 80.7794 59.7335 80.8041 59.7822 80.8185C59.831 80.8329 59.8819 80.8367 59.9321 80.8298C59.9823 80.8228 60.0306 80.8052 60.0744 80.778C60.3293 80.6271 60.5553 80.4258 60.7404 80.185L62.2624 81.125L60.7404 82.065C60.5554 81.8237 60.3294 81.6222 60.0744 81.471C60.0306 81.4437 59.9823 81.4261 59.9321 81.4191C59.8819 81.4122 59.831 81.416 59.7822 81.4304C59.7335 81.4448 59.6879 81.4695 59.6481 81.503C59.6084 81.5366 59.5753 81.5783 59.5508 81.6257C59.5263 81.6731 59.5109 81.7252 59.5055 81.7791C59.5 81.8329 59.5047 81.8874 59.5192 81.9393C59.5337 81.9912 59.5577 82.0395 59.5898 82.0814C59.622 82.1232 59.6616 82.1577 59.7064 82.183C59.8399 82.2617 59.9619 82.3611 60.0684 82.478L59.4814 82.843C59.4358 82.8683 59.3955 82.9033 59.3629 82.9458C59.3304 82.9883 59.3062 83.0374 59.2918 83.0902C59.2774 83.143 59.2732 83.1983 59.2794 83.2529C59.2855 83.3075 59.3019 83.3602 59.3276 83.4078C59.3533 83.4554 59.3878 83.4969 59.4289 83.5299C59.4699 83.5628 59.5168 83.5865 59.5667 83.5995C59.6166 83.6126 59.6684 83.6146 59.7191 83.6056C59.7697 83.5965 59.8181 83.5766 59.8614 83.547L60.4484 83.184C60.4902 83.3413 60.5101 83.5044 60.5074 83.668C60.5059 83.7757 60.5443 83.8796 60.6142 83.957C60.6841 84.0344 60.7798 84.079 60.8804 84.081H60.8874C60.9869 84.081 61.0824 84.0392 61.1535 83.9646C61.2245 83.89 61.2654 83.7885 61.2674 83.682C61.2726 83.3704 61.2227 83.0606 61.1204 82.769L62.6424 81.829V83.709C62.3549 83.7597 62.079 83.8683 61.8294 84.029C61.7838 84.0549 61.7436 84.0906 61.7114 84.1337C61.6791 84.1769 61.6554 84.2266 61.6416 84.2799C61.6279 84.3332 61.6244 84.3889 61.6315 84.4437C61.6385 84.4985 61.6559 84.5511 61.6825 84.5985C61.7092 84.6458 61.7446 84.6868 61.7865 84.719C61.8285 84.7512 61.8761 84.774 61.9265 84.7858C61.977 84.7976 62.0291 84.7983 62.0798 84.7879C62.1305 84.7774 62.1787 84.756 62.2214 84.725C62.352 84.6408 62.4935 84.5778 62.6414 84.538V85.153C62.6414 85.2609 62.6814 85.3644 62.7527 85.4408C62.8239 85.5171 62.9206 85.56 63.0214 85.56C63.1221 85.56 63.2188 85.5171 63.2901 85.4408C63.3613 85.3644 63.4014 85.2609 63.4014 85.153V84.538C63.5499 84.5776 63.6921 84.6406 63.8234 84.725C63.9095 84.7771 64.0113 84.7912 64.107 84.7643C64.2027 84.7373 64.2848 84.6714 64.3358 84.5806C64.3869 84.4899 64.4029 84.3813 64.3804 84.2781C64.3579 84.1749 64.2987 84.0852 64.2154 84.028C63.9657 83.8673 63.6898 83.7587 63.4024 83.708V81.828L64.9244 82.769C64.8215 83.0609 64.7713 83.371 64.7764 83.683C64.7783 83.7895 64.8192 83.891 64.8903 83.9656C64.9613 84.0402 65.0569 84.082 65.1564 84.082H65.1644C65.2143 84.081 65.2636 84.0695 65.3094 84.0481C65.3551 84.0267 65.3966 83.9958 65.4312 83.9573C65.4658 83.9188 65.4931 83.8733 65.5113 83.8235C65.5295 83.7736 65.5383 83.7205 65.5374 83.667C65.5346 83.5034 65.5545 83.3403 65.5964 83.183L66.1834 83.546C66.2266 83.5769 66.2752 83.598 66.3263 83.608C66.3775 83.618 66.4299 83.6166 66.4806 83.604C66.5312 83.5914 66.5788 83.5678 66.6206 83.5347C66.6623 83.5016 66.6973 83.4597 66.7234 83.4115C66.7494 83.3633 66.7659 83.31 66.7719 83.2547C66.778 83.1994 66.7733 83.1434 66.7583 83.0901C66.7433 83.0368 66.7183 82.9874 66.6848 82.9449C66.6512 82.9024 66.6099 82.8677 66.5634 82.843Z" fill="url(#paint7_radial_63_964)" stroke="url(#paint8_radial_63_964)" stroke-width="0.505"/>
<path d="M33.8163 97.3342L33.2293 96.9712C33.3353 96.854 33.457 96.7543 33.5903 96.6752C33.6718 96.6195 33.7305 96.5327 33.7543 96.4323C33.7782 96.332 33.7654 96.2256 33.7186 96.135C33.6719 96.0444 33.5946 95.9763 33.5026 95.9445C33.4105 95.9128 33.3106 95.9198 33.2233 95.9642C32.9683 96.1151 32.7423 96.3163 32.5573 96.5572L31.0353 95.6152L32.5573 94.6752C32.7419 94.9164 32.9675 95.1179 33.2223 95.2692C33.266 95.2964 33.3144 95.314 33.3645 95.321C33.4147 95.328 33.4657 95.3241 33.5144 95.3097C33.5632 95.2953 33.6088 95.2706 33.6485 95.2371C33.6882 95.2036 33.7213 95.1619 33.7458 95.1145C33.7703 95.0671 33.7857 95.0149 33.7912 94.9611C33.7966 94.9072 33.7919 94.8527 33.7774 94.8008C33.763 94.7489 33.7389 94.7006 33.7068 94.6588C33.6747 94.6169 33.6351 94.5824 33.5903 94.5572C33.4566 94.4781 33.3347 94.3784 33.2283 94.2612L33.8163 93.8982C33.8618 93.8728 33.9021 93.8378 33.9347 93.7953C33.9673 93.7528 33.9915 93.7037 34.0058 93.6509C34.0202 93.5982 34.0244 93.5428 34.0183 93.4882C34.0121 93.4336 33.9957 93.3809 33.97 93.3333C33.9443 93.2857 33.9099 93.2442 33.8688 93.2113C33.8277 93.1783 33.7808 93.1546 33.7309 93.1416C33.681 93.1286 33.6292 93.1265 33.5786 93.1356C33.5279 93.1446 33.4795 93.1646 33.4363 93.1942L32.8493 93.5572C32.8072 93.4002 32.7869 93.2375 32.7893 93.0742C32.7913 92.9663 32.7532 92.862 32.6835 92.7842C32.6137 92.7064 32.518 92.6614 32.4173 92.6592H32.4103C32.3108 92.6592 32.2152 92.7009 32.1442 92.7755C32.0731 92.8501 32.0322 92.9516 32.0303 93.0582C32.025 93.3697 32.0749 93.6795 32.1773 93.9712L30.6553 94.9112V93.0312C30.9427 92.9804 31.2186 92.8718 31.4683 92.7112C31.5487 92.6527 31.6052 92.5633 31.626 92.4616C31.6469 92.3598 31.6305 92.2534 31.5802 92.1642C31.53 92.075 31.4497 92.0099 31.356 91.9821C31.2622 91.9544 31.1621 91.9662 31.0763 92.0152C30.9454 92.0994 30.8035 92.1624 30.6553 92.2022V91.5872C30.6553 91.4792 30.6152 91.3757 30.544 91.2994C30.4727 91.2231 30.3761 91.1802 30.2753 91.1802C30.1745 91.1802 30.0778 91.2231 30.0066 91.2994C29.9353 91.3757 29.8953 91.4792 29.8953 91.5872V92.2022C29.7471 92.1624 29.6052 92.0994 29.4743 92.0152C29.4316 91.9841 29.3834 91.9627 29.3327 91.9523C29.282 91.9418 29.2299 91.9425 29.1795 91.9543C29.1291 91.9662 29.0814 91.9889 29.0395 92.0211C28.9975 92.0533 28.9621 92.0943 28.9355 92.1417C28.9088 92.189 28.8914 92.2417 28.8844 92.2964C28.8774 92.3512 28.8808 92.4069 28.8946 92.4602C28.9083 92.5135 28.932 92.5633 28.9643 92.6064C28.9966 92.6496 29.0367 92.6852 29.0823 92.7112C29.332 92.8718 29.6078 92.9804 29.8953 93.0312V94.9112L28.3733 93.9712C28.4758 93.6792 28.5257 93.369 28.5203 93.0572C28.5183 92.9506 28.4774 92.8491 28.4064 92.7745C28.3353 92.6999 28.2398 92.6582 28.1403 92.6582H28.1333C28.0326 92.6601 27.9367 92.7049 27.8668 92.7825C27.7968 92.8601 27.7585 92.9643 27.7603 93.0722C27.7627 93.2358 27.7425 93.3989 27.7003 93.5562L27.1143 93.1942C27.027 93.1402 26.9233 93.1256 26.8259 93.1535C26.7286 93.1815 26.6456 93.2497 26.5952 93.3432C26.5448 93.4367 26.5311 93.5478 26.5572 93.652C26.5833 93.7563 26.647 93.8452 26.7343 93.8992L27.3213 94.2612C27.2149 94.3784 27.0929 94.4781 26.9593 94.5572C26.9145 94.5824 26.8749 94.6169 26.8428 94.6588C26.8106 94.7006 26.7866 94.7489 26.7721 94.8008C26.7576 94.8527 26.753 94.9072 26.7584 94.9611C26.7638 95.0149 26.7793 95.0671 26.8038 95.1145C26.8283 95.1619 26.8613 95.2036 26.9011 95.2371C26.9408 95.2706 26.9864 95.2953 27.0352 95.3097C27.0839 95.3241 27.1349 95.328 27.185 95.321C27.2352 95.314 27.2836 95.2964 27.3273 95.2692C27.5823 95.1183 27.8083 94.9171 27.9933 94.6762L29.5153 95.6162L27.9933 96.5562C27.8083 96.3149 27.5824 96.1134 27.3273 95.9622C27.2836 95.9349 27.2352 95.9173 27.185 95.9104C27.1349 95.9034 27.0839 95.9072 27.0352 95.9216C26.9864 95.936 26.9408 95.9607 26.9011 95.9943C26.8613 96.0278 26.8283 96.0695 26.8038 96.1169C26.7793 96.1643 26.7638 96.2164 26.7584 96.2703C26.753 96.3242 26.7576 96.3786 26.7721 96.4305C26.7866 96.4824 26.8106 96.5307 26.8428 96.5726C26.8749 96.6144 26.9145 96.649 26.9593 96.6742C27.0929 96.7529 27.2148 96.8523 27.3213 96.9692L26.7343 97.3342C26.6887 97.3595 26.6485 97.3945 26.6159 97.437C26.5833 97.4795 26.5591 97.5286 26.5447 97.5814C26.5304 97.6342 26.5261 97.6896 26.5323 97.7441C26.5384 97.7987 26.5549 97.8514 26.5806 97.899C26.6063 97.9466 26.6407 97.9881 26.6818 98.0211C26.7229 98.0541 26.7698 98.0778 26.8197 98.0908C26.8695 98.1038 26.9214 98.1058 26.972 98.0968C27.0226 98.0877 27.071 98.0678 27.1143 98.0382L27.7013 97.6752C27.7432 97.8325 27.763 97.9956 27.7603 98.1592C27.7588 98.2669 27.7972 98.3708 27.8671 98.4482C27.937 98.5256 28.0327 98.5702 28.1333 98.5722H28.1403C28.2398 98.5722 28.3353 98.5304 28.4064 98.4558C28.4774 98.3812 28.5183 98.2797 28.5203 98.1732C28.5255 97.8616 28.4757 97.5519 28.3733 97.2602L29.8953 96.3202V98.2002C29.6078 98.2509 29.332 98.3595 29.0823 98.5202C29.0367 98.5462 28.9966 98.5818 28.9643 98.6249C28.932 98.6681 28.9083 98.7178 28.8946 98.7711C28.8808 98.8244 28.8774 98.8801 28.8844 98.9349C28.8914 98.9897 28.9088 99.0423 28.9355 99.0897C28.9621 99.137 28.9975 99.178 29.0395 99.2102C29.0814 99.2425 29.1291 99.2652 29.1795 99.277C29.2299 99.2888 29.282 99.2896 29.3327 99.2791C29.3834 99.2686 29.4316 99.2472 29.4743 99.2162C29.6049 99.132 29.7464 99.069 29.8943 99.0292V99.6442C29.8943 99.7521 29.9343 99.8556 30.0056 99.932C30.0768 100.008 30.1735 100.051 30.2743 100.051C30.3751 100.051 30.4717 100.008 30.543 99.932C30.6143 99.8556 30.6543 99.7521 30.6543 99.6442V99.0292C30.8028 99.0688 30.945 99.1319 31.0763 99.2162C31.1624 99.2683 31.2642 99.2824 31.3599 99.2555C31.4556 99.2285 31.5377 99.1626 31.5888 99.0719C31.6398 98.9811 31.6558 98.8725 31.6333 98.7693C31.6108 98.6661 31.5516 98.5764 31.4683 98.5192C31.2186 98.3585 30.9427 98.2499 30.6553 98.1992V96.3192L32.1773 97.2602C32.0745 97.5521 32.0242 97.8622 32.0293 98.1742C32.0312 98.2807 32.0721 98.3822 32.1432 98.4568C32.2142 98.5314 32.3098 98.5732 32.4093 98.5732H32.4173C32.4672 98.5722 32.5165 98.5607 32.5623 98.5393C32.6081 98.5179 32.6495 98.4871 32.6841 98.4485C32.7188 98.41 32.746 98.3645 32.7642 98.3147C32.7824 98.2648 32.7913 98.2117 32.7903 98.1582C32.7875 97.9946 32.8074 97.8315 32.8493 97.6742L33.4363 98.0372C33.4795 98.0681 33.5282 98.0892 33.5793 98.0992C33.6304 98.1092 33.6829 98.1078 33.7335 98.0952C33.7841 98.0826 33.8317 98.059 33.8735 98.0259C33.9153 97.9928 33.9503 97.9509 33.9763 97.9027C34.0023 97.8545 34.0189 97.8012 34.0249 97.7459C34.0309 97.6906 34.0263 97.6346 34.0113 97.5813C33.9963 97.528 33.9712 97.4786 33.9377 97.4361C33.9042 97.3936 33.8628 97.3589 33.8163 97.3342Z" fill="url(#paint9_radial_63_964)" stroke="url(#paint10_radial_63_964)" stroke-width="0.505"/>
<path d="M54.1032 97.3342L53.5161 96.9712C53.6222 96.854 53.7438 96.7543 53.8771 96.6752C53.9587 96.6195 54.0174 96.5327 54.0412 96.4323C54.0651 96.332 54.0523 96.2256 54.0055 96.135C53.9587 96.0444 53.8815 95.9763 53.7894 95.9445C53.6974 95.9128 53.5975 95.9198 53.5102 95.9642C53.2552 96.1151 53.0292 96.3163 52.8442 96.5572L51.3221 95.6152L52.8442 94.6752C53.0287 94.9164 53.2544 95.1179 53.5091 95.2692C53.5529 95.2964 53.6012 95.314 53.6514 95.321C53.7016 95.328 53.7525 95.3241 53.8013 95.3097C53.85 95.2953 53.8956 95.2706 53.9354 95.2371C53.9751 95.2036 54.0082 95.1619 54.0327 95.1145C54.0572 95.0671 54.0726 95.0149 54.078 94.9611C54.0835 94.9072 54.0788 94.8527 54.0643 94.8008C54.0498 94.7489 54.0258 94.7006 53.9937 94.6588C53.9615 94.6169 53.9219 94.5824 53.8771 94.5572C53.7435 94.4781 53.6215 94.3784 53.5152 94.2612L54.1032 93.8982C54.1487 93.8728 54.189 93.8378 54.2216 93.7953C54.2541 93.7528 54.2783 93.7037 54.2927 93.6509C54.3071 93.5982 54.3113 93.5428 54.3052 93.4882C54.299 93.4336 54.2826 93.3809 54.2569 93.3333C54.2312 93.2857 54.1967 93.2442 54.1557 93.2113C54.1146 93.1783 54.0677 93.1546 54.0178 93.1416C53.9679 93.1286 53.9161 93.1265 53.8654 93.1356C53.8148 93.1446 53.7664 93.1646 53.7232 93.1942L53.1362 93.5572C53.094 93.4002 53.0738 93.2375 53.0762 93.0742C53.0782 92.9663 53.0401 92.862 52.9703 92.7842C52.9006 92.7064 52.8048 92.6614 52.7041 92.6592H52.6971C52.5976 92.6592 52.5021 92.7009 52.4311 92.7755C52.36 92.8501 52.3191 92.9516 52.3172 93.0582C52.3119 93.3697 52.3618 93.6795 52.4642 93.9712L50.9422 94.9112V93.0312C51.2296 92.9804 51.5055 92.8718 51.7552 92.7112C51.8356 92.6527 51.8921 92.5633 51.9129 92.4616C51.9337 92.3598 51.9173 92.2534 51.8671 92.1642C51.8169 92.075 51.7366 92.0099 51.6429 91.9821C51.5491 91.9544 51.449 91.9662 51.3631 92.0152C51.2322 92.0994 51.0903 92.1624 50.9422 92.2022V91.5872C50.9422 91.4792 50.9021 91.3757 50.8309 91.2994C50.7596 91.2231 50.6629 91.1802 50.5622 91.1802C50.4614 91.1802 50.3647 91.2231 50.2935 91.2994C50.2222 91.3757 50.1821 91.4792 50.1821 91.5872V92.2022C50.034 92.1624 49.8921 92.0994 49.7612 92.0152C49.7184 91.9841 49.6703 91.9627 49.6196 91.9523C49.5689 91.9418 49.5168 91.9425 49.4663 91.9543C49.4159 91.9662 49.3683 91.9889 49.3263 92.0211C49.2844 92.0533 49.249 92.0943 49.2223 92.1417C49.1957 92.189 49.1783 92.2417 49.1713 92.2964C49.1642 92.3512 49.1677 92.4069 49.1814 92.4602C49.1952 92.5135 49.2189 92.5633 49.2512 92.6064C49.2834 92.6496 49.3236 92.6852 49.3692 92.7112C49.6188 92.8718 49.8947 92.9804 50.1821 93.0312V94.9112L48.6602 93.9712C48.7626 93.6792 48.8125 93.369 48.8072 93.0572C48.8052 92.9506 48.7643 92.8491 48.6932 92.7745C48.6222 92.6999 48.5267 92.6582 48.4272 92.6582H48.4202C48.3194 92.6601 48.2236 92.7049 48.1536 92.7825C48.0837 92.8601 48.0454 92.9643 48.0472 93.0722C48.0496 93.2358 48.0294 93.3989 47.9872 93.5562L47.4012 93.1942C47.3579 93.1675 47.3102 93.1501 47.2607 93.1431C47.2113 93.1362 47.161 93.1397 47.1128 93.1535C47.0646 93.1674 47.0194 93.1912 46.9798 93.2238C46.9402 93.2563 46.907 93.2969 46.882 93.3432C46.8571 93.3895 46.8409 93.4406 46.8344 93.4936C46.8279 93.5466 46.8312 93.6004 46.8441 93.652C46.857 93.7037 46.8793 93.7521 46.9097 93.7945C46.94 93.8369 46.9779 93.8725 47.0212 93.8992L47.6082 94.2612C47.5018 94.3784 47.3798 94.4781 47.2462 94.5572C47.2014 94.5824 47.1618 94.6169 47.1296 94.6588C47.0975 94.7006 47.0735 94.7489 47.059 94.8008C47.0445 94.8527 47.0398 94.9072 47.0453 94.9611C47.0507 95.0149 47.0661 95.0671 47.0906 95.1145C47.1151 95.1619 47.1482 95.2036 47.1879 95.2371C47.2277 95.2706 47.2733 95.2953 47.322 95.3097C47.3708 95.3241 47.4217 95.328 47.4719 95.321C47.5221 95.314 47.5704 95.2964 47.6142 95.2692C47.8691 95.1183 48.0951 94.9171 48.2801 94.6762L49.8022 95.6162L48.2801 96.5562C48.0952 96.3149 47.8692 96.1134 47.6142 95.9622C47.5704 95.9349 47.5221 95.9173 47.4719 95.9104C47.4217 95.9034 47.3708 95.9072 47.322 95.9216C47.2733 95.936 47.2277 95.9607 47.1879 95.9943C47.1482 96.0278 47.1151 96.0695 47.0906 96.1169C47.0661 96.1643 47.0507 96.2164 47.0453 96.2703C47.0398 96.3242 47.0445 96.3786 47.059 96.4305C47.0735 96.4824 47.0975 96.5307 47.1296 96.5726C47.1618 96.6144 47.2014 96.649 47.2462 96.6742C47.3797 96.7529 47.5017 96.8523 47.6082 96.9692L47.0212 97.3342C46.9756 97.3595 46.9353 97.3945 46.9027 97.437C46.8702 97.4795 46.846 97.5286 46.8316 97.5814C46.8172 97.6342 46.813 97.6896 46.8192 97.7441C46.8253 97.7987 46.8417 97.8514 46.8674 97.899C46.8931 97.9466 46.9276 97.9881 46.9686 98.0211C47.0097 98.0541 47.0566 98.0778 47.1065 98.0908C47.1564 98.1038 47.2082 98.1058 47.2589 98.0968C47.3095 98.0877 47.3579 98.0678 47.4012 98.0382L47.9881 97.6752C48.03 97.8325 48.0499 97.9956 48.0472 98.1592C48.0457 98.2669 48.0841 98.3708 48.154 98.4482C48.2239 98.5256 48.3196 98.5702 48.4202 98.5722H48.4272C48.5267 98.5722 48.6222 98.5304 48.6932 98.4558C48.7643 98.3812 48.8052 98.2797 48.8072 98.1732C48.8124 97.8616 48.7625 97.5519 48.6602 97.2602L50.1821 96.3202V98.2002C49.8947 98.2509 49.6188 98.3595 49.3692 98.5202C49.3236 98.5462 49.2834 98.5818 49.2512 98.6249C49.2189 98.6681 49.1952 98.7178 49.1814 98.7711C49.1677 98.8244 49.1642 98.8801 49.1713 98.9349C49.1783 98.9897 49.1957 99.0423 49.2223 99.0897C49.249 99.137 49.2844 99.178 49.3263 99.2102C49.3683 99.2425 49.4159 99.2652 49.4663 99.277C49.5168 99.2888 49.5689 99.2896 49.6196 99.2791C49.6703 99.2686 49.7184 99.2472 49.7612 99.2162C49.8918 99.132 50.0333 99.069 50.1812 99.0292V99.6442C50.1812 99.7521 50.2212 99.8556 50.2925 99.932C50.3637 100.008 50.4604 100.051 50.5612 100.051C50.6619 100.051 50.7586 100.008 50.8299 99.932C50.9011 99.8556 50.9412 99.7521 50.9412 99.6442V99.0292C51.0897 99.0688 51.2319 99.1319 51.3631 99.2162C51.4493 99.2683 51.551 99.2824 51.6467 99.2555C51.7424 99.2285 51.8246 99.1626 51.8756 99.0719C51.9267 98.9811 51.9427 98.8725 51.9202 98.7693C51.8977 98.6661 51.8385 98.5764 51.7552 98.5192C51.5055 98.3585 51.2296 98.2499 50.9422 98.1992V96.3192L52.4642 97.2602C52.3613 97.5521 52.3111 97.8622 52.3162 98.1742C52.3181 98.2807 52.359 98.3822 52.4301 98.4568C52.5011 98.5314 52.5966 98.5732 52.6961 98.5732H52.7041C52.7541 98.5722 52.8034 98.5607 52.8492 98.5393C52.8949 98.5179 52.9363 98.4871 52.971 98.4485C53.0056 98.41 53.0328 98.3645 53.0511 98.3147C53.0693 98.2648 53.0781 98.2117 53.0772 98.1582C53.0744 97.9946 53.0943 97.8315 53.1362 97.6742L53.7232 98.0372C53.7664 98.0681 53.815 98.0892 53.8661 98.0992C53.9172 98.1092 53.9697 98.1078 54.0203 98.0952C54.071 98.0826 54.1186 98.059 54.1604 98.0259C54.2021 97.9928 54.2371 97.9509 54.2632 97.9027C54.2892 97.8545 54.3057 97.8012 54.3117 97.7459C54.3177 97.6906 54.3131 97.6346 54.2981 97.5813C54.2831 97.528 54.2581 97.4786 54.2246 97.4361C54.191 97.3936 54.1497 97.3589 54.1032 97.3342Z" fill="url(#paint11_radial_63_964)" stroke="url(#paint12_radial_63_964)" stroke-width="0.505"/>
<path d="M52.915 86.308L52.587 86.105C52.6465 86.04 52.7145 85.9848 52.789 85.941C52.8383 85.9119 52.8748 85.863 52.8904 85.8051C52.9061 85.7472 52.8996 85.685 52.8724 85.6323C52.8452 85.5795 52.7996 85.5404 52.7455 85.5237C52.6914 85.507 52.6333 85.5139 52.584 85.543C52.4416 85.6272 52.3154 85.7395 52.212 85.874L51.363 85.349L52.213 84.825C52.3159 84.959 52.4414 85.0709 52.583 85.155C52.6074 85.1715 52.6347 85.1826 52.6632 85.1874C52.6916 85.1922 52.7207 85.1908 52.7487 85.1832C52.7766 85.1756 52.8028 85.1619 52.8257 85.1431C52.8486 85.1243 52.8676 85.1006 52.8816 85.0737C52.8957 85.0467 52.9044 85.0169 52.9073 84.9862C52.9102 84.9555 52.9073 84.9245 52.8986 84.895C52.89 84.8655 52.8758 84.8383 52.8569 84.8149C52.8381 84.7915 52.815 84.7725 52.789 84.759C52.7145 84.715 52.6464 84.6594 52.587 84.594L52.915 84.391C52.9399 84.3765 52.9618 84.3569 52.9795 84.3332C52.9971 84.3095 53.0102 84.2823 53.0179 84.2531C53.0255 84.224 53.0277 84.1934 53.0242 84.1634C53.0206 84.1333 53.0115 84.1043 52.9974 84.078C52.9832 84.0518 52.9643 84.0289 52.9417 84.0106C52.9192 83.9923 52.8934 83.979 52.866 83.9716C52.8385 83.9641 52.81 83.9626 52.782 83.9671C52.754 83.9717 52.7272 83.9822 52.703 83.998L52.375 84.201C52.3517 84.1133 52.3405 84.0223 52.342 83.931C52.3427 83.9012 52.3378 83.8714 52.3276 83.8436C52.3175 83.8158 52.3024 83.7903 52.283 83.7688C52.2637 83.7472 52.2406 83.73 52.215 83.718C52.1895 83.706 52.1619 83.6996 52.134 83.699H52.13C52.0745 83.699 52.0211 83.7224 51.9814 83.7641C51.9418 83.8058 51.919 83.8625 51.918 83.922C51.915 84.096 51.9429 84.2691 52 84.432L51.151 84.956V83.907C51.3115 83.8789 51.4656 83.8185 51.605 83.729C51.6532 83.6978 51.6878 83.6473 51.7013 83.5888C51.7147 83.5302 51.7059 83.4683 51.6767 83.4167C51.6475 83.3652 51.6004 83.3281 51.5457 83.3137C51.491 83.2993 51.4332 83.3088 51.385 83.34C51.3123 83.3868 51.2334 83.4219 51.151 83.444V83.101C51.151 83.0408 51.1287 82.9831 51.089 82.9405C51.0492 82.8979 50.9953 82.874 50.939 82.874C50.8828 82.874 50.8289 82.8979 50.7891 82.9405C50.7494 82.9831 50.727 83.0408 50.727 83.101V83.444C50.6443 83.422 50.5651 83.3869 50.492 83.34C50.4682 83.3246 50.4417 83.3144 50.4142 83.31C50.3867 83.3055 50.3586 83.3069 50.3315 83.3141C50.3045 83.3213 50.279 83.3341 50.2566 83.3518C50.2342 83.3695 50.2153 83.3917 50.2009 83.4173C50.1865 83.4428 50.177 83.4711 50.1728 83.5006C50.1687 83.5301 50.17 83.5602 50.1767 83.5891C50.1834 83.6181 50.1953 83.6453 50.2119 83.6693C50.2284 83.6933 50.2492 83.7136 50.273 83.729C50.4125 83.8185 50.5666 83.8789 50.727 83.907V84.957L49.878 84.431C49.9352 84.2681 49.9631 84.095 49.96 83.921C49.9588 83.8617 49.9359 83.8052 49.8963 83.7637C49.8567 83.7222 49.8035 83.699 49.748 83.699H49.744C49.6879 83.7001 49.6344 83.7251 49.5954 83.7684C49.5564 83.8117 49.535 83.8699 49.536 83.93C49.5376 84.0213 49.5264 84.1123 49.503 84.2L49.175 83.998C49.1509 83.9822 49.1241 83.9717 49.0961 83.9671C49.0681 83.9626 49.0396 83.9641 49.0121 83.9716C48.9847 83.979 48.9589 83.9923 48.9364 84.0106C48.9138 84.0289 48.8949 84.0518 48.8807 84.078C48.8666 84.1043 48.8575 84.1333 48.8539 84.1634C48.8504 84.1934 48.8526 84.224 48.8602 84.2531C48.8679 84.2823 48.881 84.3095 48.8986 84.3332C48.9163 84.3569 48.9382 84.3765 48.963 84.391L49.291 84.594C49.2317 84.6594 49.1636 84.715 49.089 84.759C49.0635 84.7727 49.0409 84.7918 49.0224 84.8152C49.004 84.8385 48.9901 84.8656 48.9817 84.8948C48.9732 84.924 48.9704 84.9547 48.9733 84.9851C48.9762 85.0155 48.9848 85.045 48.9987 85.0717C49.0125 85.0985 49.0312 85.122 49.0537 85.1408C49.0762 85.1596 49.102 85.1734 49.1296 85.1812C49.1572 85.1891 49.186 85.1909 49.2142 85.1866C49.2425 85.1823 49.2696 85.1719 49.294 85.156C49.4365 85.0718 49.5627 84.9595 49.666 84.825L50.515 85.349L49.666 85.873C49.5626 85.7389 49.4364 85.6269 49.294 85.543C49.2696 85.5272 49.2425 85.5168 49.2142 85.5125C49.186 85.5081 49.1572 85.5099 49.1296 85.5178C49.102 85.5257 49.0762 85.5394 49.0537 85.5583C49.0312 85.5771 49.0125 85.6006 48.9987 85.6273C48.9848 85.6541 48.9762 85.6835 48.9733 85.714C48.9704 85.7444 48.9732 85.7751 48.9817 85.8043C48.9901 85.8335 49.004 85.8606 49.0224 85.8839C49.0409 85.9072 49.0635 85.9263 49.089 85.94C49.1636 85.9841 49.2317 86.0397 49.291 86.105L48.963 86.308C48.9382 86.3225 48.9163 86.3422 48.8986 86.3658C48.881 86.3895 48.8679 86.4167 48.8602 86.4459C48.8526 86.4751 48.8504 86.5056 48.8539 86.5357C48.8575 86.5657 48.8666 86.5948 48.8807 86.621C48.8949 86.6472 48.9138 86.6702 48.9364 86.6885C48.9589 86.7068 48.9847 86.72 49.0121 86.7275C49.0396 86.7349 49.0681 86.7364 49.0961 86.7319C49.1241 86.7274 49.1509 86.7169 49.175 86.701L49.503 86.498C49.5264 86.5858 49.5376 86.6768 49.536 86.768C49.5353 86.828 49.5568 86.8859 49.5957 86.929C49.6347 86.9721 49.688 86.9969 49.744 86.998H49.748C49.8035 86.998 49.8567 86.9748 49.8963 86.9333C49.9359 86.8918 49.9588 86.8354 49.96 86.776C49.9631 86.602 49.9352 86.429 49.878 86.266L50.728 85.742V86.791C50.5672 86.819 50.4128 86.8794 50.273 86.969C50.2491 86.9845 50.2283 87.0048 50.2117 87.0289C50.1952 87.053 50.1832 87.0804 50.1765 87.1094C50.1698 87.1385 50.1685 87.1686 50.1727 87.1982C50.1769 87.2278 50.1865 87.2562 50.2009 87.2818C50.2154 87.3074 50.2344 87.3297 50.2569 87.3475C50.2794 87.3652 50.3049 87.378 50.3321 87.3852C50.3592 87.3924 50.3874 87.3937 50.415 87.3893C50.4426 87.3848 50.4691 87.3745 50.493 87.359C50.5658 87.3119 50.6446 87.2765 50.727 87.254V87.597C50.727 87.6572 50.7494 87.715 50.7891 87.7575C50.8289 87.8001 50.8828 87.824 50.939 87.824C50.9953 87.824 51.0492 87.8001 51.089 87.7575C51.1287 87.715 51.151 87.6572 51.151 87.597V87.254C51.2338 87.2761 51.3129 87.3111 51.386 87.358C51.4099 87.3734 51.4364 87.3836 51.4639 87.3881C51.4914 87.3925 51.5195 87.3911 51.5466 87.384C51.5736 87.3768 51.599 87.364 51.6215 87.3463C51.6439 87.3286 51.6628 87.3063 51.6772 87.2808C51.6916 87.2552 51.7011 87.2269 51.7053 87.1974C51.7094 87.1679 51.7081 87.1378 51.7014 87.1089C51.6947 87.0799 51.6828 87.0527 51.6662 87.0287C51.6497 87.0047 51.6289 86.9844 51.605 86.969C51.4656 86.8795 51.3115 86.8191 51.151 86.791V85.742L52.001 86.267C51.9435 86.4299 51.9153 86.6029 51.918 86.777C51.9193 86.8364 51.9421 86.8928 51.9818 86.9343C52.0214 86.9758 52.0746 86.999 52.13 86.999H52.134C52.1902 86.9979 52.2437 86.9729 52.2827 86.9296C52.3217 86.8863 52.343 86.8282 52.342 86.768C52.3405 86.6768 52.3517 86.5858 52.375 86.498L52.703 86.7C52.7271 86.7174 52.7543 86.7292 52.7829 86.7349C52.8114 86.7405 52.8407 86.7398 52.869 86.7328C52.8973 86.7258 52.924 86.7127 52.9473 86.6942C52.9707 86.6757 52.9902 86.6523 53.0048 86.6254C53.0193 86.5985 53.0286 86.5687 53.0319 86.5378C53.0353 86.5069 53.0326 86.4756 53.0242 86.4459C53.0158 86.4161 53.0018 86.3885 52.983 86.3648C52.9642 86.3411 52.9411 86.3218 52.915 86.308Z" fill="url(#paint13_radial_63_964)" stroke="url(#paint14_radial_63_964)" stroke-width="0.282"/>
<path d="M76.9211 86.308L76.5932 86.105C76.6526 86.04 76.7206 85.9848 76.7951 85.941C76.8444 85.9119 76.8809 85.863 76.8965 85.8051C76.9122 85.7472 76.9057 85.685 76.8785 85.6323C76.8513 85.5795 76.8057 85.5404 76.7516 85.5237C76.6975 85.507 76.6394 85.5139 76.5902 85.543C76.4477 85.6272 76.3215 85.7395 76.2182 85.874L75.3692 85.349L76.2192 84.825C76.322 84.959 76.4475 85.0709 76.5891 85.155C76.6135 85.1715 76.6408 85.1826 76.6693 85.1874C76.6977 85.1922 76.7269 85.1908 76.7548 85.1832C76.7828 85.1756 76.809 85.1619 76.8318 85.1431C76.8547 85.1243 76.8737 85.1006 76.8877 85.0737C76.9018 85.0467 76.9105 85.0169 76.9134 84.9862C76.9164 84.9555 76.9134 84.9245 76.9047 84.895C76.8961 84.8655 76.8819 84.8383 76.863 84.8149C76.8442 84.7915 76.8211 84.7725 76.7951 84.759C76.7206 84.715 76.6525 84.6594 76.5932 84.594L76.9211 84.391C76.946 84.3765 76.9679 84.3569 76.9856 84.3332C77.0032 84.3095 77.0163 84.2823 77.024 84.2531C77.0316 84.224 77.0338 84.1934 77.0303 84.1634C77.0267 84.1333 77.0176 84.1043 77.0035 84.078C76.9893 84.0518 76.9704 84.0289 76.9478 84.0106C76.9253 83.9923 76.8995 83.979 76.8721 83.9716C76.8446 83.9641 76.8161 83.9626 76.7881 83.9671C76.7601 83.9717 76.7333 83.9822 76.7091 83.998L76.3811 84.201C76.3578 84.1133 76.3466 84.0223 76.3481 83.931C76.3488 83.9012 76.3439 83.8714 76.3337 83.8436C76.3236 83.8158 76.3085 83.7903 76.2891 83.7688C76.2698 83.7472 76.2467 83.73 76.2211 83.718C76.1956 83.706 76.168 83.6996 76.1401 83.699H76.1362C76.0806 83.699 76.0272 83.7224 75.9875 83.7641C75.9479 83.8058 75.9251 83.8625 75.9242 83.922C75.9211 84.096 75.949 84.2691 76.0061 84.432L75.1571 84.956V83.907C75.3176 83.8789 75.4717 83.8185 75.6111 83.729C75.6593 83.6978 75.6939 83.6473 75.7074 83.5888C75.7208 83.5302 75.712 83.4683 75.6828 83.4167C75.6536 83.3652 75.6065 83.3281 75.5518 83.3137C75.4971 83.2993 75.4393 83.3088 75.3911 83.34C75.3184 83.3868 75.2395 83.4219 75.1571 83.444V83.101C75.1571 83.0408 75.1348 82.9831 75.0951 82.9405C75.0553 82.8979 75.0014 82.874 74.9451 82.874C74.8889 82.874 74.835 82.8979 74.7952 82.9405C74.7555 82.9831 74.7332 83.0408 74.7332 83.101V83.444C74.6504 83.422 74.5713 83.3869 74.4982 83.34C74.45 83.3089 74.3922 83.2996 74.3376 83.3141C74.283 83.3286 74.236 83.3657 74.207 83.4173C74.178 83.4689 74.1692 83.5307 74.1828 83.5891C74.1963 83.6476 74.231 83.6979 74.2791 83.729C74.4186 83.8185 74.5727 83.8789 74.7332 83.907V84.957L73.8842 84.431C73.9413 84.2681 73.9692 84.095 73.9662 83.921C73.9649 83.8617 73.9421 83.8052 73.9024 83.7637C73.8628 83.7222 73.8096 83.699 73.7541 83.699H73.7501C73.694 83.7001 73.6405 83.7251 73.6015 83.7684C73.5625 83.8117 73.5411 83.8699 73.5421 83.93C73.5437 84.0213 73.5325 84.1123 73.5092 84.2L73.1811 83.998C73.157 83.9822 73.1302 83.9717 73.1022 83.9671C73.0742 83.9626 73.0457 83.9641 73.0182 83.9716C72.9908 83.979 72.965 83.9923 72.9425 84.0106C72.9199 84.0289 72.901 84.0518 72.8868 84.078C72.8727 84.1043 72.8636 84.1333 72.86 84.1634C72.8565 84.1934 72.8587 84.224 72.8663 84.2531C72.874 84.2823 72.8871 84.3095 72.9047 84.3332C72.9224 84.3569 72.9443 84.3765 72.9692 84.391L73.2971 84.594C73.2378 84.6594 73.1697 84.715 73.0952 84.759C73.0696 84.7727 73.047 84.7918 73.0285 84.8152C73.0101 84.8385 72.9962 84.8656 72.9878 84.8948C72.9793 84.924 72.9765 84.9547 72.9794 84.9851C72.9823 85.0155 72.9909 85.045 73.0048 85.0717C73.0186 85.0985 73.0373 85.122 73.0598 85.1408C73.0823 85.1596 73.1081 85.1734 73.1357 85.1812C73.1633 85.1891 73.1921 85.1909 73.2203 85.1866C73.2486 85.1823 73.2757 85.1719 73.3002 85.156C73.4426 85.0718 73.5688 84.9595 73.6721 84.825L74.5212 85.349L73.6721 85.873C73.5687 85.7389 73.4425 85.6269 73.3002 85.543C73.2757 85.5272 73.2486 85.5168 73.2203 85.5125C73.1921 85.5081 73.1633 85.5099 73.1357 85.5178C73.1081 85.5257 73.0823 85.5394 73.0598 85.5583C73.0373 85.5771 73.0186 85.6006 73.0048 85.6273C72.9909 85.6541 72.9823 85.6835 72.9794 85.714C72.9765 85.7444 72.9793 85.7751 72.9878 85.8043C72.9962 85.8335 73.0101 85.8606 73.0285 85.8839C73.047 85.9072 73.0696 85.9263 73.0952 85.94C73.1697 85.9841 73.2378 86.0397 73.2971 86.105L72.9692 86.308C72.9443 86.3225 72.9224 86.3422 72.9047 86.3658C72.8871 86.3895 72.874 86.4167 72.8663 86.4459C72.8587 86.4751 72.8565 86.5056 72.86 86.5357C72.8636 86.5657 72.8727 86.5948 72.8868 86.621C72.901 86.6472 72.9199 86.6702 72.9425 86.6885C72.965 86.7068 72.9908 86.72 73.0182 86.7275C73.0457 86.7349 73.0742 86.7364 73.1022 86.7319C73.1302 86.7274 73.157 86.7169 73.1811 86.701L73.5092 86.498C73.5325 86.5858 73.5437 86.6768 73.5421 86.768C73.5414 86.828 73.5629 86.8859 73.6018 86.929C73.6408 86.9721 73.6941 86.9969 73.7501 86.998H73.7541C73.8096 86.998 73.8628 86.9748 73.9024 86.9333C73.9421 86.8918 73.9649 86.8354 73.9662 86.776C73.9692 86.602 73.9413 86.429 73.8842 86.266L74.7342 85.742V86.791C74.5733 86.819 74.4189 86.8794 74.2791 86.969C74.2552 86.9845 74.2344 87.0048 74.2178 87.0289C74.2013 87.053 74.1893 87.0804 74.1826 87.1094C74.1759 87.1385 74.1746 87.1686 74.1788 87.1982C74.183 87.2278 74.1926 87.2562 74.207 87.2818C74.2215 87.3074 74.2405 87.3297 74.263 87.3475C74.2855 87.3652 74.311 87.378 74.3382 87.3852C74.3653 87.3924 74.3935 87.3937 74.4211 87.3893C74.4487 87.3848 74.4752 87.3745 74.4991 87.359C74.5719 87.3119 74.6507 87.2765 74.7332 87.254V87.597C74.7332 87.6572 74.7555 87.715 74.7952 87.7575C74.835 87.8001 74.8889 87.824 74.9451 87.824C75.0014 87.824 75.0553 87.8001 75.0951 87.7575C75.1348 87.715 75.1571 87.6572 75.1571 87.597V87.254C75.2399 87.2761 75.319 87.3111 75.3921 87.358C75.416 87.3734 75.4425 87.3836 75.47 87.3881C75.4975 87.3925 75.5256 87.3911 75.5527 87.384C75.5797 87.3768 75.6052 87.364 75.6276 87.3463C75.65 87.3286 75.6689 87.3063 75.6833 87.2808C75.6977 87.2552 75.7072 87.2269 75.7114 87.1974C75.7155 87.1679 75.7142 87.1378 75.7075 87.1089C75.7008 87.0799 75.6889 87.0527 75.6723 87.0287C75.6558 87.0047 75.635 86.9844 75.6111 86.969C75.4717 86.8795 75.3176 86.8191 75.1571 86.791V85.742L76.0072 86.267C75.9496 86.4299 75.9215 86.6029 75.9242 86.777C75.9254 86.8364 75.9482 86.8928 75.9879 86.9343C76.0275 86.9758 76.0807 86.999 76.1362 86.999H76.1401C76.1963 86.9979 76.2498 86.9729 76.2888 86.9296C76.3278 86.8863 76.3491 86.8282 76.3481 86.768C76.3466 86.6768 76.3578 86.5858 76.3811 86.498L76.7091 86.7C76.7332 86.7174 76.7604 86.7292 76.789 86.7349C76.8175 86.7405 76.8469 86.7398 76.8751 86.7328C76.9034 86.7258 76.9301 86.7127 76.9534 86.6942C76.9768 86.6757 76.9963 86.6523 77.0109 86.6254C77.0254 86.5985 77.0347 86.5687 77.038 86.5378C77.0414 86.5069 77.0387 86.4756 77.0303 86.4459C77.0219 86.4161 77.0079 86.3885 76.9891 86.3648C76.9703 86.3411 76.9472 86.3218 76.9211 86.308Z" fill="url(#paint15_radial_63_964)" stroke="url(#paint16_radial_63_964)" stroke-width="0.282"/>
<path d="M28.9102 86.308L28.5822 86.105C28.6416 86.04 28.7096 85.9848 28.7842 85.941C28.8335 85.9119 28.8699 85.863 28.8856 85.8051C28.9012 85.7472 28.8947 85.685 28.8675 85.6323C28.8403 85.5795 28.7947 85.5404 28.7406 85.5237C28.6865 85.507 28.6285 85.5139 28.5792 85.543C28.4367 85.6272 28.3105 85.7395 28.2072 85.874L27.3582 85.349L28.2082 84.825C28.311 84.959 28.4365 85.0709 28.5782 85.155C28.6025 85.1715 28.6298 85.1826 28.6583 85.1874C28.6868 85.1922 28.7159 85.1908 28.7438 85.1832C28.7718 85.1756 28.798 85.1619 28.8208 85.1431C28.8437 85.1243 28.8627 85.1006 28.8767 85.0737C28.8908 85.0467 28.8995 85.0169 28.9024 84.9862C28.9054 84.9555 28.9024 84.9245 28.8937 84.895C28.8851 84.8655 28.8709 84.8383 28.852 84.8149C28.8332 84.7915 28.8101 84.7725 28.7842 84.759C28.7096 84.715 28.6415 84.6594 28.5822 84.594L28.9102 84.391C28.935 84.3765 28.9569 84.3569 28.9746 84.3332C28.9922 84.3095 29.0053 84.2823 29.013 84.2531C29.0206 84.224 29.0228 84.1934 29.0193 84.1634C29.0158 84.1333 29.0066 84.1043 28.9925 84.078C28.9783 84.0518 28.9594 84.0289 28.9368 84.0106C28.9143 83.9923 28.8885 83.979 28.8611 83.9716C28.8337 83.9641 28.8051 83.9626 28.7771 83.9671C28.7491 83.9717 28.7223 83.9822 28.6982 83.998L28.3702 84.201C28.3468 84.1133 28.3356 84.0223 28.3372 83.931C28.3378 83.9012 28.3329 83.8714 28.3228 83.8436C28.3126 83.8158 28.2975 83.7903 28.2782 83.7688C28.2588 83.7472 28.2357 83.73 28.2101 83.718C28.1846 83.706 28.1571 83.6996 28.1292 83.699H28.1252C28.0696 83.699 28.0162 83.7224 27.9766 83.7641C27.9369 83.8058 27.9141 83.8625 27.9132 83.922C27.9101 84.096 27.938 84.2691 27.9952 84.432L27.1462 84.956V83.907C27.3066 83.8789 27.4607 83.8185 27.6002 83.729C27.6483 83.6978 27.683 83.6473 27.6964 83.5888C27.7098 83.5302 27.701 83.4683 27.6718 83.4167C27.6426 83.3652 27.5955 83.3281 27.5408 83.3137C27.4861 83.2993 27.4283 83.3088 27.3802 83.34C27.3074 83.3868 27.2285 83.4219 27.1462 83.444V83.101C27.1462 83.0408 27.1238 82.9831 27.0841 82.9405C27.0443 82.8979 26.9904 82.874 26.9342 82.874C26.8779 82.874 26.824 82.8979 26.7843 82.9405C26.7445 82.9831 26.7222 83.0408 26.7222 83.101V83.444C26.6395 83.422 26.5603 83.3869 26.4872 83.34C26.4633 83.3246 26.4369 83.3144 26.4093 83.31C26.3818 83.3055 26.3537 83.3069 26.3266 83.3141C26.2996 83.3213 26.2742 83.3341 26.2517 83.3518C26.2293 83.3695 26.2104 83.3917 26.196 83.4173C26.1816 83.4428 26.1721 83.4711 26.1679 83.5006C26.1638 83.5301 26.1651 83.5602 26.1718 83.5891C26.1785 83.6181 26.1904 83.6453 26.207 83.6693C26.2235 83.6933 26.2443 83.7136 26.2682 83.729C26.4076 83.8185 26.5617 83.8789 26.7222 83.907V84.957L25.8732 84.431C25.9304 84.2681 25.9582 84.095 25.9552 83.921C25.9539 83.8617 25.9311 83.8052 25.8914 83.7637C25.8518 83.7222 25.7986 83.699 25.7432 83.699H25.7392C25.683 83.7001 25.6295 83.7251 25.5905 83.7684C25.5515 83.8117 25.5302 83.8699 25.5312 83.93C25.5327 84.0213 25.5216 84.1123 25.4982 84.2L25.1702 83.998C25.146 83.9822 25.1192 83.9717 25.0912 83.9671C25.0632 83.9626 25.0347 83.9641 25.0072 83.9716C24.9798 83.979 24.954 83.9923 24.9315 84.0106C24.9089 84.0289 24.89 84.0518 24.8758 84.078C24.8617 84.1043 24.8526 84.1333 24.8491 84.1634C24.8455 84.1934 24.8477 84.224 24.8554 84.2531C24.863 84.2823 24.8761 84.3095 24.8937 84.3332C24.9114 84.3569 24.9333 84.3765 24.9582 84.391L25.2862 84.594C25.2268 84.6594 25.1587 84.715 25.0842 84.759C25.0586 84.7727 25.036 84.7918 25.0175 84.8152C24.9991 84.8385 24.9852 84.8656 24.9768 84.8948C24.9683 84.924 24.9655 84.9547 24.9684 84.9851C24.9713 85.0155 24.98 85.045 24.9938 85.0717C25.0076 85.0985 25.0263 85.122 25.0488 85.1408C25.0713 85.1596 25.0971 85.1734 25.1247 85.1812C25.1523 85.1891 25.1811 85.1909 25.2093 85.1866C25.2376 85.1823 25.2647 85.1719 25.2892 85.156C25.4316 85.0718 25.5578 84.9595 25.6612 84.825L26.5102 85.349L25.6612 85.873C25.5577 85.7389 25.4315 85.6269 25.2892 85.543C25.2647 85.5272 25.2376 85.5168 25.2093 85.5125C25.1811 85.5081 25.1523 85.5099 25.1247 85.5178C25.0971 85.5257 25.0713 85.5394 25.0488 85.5583C25.0263 85.5771 25.0076 85.6006 24.9938 85.6273C24.98 85.6541 24.9713 85.6835 24.9684 85.714C24.9655 85.7444 24.9683 85.7751 24.9768 85.8043C24.9852 85.8335 24.9991 85.8606 25.0175 85.8839C25.036 85.9072 25.0586 85.9263 25.0842 85.94C25.1587 85.9841 25.2268 86.0397 25.2862 86.105L24.9582 86.308C24.9333 86.3225 24.9114 86.3422 24.8937 86.3658C24.8761 86.3895 24.863 86.4167 24.8554 86.4459C24.8477 86.4751 24.8455 86.5056 24.8491 86.5357C24.8526 86.5657 24.8617 86.5948 24.8758 86.621C24.89 86.6472 24.9089 86.6702 24.9315 86.6885C24.954 86.7068 24.9798 86.72 25.0072 86.7275C25.0347 86.7349 25.0632 86.7364 25.0912 86.7319C25.1192 86.7274 25.146 86.7169 25.1702 86.701L25.4982 86.498C25.5216 86.5858 25.5327 86.6768 25.5312 86.768C25.5304 86.828 25.5519 86.8859 25.5908 86.929C25.6298 86.9721 25.6831 86.9969 25.7392 86.998H25.7432C25.7986 86.998 25.8518 86.9748 25.8914 86.9333C25.9311 86.8918 25.9539 86.8354 25.9552 86.776C25.9582 86.602 25.9304 86.429 25.8732 86.266L26.7232 85.742V86.791C26.5623 86.819 26.4079 86.8794 26.2682 86.969C26.2442 86.9845 26.2234 87.0048 26.2068 87.0289C26.1903 87.053 26.1783 87.0804 26.1716 87.1094C26.1649 87.1385 26.1636 87.1686 26.1678 87.1982C26.172 87.2278 26.1816 87.2562 26.196 87.2818C26.2105 87.3074 26.2295 87.3297 26.252 87.3475C26.2745 87.3652 26.3 87.378 26.3272 87.3852C26.3543 87.3924 26.3825 87.3937 26.4101 87.3893C26.4377 87.3848 26.4642 87.3745 26.4882 87.359C26.5609 87.3119 26.6398 87.2765 26.7222 87.254V87.597C26.7222 87.6572 26.7445 87.715 26.7843 87.7575C26.824 87.8001 26.8779 87.824 26.9342 87.824C26.9904 87.824 27.0443 87.8001 27.0841 87.7575C27.1238 87.715 27.1462 87.6572 27.1462 87.597V87.254C27.2289 87.2761 27.3081 87.3111 27.3812 87.358C27.4293 87.3891 27.4871 87.3985 27.5417 87.384C27.5963 87.3695 27.6433 87.3324 27.6723 87.2808C27.7014 87.2292 27.7101 87.1674 27.6965 87.1089C27.683 87.0504 27.6483 87.0001 27.6002 86.969C27.4607 86.8795 27.3066 86.8191 27.1462 86.791V85.742L27.9962 86.267C27.9386 86.4299 27.9105 86.6029 27.9132 86.777C27.9144 86.8364 27.9373 86.8928 27.9769 86.9343C28.0165 86.9758 28.0697 86.999 28.1252 86.999H28.1292C28.1853 86.9979 28.2388 86.9729 28.2778 86.9296C28.3168 86.8863 28.3382 86.8282 28.3372 86.768C28.3356 86.6768 28.3468 86.5858 28.3702 86.498L28.6982 86.7C28.7223 86.7174 28.7494 86.7292 28.778 86.7349C28.8065 86.7405 28.8359 86.7398 28.8642 86.7328C28.8924 86.7258 28.9191 86.7127 28.9424 86.6942C28.9658 86.6757 28.9853 86.6523 28.9999 86.6254C29.0144 86.5985 29.0237 86.5687 29.027 86.5378C29.0304 86.5069 29.0278 86.4756 29.0193 86.4459C29.0109 86.4161 28.9969 86.3885 28.9781 86.3648C28.9593 86.3411 28.9362 86.3218 28.9102 86.308Z" fill="url(#paint17_radial_63_964)" stroke="url(#paint18_radial_63_964)" stroke-width="0.282"/>
<path d="M13.5812 97.3618L12.9842 96.9928C13.0923 96.874 13.2163 96.7729 13.3522 96.6928C13.4418 96.6398 13.508 96.5508 13.5363 96.4455C13.5646 96.3402 13.5526 96.2271 13.5031 96.1313C13.4535 96.0354 13.3703 95.9645 13.2719 95.9342C13.1734 95.904 13.0678 95.9168 12.9782 95.9698C12.7193 96.1234 12.4899 96.328 12.3022 96.5728L10.7562 95.6158L12.3022 94.6618C12.4899 94.9064 12.7193 95.1106 12.9782 95.2638C13.0226 95.2901 13.0713 95.3068 13.1217 95.3129C13.1721 95.319 13.2231 95.3144 13.2719 95.2994C13.3206 95.2844 13.3661 95.2593 13.4058 95.2255C13.4454 95.1917 13.4785 95.1499 13.5031 95.1024C13.5276 95.0549 13.5432 95.0028 13.5489 94.9489C13.5546 94.8949 13.5503 94.8403 13.5363 94.7882C13.5223 94.7361 13.4988 94.6874 13.4672 94.6449C13.4357 94.6025 13.3966 94.5671 13.3522 94.5408C13.2164 94.4608 13.0924 94.3597 12.9842 94.2408L13.5812 93.8718C13.6265 93.8455 13.6664 93.8098 13.6986 93.7667C13.7308 93.7236 13.7546 93.674 13.7686 93.621C13.7826 93.5679 13.7865 93.5123 13.7801 93.4576C13.7737 93.4028 13.7571 93.35 13.7313 93.3023C13.7055 93.2545 13.6711 93.2128 13.63 93.1795C13.5888 93.1462 13.5419 93.1221 13.4919 93.1085C13.442 93.095 13.39 93.0922 13.339 93.1005C13.288 93.1088 13.2391 93.128 13.1952 93.1568L12.5982 93.5258C12.5557 93.3662 12.5355 93.2008 12.5382 93.0348C12.5393 92.9806 12.5304 92.9266 12.512 92.876C12.4936 92.8254 12.4661 92.7792 12.431 92.74C12.3959 92.7008 12.3539 92.6694 12.3074 92.6476C12.2609 92.6258 12.2109 92.614 12.1602 92.6128H12.1532C12.0521 92.6128 11.955 92.6552 11.8829 92.731C11.8107 92.8067 11.7691 92.9097 11.7672 93.0178C11.7617 93.3345 11.8122 93.6493 11.9162 93.9458L10.3702 94.9008V92.9908C10.6622 92.9393 10.9425 92.829 11.1962 92.6658C11.2821 92.6083 11.3434 92.517 11.3669 92.4116C11.3904 92.3062 11.3742 92.1951 11.3218 92.1023C11.2695 92.0095 11.1851 91.9425 11.087 91.9156C10.9888 91.8888 10.8847 91.9043 10.7972 91.9588C10.6644 92.0443 10.5205 92.1084 10.3702 92.1488V91.5238C10.3702 91.4143 10.3295 91.3093 10.2571 91.2318C10.1847 91.1544 10.0866 91.1108 9.98419 91.1108C9.88181 91.1108 9.78363 91.1544 9.71124 91.2318C9.63885 91.3093 9.59819 91.4143 9.59819 91.5238V92.1488C9.44753 92.1085 9.30329 92.0444 9.17019 91.9588C9.12676 91.9283 9.07801 91.9074 9.02685 91.8975C8.9757 91.8875 8.9232 91.8888 8.8725 91.9011C8.82181 91.9134 8.77396 91.9365 8.73183 91.9691C8.6897 92.0017 8.65415 92.0431 8.62733 92.0907C8.60051 92.1384 8.58296 92.1913 8.57573 92.2464C8.5685 92.3015 8.57175 92.3576 8.58528 92.4113C8.59881 92.465 8.62234 92.5152 8.65446 92.559C8.68657 92.6027 8.72662 92.6391 8.77219 92.6658C9.02579 92.8294 9.30607 92.94 9.59819 92.9918V94.8998L8.05219 93.9448C8.15651 93.6484 8.2074 93.3335 8.20219 93.0168C8.20047 92.9085 8.15905 92.8053 8.08684 92.7293C8.01464 92.6534 7.91744 92.6108 7.81619 92.6108H7.80819C7.75745 92.6118 7.7074 92.6235 7.66088 92.6452C7.61437 92.6669 7.5723 92.6982 7.5371 92.7373C7.5019 92.7764 7.47425 92.8225 7.45573 92.8731C7.43722 92.9236 7.4282 92.9776 7.42919 93.0318C7.43199 93.1981 7.41177 93.3639 7.36919 93.5238L6.77319 93.1558C6.72925 93.127 6.68035 93.1078 6.62938 93.0995C6.57842 93.0912 6.52641 93.094 6.47644 93.1075C6.42647 93.1211 6.37954 93.1452 6.33842 93.1785C6.29731 93.2118 6.26284 93.2535 6.23706 93.3013C6.21127 93.349 6.19469 93.4018 6.18829 93.4566C6.18189 93.5113 6.1858 93.5669 6.19979 93.6199C6.21379 93.673 6.23758 93.7226 6.26976 93.7657C6.30195 93.8088 6.34188 93.8445 6.38719 93.8708L6.98319 94.2398C6.8753 94.3586 6.75163 94.4597 6.61619 94.5398C6.57075 94.5654 6.53054 94.6004 6.49791 94.6428C6.46528 94.6853 6.44088 94.7342 6.42615 94.7868C6.41142 94.8394 6.40665 94.8947 6.41211 94.9493C6.41758 95.0039 6.43317 95.0568 6.45798 95.1049C6.4828 95.153 6.51632 95.1953 6.55661 95.2294C6.59689 95.2634 6.64312 95.2886 6.69258 95.3033C6.74205 95.318 6.79376 95.322 6.84469 95.315C6.89562 95.3081 6.94474 95.2903 6.98919 95.2628C7.24837 95.1097 7.47808 94.9054 7.66619 94.6608L9.21219 95.6148L7.66619 96.5698C7.47846 96.325 7.24909 96.1204 6.99019 95.9668C6.94582 95.9406 6.89705 95.9239 6.84666 95.9178C6.79627 95.9117 6.74525 95.9163 6.69651 95.9312C6.64777 95.9462 6.60227 95.9713 6.5626 96.0051C6.52293 96.039 6.48988 96.0808 6.46532 96.1283C6.44076 96.1757 6.42518 96.2279 6.41948 96.2818C6.41377 96.3357 6.41804 96.3903 6.43205 96.4425C6.44606 96.4946 6.46953 96.5433 6.50113 96.5858C6.53272 96.6282 6.57182 96.6636 6.61619 96.6898C6.75199 96.7699 6.87599 96.871 6.98419 96.9898L6.38719 97.3608C6.34188 97.3872 6.30195 97.4229 6.26976 97.466C6.23758 97.5091 6.21379 97.5586 6.19979 97.6117C6.1858 97.6648 6.18189 97.7204 6.18829 97.7751C6.19469 97.8298 6.21127 97.8826 6.23706 97.9304C6.26284 97.9782 6.29731 98.0199 6.33842 98.0532C6.37954 98.0865 6.42647 98.1106 6.47644 98.1242C6.52641 98.1377 6.57842 98.1404 6.62938 98.1321C6.68035 98.1238 6.72925 98.1047 6.77319 98.0758L7.36919 97.7078C7.41159 97.8671 7.43181 98.0322 7.42919 98.1978C7.42832 98.2521 7.43747 98.3061 7.4561 98.3566C7.47474 98.4071 7.5025 98.4531 7.53779 98.4921C7.57309 98.5312 7.61522 98.5623 7.66179 98.5839C7.70836 98.6055 7.75845 98.617 7.80919 98.6178H7.81519C7.91628 98.6179 8.01334 98.5754 8.08552 98.4997C8.1577 98.424 8.19923 98.321 8.20119 98.2128C8.2066 97.8965 8.15605 97.582 8.05219 97.2858L9.59819 96.3308V98.2398C9.30613 98.2914 9.02585 98.4017 8.77219 98.5648C8.72874 98.5928 8.69086 98.6296 8.66072 98.6733C8.63058 98.7169 8.60876 98.7664 8.59652 98.8191C8.58428 98.8717 8.58184 98.9264 8.58936 98.9801C8.59688 99.0337 8.6142 99.0853 8.64033 99.1318C8.66646 99.1782 8.7009 99.2188 8.74167 99.251C8.78244 99.2833 8.82875 99.3066 8.87795 99.3197C8.92715 99.3328 8.97828 99.3354 9.02843 99.3274C9.07857 99.3193 9.12674 99.3008 9.17019 99.2728C9.30329 99.1872 9.44753 99.1232 9.59819 99.0828V99.7068C9.59819 99.8164 9.63885 99.9214 9.71124 99.9989C9.78363 100.076 9.88181 100.12 9.98419 100.12C10.0866 100.12 10.1847 100.076 10.2571 99.9989C10.3295 99.9214 10.3702 99.8164 10.3702 99.7068V99.0828C10.5205 99.1233 10.6644 99.1873 10.7972 99.2728C10.8849 99.3295 10.9901 99.3464 11.0896 99.3201C11.189 99.2937 11.2746 99.2262 11.3275 99.1323C11.3805 99.0384 11.3963 98.9259 11.3717 98.8195C11.3471 98.713 11.2839 98.6215 11.1962 98.5648C10.9425 98.4017 10.6622 98.2914 10.3702 98.2398V96.3298L11.9162 97.2858C11.8119 97.5823 11.761 97.8971 11.7662 98.2138C11.7681 98.322 11.8097 98.425 11.8819 98.5007C11.954 98.5764 12.0511 98.6189 12.1522 98.6188H12.1602C12.2625 98.6169 12.3599 98.5715 12.4309 98.4928C12.502 98.414 12.5409 98.3083 12.5392 98.1988C12.5364 98.0326 12.5566 97.8668 12.5992 97.7068L13.1952 98.0748C13.2391 98.1054 13.2884 98.1262 13.34 98.1357C13.3917 98.1453 13.4446 98.1435 13.4956 98.1305C13.5465 98.1174 13.5945 98.0934 13.6365 98.0599C13.6786 98.0264 13.7138 97.9841 13.74 97.9356C13.7662 97.887 13.783 97.8333 13.7892 97.7776C13.7954 97.7219 13.7909 97.6655 13.776 97.6117C13.7612 97.5579 13.7362 97.5079 13.7027 97.4648C13.6692 97.4217 13.6279 97.3873 13.5812 97.3618Z" fill="url(#paint19_radial_63_964)" stroke="url(#paint20_radial_63_964)" stroke-width="0.513"/>
<path d="M75.6061 97.8219L74.8521 97.3559C74.9884 97.2054 75.1448 97.0774 75.3161 96.9759C75.4228 96.9055 75.5001 96.7939 75.532 96.6642C75.5639 96.5346 75.5478 96.3967 75.4873 96.2793C75.4267 96.1619 75.3263 96.074 75.2067 96.0337C75.0871 95.9934 74.9577 96.0038 74.8451 96.0629C74.5178 96.2565 74.2277 96.5147 73.9901 96.8239L72.0361 95.6159L73.9891 94.4089C74.2265 94.7184 74.5167 94.977 74.8441 95.1709C74.9574 95.2378 75.091 95.2539 75.2154 95.2155C75.3397 95.1772 75.4448 95.0875 75.5074 94.9663C75.57 94.8451 75.585 94.7023 75.5491 94.5692C75.5133 94.4362 75.4294 94.3238 75.3161 94.2569C75.1448 94.1553 74.9885 94.0273 74.8521 93.8769L75.6061 93.4119C75.6626 93.3782 75.7123 93.3328 75.7522 93.2783C75.7922 93.2239 75.8216 93.1615 75.8388 93.0948C75.856 93.0281 75.8606 92.9584 75.8524 92.8898C75.8442 92.8211 75.8233 92.7549 75.791 92.695C75.7586 92.6351 75.7154 92.5826 75.664 92.5407C75.6125 92.4988 75.5538 92.4682 75.4912 92.4508C75.4285 92.4334 75.3633 92.4295 75.2993 92.4393C75.2353 92.4491 75.1737 92.4724 75.1181 92.5079L74.3641 92.9739C74.3104 92.7723 74.2848 92.5634 74.2881 92.3539C74.2896 92.2852 74.2784 92.2169 74.2552 92.1529C74.232 92.0889 74.1971 92.0304 74.1527 91.9808C74.1083 91.9312 74.0552 91.8914 73.9964 91.8638C73.9376 91.8362 73.8743 91.8213 73.8101 91.8199H73.8001C73.6725 91.8201 73.55 91.8739 73.459 91.9696C73.3679 92.0653 73.3156 92.1954 73.3131 92.3319C73.3061 92.7317 73.3699 93.1294 73.5011 93.5039L71.5481 94.7119V92.2989C71.9173 92.2337 72.2715 92.0942 72.5921 91.8879C72.702 91.8159 72.7807 91.7003 72.8113 91.5665C72.8418 91.4326 72.8216 91.2912 72.7551 91.1732C72.6885 91.0552 72.5811 90.9702 72.4561 90.9366C72.3312 90.903 72.1989 90.9236 72.0881 90.9939C71.9202 91.102 71.7382 91.1828 71.5481 91.2339V90.4439C71.5481 90.3054 71.4967 90.1727 71.4052 90.0748C71.3137 89.9769 71.1896 89.9219 71.0601 89.9219C70.9307 89.9219 70.8066 89.9769 70.7151 90.0748C70.6236 90.1727 70.5721 90.3054 70.5721 90.4439V91.2339C70.3821 91.1828 70.2001 91.102 70.0321 90.9939C69.9772 90.9558 69.9157 90.9299 69.8512 90.9178C69.7868 90.9057 69.7207 90.9076 69.6569 90.9233C69.5931 90.9391 69.533 90.9684 69.48 91.0095C69.427 91.0506 69.3823 91.1028 69.3486 91.1628C69.3148 91.2227 69.2927 91.2894 69.2835 91.3587C69.2744 91.428 69.2783 91.4986 69.2952 91.5663C69.312 91.6339 69.3414 91.6972 69.3816 91.7525C69.4218 91.8078 69.472 91.8538 69.5291 91.8879C69.8495 92.0938 70.2034 92.2329 70.5721 92.2979V94.7119L68.6191 93.5039C68.7507 93.1295 68.8148 92.7318 68.8081 92.3319C68.8057 92.1952 68.7532 92.065 68.6619 91.9692C68.5707 91.8735 68.448 91.8199 68.3201 91.8199H68.3101C68.181 91.8227 68.0581 91.8802 67.9685 91.9797C67.8789 92.0792 67.8299 92.2127 67.8321 92.3509C67.8356 92.5611 67.81 92.7707 67.7561 92.9729L67.0021 92.5079C66.9466 92.4724 66.885 92.4491 66.821 92.4393C66.7569 92.4295 66.6917 92.4334 66.6291 92.4508C66.5665 92.4682 66.5078 92.4988 66.4563 92.5407C66.4048 92.5826 66.3617 92.6351 66.3293 92.695C66.297 92.7549 66.2761 92.8211 66.2679 92.8898C66.2597 92.9584 66.2643 93.0281 66.2815 93.0948C66.2987 93.1615 66.3281 93.2239 66.368 93.2783C66.408 93.3328 66.4576 93.3782 66.5141 93.4119L67.2681 93.8779C67.1318 94.0283 66.9754 94.1563 66.8041 94.2579C66.7456 94.2896 66.6937 94.3335 66.6514 94.3872C66.6091 94.4408 66.5774 94.503 66.5581 94.5701C66.5388 94.6371 66.5324 94.7077 66.5391 94.7774C66.5459 94.8472 66.5657 94.9148 66.5975 94.9762C66.6292 95.0376 66.6722 95.0915 66.7239 95.1348C66.7755 95.178 66.8348 95.2096 66.8981 95.2278C66.9615 95.246 67.0276 95.2503 67.0926 95.2405C67.1575 95.2307 67.2199 95.207 67.2761 95.1709C67.6036 94.9769 67.8937 94.7184 68.1311 94.4089L70.0851 95.6159L68.1311 96.8219C67.8936 96.5127 67.6035 96.2545 67.2761 96.0609C67.2199 96.0247 67.1575 96.001 67.0926 95.9912C67.0276 95.9815 66.9615 95.9858 66.8981 96.004C66.8348 96.0221 66.7755 96.0538 66.7239 96.097C66.6722 96.1402 66.6292 96.1941 66.5975 96.2555C66.5657 96.3169 66.5459 96.3845 66.5391 96.4543C66.5324 96.5241 66.5388 96.5946 66.5581 96.6617C66.5774 96.7287 66.6091 96.7909 66.6514 96.8446C66.6937 96.8982 66.7456 96.9422 66.8041 96.9739C66.9758 97.0753 67.1325 97.2034 67.2691 97.3539L66.5141 97.8219C66.4576 97.8556 66.408 97.901 66.368 97.9554C66.3281 98.0099 66.2987 98.0722 66.2815 98.1389C66.2643 98.2056 66.2597 98.2753 66.2679 98.344C66.2761 98.4126 66.297 98.4788 66.3293 98.5387C66.3617 98.5987 66.4048 98.6511 66.4563 98.693C66.5078 98.735 66.5665 98.7655 66.6291 98.7829C66.6917 98.8003 66.7569 98.8043 66.821 98.7945C66.885 98.7847 66.9466 98.7614 67.0021 98.7259L67.7561 98.2599C67.8098 98.4614 67.8355 98.6703 67.8321 98.8799C67.8299 99.0182 67.8791 99.1519 67.9689 99.2514C68.0587 99.351 68.1818 99.4084 68.3111 99.4109H68.3201C68.4478 99.4106 68.5703 99.3569 68.6613 99.2612C68.7523 99.1655 68.8047 99.0354 68.8071 98.8989C68.8141 98.499 68.7503 98.1014 68.6191 97.7269L70.5721 96.5199V98.9329C70.2034 98.9979 69.8495 99.137 69.5291 99.3429C69.4182 99.4142 69.3383 99.5298 69.307 99.6642C69.2757 99.7986 69.2956 99.9407 69.3623 100.059C69.429 100.178 69.537 100.264 69.6627 100.297C69.7883 100.331 69.9212 100.309 70.0321 100.238C70.2001 100.13 70.3821 100.049 70.5721 99.9979V100.788C70.5721 100.926 70.6236 101.059 70.7151 101.157C70.8066 101.255 70.9307 101.31 71.0601 101.31C71.1896 101.31 71.3137 101.255 71.4052 101.157C71.4967 101.059 71.5481 100.926 71.5481 100.788V99.9979C71.7382 100.049 71.9202 100.13 72.0881 100.238C72.1989 100.308 72.3312 100.329 72.4561 100.295C72.5811 100.262 72.6885 100.177 72.7551 100.059C72.8216 99.9405 72.8418 99.7992 72.8113 99.6653C72.7807 99.5314 72.702 99.4159 72.5921 99.3439C72.2715 99.1375 71.9173 98.9981 71.5481 98.9329V96.5199L73.5011 97.7269C73.3695 98.1016 73.3053 98.4996 73.3121 98.8999C73.3146 99.0366 73.3671 99.1668 73.4583 99.2625C73.5496 99.3583 73.6723 99.4119 73.8001 99.4119H73.8101C73.8742 99.4106 73.9375 99.3959 73.9963 99.3684C74.0551 99.341 74.1082 99.3015 74.1527 99.2521C74.1972 99.2027 74.2322 99.1444 74.2556 99.0805C74.279 99.0166 74.2904 98.9485 74.2891 98.8799C74.2854 98.6701 74.3107 98.4608 74.3641 98.2589L75.1181 98.7249C75.1737 98.7627 75.2358 98.7882 75.3008 98.7997C75.3658 98.8112 75.4323 98.8085 75.4962 98.7918C75.5602 98.7751 75.6204 98.7447 75.6731 98.7024C75.7258 98.6602 75.77 98.6069 75.8029 98.5459C75.8359 98.4849 75.857 98.4174 75.8649 98.3475C75.8728 98.2776 75.8674 98.2066 75.849 98.139C75.8306 98.0713 75.7996 98.0083 75.7579 97.9538C75.7162 97.8994 75.6645 97.8545 75.6061 97.8219Z" fill="url(#paint21_radial_63_964)" stroke="url(#paint22_radial_63_964)" stroke-width="0.648"/>
<path d="M44.2482 83.3312L43.4942 82.8652C43.6305 82.7147 43.7869 82.5866 43.9582 82.4852C44.0649 82.4148 44.1422 82.3032 44.1741 82.1735C44.2059 82.0438 44.1899 81.906 44.1294 81.7886C44.0688 81.6712 43.9683 81.5833 43.8488 81.543C43.7292 81.5027 43.5998 81.5131 43.4872 81.5722C43.1599 81.7658 42.8698 82.024 42.6322 82.3332L40.6782 81.1252L42.6312 79.9182C42.8686 80.2277 43.1587 80.4863 43.4862 80.6802C43.5423 80.7133 43.604 80.7343 43.6677 80.742C43.7314 80.7496 43.7959 80.7438 43.8574 80.7248C43.919 80.7058 43.9765 80.674 44.0266 80.6313C44.0767 80.5885 44.1185 80.5356 44.1495 80.4756C44.1805 80.4156 44.2001 80.3496 44.2073 80.2815C44.2144 80.2134 44.209 80.1444 44.1912 80.0785C44.1734 80.0126 44.1437 79.9511 44.1038 79.8975C44.0638 79.844 44.0143 79.7993 43.9582 79.7662C43.7869 79.6646 43.6306 79.5366 43.4942 79.3862L44.2482 78.9212C44.3047 78.8874 44.3544 78.842 44.3943 78.7876C44.4343 78.7332 44.4637 78.6708 44.4809 78.6041C44.4981 78.5374 44.5027 78.4677 44.4945 78.399C44.4863 78.3304 44.4654 78.2642 44.433 78.2043C44.4007 78.1444 44.3575 78.0919 44.3061 78.05C44.2546 78.0081 44.1959 77.9775 44.1332 77.9601C44.0706 77.9427 44.0054 77.9388 43.9414 77.9486C43.8773 77.9584 43.8158 77.9817 43.7602 78.0172L43.0062 78.4832C42.9525 78.2816 42.9269 78.0727 42.9302 77.8632C42.9317 77.7945 42.9205 77.7262 42.8973 77.6622C42.8741 77.5981 42.8392 77.5396 42.7948 77.49C42.7504 77.4404 42.6973 77.4007 42.6385 77.3731C42.5797 77.3455 42.5164 77.3305 42.4522 77.3292H42.4422C42.3146 77.3294 42.1921 77.3832 42.1011 77.4789C42.01 77.5746 41.9577 77.7046 41.9552 77.8412C41.9482 78.241 42.012 78.6387 42.1432 79.0132L40.1902 80.2212V77.8082C40.5594 77.743 40.9136 77.6035 41.2342 77.3972C41.3441 77.3252 41.4228 77.2096 41.4534 77.0757C41.4839 76.9419 41.4637 76.8005 41.3971 76.6825C41.3306 76.5645 41.2232 76.4794 41.0982 76.4458C40.9733 76.4122 40.841 76.4328 40.7302 76.5032C40.5623 76.6112 40.3803 76.6921 40.1902 76.7432V75.9532C40.1902 75.8147 40.1388 75.6819 40.0473 75.584C39.9558 75.4861 39.8316 75.4312 39.7022 75.4312C39.5728 75.4312 39.4487 75.4861 39.3572 75.584C39.2656 75.6819 39.2142 75.8147 39.2142 75.9532V76.7432C39.0241 76.6921 38.8422 76.6112 38.6742 76.5032C38.6193 76.4651 38.5578 76.4392 38.4933 76.4271C38.4288 76.415 38.3628 76.4168 38.299 76.4326C38.2352 76.4483 38.1751 76.4777 38.1221 76.5188C38.0691 76.5599 38.0244 76.612 37.9907 76.672C37.9569 76.732 37.9348 76.7986 37.9256 76.868C37.9165 76.9373 37.9204 77.0079 37.9372 77.0755C37.9541 77.1432 37.9835 77.2065 38.0237 77.2618C38.0639 77.317 38.1141 77.3631 38.1712 77.3972C38.4916 77.603 38.8455 77.7422 39.2142 77.8072V80.2212L37.2612 79.0132C37.3928 78.6387 37.4569 78.2411 37.4502 77.8412C37.4478 77.7045 37.3953 77.5742 37.304 77.4785C37.2128 77.3828 37.09 77.3291 36.9622 77.3292H36.9522C36.8231 77.332 36.7002 77.3894 36.6106 77.489C36.521 77.5885 36.472 77.722 36.4742 77.8602C36.4777 78.0704 36.4521 78.28 36.3982 78.4822L35.6442 78.0172C35.5887 77.9817 35.5271 77.9584 35.4631 77.9486C35.399 77.9388 35.3338 77.9427 35.2712 77.9601C35.2086 77.9775 35.1498 78.0081 35.0984 78.05C35.0469 78.0919 35.0037 78.1444 34.9714 78.2043C34.9391 78.2642 34.9182 78.3304 34.91 78.399C34.9017 78.4677 34.9064 78.5374 34.9236 78.6041C34.9408 78.6708 34.9702 78.7332 35.0101 78.7876C35.0501 78.842 35.0997 78.8874 35.1562 78.9212L35.9102 79.3872C35.7739 79.5376 35.6175 79.6656 35.4462 79.7672C35.3877 79.7988 35.3358 79.8428 35.2935 79.8965C35.2512 79.9501 35.2195 80.0123 35.2002 80.0794C35.1809 80.1464 35.1744 80.2169 35.1812 80.2867C35.188 80.3565 35.2078 80.4241 35.2396 80.4855C35.2713 80.5469 35.3143 80.6008 35.3659 80.644C35.4176 80.6873 35.4769 80.7189 35.5402 80.7371C35.6036 80.7553 35.6697 80.7596 35.7346 80.7498C35.7996 80.74 35.862 80.7163 35.9182 80.6802C36.2456 80.4862 36.5358 80.2276 36.7732 79.9182L38.7262 81.1252L36.7732 82.3312C36.5357 82.022 36.2456 81.7638 35.9182 81.5702C35.862 81.534 35.7996 81.5103 35.7346 81.5005C35.6697 81.4907 35.6036 81.4951 35.5402 81.5132C35.4769 81.5314 35.4176 81.563 35.3659 81.6063C35.3143 81.6495 35.2713 81.7034 35.2396 81.7648C35.2078 81.8262 35.188 81.8938 35.1812 81.9636C35.1744 82.0334 35.1809 82.1039 35.2002 82.171C35.2195 82.238 35.2512 82.3002 35.2935 82.3539C35.3358 82.4075 35.3877 82.4515 35.4462 82.4832C35.6179 82.5846 35.7746 82.7127 35.9112 82.8632L35.1562 83.3312C35.0997 83.3649 35.0501 83.4103 35.0101 83.4647C34.9702 83.5191 34.9408 83.5815 34.9236 83.6482C34.9064 83.7149 34.9017 83.7846 34.91 83.8533C34.9182 83.9219 34.9391 83.9881 34.9714 84.048C35.0037 84.1079 35.0469 84.1604 35.0984 84.2023C35.1498 84.2442 35.2086 84.2748 35.2712 84.2922C35.3338 84.3096 35.399 84.3135 35.4631 84.3037C35.5271 84.2939 35.5887 84.2706 35.6442 84.2352L36.3982 83.7691C36.4519 83.9707 36.4776 84.1796 36.4742 84.3892C36.472 84.5273 36.521 84.6608 36.6106 84.7603C36.7002 84.8599 36.8231 84.9173 36.9522 84.9202H36.9622C37.0899 84.9199 37.2123 84.8662 37.3034 84.7704C37.3944 84.6747 37.4468 84.5447 37.4492 84.4081C37.4562 84.0083 37.3924 83.6106 37.2612 83.2362L39.2142 82.0292V84.4422C38.8451 84.507 38.4909 84.6461 38.1702 84.8521C38.1153 84.8875 38.0674 84.9342 38.0293 84.9894C37.9912 85.0446 37.9637 85.1072 37.9482 85.1738C37.9328 85.2404 37.9297 85.3096 37.9393 85.3774C37.9488 85.4453 37.9708 85.5104 38.0039 85.5692C38.037 85.628 38.0806 85.6792 38.1322 85.7199C38.1838 85.7607 38.2423 85.7902 38.3046 85.8067C38.3668 85.8232 38.4315 85.8265 38.4949 85.8162C38.5584 85.806 38.6193 85.7826 38.6742 85.7472C38.8422 85.6391 39.0241 85.5582 39.2142 85.5072V86.2971C39.2142 86.4356 39.2656 86.5684 39.3572 86.6663C39.4487 86.7642 39.5728 86.8192 39.7022 86.8192C39.8316 86.8192 39.9558 86.7642 40.0473 86.6663C40.1388 86.5684 40.1902 86.4356 40.1902 86.2971V85.5072C40.3803 85.5582 40.5623 85.6391 40.7302 85.7472C40.841 85.8175 40.9733 85.8381 41.0982 85.8045C41.2232 85.7709 41.3306 85.6858 41.3971 85.5678C41.4637 85.4498 41.4839 85.3084 41.4534 85.1746C41.4228 85.0407 41.3441 84.9251 41.2342 84.8531C40.9136 84.6468 40.5594 84.5073 40.1902 84.4422V82.0292L42.1432 83.2362C42.0116 83.6109 41.9474 84.0089 41.9542 84.4091C41.9567 84.5459 42.0092 84.6761 42.1004 84.7718C42.1917 84.8676 42.3144 84.9212 42.4422 84.9212H42.4522C42.5815 84.9183 42.7045 84.8607 42.7942 84.761C42.8838 84.6612 42.9327 84.5275 42.9302 84.3892C42.9268 84.1793 42.9524 83.97 43.0062 83.7682L43.7602 84.2342C43.8158 84.272 43.8779 84.2975 43.9429 84.309C44.0079 84.3205 44.0743 84.3178 44.1383 84.301C44.2023 84.2843 44.2625 84.2539 44.3152 84.2117C44.3679 84.1694 44.412 84.1162 44.445 84.0552C44.478 83.9942 44.499 83.9267 44.507 83.8568C44.5149 83.7868 44.5095 83.7159 44.4911 83.6482C44.4727 83.5806 44.4417 83.5176 44.4 83.4631C44.3582 83.4086 44.3066 83.3637 44.2482 83.3312Z" fill="url(#paint23_radial_63_964)" stroke="url(#paint24_radial_63_964)" stroke-width="0.648"/>
<defs>
<filter id="filter0_d_63_964" x="13.0413" y="0" width="64.3369" height="74.2998" filterUnits="userSpaceOnUse" color-interpolation-filters="sRGB">
<feFlood flood-opacity="0" result="BackgroundImageFix"/>
<feColorMatrix in="SourceAlpha" type="matrix" values="0 0 0 0 0 0 0 0 0 0 0 0 0 0 0 0 0 0 127 0" result="hardAlpha"/>
<feOffset/>
<feGaussianBlur stdDeviation="1"/>
<feComposite in2="hardAlpha" operator="out"/>
<feColorMatrix type="matrix" values="0 0 0 0 0.278431 0 0 0 0 0.760784 0 0 0 0 0.917647 0 0 0 1 0"/>
<feBlend mode="normal" in2="BackgroundImageFix" result="effect1_dropShadow_63_964"/>
<feBlend mode="normal" in="SourceGraphic" in2="effect1_dropShadow_63_964" result="shape"/>
</filter>
<linearGradient id="paint0_linear_63_964" x1="48.9828" y1="15.6465" x2="49.0495" y2="59.0541" gradientUnits="userSpaceOnUse">
<stop stop-color="#65BAEB"/>
<stop offset="1" stop-color="#233C77"/>
</linearGradient>
<linearGradient id="paint1_linear_63_964" x1="45.2098" y1="2" x2="45.2098" y2="72.3" gradientUnits="userSpaceOnUse">
<stop stop-color="#ACF2F5"/>
<stop offset="1" stop-color="#29B4E7"/>
</linearGradient>
<linearGradient id="paint2_linear_63_964" x1="47.1992" y1="29.7358" x2="47.2652" y2="73.2218" gradientUnits="userSpaceOnUse">
<stop stop-color="#65BAEB"/>
<stop offset="1" stop-color="#233C77"/>
</linearGradient>
<radialGradient id="paint3_radial_63_964" cx="0" cy="0" r="1" gradientUnits="userSpaceOnUse" gradientTransform="translate(16.5112 81.125) scale(3.99912 4.68743)">
<stop stop-color="#85B2EE"/>
<stop offset="1" stop-color="#DCEEF9"/>
</radialGradient>
<radialGradient id="paint4_radial_63_964" cx="0" cy="0" r="1" gradientUnits="userSpaceOnUse" gradientTransform="translate(16.5112 81.125) scale(3.99912 4.68743)">
<stop stop-color="#85B2EE"/>
<stop offset="1" stop-color="#DCEEF9"/>
</radialGradient>
<radialGradient id="paint5_radial_63_964" cx="0" cy="0" r="1" gradientUnits="userSpaceOnUse" gradientTransform="translate(86.2851 81.125) scale(3.99912 4.68743)">
<stop stop-color="#85B2EE"/>
<stop offset="1" stop-color="#DCEEF9"/>
</radialGradient>
<radialGradient id="paint6_radial_63_964" cx="0" cy="0" r="1" gradientUnits="userSpaceOnUse" gradientTransform="translate(86.2851 81.125) scale(3.99912 4.68743)">
<stop stop-color="#85B2EE"/>
<stop offset="1" stop-color="#DCEEF9"/>
</radialGradient>
<radialGradient id="paint7_radial_63_964" cx="0" cy="0" r="1" gradientUnits="userSpaceOnUse" gradientTransform="translate(63.0273 81.125) scale(3.99912 4.68743)">
<stop stop-color="#85B2EE"/>
<stop offset="1" stop-color="#DCEEF9"/>
</radialGradient>
<radialGradient id="paint8_radial_63_964" cx="0" cy="0" r="1" gradientUnits="userSpaceOnUse" gradientTransform="translate(63.0273 81.125) scale(3.99912 4.68743)">
<stop stop-color="#85B2EE"/>
<stop offset="1" stop-color="#DCEEF9"/>
</radialGradient>
<radialGradient id="paint9_radial_63_964" cx="0" cy="0" r="1" gradientUnits="userSpaceOnUse" gradientTransform="translate(30.2803 95.6162) scale(3.99912 4.68743)">
<stop stop-color="#85B2EE"/>
<stop offset="1" stop-color="#DCEEF9"/>
</radialGradient>
<radialGradient id="paint10_radial_63_964" cx="0" cy="0" r="1" gradientUnits="userSpaceOnUse" gradientTransform="translate(30.2803 95.6162) scale(3.99912 4.68743)">
<stop stop-color="#85B2EE"/>
<stop offset="1" stop-color="#DCEEF9"/>
</radialGradient>
<radialGradient id="paint11_radial_63_964" cx="0" cy="0" r="1" gradientUnits="userSpaceOnUse" gradientTransform="translate(50.5671 95.6162) scale(3.99912 4.68743)">
<stop stop-color="#85B2EE"/>
<stop offset="1" stop-color="#DCEEF9"/>
</radialGradient>
<radialGradient id="paint12_radial_63_964" cx="0" cy="0" r="1" gradientUnits="userSpaceOnUse" gradientTransform="translate(50.5671 95.6162) scale(3.99912 4.68743)">
<stop stop-color="#85B2EE"/>
<stop offset="1" stop-color="#DCEEF9"/>
</radialGradient>
<radialGradient id="paint13_radial_63_964" cx="0" cy="0" r="1" gradientUnits="userSpaceOnUse" gradientTransform="translate(50.943 85.3495) scale(2.23145 2.61553)">
<stop stop-color="#85B2EE"/>
<stop offset="1" stop-color="#DCEEF9"/>
</radialGradient>
<radialGradient id="paint14_radial_63_964" cx="0" cy="0" r="1" gradientUnits="userSpaceOnUse" gradientTransform="translate(50.943 85.3495) scale(2.23145 2.61553)">
<stop stop-color="#85B2EE"/>
<stop offset="1" stop-color="#DCEEF9"/>
</radialGradient>
<radialGradient id="paint15_radial_63_964" cx="0" cy="0" r="1" gradientUnits="userSpaceOnUse" gradientTransform="translate(74.9481 85.3495) scale(2.23145 2.61553)">
<stop stop-color="#85B2EE"/>
<stop offset="1" stop-color="#DCEEF9"/>
</radialGradient>
<radialGradient id="paint16_radial_63_964" cx="0" cy="0" r="1" gradientUnits="userSpaceOnUse" gradientTransform="translate(74.9481 85.3495) scale(2.23145 2.61553)">
<stop stop-color="#85B2EE"/>
<stop offset="1" stop-color="#DCEEF9"/>
</radialGradient>
<radialGradient id="paint17_radial_63_964" cx="0" cy="0" r="1" gradientUnits="userSpaceOnUse" gradientTransform="translate(26.9371 85.3495) scale(2.23145 2.61553)">
<stop stop-color="#85B2EE"/>
<stop offset="1" stop-color="#DCEEF9"/>
</radialGradient>
<radialGradient id="paint18_radial_63_964" cx="0" cy="0" r="1" gradientUnits="userSpaceOnUse" gradientTransform="translate(26.9371 85.3495) scale(2.23145 2.61553)">
<stop stop-color="#85B2EE"/>
<stop offset="1" stop-color="#DCEEF9"/>
</radialGradient>
<radialGradient id="paint19_radial_63_964" cx="0" cy="0" r="1" gradientUnits="userSpaceOnUse" gradientTransform="translate(9.98935 95.6155) scale(4.06218 4.76142)">
<stop stop-color="#85B2EE"/>
<stop offset="1" stop-color="#DCEEF9"/>
</radialGradient>
<radialGradient id="paint20_radial_63_964" cx="0" cy="0" r="1" gradientUnits="userSpaceOnUse" gradientTransform="translate(9.98935 95.6155) scale(4.06218 4.76142)">
<stop stop-color="#85B2EE"/>
<stop offset="1" stop-color="#DCEEF9"/>
</radialGradient>
<radialGradient id="paint21_radial_63_964" cx="0" cy="0" r="1" gradientUnits="userSpaceOnUse" gradientTransform="translate(71.0676 95.6155) scale(5.13378 6.0173)">
<stop stop-color="#85B2EE"/>
<stop offset="1" stop-color="#DCEEF9"/>
</radialGradient>
<radialGradient id="paint22_radial_63_964" cx="0" cy="0" r="1" gradientUnits="userSpaceOnUse" gradientTransform="translate(71.0676 95.6155) scale(5.13378 6.0173)">
<stop stop-color="#85B2EE"/>
<stop offset="1" stop-color="#DCEEF9"/>
</radialGradient>
<radialGradient id="paint23_radial_63_964" cx="0" cy="0" r="1" gradientUnits="userSpaceOnUse" gradientTransform="translate(39.7097 81.1248) scale(5.13378 6.0173)">
<stop stop-color="#85B2EE"/>
<stop offset="1" stop-color="#DCEEF9"/>
</radialGradient>
<radialGradient id="paint24_radial_63_964" cx="0" cy="0" r="1" gradientUnits="userSpaceOnUse" gradientTransform="translate(39.7097 81.1248) scale(5.13378 6.0173)">
<stop stop-color="#85B2EE"/>
<stop offset="1" stop-color="#DCEEF9"/>
</radialGradient>
</defs>
</svg>
