<svg width="100" height="100" viewBox="0 0 100 100" fill="none" xmlns="http://www.w3.org/2000/svg">
<g clip-path="url(#clip0_63_499)">
<path d="M6.40189 44.626H96.0689C96.0689 44.626 106.275 31.169 92.4489 18.603C78.8759 6.26703 64.8899 15.871 64.8899 15.871C64.8899 15.871 56.2809 -3.50597 39.9779 1.15003C23.6749 5.80903 22.3679 19.287 22.3679 19.287C22.3679 19.287 5.85989 19.623 3.14189 29.91C0.423889 40.197 6.40189 44.626 6.40189 44.626Z" fill="url(#paint0_linear_63_499)"/>
<path d="M10.8191 67.1048L13.5091 63.1138" stroke="url(#paint1_linear_63_499)" stroke-width="4.051" stroke-linecap="round" stroke-linejoin="round"/>
<path d="M28.6111 67.1048L31.3011 63.1138" stroke="url(#paint2_linear_63_499)" stroke-width="4.051" stroke-linecap="round" stroke-linejoin="round"/>
<path d="M46.4031 67.1048L49.0931 63.1138" stroke="url(#paint3_linear_63_499)" stroke-width="4.051" stroke-linecap="round" stroke-linejoin="round"/>
<path d="M64.196 67.1048L66.886 63.1138" stroke="url(#paint4_linear_63_499)" stroke-width="4.051" stroke-linecap="round" stroke-linejoin="round"/>
<path d="M81.988 67.1048L84.678 63.1138" stroke="url(#paint5_linear_63_499)" stroke-width="4.051" stroke-linecap="round" stroke-linejoin="round"/>
<path d="M68.3872 75.679L71.0772 71.688" stroke="url(#paint6_linear_63_499)" stroke-width="4.051" stroke-linecap="round" stroke-linejoin="round"/>
<path d="M52.27 75.679L54.96 71.688" stroke="url(#paint7_linear_63_499)" stroke-width="4.051" stroke-linecap="round" stroke-linejoin="round"/>
<path d="M36.1531 75.679L38.8431 71.688" stroke="url(#paint8_linear_63_499)" stroke-width="4.051" stroke-linecap="round" stroke-linejoin="round"/>
<path d="M20.0361 75.679L22.7261 71.688" stroke="url(#paint9_linear_63_499)" stroke-width="4.051" stroke-linecap="round" stroke-linejoin="round"/>
<path d="M25.2361 85.5369L27.9261 81.5459" stroke="url(#paint10_linear_63_499)" stroke-width="4.051" stroke-linecap="round" stroke-linejoin="round"/>
<path d="M41.415 85.5369L44.105 81.5459" stroke="url(#paint11_linear_63_499)" stroke-width="4.051" stroke-linecap="round" stroke-linejoin="round"/>
<path d="M57.593 85.5369L60.283 81.5459" stroke="url(#paint12_linear_63_499)" stroke-width="4.051" stroke-linecap="round" stroke-linejoin="round"/>
<path d="M73.771 85.5369L76.461 81.5459" stroke="url(#paint13_linear_63_499)" stroke-width="4.051" stroke-linecap="round" stroke-linejoin="round"/>
<path d="M9.05811 85.5369L11.7481 81.5459" stroke="url(#paint14_linear_63_499)" stroke-width="4.051" stroke-linecap="round" stroke-linejoin="round"/>
<path d="M53.9175 45.0376H64.6945C65.0601 45.0376 65.3317 45.4392 65.1025 45.8052L59.794 54.9995H67.5079C67.9168 54.9995 68.1746 55.4884 67.8618 55.8337L50.4555 76.3307C50.1019 76.7472 49.3995 76.3582 49.6363 75.8015L55.1067 61.2133H46.9237C46.5809 61.2133 46.302 60.855 46.4958 60.4777L53.464 45.3261C53.548 45.1435 53.7286 45.0348 53.9175 45.0376Z" fill="#EC9F00"/>
<path d="M53.9175 45.0376H62.754C63.1195 45.0376 63.3911 45.4392 63.162 45.8052L57.8535 54.9995H59.794H65.5673C65.9762 54.9995 66.2341 55.4884 65.9212 55.8337L50.1676 74.3845L55.1067 61.2133H53.1661H46.9237C46.5809 61.2133 46.302 60.855 46.4958 60.4776L53.464 45.326C53.546 45.1478 53.7334 45.0398 53.9175 45.0376Z" fill="#F3AA00"/>
<path d="M33.4859 55.4947H44.2629C44.6284 55.4947 44.9 55.8963 44.6709 56.2622L39.3624 65.4566H47.0762C47.4852 65.4566 47.743 65.9455 47.4301 66.2908L30.024 86.7877C29.6703 87.2043 28.968 86.8153 29.2048 86.2585L34.6751 71.6704H26.492C26.1492 71.6704 25.8704 71.3121 26.0642 70.9347L33.0323 55.7831C33.1163 55.6006 33.297 55.4919 33.4859 55.4947Z" fill="#EC9F00"/>
<path d="M33.4859 55.4946H42.3223C42.6879 55.4946 42.9595 55.8962 42.7303 56.2622L37.4218 65.4565H39.3624H45.1356C45.5446 65.4565 45.8024 65.9454 45.4896 66.2907L29.7361 84.8415L34.675 71.6703H32.7345H26.492C26.1492 71.6703 25.8704 71.312 26.0642 70.9346L33.0323 55.7831C33.1144 55.6048 33.3018 55.4969 33.4859 55.4946Z" fill="#F3AA00"/>
<path d="M3.92691 58.7958H93.5939C93.5939 58.7958 104.826 45.6038 93.8639 30.4748C82.2339 14.4258 63.1219 27.7428 63.1219 27.7428C63.1219 27.7428 53.8059 10.6628 37.5029 15.3218C21.1999 19.9808 20.4239 34.3418 20.4239 34.3418C20.4239 34.3418 3.38391 33.7928 0.666911 44.0798C-2.05009 54.3668 3.92691 58.7958 3.92691 58.7958Z" fill="url(#paint15_linear_63_499)"/>
<path d="M61.5201 67.3361H88.1411C88.5734 67.3358 88.9982 67.2234 89.3741 67.0099C89.7499 66.7964 90.064 66.489 90.2857 66.1179C90.5073 65.7468 90.6289 65.3245 90.6386 64.8923C90.6483 64.4602 90.5458 64.0328 90.3411 63.6521L77.0321 38.9341C76.0881 37.1821 73.5751 37.1821 72.6301 38.9341L59.3211 63.6521C59.1164 64.0328 59.0139 64.4602 59.0236 64.8923C59.0333 65.3245 59.1549 65.7468 59.3765 66.1179C59.5982 66.489 59.9123 66.7964 60.2881 67.0099C60.664 67.2234 61.0878 67.3358 61.5201 67.3361Z" fill="white" stroke="#FF5F5F" stroke-width="4.155" stroke-linecap="round" stroke-linejoin="round"/>
<rect x="78.7981" y="45.6855" width="7.98596" height="11.2014" transform="rotate(38 78.7981 45.6855)" fill="url(#paint16_linear_63_499)"/>
<circle cx="75" cy="57" r="4" fill="#3F3F3F"/>
</g>
<defs>
<linearGradient id="paint0_linear_63_499" x1="51.4009" y1="0.0760319" x2="50.5519" y2="44.271" gradientUnits="userSpaceOnUse">
<stop stop-color="#EBECED"/>
<stop offset="1" stop-color="#2F3133"/>
</linearGradient>
<linearGradient id="paint1_linear_63_499" x1="8.82309" y1="67.1708" x2="13.5081" y2="67.1708" gradientUnits="userSpaceOnUse">
<stop stop-color="#4D84CE"/>
<stop offset="1" stop-color="#94B7E9" stop-opacity="0.996"/>
</linearGradient>
<linearGradient id="paint2_linear_63_499" x1="26.6151" y1="67.1708" x2="31.3001" y2="67.1708" gradientUnits="userSpaceOnUse">
<stop stop-color="#4D84CE"/>
<stop offset="1" stop-color="#94B7E9" stop-opacity="0.996"/>
</linearGradient>
<linearGradient id="paint3_linear_63_499" x1="44.4081" y1="67.1708" x2="49.0931" y2="67.1708" gradientUnits="userSpaceOnUse">
<stop stop-color="#4D84CE"/>
<stop offset="1" stop-color="#94B7E9" stop-opacity="0.996"/>
</linearGradient>
<linearGradient id="paint4_linear_63_499" x1="62.2" y1="67.1708" x2="66.885" y2="67.1708" gradientUnits="userSpaceOnUse">
<stop stop-color="#4D84CE"/>
<stop offset="1" stop-color="#94B7E9" stop-opacity="0.996"/>
</linearGradient>
<linearGradient id="paint5_linear_63_499" x1="79.993" y1="67.1708" x2="84.678" y2="67.1708" gradientUnits="userSpaceOnUse">
<stop stop-color="#4D84CE"/>
<stop offset="1" stop-color="#94B7E9" stop-opacity="0.996"/>
</linearGradient>
<linearGradient id="paint6_linear_63_499" x1="66.3922" y1="75.745" x2="71.0772" y2="75.745" gradientUnits="userSpaceOnUse">
<stop stop-color="#4D84CE"/>
<stop offset="1" stop-color="#94B7E9" stop-opacity="0.996"/>
</linearGradient>
<linearGradient id="paint7_linear_63_499" x1="50.275" y1="75.745" x2="54.96" y2="75.745" gradientUnits="userSpaceOnUse">
<stop stop-color="#4D84CE"/>
<stop offset="1" stop-color="#94B7E9" stop-opacity="0.996"/>
</linearGradient>
<linearGradient id="paint8_linear_63_499" x1="34.1581" y1="75.745" x2="38.8431" y2="75.745" gradientUnits="userSpaceOnUse">
<stop stop-color="#4D84CE"/>
<stop offset="1" stop-color="#94B7E9" stop-opacity="0.996"/>
</linearGradient>
<linearGradient id="paint9_linear_63_499" x1="18.0411" y1="75.745" x2="22.7261" y2="75.745" gradientUnits="userSpaceOnUse">
<stop stop-color="#4D84CE"/>
<stop offset="1" stop-color="#94B7E9" stop-opacity="0.996"/>
</linearGradient>
<linearGradient id="paint10_linear_63_499" x1="23.2411" y1="85.6029" x2="27.9261" y2="85.6029" gradientUnits="userSpaceOnUse">
<stop stop-color="#4D84CE"/>
<stop offset="1" stop-color="#94B7E9" stop-opacity="0.996"/>
</linearGradient>
<linearGradient id="paint11_linear_63_499" x1="39.419" y1="85.6029" x2="44.104" y2="85.6029" gradientUnits="userSpaceOnUse">
<stop stop-color="#4D84CE"/>
<stop offset="1" stop-color="#94B7E9" stop-opacity="0.996"/>
</linearGradient>
<linearGradient id="paint12_linear_63_499" x1="55.597" y1="85.6029" x2="60.282" y2="85.6029" gradientUnits="userSpaceOnUse">
<stop stop-color="#4D84CE"/>
<stop offset="1" stop-color="#94B7E9" stop-opacity="0.996"/>
</linearGradient>
<linearGradient id="paint13_linear_63_499" x1="71.775" y1="85.6029" x2="76.46" y2="85.6029" gradientUnits="userSpaceOnUse">
<stop stop-color="#4D84CE"/>
<stop offset="1" stop-color="#94B7E9" stop-opacity="0.996"/>
</linearGradient>
<linearGradient id="paint14_linear_63_499" x1="7.06211" y1="85.6029" x2="11.7471" y2="85.6029" gradientUnits="userSpaceOnUse">
<stop stop-color="#4D84CE"/>
<stop offset="1" stop-color="#94B7E9" stop-opacity="0.996"/>
</linearGradient>
<linearGradient id="paint15_linear_63_499" x1="47.1579" y1="14.7358" x2="47.2239" y2="58.2228" gradientUnits="userSpaceOnUse">
<stop stop-color="#D6D8D9"/>
<stop offset="1" stop-color="#737B8E"/>
</linearGradient>
<linearGradient id="paint16_linear_63_499" x1="82.5369" y1="45.9478" x2="83.2042" y2="56.8616" gradientUnits="userSpaceOnUse">
<stop stop-color="#C2C2C2" stop-opacity="0"/>
<stop offset="1" stop-color="#696969"/>
</linearGradient>
<clipPath id="clip0_63_499">
<rect width="100" height="100" fill="white"/>
</clipPath>
</defs>
</svg>
